<?xml version="1.0" encoding="UTF-8" standalone="no"?>
<svg
   xmlns:dc="http://purl.org/dc/elements/1.1/"
   xmlns:cc="http://creativecommons.org/ns#"
   xmlns:rdf="http://www.w3.org/1999/02/22-rdf-syntax-ns#"
   xmlns:svg="http://www.w3.org/2000/svg"
   xmlns="http://www.w3.org/2000/svg"
   xmlns:sodipodi="http://sodipodi.sourceforge.net/DTD/sodipodi-0.dtd"
   xmlns:inkscape="http://www.inkscape.org/namespaces/inkscape"
   version="1.1"
   id="svg2"
   x="0px"
   y="0px"
   viewBox="0 0 165.36775 109.42892"
   xml:space="preserve"
   inkscape:version="0.48.5 r10040"
   width="100%"
   height="100%"
   sodipodi:docname="Bristol_stool_chart_Type_7.svg"><metadata
     id="metadata3183"><rdf:RDF><cc:Work
         rdf:about=""><dc:format>image/svg+xml</dc:format><dc:type
           rdf:resource="http://purl.org/dc/dcmitype/StillImage" /><dc:title></dc:title></cc:Work></rdf:RDF></metadata><defs
     id="defs3181" /><sodipodi:namedview
     pagecolor="#ffffff"
     bordercolor="#666666"
     borderopacity="1"
     objecttolerance="10"
     gridtolerance="10"
     guidetolerance="10"
     inkscape:pageopacity="0"
     inkscape:pageshadow="2"
     inkscape:window-width="1440"
     inkscape:window-height="852"
     id="namedview3179"
     showgrid="false"
     inkscape:zoom="0.79501432"
     inkscape:cx="215.9069"
     inkscape:cy="-27.468821"
     inkscape:window-x="0"
     inkscape:window-y="0"
     inkscape:window-maximized="1"
     inkscape:current-layer="svg2"
     fit-margin-top="0"
     fit-margin-left="0"
     fit-margin-right="0"
     fit-margin-bottom="0" /><style
     type="text/css"
     id="style3105">
	.st0{fill:#fff;}
	.st1{fill:#D9B194;}
	.st2{fill:#D0A27B;}
	.st3{fill:#CB966B;}
	.st4{fill:#C48855;}
	.st5{fill:#BD824F;}
	.st6{fill:#BA7B44;}
	.st7{fill:#AF6B30;}
	.st8{fill:#965624;}
	.st9{fill:#8E4D19;}
	.st10{fill:#7C4116;}
	.st11{fill:#6A3310;}
	.st12{fill:#800000;stroke:#800000;stroke-width:1.2764;}
	.st13{fill:#800000;stroke:#800000;stroke-width:1.2765;}
	.st14{fill:#800000;stroke:#800000;stroke-width:1.2745;}
	.st15{fill:#800000;stroke:#800000;stroke-width:1.2774;}
	.st16{fill:#800000;stroke:#800000;stroke-width:1.2759;}
	.st17{fill:#800000;stroke:#800000;stroke-width:1.2753;}
	.st18{fill:#800000;stroke:#800000;stroke-width:1.4659;}
	.st19{fill:#800000;}
	.st20{font-family:'Arial';}
	.st21{font-size:33px;}
	.st22{font-family:'Arial Bold';}
	.st23{font-size:66px;}
</style><path
     style="fill:#d9b194"
     d="m 32.55946,108.49348 c 2.07616,-0.5678 4.21823,-2.2238 4.44892,-3.3594 0.39545,-2.1765 -0.42842,-2.7915 -2.6364,-1.8926 -1.51592,0.6151 -1.61479,0.047 -0.19773,-0.8989 0.69206,-0.4259 1.64775,-1.3722 2.14207,-2.0346 0.75797,-1.0409 0.92274,-1.6087 0.92274,-3.7852 0,-2.4604 -0.0329,-2.6023 -1.61479,-4.4949 -1.87843,-2.2712 -3.62504,-3.2175 -7.18417,-3.8799 -1.41706,-0.2839 -3.62504,-0.6624 -4.87733,-0.9463 -1.25229,-0.2839 -4.15232,-0.4258 -6.42621,-0.4731 -3.55913,0 -4.44891,0.1419 -6.65689,1.1828 -1.38411,0.6625 -3.03185,1.7034 -3.62504,2.3658 -0.59319,0.6151 -1.84548,1.8453 -2.73526,2.7443 C 1.9773,95.15068 0,97.84758 0,98.65198 c 0,1.3248 1.02161,2.6023 2.47162,3.2174 0.82388,0.3312 2.07616,1.2302 2.80117,1.9399 1.15342,1.1829 1.6807,1.3722 5.00915,1.7507 2.0432,0.2366 4.6796,0.3312 5.86597,0.2839 1.35115,-0.047 2.40571,0.1419 2.83413,0.5204 0.39546,0.3786 1.94434,0.899 3.46026,1.1829 1.51593,0.2839 3.72391,0.7097 4.91028,0.9463 2.47162,0.5678 3.26254,0.5205 5.20688,0 l 0,0 z"
     id="path5986"
     inkscape:connector-curvature="0" /><path
     style="fill:#d9b194"
     d="m 95.70108,107.97298 c 4.11937,-0.3785 7.18417,-1.1828 8.89783,-2.2711 0.72501,-0.4731 2.37275,-1.0882 3.62504,-1.3721 7.18417,-1.6087 8.89783,-2.0819 12.02855,-3.4067 1.91138,-0.8044 4.35005,-1.9872 5.43756,-2.6496 4.35005,-2.6497 6.55803,-9.0845 4.87733,-14.0999 -0.49433,-1.4668 -0.49433,-1.7507 -0.0989,-2.1292 0.26364,-0.2366 0.88978,-0.4259 1.35115,-0.4259 0.82387,0 5.10801,-2.8862 5.53643,-3.6905 0.46137,-0.9463 2.0432,-1.8926 3.95459,-2.4131 1.18637,-0.3312 2.96594,-0.8517 3.95459,-1.2302 0.98865,-0.3785 2.7023,-0.899 3.78981,-1.2302 4.9762,-1.4194 11.60013,-5.0627 14.00584,-7.665 1.28524,-1.3722 2.30685,-4.1638 2.30685,-6.1983 0,-2.0819 -1.02161,-4.8262 -1.9773,-5.252 -0.3625,-0.1419 -1.05456,-0.757 -1.54888,-1.3721 -0.49432,-0.5678 -2.0432,-1.8926 -3.46027,-2.9336 -1.74661,-1.2775 -2.63639,-2.1765 -2.73525,-2.8862 -0.26364,-1.5614 -1.12047,-2.4131 -2.93299,-2.8862 -3.95459,-1.1356 -6.62394,-2.0819 -6.85462,-2.4131 -0.13182,-0.1892 0.0989,-1.0409 0.59318,-1.798 1.02161,-1.7506 1.05456,-2.0345 0.0989,-3.312 -0.95569,-1.2775 -3.69095,-2.2711 -8.13986,-2.9335 -1.91139,-0.2839 -3.658,-0.6151 -3.92164,-0.7571 -0.29659,-0.1419 0.19773,-1.1355 1.58184,-2.9808 1.74661,-2.4131 2.0432,-3.0282 2.0432,-4.495 0,-0.9463 -0.29659,-2.6969 -0.6591,-3.8325 -0.39546,-1.2302 -0.62614,-2.8389 -0.59319,-3.8798 0.0989,-1.7507 0.0989,-1.7507 -2.43866,-3.5487 -1.38411,-0.9936 -3.32845,-1.9872 -4.28414,-2.2238 -0.95569,-0.2365 -2.86708,-0.757 -4.21823,-1.1829 -5.27279,-1.5612999 -11.66604,-2.1763999 -25.24346,-2.4602999 -15.88427,-0.3312 -18.65249,0 -29.13215,3.3592999 -1.91139,0.6151 -3.98755,1.4668 -4.61369,1.8453 -0.62614,0.4259 -2.24093,0.9936 -3.62504,1.2302 -1.35115,0.2839 -4.0205,0.8044 -5.93189,1.1829 -1.91138,0.3785 -4.41595,1.2302 -5.56938,1.8926 -1.15342,0.6624 -2.24093,1.1829 -2.40571,1.1829 -0.75796,0 -5.17392,3.312 -5.43756,4.0691 -0.16477,0.4731 -0.39546,1.7979 -0.52728,2.8862 l -0.19773,1.9872 2.73526,2.8389 c 1.48297,1.5614 3.06481,3.1701 3.46027,3.596 0.39546,0.4258 0.75796,1.1829 0.75796,1.7033 0,1.6561 1.41706,1.1356 2.14207,-0.757 0.62615,-1.656 0.69206,-1.656 2.47162,-1.6087 3.49322,0.1892 3.62504,0.4258 1.6807,3.5959 -0.72501,1.1829 -1.3182,2.4131 -1.3182,2.697 0,1.3721 -4.25118,2.2238 -6.0637,1.2302 -0.46137,-0.2366 -1.08751,-1.1829 -1.38411,-2.1292 l -0.56023,-1.656 -2.3398,0.2839 c -2.30684,0.2365 -12.29218,3.0281 -14.20357,3.9744 -1.81252,0.8517 -7.57963,2.8389 -8.96374,3.0282 -0.75796,0.1419 -2.0432,0.6624 -2.80116,1.1829 -1.48297,0.9936 -3.09777,1.7979 -4.58074,2.2238 -0.72501,0.1892 -1.21933,1.1355 -2.60344,4.8734 -0.95569,2.555 -2.20797,5.394 -2.83412,6.3876 -0.82387,1.3248 -1.05456,2.0818 -0.92274,2.8862 0.13182,0.7097 0,1.3248 -0.32955,1.7033 -0.29659,0.3312 -0.52727,0.899 -0.52727,1.2302 0,1.798 -2.14207,2.7916 -3.09777,1.3722 -0.62614,-0.899 -1.0216,-0.142 -0.725,1.4667 0.16477,0.8517 0.75796,1.5614 2.24093,2.555 3.72391,2.5077 7.51372,4.7316 8.13986,4.7316 0.32955,0 2.07616,0.5677 3.85573,1.2301 1.77957,0.6625 3.92163,1.4195 4.74551,1.6561 1.91138,0.5204 8.99669,1.3248 13.84106,1.6087 4.64665,0.2839 7.18417,0.6624 7.3819,1.1356 0.0989,0.1892 -0.79091,1.2775 -1.97729,2.413 -2.37275,2.2238 -3.75686,4.353 -3.75686,5.6778 0,1.3249 0.88978,1.5614 1.12047,0.2839 0.0989,-0.6151 0.725,-1.5614 1.3841,-2.1292 1.9773,-1.7033 2.76822,-0.3785 1.38411,2.3185 -0.62614,1.1829 -0.6591,1.5614 -0.32955,2.7443 0.95569,3.3593 4.28414,6.6714 8.10691,8.1382 0.56023,0.1892 2.10911,0.8043 3.46027,1.3248 5.56938,2.1765 9.88647,3.0281 15.98313,3.1701 6.62394,0.1893 7.81032,0.3785 9.22738,1.6087 1.84547,1.5141 10.21602,2.4131 17.66383,1.7033 l 0,0 z"
     id="path5984"
     inkscape:connector-curvature="0" /><path
     style="fill:#d9b194"
     d="m 52.43128,89.33088 c -1.3182,-1.3248 -0.72501,-5.2047 0.98864,-6.3402 1.21934,-0.8044 1.71366,-3.1228 1.28525,-6.0564 -0.23069,-1.514 -0.49433,-1.9399 -1.81252,-2.8389 -2.6364,-1.7979 -2.40571,-3.5486 0.42841,-3.312 1.38411,0.095 1.48297,0.2366 1.6807,1.656 0.29659,2.0819 0.82387,2.8389 2.3398,3.5013 1.81252,0.8044 2.10911,1.8926 1.58184,6.1983 -0.56024,4.5896 -0.82388,5.2993 -2.43867,6.3875 -2.47162,1.7507 -2.9989,1.8926 -4.05345,0.8044 l 0,0 z"
     id="path5982"
     inkscape:connector-curvature="0" /><path
     style="fill:#d9b194"
     d="m 112.40923,81.38198 c -0.0659,-0.4732 0.13182,-1.2302 0.39545,-1.7034 0.36251,-0.5678 0.42842,-0.9463 0.16478,-1.3248 -0.19773,-0.2839 -0.29659,-0.9936 -0.23069,-1.5614 0.0989,-0.899 0.32955,-1.0882 1.51593,-1.1356 0.79092,-0.047 1.48297,0.047 1.58184,0.2366 0.0989,0.1893 -0.23069,0.9463 -0.69206,1.656 -0.79091,1.2302 -0.82387,1.3722 -0.26364,1.94 0.32955,0.3312 0.69206,0.6151 0.85683,0.6151 0.6591,0 0.16478,1.2775 -0.62614,1.7506 -1.35115,0.8044 -2.57048,0.5678 -2.7023,-0.4731 l 0,0 z"
     id="path5980"
     inkscape:connector-curvature="0" /><path
     style="fill:#d9b194"
     d="m 112.9365,47.17308 c -0.69205,-0.6624 -1.25228,-1.4194 -1.25228,-1.656 0,-0.2366 -0.32955,-0.8043 -0.72501,-1.3248 -0.79092,-1.0882 -0.62614,-1.656 0.92274,-2.9335 1.0216,-0.8517 2.40571,-0.4732 2.40571,0.7097 0,0.3785 0.59318,1.7033 1.31819,2.9808 1.48297,2.6024 1.54888,2.8389 0.75797,3.1702 -1.3182,0.4731 -2.24094,0.2365 -3.42732,-0.9464 l 0,0 z"
     id="path5978"
     inkscape:connector-curvature="0" /><path
     style="fill:#d9b194"
     d="m 126.41507,44.61808 c -0.69206,0.047 -1.58184,-0.1892 -1.9773,-0.5204 -0.39546,-0.3312 -1.84547,-0.6624 -3.19663,-0.7571 -2.10911,-0.1892 -2.60343,-0.3785 -3.39435,-1.4194 -0.49433,-0.6624 -0.92274,-1.4195 -0.92274,-1.6561 0,-0.8043 2.73526,-2.2238 3.32845,-1.7506 0.3625,0.2839 0.88978,0.2839 1.41706,0 0.46137,-0.2366 1.31819,-0.4258 1.91138,-0.3785 0.59319,0.047 1.81252,-0.1893 2.73526,-0.5205 2.30684,-0.8044 11.86377,-1.4668 13.11606,-0.9463 0.56023,0.2366 1.6807,0.4258 2.43866,0.4258 1.58184,0 1.6807,0.2366 0.72501,1.4668 -0.56023,0.7097 -0.82387,0.757 -1.51593,0.3312 -0.69205,-0.4731 -0.88978,-0.4258 -1.28524,0.3785 -0.26364,0.4732 -0.46137,1.1829 -0.46137,1.5614 0,0.9936 -1.97729,0.3312 -2.53753,-0.8516 -0.59318,-1.2302 -1.58183,-1.1829 -2.30684,0.047 -0.32955,0.5204 -1.12047,1.3248 -1.77957,1.7033 -0.79091,0.4732 -1.15342,0.9463 -1.0216,1.3722 0.42842,1.5613 -0.13182,2.0345 -2.10911,1.7979 -1.05456,-0.2366 -2.47162,-0.2839 -3.16367,-0.2839 l 0,0 z"
     id="path5976"
     inkscape:connector-curvature="0" /><path
     style="fill:#d9b194"
     d="m 118.34111,22.99508 c -0.13182,-0.6151 1.48297,-1.3721 1.84548,-0.8516 0.29659,0.4258 -0.92274,1.7506 -1.38411,1.514 -0.16477,-0.047 -0.3625,-0.3785 -0.46137,-0.6624 z"
     id="path5974"
     inkscape:connector-curvature="0" /><path
     style="fill:#d9b194"
     d="m 67.19508,23.13708 c 0,-0.5205 1.3182,-1.1829 1.81252,-0.899 0.42841,0.2366 0.46137,0.3785 0.0989,0.7097 -0.46136,0.4259 -1.91138,0.5678 -1.91138,0.1893 z"
     id="path5972"
     inkscape:connector-curvature="0" /><path
     style="fill:#d9b194"
     d="m 52.03582,38.51448 c 0,-0.2839 -0.23069,-0.4732 -0.49433,-0.4732 -0.26364,0 -0.49432,0.1893 -0.49432,0.4732 0,0.2839 0.23068,0.4731 0.49432,0.4731 0.26364,0 0.49433,-0.2365 0.49433,-0.4731 z"
     id="path5970"
     inkscape:connector-curvature="0" /><path
     style="fill:#d9b194"
     d="m 68.67805,6.4348801 c 2.86708,-0.1893 9.75466,-2.7916 10.21603,-3.8799 0.0659,-0.1419 -0.13182,-0.8043 -0.46137,-1.4194 L 77.83952,-1.9853491e-5 74.60994,0.80438015 C 69.04055,2.2237801 68.11782,2.5076801 67.16212,3.0754801 c -0.62614,0.3785 -1.87843,0.4258 -3.65799,0.2366 -2.24094,-0.2366 -2.83412,-0.1893 -3.16367,0.4258 -0.2966,0.5205 -0.32955,0.899 -0.0659,1.2302 0.3625,0.6624 5.93188,1.6087 8.4035,1.4668 z"
     id="path5968"
     inkscape:connector-curvature="0" /><path
     style="fill:#d0a27b"
     d="m 30.1208,109.15588 c 3.39435,-0.757 2.7023,-1.3721 -1.51593,-1.2775 -5.33869,0.095 -6.29439,0.899 -1.74661,1.5141 0.79092,0.095 2.27389,0 3.26254,-0.2366 z"
     id="path5934"
     inkscape:connector-curvature="0" /><path
     style="fill:#d0a27b"
     d="m 94.05334,108.73008 c 4.28414,-0.3785 4.91028,-0.5678 7.90918,-2.0819 1.18637,-0.6151 3.62504,-1.3721 5.43756,-1.656 6.59098,-1.1356 13.37969,-3.5486 16.70814,-5.9617 1.41706,-1.0409 2.9989,-3.3594 4.38301,-6.4349 0.69205,-1.5614 0.49432,-3.4066 -0.62615,-5.7724 -0.42841,-0.899 -0.82387,-2.1292 -0.88978,-2.7443 -0.0989,-0.8516 -0.46137,-1.2302 -1.58184,-1.7033 -0.82387,-0.3312 -2.30684,-1.1356 -3.29549,-1.7507 -1.54888,-0.9463 -1.84547,-1.3721 -2.0432,-2.6969 -0.13182,-0.8517 -0.16478,-1.8926 -0.0659,-2.3658 0.19773,-1.0409 2.3398,-1.5614 3.88868,-0.9463 0.62614,0.2366 1.21933,0.3785 1.28524,0.2839 0.0659,-0.095 0.62614,-0.2839 1.21933,-0.4258 0.62614,-0.142 1.21933,-0.3786 1.35115,-0.5205 0.13182,-0.142 0.6591,0 1.15342,0.2839 0.82388,0.4731 0.85683,0.5205 0.36251,1.3248 -1.21933,1.9399 -0.59319,2.3184 3.42731,2.1292 4.18527,-0.2366 12.78651,-2.2711 17.79565,-4.2584 2.66935,-1.0882 8.86488,-4.8261 10.44671,-6.3402 1.64775,-1.6087 2.90004,-4.8734 2.57049,-6.7661 -0.13182,-0.6624 -0.62615,-1.7033 -1.12047,-2.2711 -1.94434,-2.2711 -6.82167,-6.3875 -8.4035,-7.0972 -2.96595,-1.3722 -18.78431,-2.1292 -20.33319,-0.9937 -1.51592,1.1356 -8.23873,0.4732 -11.36944,-1.0882 -1.05456,-0.5205 -1.54889,-0.5678 -2.07616,-0.1893 -1.02161,0.8044 -0.82388,1.7507 0.42841,2.0819 0.62614,0.1419 1.9773,0.899 3.06481,1.656 1.48297,1.041 7.71145,3.3594 9.0626,3.3594 0.13182,0 0.46137,0.3312 0.75796,0.757 0.46137,0.6624 0.46137,0.8517 -0.16477,2.1292 -0.52728,1.0883 -0.85683,1.3248 -1.48297,1.0883 -0.9557,-0.3312 -1.12047,0.899 -0.23069,1.656 0.49433,0.4258 0.52728,0.5678 0.0989,0.9463 -0.85683,0.8044 -1.9773,0.5678 -1.9773,-0.4258 0,-0.8044 -0.59319,-1.4668 -1.35115,-1.4668 -0.16477,0 -0.29659,0.5678 -0.29659,1.2302 0,1.2302 -0.033,1.2302 -0.82388,0.4731 -0.6591,-0.6151 -0.95569,-0.6624 -1.45001,-0.1892 -0.52728,0.4731 -0.79092,0.4258 -1.51593,-0.2839 -0.6591,-0.6151 -0.98865,-0.7097 -1.25229,-0.3312 -0.52727,0.757 -1.97729,0.6624 -2.73525,-0.1893 -0.42842,-0.4731 -1.48298,-0.7097 -3.16368,-0.7097 -2.07616,0 -2.66934,-0.1893 -3.46026,-1.0409 -0.52728,-0.5678 -0.98865,-1.0883 -1.05456,-1.1356 -0.3625,-0.3312 0.49432,-1.6087 1.15342,-1.7033 1.41706,-0.2366 1.21933,-1.2302 -0.56023,-2.6024 -0.92274,-0.7097 -2.07616,-1.798 -2.57048,-2.3657 -0.72501,-0.8517 -1.28525,-1.041 -2.93299,-1.0883 -1.74661,0 -2.10912,-0.1419 -2.43867,-0.9936 -0.56023,-1.4668 0.23069,-4.5896 1.41707,-5.5832 0.95569,-0.8043 1.08751,-1.2775 0.62614,-2.3657 -0.16478,-0.3786 -0.0989,-1.1356 0.16477,-1.8926 0.23069,-0.6624 0.52728,-1.6087 0.62615,-2.0819 0.0989,-0.4732 0.46137,-0.8517 0.82387,-0.8517 0.3625,0 1.05456,-0.3312 1.58184,-0.6624 0.52727,-0.3312 1.15342,-0.8043 1.41706,-0.9463 0.26364,-0.1419 0.72501,-0.4258 0.98864,-0.6624 0.26364,-0.2366 0.79092,-0.6151 1.15343,-0.899 1.61479,-1.1829 0.49432,-9.1318 -1.3182,-9.1318 -0.75796,0 -4.11936,-3.454 -4.11936,-4.211 0,-0.2366 0.23068,-0.6625 0.49432,-0.9937 0.98865,-1.1828 7.77736,0.5678 8.20577,2.1292 0.23069,0.899 0.85683,0.899 0.85683,-0.047 0,-0.9936 1.18638,-0.899 1.94434,0.1893 0.32955,0.4731 1.08751,1.0409 1.6807,1.2302 0.95569,0.2838 1.0216,0.4258 0.82387,1.8452 -0.26363,1.798 -0.42841,2.2239 -0.82387,2.2239 -0.16477,0 -0.69205,0.3312 -1.12047,0.757 -0.65909,0.6151 -0.75796,0.899 -0.46136,1.7033 0.46136,1.2776 0.0989,3.3121 -0.59319,3.1228 -0.2966,-0.095 -0.59319,0.095 -0.6591,0.3786 -0.0659,0.2839 0.39546,0.5204 1.05456,0.5677 1.45001,0.047 1.81252,0.5205 1.05455,1.3249 -0.92273,0.9463 -3.55913,1.4194 -3.88868,0.6624 -0.39546,-0.9463 -0.3625,-1.3248 0.19773,-1.3248 0.26364,0 0.49433,-0.2839 0.49433,-0.6625 0,-1.1828 -0.69206,-1.3248 -1.35115,-0.2838 -0.36251,0.5677 -0.82388,0.8516 -1.02161,0.7097 -0.19773,-0.1893 -0.26364,-0.095 -0.13182,0.1892 0.13182,0.2839 -0.0659,0.899 -0.39546,1.3722 -0.95569,1.3248 -1.31819,2.6023 -1.12046,4.211 0.16477,1.4195 0.19773,1.4668 1.25228,1.1356 0.59319,-0.1893 1.51593,-0.8044 1.9773,-1.3722 0.95569,-1.0882 2.10911,-1.3248 2.63639,-0.5204 0.23069,0.3312 1.25229,0.1419 3.13072,-0.5205 1.51593,-0.5678 4.18527,-1.1356 5.89893,-1.3248 l 3.13072,-0.2839 -0.0989,-1.2775 c -0.0989,-1.0409 0.19773,-1.5614 1.71366,-3.2174 2.60344,-2.7916 3.09776,-4.5423 1.87843,-6.7188 l -0.62615,-1.1355 -0.725,0.9463 -0.72501,0.9463 0.23068,-1.4668 c 0.16478,-1.0883 0.033,-1.8926 -0.46137,-3.0755 -0.3625,-0.8517 -0.69205,-1.9399 -0.69205,-2.3184 0,-1.041 -1.28524,-2.6024 -2.47162,-2.9809 -0.52728,-0.1892 -1.74661,-0.7097 -2.63639,-1.2302 -2.43867,-1.3721 -7.08531,-2.6969 -11.36945,-3.2647 -4.97619,-0.6624 -16.7411,-1.4195 -19.4434,-1.1829 -1.15342,0.095 -4.25118,0.2839 -6.82167,0.4258 -4.383,0.2839 -5.99779,0.5678 -9.45806,1.7507 -1.58183,0.5205 -6.52507,1.4195 -7.87622,1.3721 -0.52728,0 -1.6807,0.5205 -2.57049,1.1356 -0.88978,0.6624 -2.07616,1.1829 -2.66935,1.1829 -0.56023,0 -1.64774,0.1892 -2.37275,0.4258 -1.51593,0.4732 -2.86708,0.8044 -5.43756,1.2302 -4.18527,0.7097 -9.75466,2.697 -12.35809,4.4949 -0.72501,0.4732 -1.87843,1.2302 -2.57049,1.6088 -1.25228,0.7097 -1.48297,1.3721 -0.92274,2.6023 0.19773,0.4731 0.13182,0.9463 -0.23068,1.5141 -0.6591,1.0409 -0.23068,1.9399 1.6807,3.2647 0.72501,0.5205 1.71366,1.2775 2.17503,1.656 0.46136,0.3786 1.12046,0.5678 1.48297,0.4732 0.3625,-0.142 1.54888,-0.5205 2.60344,-0.8517 1.71365,-0.5678 1.97729,-0.8043 2.20797,-1.9399 0.2966,-1.6087 3.09777,-5.7251 4.41596,-6.4822 0.52728,-0.3312 1.48297,-0.6151 2.10912,-0.7097 13.80811,-1.3721 16.34564,-1.2775 14.50016,0.6151 -0.46137,0.4732 -1.18638,1.0409 -1.64774,1.2302 -1.74661,0.8517 -7.18418,2.3184 -9.29329,2.5077 -2.07616,0.2366 -2.24094,0.3312 -3.09776,1.9872 -0.49433,0.9463 -1.25229,2.2238 -1.71366,2.8389 -0.62614,0.8517 -0.75796,1.4195 -0.59319,2.4604 0.16478,1.0883 0.033,1.5614 -0.62614,2.3185 -1.21933,1.3721 -2.14207,3.2174 -2.63639,5.2046 -0.39546,1.656 -0.49433,1.7507 -2.01025,1.8453 -1.81252,0.142 -7.48077,-0.6624 -9.65579,-1.3248 -0.98865,-0.2839 -2.43867,-0.2839 -4.28414,0.047 -1.54889,0.2839 -3.46027,0.4732 -4.25119,0.4732 -0.79092,0 -1.91138,0.2838 -2.47162,0.7097 -0.95569,0.7097 -7.41485,2.9335 -9.58988,3.312 -1.15342,0.1893 -3.98754,1.94 -4.28414,2.6497 -0.0989,0.2366 -0.42841,0.4731 -0.69205,0.4731 -0.26364,0 -0.88978,0.3786 -1.38411,0.8517 -0.49432,0.4732 -1.45001,0.8517 -2.17502,0.8517 -0.92274,0 -1.38411,0.2366 -1.64775,0.899 -0.19773,0.5204 -1.15342,2.413 -2.10911,4.211 -1.25229,2.4131 -1.71366,3.596 -1.58184,4.353 0.0989,0.5678 -0.0329,1.4194 -0.29659,1.9399 -0.26364,0.5205 -0.49433,1.2775 -0.49433,1.7507 0,0.4731 -0.39545,1.0409 -0.82387,1.2775 -0.42841,0.2366 -0.82387,0.6624 -0.82387,0.899 0,0.2365 -0.36251,1.0882 -0.82387,1.8453 -0.62615,1.0409 -0.72501,1.514 -0.42842,1.9399 0.19773,0.2839 0.52728,0.5678 0.72501,0.5678 0.19773,0 0.75796,0.3312 1.28524,0.7097 2.30685,1.7033 5.76711,3.0755 10.15012,4.0218 2.60343,0.5677 4.94323,1.0882 5.20687,1.2302 0.26364,0.1419 2.3398,0.4731 4.61369,0.7097 2.27389,0.2839 4.81142,0.5678 5.63529,0.6624 0.82387,0.095 3.62504,0.4258 6.26144,0.7097 2.63639,0.2839 4.94323,0.7571 5.17392,0.9936 0.49432,0.5678 1.08751,0.142 1.08751,-0.8043 0,-0.4259 0.3625,-0.6624 0.98865,-0.6624 0.56023,0 0.98865,-0.1893 0.98865,-0.4259 0,-0.6151 1.51592,-0.899 2.10911,-0.4258 0.39546,0.3312 0.52728,0.2366 0.52728,-0.3312 0,-2.697 -2.3398,-4.353 -7.0194,-4.9681 -3.46026,-0.4258 -4.77846,-1.1829 -2.80117,-1.6087 5.86598,-1.2775 14.10471,-1.656 15.95018,-0.757 1.84548,0.8989 2.01025,1.2301 1.02161,2.1291 -1.15343,1.0883 -1.08752,2.0819 0.13182,2.4131 0.56023,0.1419 1.15342,0.7097 1.35115,1.1829 0.52728,1.4194 0.39546,7.0026 -0.26364,10.0781 -0.56024,2.6496 -0.75797,2.9808 -2.66935,4.7788 -1.77957,1.7034 -2.27389,1.9399 -3.46027,1.7507 -0.75796,-0.095 -1.97729,-0.2366 -2.7023,-0.2839 -1.18638,-0.095 -1.35115,-0.2839 -1.64775,-1.656 -0.29659,-1.3722 -0.42841,-1.5614 -1.58183,-1.5614 -0.95569,0 -1.51593,0.3312 -2.24094,1.3721 -0.52728,0.757 -0.95569,1.7507 -0.95569,2.2711 0.033,1.8453 1.18638,4.1638 2.73526,5.5359 1.97729,1.7507 8.83192,4.3057 13.67629,5.1573 4.31709,0.7098 10.24898,0.5678 10.7433,-0.2839 0.75797,-1.3721 1.91139,-1.7506 5.20688,-1.7033 1.84547,0 3.95459,0.047 4.6796,0 0.72501,0 1.6807,0.1893 2.14207,0.4258 0.46137,0.2366 1.3841,0.5678 2.07616,0.7571 1.18637,0.2839 1.25228,0.3312 0.72501,1.1829 -0.49433,0.8043 -0.49433,0.8989 0,1.1355 0.75796,0.4259 0.26363,1.2302 -0.72501,1.2302 -1.05456,0 -0.88979,1.0409 0.23068,1.4668 0.88978,0.1892 4.81142,0.1892 9.75466,-0.2839 l 0,0 z"
     id="path5932"
     inkscape:connector-curvature="0" /><path
     style="fill:#d0a27b"
     d="m 55.79268,98.55728 c -0.2966,-0.3785 -0.75796,-0.6624 -1.0216,-0.6624 -0.72501,0 -0.98865,-0.5204 -0.56024,-1.2775 0.56024,-0.9936 1.21933,-0.757 2.24094,0.8044 0.725,1.1355 1.08751,1.3721 1.74661,1.1355 0.56023,-0.1892 0.95569,-0.047 1.28524,0.5205 0.42841,0.7571 0.32955,0.7571 -1.35115,0.4732 -0.98865,-0.1893 -2.04321,-0.6624 -2.3398,-0.9937 z"
     id="path5930"
     inkscape:connector-curvature="0" /><path
     style="fill:#d0a27b"
     d="m 123.38321,90.60838 c 0,-0.095 0.23069,-0.3312 0.52728,-0.4731 0.2966,-0.142 0.42842,-0.095 0.2966,0.1892 -0.19773,0.4259 -0.82388,0.6624 -0.82388,0.2839 l 0,0 z"
     id="path5928"
     inkscape:connector-curvature="0" /><path
     style="fill:#d0a27b"
     d="m 109.37737,87.10708 c -0.26364,-0.9463 -0.59319,-4.6842 -0.62614,-7.6177 -0.033,-2.0346 0,-2.0819 1.28524,-2.697 0.72501,-0.3312 1.74661,-0.757 2.24094,-0.899 0.56023,-0.1892 1.0216,-0.7097 1.21933,-1.4194 0.26364,-1.041 0.49432,-1.1829 2.0432,-1.1356 1.6807,0.047 1.71366,0.047 0.98865,0.757 -0.98865,0.9937 -0.92274,1.6088 0.16477,1.4668 1.9773,-0.1893 2.73526,0.047 2.73526,0.9463 0,0.899 -0.6591,1.5141 -2.76821,2.5077 -1.6807,0.8044 -1.81252,1.5141 -0.59319,3.1228 0.88978,1.1829 1.91139,4.6842 1.54888,5.2047 -0.0989,0.1419 -0.46137,-0.1893 -0.82387,-0.6624 -0.59319,-0.8044 -0.85683,-0.8044 -3.06481,-0.2839 -1.31819,0.3312 -2.60344,0.757 -2.86708,0.9936 -0.75796,0.7097 -1.21933,0.6151 -1.48297,-0.2839 l 0,0 z"
     id="path5926"
     inkscape:connector-curvature="0" /><path
     style="fill:#d0a27b"
     d="m 117.94565,66.61968 c 0,-0.9937 0.95569,-0.8517 1.08751,0.1892 0.0989,0.6151 -0.0329,0.8044 -0.49432,0.7097 -0.32955,-0.095 -0.59319,-0.4731 -0.59319,-0.8989 z"
     id="path5924"
     inkscape:connector-curvature="0" /><path
     style="fill:#d0a27b"
     d="m 49.13579,63.16568 c -0.59319,-0.3313 -1.25229,-1.1829 -1.51593,-1.8453 -0.42842,-1.1356 -0.39546,-1.3249 0.75796,-2.7443 0.6591,-0.8517 1.18638,-1.798 1.18638,-2.1292 0,-0.3312 0.23068,-1.3721 0.56023,-2.2711 0.59319,-1.798 2.6364,-3.2174 4.64665,-3.2648 1.31819,0 1.64774,0.4259 1.18637,1.4668 -0.19773,0.4732 -0.46137,1.7034 -0.59319,2.8389 -0.19773,1.656 -0.3625,1.9872 -0.98864,1.9872 -0.42842,0 -0.85683,0.3313 -0.9557,0.7098 -0.0989,0.3785 -0.39545,0.7097 -0.65909,0.7097 -0.88979,0 -1.51593,1.3248 -1.18638,2.6023 0.23068,0.8517 0.16477,1.3249 -0.19773,1.8926 -0.6591,0.8517 -0.88978,0.8517 -2.24093,0.047 l 0,0 z"
     id="path5922"
     inkscape:connector-curvature="0" /><path
     style="fill:#d0a27b"
     d="m 52.53014,62.92908 c 0,-0.2366 0.23069,-0.5678 0.49433,-0.7097 0.29659,-0.1893 0.49432,0 0.49432,0.4258 0,0.3785 -0.23069,0.7097 -0.49432,0.7097 -0.26364,0 -0.49433,-0.1892 -0.49433,-0.4258 z"
     id="path5920"
     inkscape:connector-curvature="0" /><path
     style="fill:#d0a27b"
     d="m 44.81869,61.17838 c -0.29659,-0.1419 -0.42841,-0.4731 -0.32955,-0.7097 0.19773,-0.4732 1.15342,-0.047 1.15342,0.5678 -0.0329,0.4731 -0.13182,0.5204 -0.82387,0.1419 z"
     id="path5918"
     inkscape:connector-curvature="0" /><path
     style="fill:#d0a27b"
     d="m 134.25834,57.15658 c 0,-0.2839 0.16477,-0.3785 0.32954,-0.1892 0.16478,0.1892 0.32955,0.3785 0.32955,0.5204 0,0.095 -0.16477,0.1893 -0.32955,0.1893 -0.16477,0 -0.32954,-0.2366 -0.32954,-0.5205 z"
     id="path5916"
     inkscape:connector-curvature="0" /><path
     style="fill:#d0a27b"
     d="m 21.71729,106.83748 c 2.90004,-0.4258 7.87623,-2.1292 9.02965,-3.0282 0.46137,-0.3785 1.25229,-0.899 1.74661,-1.1355 0.59319,-0.2839 1.18638,-1.2775 1.71366,-2.8389 0.85683,-2.4604 0.69205,-3.5487 -0.32955,-1.94 -0.46137,0.7571 -1.0216,0.9463 -2.60344,0.9463 -2.07616,0 -2.80117,-0.5204 -2.80117,-1.9872 0,-0.4731 -0.32955,-1.2775 -0.75796,-1.8453 -0.72501,-0.9936 -0.72501,-0.9936 -0.0989,-1.656 0.49433,-0.5205 0.52728,-0.7097 0.16478,-0.8517 -0.26364,-0.095 -1.28524,-0.5678 -2.30685,-1.0409 -2.20797,-0.9936 -9.62283,-1.1829 -12.48991,-0.3312 -3.55913,1.0882 -6.3603,2.3657 -7.21713,3.3593 -0.46136,0.5678 -1.3841,1.5141 -2.0432,2.1292 -1.94434,1.8926 -2.3398,2.555 -1.94434,3.6433 0.32955,0.899 3.22958,3.2174 4.91028,3.9745 0.46137,0.1892 1.18638,0.757 1.64775,1.2301 0.6591,0.7098 1.6807,0.9464 5.10801,1.1356 2.37275,0.142 4.64664,0.3312 5.10801,0.3785 0.46137,0.047 1.91139,0.047 3.16367,-0.1419 l 0,0 z"
     id="path5914"
     inkscape:connector-curvature="0" /><path
     style="fill:#d0a27b"
     d="m 49.16874,84.93058 c 0.79092,-1.2302 0.92274,-2.2238 0.29659,-2.2238 -0.85682,0 -3.19662,1.9399 -3.19662,2.6023 0,1.1829 2.07616,0.9463 2.90003,-0.3785 z"
     id="path5912"
     inkscape:connector-curvature="0" /><path
     style="fill:#d0a27b"
     d="m 145.62778,45.84828 c -0.0989,-0.2839 -0.59319,-0.4731 -1.08751,-0.4258 -0.79092,0.047 -0.82387,0.095 -0.23068,0.4258 0.92273,0.5678 1.58183,0.5678 1.31819,0 z"
     id="path5910"
     inkscape:connector-curvature="0" /><path
     style="fill:#d0a27b"
     d="m 142.89252,44.47618 c -0.26364,-0.2366 -0.3625,-0.8044 -0.23068,-1.4195 0.16477,-0.8043 0.0989,-0.9463 -0.29659,-0.7097 -0.6591,0.3785 -0.6591,1.8926 0,2.2711 0.75796,0.3786 1.0216,0.3312 0.52727,-0.1419 z"
     id="path5908"
     inkscape:connector-curvature="0" /><path
     style="fill:#d0a27b"
     d="m 58.79158,30.23428 c 0,-0.2838 -0.16478,-0.4731 -0.32955,-0.4731 -0.16478,0 -0.32955,0.1893 -0.32955,0.4731 0,0.2839 0.16477,0.4732 0.32955,0.4732 0.16477,0 0.32955,-0.2366 0.32955,-0.4732 z"
     id="path5906"
     inkscape:connector-curvature="0" /><path
     style="fill:#d0a27b"
     d="m 68.67805,7.4757801 c 3.78982,-0.6624 6.39325,-2.3658 4.15232,-2.7443 -0.92274,-0.1419 -7.97509,1.656 -8.60123,2.1765 -0.39546,0.3312 0.75796,0.9936 1.61479,0.9463 0.39546,0 1.64774,-0.1893 2.83412,-0.3785 l 0,0 z"
     id="path5904"
     inkscape:connector-curvature="0" /><path
     style="fill:#cb966b"
     d="m 21.55252,105.55998 c 4.48187,-0.4732 8.43646,-2.2238 9.58988,-4.2111 0.39546,-0.7097 0.19773,-0.8516 -1.81252,-1.3248 -0.92274,-0.2366 -1.41706,-0.6624 -1.81252,-1.7033 -0.29659,-0.7571 -0.72501,-1.3722 -0.92274,-1.3722 -0.19773,0 -0.56023,-0.3312 -0.75796,-0.6624 -0.19773,-0.3312 -0.85683,-0.757 -1.45002,-0.8517 -1.05455,-0.1419 -1.21933,-0.7097 -0.85683,-2.7442 0.0989,-0.4732 -0.0659,-0.6624 -0.52727,-0.5205 -0.36251,0.095 -1.25229,0.142 -1.94434,0.142 -0.92274,-0.047 -1.51593,0.2365 -2.07616,0.9936 -0.92274,1.2302 -0.98865,1.9872 -0.13182,1.5614 0.3625,-0.142 0.725,-0.095 0.82387,0.1892 0.29659,0.7098 -0.29659,1.041 -1.41706,0.7098 -0.85683,-0.2366 -0.95569,-0.4259 -0.69206,-1.1829 0.32955,-0.899 0.2966,-0.9463 -0.75796,-1.0883 -0.23068,-0.047 -0.42841,0.4732 -0.42841,1.1356 0,2.1292 -3.69095,3.454 -6.45917,2.3657 -1.0216,-0.4258 -1.3841,-0.3312 -2.63639,0.7098 -0.79092,0.6624 -1.71366,1.1829 -2.01025,1.1829 -0.32955,0 -0.59319,0.2838 -0.59319,0.615 0,1.1356 1.45002,2.6024 4.44892,4.4004 2.90003,1.7506 3.0648,1.7979 7.0853,1.8452 2.3398,-0.047 4.71256,-0.095 5.3387,-0.1892 l 0,0 z"
     id="path5854"
     inkscape:connector-curvature="0" /><path
     style="fill:#cb966b"
     d="m 99.4909,105.18148 c 0.16477,-0.095 2.17502,-0.3786 4.44891,-0.7098 8.99669,-1.1828 11.76491,-1.8926 16.80701,-4.3056 2.83412,-1.3722 3.32845,-1.7507 5.17392,-4.4003 2.53753,-3.6433 2.76821,-4.7316 1.61479,-7.5705 -1.45001,-3.5013 -2.76821,-5.11 -5.33869,-6.2456 -1.28525,-0.5677 -2.57049,-1.0882 -2.86708,-1.0882 -0.92274,0 -0.62615,1.2775 0.42841,1.8926 0.56024,0.3312 0.98865,0.757 0.98865,0.9936 0,0.2366 0.29659,0.4259 0.6591,0.4259 0.3625,0 1.05456,0.6151 1.54888,1.4194 0.49432,0.8044 1.05456,1.4195 1.28524,1.4195 0.52728,0 1.45002,2.0818 1.45002,3.2174 0,1.1829 -0.16478,1.3248 -4.28414,4.5896 -1.91139,1.514 -3.72391,3.0281 -4.0205,3.4066 -0.6591,0.8044 -1.58184,0.4732 -1.58184,-0.6151 0,-0.4258 0.36251,-1.2301 0.82388,-1.8452 0.95569,-1.2776 1.05455,-2.5551 0.26363,-2.9336 -0.32954,-0.1419 -0.88978,-0.4258 -1.25228,-0.6624 -0.36251,-0.2366 -1.0216,-0.5678 -1.48297,-0.7097 -0.46137,-0.1893 -1.08752,-0.6151 -1.38411,-0.9936 -0.46137,-0.5678 -1.0216,-0.6151 -3.13072,-0.2366 -1.41706,0.2366 -3.22958,0.3312 -3.98754,0.2366 -0.88979,-0.142 -1.61479,0.047 -1.94434,0.4258 -0.46137,0.5205 -0.62615,0.4731 -1.15342,-0.4732 -0.72501,-1.3248 -0.82388,-2.8389 -0.16478,-3.1701 0.75796,-0.4258 0.88978,-1.5614 0.2966,-2.8389 -0.49433,-1.0882 -0.49433,-1.2302 0.0989,-2.1291 0.59319,-0.9464 0.59319,-0.9937 -0.13182,-1.8453 -0.69205,-0.8044 -0.72501,-0.9463 -0.23068,-2.5551 0.32955,-1.1828 0.69205,-1.656 1.05455,-1.5614 0.42842,0.095 0.56024,-0.1419 0.46137,-1.1828 -0.0989,-1.5614 0.6591,-1.7507 1.64775,-0.4732 0.59319,0.8044 0.6591,0.7571 1.12047,-0.1419 0.26363,-0.5205 0.62614,-1.2775 0.75796,-1.6561 0.16477,-0.3785 0.39546,-0.5204 0.52728,-0.3312 0.13182,0.1893 0.0989,0.7571 -0.13182,1.2775 -0.2966,0.6625 -0.2966,0.9464 0,1.0883 0.59319,0.2839 2.53753,-0.9463 2.73526,-1.798 0.0989,-0.3785 0.42841,-0.7097 0.725,-0.7097 1.12047,0 1.77957,-1.8926 1.74661,-5.0154 -0.033,-4.7315 -0.65909,-6.5295 -1.77956,-5.0627 -1.0216,1.3248 -2.9989,-0.5205 -3.49322,-3.1701 -0.26364,-1.4668 -0.49433,-1.7034 -2.90004,-2.8863 -2.7023,-1.3248 -3.13071,-1.8452 -2.43866,-3.0281 0.32955,-0.5678 0.26364,-0.9463 -0.46137,-2.0346 -0.49432,-0.7097 -0.88978,-1.5614 -0.88978,-1.8926 0,-0.3312 -0.16478,-0.9936 -0.39546,-1.4667 -0.32955,-0.7571 -0.29659,-1.0883 0.23068,-1.8926 0.32955,-0.5205 0.92274,-0.9937 1.35116,-0.9937 1.21933,0 2.80116,-0.9936 3.16367,-1.9872 0.29659,-0.757 0.19773,-1.1829 -0.39546,-2.0819 -0.85683,-1.3248 -1.38411,-1.4194 -2.07616,-0.4258 -0.72501,1.0409 -1.74661,0.899 -1.9773,-0.3785 -0.32954,-1.7034 -0.26363,-2.0346 0.62615,-3.4067 0.46137,-0.7097 0.75796,-1.6087 0.6591,-1.9399 -0.19773,-0.7097 1.35115,-5.8671 1.74661,-5.8671 0.13182,0 0.59319,-0.4731 0.98864,-0.9936 0.56024,-0.7571 0.85683,-0.8517 1.12047,-0.4732 0.2966,0.4259 0.26364,0.6625 -0.0659,0.9463 -0.23068,0.2366 -0.39546,0.8044 -0.32955,1.2775 0.0989,0.7571 0.46137,0.899 2.24094,1.041 2.40571,0.1419 4.08641,-0.5678 3.88868,-1.7507 -0.0659,-0.4258 -0.26364,-0.7097 -0.42842,-0.7097 -0.16477,0.047 -1.12046,0.2366 -2.10911,0.3785 l -1.81252,0.3312 1.25228,-1.5141 c 1.51593,-1.8452 1.28525,-2.5077 -1.25228,-3.5486 -1.94434,-0.8044 -2.76822,-1.8453 -2.20798,-2.6496 0.26364,-0.3786 0.52728,-0.2366 1.0216,0.6151 0.36251,0.6151 0.75796,0.9936 0.88978,0.757 0.13182,-0.2366 0.0659,-0.6151 -0.13182,-0.899 -0.69205,-0.9936 -0.42841,-2.0819 0.72501,-2.9808 1.0216,-0.8044 1.45002,-0.8044 5.66825,-0.2839 2.63639,0.3312 5.33869,0.9463 6.45916,1.4667 1.05456,0.5205 2.43867,0.9463 3.06481,0.9463 0.62614,0 1.25229,0.2366 1.35115,0.5205 0.0989,0.2839 0.56023,0.3785 0.98865,0.2366 0.42841,-0.142 1.41706,0.047 2.17502,0.4258 0.79092,0.3785 1.64775,0.7097 1.94434,0.7097 0.2966,0 0.72501,0.2839 0.92274,0.6625 0.29659,0.5204 0.19773,0.8989 -0.46137,1.8926 -0.46137,0.6624 -1.08751,1.2302 -1.35115,1.2302 -0.26364,0 -0.95569,0.615 -1.48297,1.4194 -0.79092,1.1356 -0.92274,1.5614 -0.6591,2.2711 0.46137,1.2302 -0.26364,2.555 -2.0432,3.7852 -3.09777,2.0819 -2.66935,3.3594 0.82387,2.5551 2.93299,-0.6625 5.33869,-2.1292 7.48076,-4.5423 2.37276,-2.697 2.53753,-3.5959 0.62615,-3.6433 -0.79092,0 -1.58184,-0.1419 -1.74661,-0.3785 -0.36251,-0.3785 -0.42842,-2.2711 -0.0659,-2.7443 0.13182,-0.1892 0.23068,-0.9936 0.23068,-1.8452 0,-1.1356 -0.26364,-1.798 -1.21933,-2.8863 -0.6591,-0.757 -1.38411,-1.656 -1.61479,-1.9872 -0.23069,-0.3312 -0.72501,-0.6151 -1.08751,-0.6151 -0.36251,0 -0.75797,-0.2366 -0.88979,-0.4731 -0.3625,-0.8517 -2.86707,-2.2239 -5.10801,-2.7443 -1.18638,-0.2839 -2.50457,-0.6624 -2.96594,-0.8044 -0.46137,-0.1419 -1.35115,-0.3312 -1.9773,-0.3785 -0.62614,-0.047 -1.35115,-0.2839 -1.54888,-0.4732 -0.56023,-0.4731 -8.07395,-1.3248 -14.1047,-1.5613 -5.00915,-0.1893 -9.65579,0.4731 -9.91943,1.4667 -0.0659,0.2839 -1.12047,0.5678 -2.3398,0.6151 -1.21933,0.047 -2.76821,0.2366 -3.46027,0.3785 -0.75796,0.1893 -1.45001,0.047 -1.74661,-0.3312 -0.39546,-0.4731 -0.59319,-0.4258 -1.08751,0.1893 -0.32955,0.4258 -0.98865,0.757 -1.48297,0.757 -0.49432,0 -1.18638,0.2366 -1.54888,0.4732 -0.36251,0.2839 -1.87843,0.5678 -3.3614,0.7097 -1.48297,0.142 -3.69095,0.5205 -4.84438,0.9463 -1.84547,0.6624 -4.44891,1.1356 -10.67739,1.8926 -0.88978,0.095 -1.87843,0.3312 -2.20798,0.4732 -0.32955,0.1419 -1.15342,0.3785 -1.84547,0.4731 -5.47052,0.8517 -6.49212,1.5141 -6.49212,4.1637 0,1.6561 0.16477,1.94 1.08751,1.7507 0.23068,-0.047 0.49432,0.2366 0.62614,0.6624 0.32955,1.2302 1.15343,0.8517 2.40571,-1.0882 1.08751,-1.7034 1.35115,-1.8453 3.32845,-2.1292 2.20798,-0.2839 13.05015,-0.9463 14.50016,-0.899 2.47162,0.095 6.06371,0.899 6.19553,1.4668 0.0989,0.3785 -0.19773,0.6151 -0.72501,0.6151 -0.46137,0 -1.81252,0.6151 -2.93299,1.4194 -1.54888,1.041 -2.40571,2.0346 -3.3614,3.7852 -0.69205,1.3249 -1.54888,2.3658 -1.87843,2.3658 -0.32955,0 -0.92274,0.2839 -1.3182,0.6151 -0.39546,0.3312 -0.79092,0.6151 -0.85683,0.6624 -0.0659,0.047 0,0.3312 0.0989,0.6151 0.16477,0.3785 0.3625,0.3785 0.69205,0 0.59319,-0.7097 2.10912,-0.142 2.10912,0.757 0,0.9463 -0.9557,1.4195 -1.64775,0.8044 -0.42841,-0.3785 -0.6591,-0.2839 -0.95569,0.4258 -0.32955,0.8044 -0.69205,0.899 -2.20798,0.7571 -0.98865,-0.095 -1.77957,-0.047 -1.77957,0.095 0,0.1419 -0.39546,0.5678 -0.88978,0.9463 -0.49432,0.3785 -1.08751,1.0409 -1.35115,1.5141 -0.23069,0.4731 -0.75796,0.8516 -1.18638,0.8516 -0.42841,0 -1.31819,0.6151 -2.01025,1.4195 -1.05455,1.2302 -1.15342,1.4668 -0.6591,1.7507 0.32955,0.1892 0.85683,0.7097 1.18638,1.1828 0.32955,0.4732 0.82387,0.8517 1.05456,0.8517 0.52728,0 0.92274,1.1356 0.59319,1.656 -0.13182,0.1893 -0.23069,1.0883 -0.23069,2.0346 0,1.4194 -0.13182,1.7506 -0.6591,1.7506 -0.56023,0 -0.65909,0.2839 -0.59318,1.798 0.0659,1.2775 -0.0659,1.798 -0.39546,1.798 -0.56024,0 -1.81252,2.4131 -1.81252,3.454 0,0.3785 -0.36251,1.3248 -0.79092,2.0819 -0.79092,1.3248 -0.79092,1.3721 -0.16478,1.9399 0.75797,0.7097 0.82388,2.1292 0.0989,2.9808 -0.6591,0.7571 -4.11937,0.8044 -7.08531,0.047 -1.15342,-0.2838 -2.93299,-0.6151 -3.92163,-0.757 -0.98865,-0.095 -2.40571,-0.4258 -3.13072,-0.7097 -0.72501,-0.2839 -2.01025,-0.6151 -2.86708,-0.7571 -1.18638,-0.2365 -1.61479,-0.5204 -1.77956,-1.2775 -0.39546,-1.7506 2.4057,-3.7379 4.15232,-2.9808 0.46136,0.1892 0.65909,0.095 0.65909,-0.4259 0,-0.4258 -0.19773,-0.757 -0.42841,-0.757 -0.23068,0 -0.59319,-0.6151 -0.79092,-1.4195 -0.32955,-1.2775 -0.29659,-1.4194 0.26364,-1.4194 0.36251,0 0.72501,-0.3312 0.82387,-0.7097 0.23069,-0.8517 2.53753,-1.798 3.42732,-1.4195 0.39545,0.1893 0.85682,0 1.15342,-0.4258 0.3625,-0.5205 1.12046,-0.7571 2.47162,-0.7571 h 1.94434 v -1.4194 c 0,-1.2302 -0.0989,-1.3722 -0.75797,-1.1829 -0.56023,0.1893 -0.82387,0 -1.08751,-0.8044 -0.46137,-1.514 -2.90003,-2.555 -5.80006,-2.555 -2.27389,0 -2.43867,0.095 -2.53753,1.1356 -0.0989,0.8517 -0.26364,1.0409 -0.79092,0.8517 -0.39546,-0.142 -0.88978,-0.047 -1.08751,0.1892 -0.56024,0.6624 -3.75686,1.1356 -3.75686,0.5678 0,-0.2839 0.3625,-0.3785 0.82387,-0.2366 0.59319,0.142 0.82387,0 0.82387,-0.5204 0,-1.4668 -3.52617,-0.4732 -5.53642,1.5141 -0.62615,0.615 -1.74661,0.9936 -3.69095,1.2301 -1.87844,0.2366 -2.90004,0.5678 -3.13072,1.041 -0.19773,0.3785 -0.72501,0.8043 -1.15342,0.899 -2.40571,0.5677 -2.96595,0.8516 -2.96595,1.4194 0,0.3312 0.26364,0.7571 0.56024,0.899 0.95569,0.5205 -0.033,1.2775 -1.87843,1.4668 -0.98865,0.095 -2.53753,0.7097 -3.59209,1.4194 -1.0216,0.7097 -2.17502,1.4668 -2.57048,1.7507 -2.14207,1.4194 -2.73526,4.0691 -1.15342,5.252 1.28524,0.9463 2.50457,2.9335 2.20797,3.5959 -0.23068,0.5205 -1.31819,0.4258 -2.53752,-0.2839 -0.39546,-0.2366 -0.59319,-0.095 -0.59319,0.3785 0,0.7571 -1.61479,1.5141 -2.83413,1.3722 -0.95569,-0.142 -1.28524,2.0818 -0.46136,3.2174 0.95569,1.3721 5.83302,3.3594 10.54557,4.353 2.43866,0.5205 5.20688,1.0882 6.09666,1.3248 0.92274,0.2366 2.83412,0.4258 4.28414,0.4732 1.45001,0.047 4.41596,0.3312 6.55803,0.7097 4.15232,0.7097 5.00914,0.5205 6.09666,-1.3721 0.23068,-0.4259 0.85682,-0.7571 1.3841,-0.7571 1.05456,0 2.24094,-0.757 2.24094,-1.3721 0,-0.7571 -1.64775,-0.9936 -7.34895,-1.2302 -9.12851,-0.3312 -11.69899,-0.6151 -12.65469,-1.3248 -1.05455,-0.7571 -4.97619,-1.8453 -5.4046,-1.4668 -0.16478,0.1419 -0.59319,-0.047 -0.98865,-0.4258 l -0.69205,-0.7098 0.725,-0.5678 c 0.42842,-0.3312 1.48297,-0.4731 2.57049,-0.3312 1.0216,0.142 4.15232,0.3786 6.98644,0.5678 2.83412,0.1893 5.23983,0.5205 5.43756,0.7571 0.39546,0.5677 4.11937,0.5677 9.12851,0 3.26254,-0.3786 3.95459,-0.5678 4.54778,-1.4195 0.46137,-0.6624 1.0216,-0.9463 1.61479,-0.8517 0.49433,0.095 1.12047,-0.095 1.38411,-0.3785 0.59319,-0.6624 3.26254,-1.6087 4.54778,-1.6087 1.08751,0 1.48297,0.5678 1.51592,2.3658 0,0.9463 0.19773,1.2302 0.88979,1.3248 1.21933,0.1892 2.0432,2.1292 1.81252,4.211 -0.13182,1.1356 0,2.0819 0.42841,3.0755 0.49432,1.1356 0.59319,2.1292 0.46137,5.0154 -0.0659,1.9872 -0.29659,3.8798 -0.49432,4.211 -0.62615,1.041 -0.0659,1.5614 1.05455,0.9937 0.79092,-0.4259 1.08752,-0.4259 1.15343,0 0.0659,0.2839 0.39545,0.4258 0.725,0.3312 0.39546,-0.142 0.6591,0.095 0.79092,0.8043 0.2966,1.6087 -0.0659,2.4131 -1.05456,2.2712 -0.79091,-0.142 -0.85682,0 -0.79091,1.3248 0.0659,0.9463 -0.0989,1.5614 -0.42842,1.7506 -0.82387,0.4732 -0.56023,1.6087 0.49433,2.1292 0.56023,0.2839 1.08751,0.8044 1.18637,1.1829 0.23069,0.8517 2.60344,1.7033 5.43756,1.8926 1.18638,0.095 2.37276,0.3312 2.6364,0.5678 0.26364,0.2366 1.21933,0.4731 2.10911,0.5204 4.87733,0.2366 7.71145,0.5678 8.07396,0.8517 0.23068,0.1893 1.91138,0.5205 3.75686,0.7571 1.84547,0.2365 4.25118,0.6151 5.33869,0.8989 1.08752,0.2839 2.20798,0.4732 2.47162,0.4732 1.6807,-0.047 3.98755,-0.4258 12.12741,-1.9872 4.15232,-0.8044 5.43756,-0.899 5.76711,-0.4732 0.2966,0.4258 0.26364,0.7571 -0.16477,1.3248 -0.39546,0.5678 -1.35115,0.8517 -3.78982,0.9936 -1.77956,0.095 -3.3614,0.3786 -3.55913,0.6151 -0.16477,0.2366 -1.0216,0.4259 -1.87843,0.4259 -0.85683,0 -1.64774,0.1892 -1.74661,0.4258 0.0659,0.5678 0.42841,0.9463 0.92274,0.7571 l 0,0 z"
     id="path5852"
     inkscape:connector-curvature="0" /><path
     style="fill:#cb966b"
     d="m 112.27741,99.92948 c -0.39546,-1.5141 2.14207,-3.4067 2.7023,-2.0346 0.13182,0.2839 -0.033,0.9937 -0.32955,1.6561 -0.59319,1.3721 -2.0432,1.5614 -2.37275,0.3785 z"
     id="path5850"
     inkscape:connector-curvature="0" /><path
     style="fill:#cb966b"
     d="m 59.78022,54.36498 c 0,-0.2838 0.2966,-0.4731 0.69206,-0.4731 0.39546,0 0.59319,0.1893 0.46137,0.4731 -0.13182,0.2839 -0.42842,0.4732 -0.69206,0.4732 -0.26364,0 -0.46137,-0.2366 -0.46137,-0.4732 z"
     id="path5848"
     inkscape:connector-curvature="0" /><path
     style="fill:#cb966b"
     d="m 21.55252,53.60798 c 0,-0.095 0.29659,-0.1893 0.69205,-0.1893 0.39546,0 0.59319,0.1893 0.49433,0.4732 -0.19773,0.3785 -1.18638,0.1419 -1.18638,-0.2839 z"
     id="path5846"
     inkscape:connector-curvature="0" /><path
     style="fill:#cb966b"
     d="m 101.63297,43.00938 c 0,-0.2839 0.16477,-0.4731 0.3625,-0.4731 0.19773,0 0.26364,0.1892 0.13182,0.4731 -0.13182,0.2839 -0.26364,0.4732 -0.3625,0.4732 -0.0989,0 -0.13182,-0.2366 -0.13182,-0.4732 z"
     id="path5844"
     inkscape:connector-curvature="0" /><path
     style="fill:#cb966b"
     d="m 128.98555,29.28798 c 0.39546,-1.0882 1.74661,-1.3248 1.45002,-0.2838 -0.16478,0.615 -0.6591,0.9463 -1.54889,1.1355 -0.13182,0.047 -0.0989,-0.3312 0.0989,-0.8517 l 0,0 z"
     id="path5842"
     inkscape:connector-curvature="0" /><path
     style="fill:#cb966b"
     d="m 97.01928,104.99218 c 0.26364,-0.2366 0.39546,-0.5678 0.29659,-0.7097 -0.29659,-0.4259 -1.94434,0.2839 -1.74661,0.757 0.23069,0.5205 0.82388,0.5205 1.45002,-0.047 l 0,0 z"
     id="path5840"
     inkscape:connector-curvature="0" /><path
     style="fill:#cb966b"
     d="m 63.73481,103.28888 c 0,-0.3786 -0.39546,-0.8044 -0.92273,-0.9463 -3.62505,-1.0883 -12.65469,-5.0628 -14.6979,-6.4822 -0.69205,-0.4732 -1.54888,-1.6087 -1.94434,-2.555 -0.88978,-2.1765 -1.71365,-1.9873 -1.84547,0.4258 -0.0989,1.5141 0.0659,2.0346 1.0216,3.3121 0.62614,0.8516 1.18638,1.8453 1.28524,2.2238 0.2966,1.1828 7.28304,3.6905 11.20467,4.0691 1.3182,0.1419 3.19663,0.3312 4.15232,0.4258 1.35115,0.142 1.74661,0.047 1.74661,-0.4731 z"
     id="path5838"
     inkscape:connector-curvature="0" /><path
     style="fill:#cb966b"
     d="m 59.08817,93.87318 c 1.15342,-0.899 1.41706,-1.7507 0.79092,-2.697 -0.75797,-1.1829 -1.21933,-1.0409 -2.60344,0.6624 -1.12047,1.4195 -1.15342,1.5614 -0.59319,2.1292 0.72501,0.7097 1.35115,0.7097 2.40571,-0.095 l 0,0 z"
     id="path5836"
     inkscape:connector-curvature="0" /><path
     style="fill:#cb966b"
     d="m 105.1921,87.39098 c 0.56023,-0.8044 0.49432,-2.2711 -0.0989,-2.2711 -0.26364,0 -0.49432,0.1419 -0.49432,0.3785 0,0.1892 -0.0989,0.8516 -0.19773,1.4194 -0.23068,1.1356 0.16478,1.3722 0.79092,0.4732 z"
     id="path5834"
     inkscape:connector-curvature="0" /><path
     style="fill:#cb966b"
     d="m 138.3777,76.27188 c 1.91139,-0.2365 8.20577,-1.9399 10.97399,-2.9808 2.20798,-0.8044 4.21823,-1.9873 9.85352,-5.6778 1.94434,-1.2775 3.39435,-3.4067 3.39435,-5.0627 0,-1.0883 -1.28524,-0.6151 -1.94434,0.8043 -0.75796,1.5141 -2.47161,2.3658 -3.0648,1.5141 -0.26364,-0.3785 -0.13182,-1.1829 0.39546,-2.8389 0.79091,-2.4604 0.725,-5.2993 -0.13182,-5.2993 -0.23069,0 -0.52728,-0.2839 -0.62615,-0.6624 -0.0989,-0.3785 -0.69205,-0.9463 -1.35115,-1.2775 -0.85683,-0.4259 -1.15342,-0.8517 -1.08751,-1.5614 0.0989,-1.2302 -1.71366,-2.1765 -4.54778,-2.4131 -1.08751,-0.095 -3.06481,-0.2839 -4.41596,-0.4258 -1.45001,-0.142 -2.60344,-0.047 -2.83412,0.2366 -0.23069,0.2838 -1.35115,0.615 -2.50457,0.757 -3.36141,0.4258 -6.88758,1.7507 -6.88758,2.6496 0,0.5678 1.15342,1.1356 3.13071,1.5614 2.01025,0.4259 5.50348,2.0819 5.86598,2.7916 0.19773,0.3785 0.32955,0.3312 0.42841,-0.047 0.26364,-0.9463 0.72501,-0.6624 0.56024,0.3312 -0.23069,1.2775 0.72501,1.8926 3.22958,2.0346 2.07616,0.1419 2.10911,0.1419 2.01025,1.4667 -0.0659,0.899 0.13182,1.6087 0.6591,2.2712 0.75796,0.9463 0.75796,0.9463 0.0329,0.3312 -0.62614,-0.5205 -0.79092,-0.4732 -1.15342,0.2365 -0.39546,0.8044 -0.49432,0.8044 -1.71366,0.047 -1.0216,-0.6151 -1.41706,-0.6625 -2.01025,-0.1893 -0.52727,0.4258 -1.05455,0.4258 -1.84547,0.095 -2.04321,-0.899 -4.51482,-1.1355 -4.77846,-0.4258 -0.59319,1.4194 -5.43757,2.9335 -10.80922,3.4067 -4.05345,0.3785 -5.50347,0.6624 -5.99779,1.2775 -0.26364,0.3312 -1.25229,0.5205 -2.17503,0.4731 -0.92273,-0.047 -1.48297,0.047 -1.21933,0.1893 0.26364,0.1419 0.79092,0.6624 1.15342,1.1356 1.08752,1.3721 5.17393,2.413 8.23873,2.0818 1.45002,-0.1419 3.69095,-0.3785 5.00915,-0.4731 5.27279,-0.3785 13.51152,-3.0755 15.4229,-5.0627 0.52728,-0.5678 1.45002,-1.041 2.01025,-1.041 0.56024,0 1.28524,-0.3312 1.54888,-0.6624 0.42842,-0.4731 0.62615,-0.4731 1.18638,0 0.3625,0.3312 0.69205,0.8517 0.69205,1.1829 0,0.7097 -1.05455,1.5614 -1.87843,1.5614 -0.32955,0 -1.12046,0.5205 -1.71365,1.1829 -0.59319,0.6624 -1.94434,1.4194 -2.93299,1.7033 -1.0216,0.2839 -3.52618,1.1356 -5.56938,1.8926 -2.04321,0.7571 -4.11937,1.3722 -4.61369,1.3722 -1.35115,0 -3.39436,0.9463 -3.19663,1.4194 0.13182,0.3785 2.40571,0.4258 5.20688,0.095 l 0,0 z"
     id="path5832"
     inkscape:connector-curvature="0" /><path
     style="fill:#cb966b"
     d="m 154.95402,66.33578 c 0.23069,-0.142 0.52728,-0.142 0.62615,0.047 0.0989,0.1419 -0.0989,0.2839 -0.42842,0.2366 -0.3625,-0.047 -0.46137,-0.142 -0.19773,-0.2839 z"
     id="path5830"
     inkscape:connector-curvature="0" /><path
     style="fill:#cb966b"
     d="m 116.957,69.97898 c 0.0989,-0.2365 0.033,-0.5678 -0.13182,-0.757 -0.39545,-0.3312 -0.98864,0.095 -0.98864,0.7097 -0.033,0.6151 0.85682,0.6151 1.12046,0.047 z"
     id="path5828"
     inkscape:connector-curvature="0" /><path
     style="fill:#cb966b"
     d="m 45.60961,56.96738 c 0,-0.3785 -0.16478,-0.7098 -0.32955,-0.7098 -0.16477,0 -0.32955,0.3313 -0.32955,0.7098 0,0.3785 0.16478,0.7097 0.32955,0.7097 0.16477,0 0.32955,-0.3312 0.32955,-0.7097 z"
     id="path5826"
     inkscape:connector-curvature="0" /><path
     style="fill:#cb966b"
     d="m 61.42797,37.33158 c 0,-0.2839 -0.0659,-0.4731 -0.13182,-0.4731 -0.0659,0 -0.23068,0.1892 -0.3625,0.4731 -0.13182,0.2839 -0.033,0.4732 0.13182,0.4732 0.16477,0 0.3625,-0.2366 0.3625,-0.4732 z"
     id="path5824"
     inkscape:connector-curvature="0" /><path
     style="fill:#cb966b"
     d="m 66.04166,33.54638 c 0,-0.2839 -0.2966,-0.4731 -0.69206,-0.4731 -0.59318,0 -0.65909,-0.1893 -0.46136,-1.4195 0.13182,-0.8517 0.0989,-1.4195 -0.13182,-1.4195 -0.46137,0 -1.02161,1.5614 -1.02161,2.7916 0,0.8044 0.19773,0.9937 1.15343,0.9937 0.62614,0 1.15342,-0.2366 1.15342,-0.4732 z"
     id="path5822"
     inkscape:connector-curvature="0" /><path
     style="fill:#cb966b"
     d="m 49.33351,28.15248 c 0.36251,-0.4259 0.46137,-1.1829 0.32955,-3.0755 -0.19773,-2.8389 -0.69205,-3.4067 -1.91138,-2.2711 -0.92274,0.899 -1.0216,2.0818 -0.32955,4.0218 0.56023,1.656 1.25229,2.0818 1.91138,1.3248 z"
     id="path5820"
     inkscape:connector-curvature="0" /><path
     style="fill:#cb966b"
     d="m 70.16102,6.5767801 c 0.0989,-0.2839 -0.0989,-0.4732 -0.46137,-0.4732 -0.3625,0 -0.75796,0.1893 -0.85682,0.4732 -0.0989,0.2839 0.0989,0.4731 0.46136,0.4731 0.36251,0 0.75797,-0.2365 0.85683,-0.4731 z"
     id="path5818"
     inkscape:connector-curvature="0" /><path
     style="fill:#c48855"
     d="m 18.09225,104.56638 c 0.36251,-0.1893 1.77957,-0.4259 3.13072,-0.4732 2.63639,-0.095 5.86598,-0.9463 6.12961,-1.5614 0.0989,-0.2366 0.46137,-0.3785 0.82388,-0.3785 0.39546,0 0.59319,-0.2366 0.52728,-0.6151 -0.0659,-0.3312 -0.39546,-0.5205 -0.72501,-0.4258 -0.32955,0.095 -0.75796,-0.1893 -0.95569,-0.6151 -0.26364,-0.5205 -1.02161,-0.8517 -2.20798,-0.9463 -2.93299,-0.2839 -3.88868,-0.5205 -4.35005,-1.0883 -0.26364,-0.2839 -0.52728,-0.4258 -0.6591,-0.2839 -0.0989,0.142 -1.05456,0.3312 -2.10912,0.4259 -2.80116,0.2839 -5.86597,0.9936 -6.65689,1.6087 -0.85683,0.6624 -0.92274,2.3184 -0.13182,2.6969 0.32955,0.142 1.21933,0.6624 1.9773,1.1829 1.45001,0.899 3.98754,1.1356 5.20687,0.4732 l 0,0 z"
     id="path5722"
     inkscape:connector-curvature="0" /><path
     style="fill:#c48855"
     d="m 58.46203,102.20058 c 0,-0.2366 -1.74661,-1.1829 -3.88868,-2.1765 -6.39326,-2.9335 -6.78872,-3.2174 -8.07396,-4.9208 -0.69205,-0.8989 -1.25229,-1.3721 -1.25229,-1.0409 0,0.8044 3.72391,6.009 4.51483,6.3875 1.15342,0.5205 7.28304,2.1765 7.97509,2.1765 0.42841,0 0.72501,-0.1892 0.72501,-0.4258 z"
     id="path5720"
     inkscape:connector-curvature="0" /><path
     style="fill:#c48855"
     d="m 100.97387,100.63918 c 0.62614,-0.2366 1.74661,-0.5205 2.47162,-0.6151 3.16367,-0.4731 6.65689,-1.3248 7.3819,-1.8453 0.92274,-0.6151 1.45002,-2.7443 1.15342,-4.6842 -0.0989,-0.7097 -0.23068,-1.3248 -0.29659,-1.3248 -0.0659,0 -0.85683,-0.1893 -1.81252,-0.4731 -1.12047,-0.2839 -1.94434,-0.3313 -2.3398,0 -1.05456,0.8043 -13.84107,0.6624 -14.4013,-0.1893 -0.46137,-0.6624 0.59319,-2.6497 1.61479,-3.0282 0.88978,-0.3312 1.15342,-0.757 1.61479,-2.555 0.2966,-1.1829 0.62614,-3.312 0.75796,-4.6842 0.13182,-1.4667 0.52728,-3.1228 0.92274,-3.9744 l 0.72501,-1.4195 -0.72501,-0.6624 c -0.46137,-0.4258 -0.72501,-1.1829 -0.72501,-2.0346 0,-1.1355 0.13182,-1.3721 0.82388,-1.3721 0.56023,0 0.95569,-0.4258 1.31819,-1.4195 0.42842,-1.1828 0.62615,-1.3248 1.15343,-0.9463 0.32954,0.2839 0.725,0.4732 0.82387,0.4732 0.32955,0 0.19773,-1.8453 -0.16478,-2.1765 -0.23068,-0.1893 -0.29659,-1.0409 -0.19773,-2.1292 0.0989,-1.0409 0,-2.0345 -0.19773,-2.3184 -0.42841,-0.6151 0.0989,-1.2775 1.41707,-1.7034 2.7023,-0.8989 3.26253,-1.9399 1.81252,-3.312 -0.59319,-0.5678 -1.05456,-0.6624 -1.74661,-0.3312 -1.18638,0.5678 -3.22959,-0.3785 -3.16368,-1.4668 0.033,-0.5678 -0.16477,-0.6624 -0.69205,-0.4731 -0.49432,0.1892 -1.05456,-0.095 -1.64775,-0.8517 -1.05455,-1.3248 -0.85682,-2.4131 0.36251,-1.9399 0.42841,0.1419 0.82387,0.095 0.82387,-0.095 0,-0.2365 0.0659,-1.0409 0.13182,-1.7979 0.0659,-0.7571 -0.033,-1.798 -0.23068,-2.3185 -0.26364,-0.7097 -0.19773,-1.2302 0.32955,-2.2711 0.42841,-0.8044 0.56023,-1.4668 0.3625,-1.656 -0.19773,-0.142 -0.29659,-0.5678 -0.26364,-0.8517 0.033,-0.2839 -0.0329,-1.0409 -0.19773,-1.656 -0.19773,-0.8517 -0.0659,-1.4195 0.6591,-2.4604 0.49432,-0.7571 0.82387,-1.5141 0.69205,-1.7034 -0.13182,-0.1892 -0.23068,-0.1419 -0.23068,0.047 0,0.1892 -0.2966,0 -0.6591,-0.4732 -0.69205,-0.899 -0.88978,-2.555 -0.32955,-2.6496 0.16478,-0.047 0.52728,-0.095 0.75796,-0.142 0.23069,-0.047 0.46137,-0.5678 0.52728,-1.1355 0.0659,-0.6151 0.32955,-1.2302 0.59319,-1.3722 0.62614,-0.3312 0.59319,-1.8926 -0.0329,-2.2238 -0.75797,-0.4258 -0.59319,-1.4194 0.19773,-1.0882 0.46136,0.1892 0.98864,-0.142 1.54888,-0.899 0.75796,-0.9936 0.82387,-1.2775 0.46137,-2.0819 -0.23069,-0.5205 -0.39546,-1.2302 -0.39546,-1.6087 0,-1.2775 -0.59319,-1.2302 -1.58184,0.1893 -1.05456,1.514 -1.6807,1.7506 -2.27389,0.8989 -0.19773,-0.2838 -0.85683,-0.5677 -1.48297,-0.6624 -0.59319,-0.047 -1.41706,-0.2839 -1.81252,-0.4731 -0.59319,-0.2839 -0.82387,-0.095 -1.12047,0.899 -0.42841,1.3721 -0.95569,1.656 -0.95569,0.4731 0,-0.6151 -0.23068,-0.6624 -1.05456,-0.4258 -0.59319,0.1892 -1.3841,0.6624 -1.81252,1.0409 -1.05455,0.9936 -1.54888,0.3312 -0.85683,-1.0409 0.32955,-0.6151 0.75797,-1.1356 0.98865,-1.1356 0.23069,0 0.42842,-0.3312 0.42842,-0.757 0,-0.5205 0.23068,-0.6624 0.82387,-0.4732 0.46137,0.142 1.21933,0.3785 1.71365,0.5205 0.49433,0.1419 0.98865,0.047 1.08752,-0.2366 0.29659,-0.7097 4.18527,-0.7097 4.81141,0 0.26364,0.3312 0.59319,0.4732 0.69206,0.3312 0.29659,-0.4258 -2.10912,-3.7852 -2.47162,-3.454 -0.19773,0.142 -0.49432,-0.1419 -0.69205,-0.7097 -0.39546,-1.0409 -1.15343,-1.0409 -1.15343,0 0,0.3312 -0.42841,0.8043 -0.92273,0.9936 -0.79092,0.3312 -0.9557,0.1893 -1.28525,-0.899 -0.19772,-0.7097 -0.42841,-0.9936 -0.49432,-0.7097 -0.0989,0.3785 -0.49432,0.4731 -1.12047,0.2839 -0.52728,-0.142 -1.15342,-0.047 -1.41706,0.2366 -0.26364,0.3312 -0.79092,0.3785 -1.41706,0.1419 -0.52728,-0.1893 -2.43866,-0.3312 -4.25118,-0.2366 -3.72391,0.1893 -4.54778,0.1893 -5.37166,0.095 -0.32954,-0.047 -2.27388,0 -4.35004,0.095 -2.80117,0.095 -3.78982,0.3312 -3.92164,0.8043 -0.0989,0.4732 0.23069,0.6151 1.45002,0.4732 0.88978,-0.095 1.94434,0.095 2.37275,0.4732 0.46137,0.3785 1.05456,0.4731 1.48297,0.2365 0.39546,-0.1892 0.79092,-0.3312 0.88979,-0.2839 0.46136,0.142 6.0637,0.7098 7.94213,0.8517 1.18638,0.047 2.3398,0.2366 2.50457,0.4258 0.39546,0.3312 0.72501,3.1228 0.49433,4.0218 -0.0989,0.3312 -0.52728,0.8044 -0.95569,1.041 -1.15343,0.6151 -0.9557,1.3721 0.52727,2.2238 0.9557,0.5204 1.21934,0.899 0.98865,1.3248 -0.23068,0.3785 0.0659,0.9463 1.0216,1.798 0.72501,0.7097 1.54888,1.2775 1.81252,1.2775 0.26364,0 0.46137,0.3312 0.46137,0.7097 0,0.4258 -0.29659,0.7097 -0.72501,0.7097 -0.39545,0 -0.98864,0.3312 -1.31819,0.8044 -0.56024,0.757 -0.6591,0.7097 -1.41706,-0.3312 -0.46137,-0.6151 -0.92274,-0.9463 -1.05456,-0.7571 -0.13182,0.1893 -0.26364,1.8453 -0.26364,3.6433 0,3.7379 -0.16477,4.0691 -2.73526,4.7315 -1.12047,0.2839 -1.61479,0.1893 -2.24093,-0.3785 -0.69206,-0.6624 -1.12047,-0.7097 -2.86708,-0.2839 -1.58184,0.3785 -2.20798,0.3312 -2.73526,-0.1419 -0.46137,-0.4259 -0.85683,-0.4732 -1.21933,-0.1893 -0.42841,0.3312 -0.62614,0.1893 -0.92274,-0.7571 -0.39546,-1.2301 -2.07616,-2.6496 -3.16367,-2.6496 -1.05456,0 -2.76821,1.4668 -2.60344,2.1765 0.23069,0.899 -0.3625,1.3248 -0.69205,0.4731 -0.16478,-0.3785 -0.62615,-0.757 -1.05456,-0.8516 -0.69205,-0.095 -0.85683,0.1419 -1.12047,1.7033 -0.19773,1.1356 -0.52727,1.9399 -0.92273,2.0819 -0.6591,0.2366 -0.85683,1.5614 -0.23069,1.5614 0.19773,0 0.62615,0.3312 0.92274,0.7097 0.32955,0.4258 1.54888,0.8517 3.09776,0.9936 2.57049,0.3312 3.22958,0.7571 2.57049,1.7034 -0.56024,0.8043 -0.42842,1.2775 0.29659,1.2775 0.3625,0 0.6591,0.1892 0.6591,0.4731 0,0.2839 -0.2966,0.4732 -0.6591,0.4732 -0.3625,0 -0.79092,0.3312 -0.95569,0.757 -0.26364,0.7097 -0.36251,0.6624 -0.98865,-0.2366 -0.85683,-1.2301 -2.01025,-1.3248 -2.01025,-0.2365 0,0.4258 -0.23069,1.0409 -0.56023,1.3721 -0.49433,0.5205 -0.46137,0.7097 0.3625,2.3184 1.0216,1.8927 1.3182,2.0819 1.61479,0.9937 0.26364,-0.9937 0.75796,-0.5205 0.95569,0.9463 0.0989,0.757 0,1.1828 -0.26364,1.1828 -0.23068,0 -0.62614,0.3786 -0.85682,0.8517 -0.59319,1.2302 -2.53753,1.7034 -3.22959,0.8044 -0.49432,-0.6151 -0.62614,-0.5678 -1.25228,0.6624 -0.39546,0.757 -1.15342,1.5141 -1.71366,1.7033 -0.79092,0.2366 -0.98865,0.5205 -0.92274,1.3249 0.0659,0.5677 0.39546,1.2301 0.79092,1.514 0.6591,0.4732 0.95569,1.5614 0.32955,1.2775 -0.49432,-0.2365 -2.17502,0.9463 -2.47162,1.7507 -0.29659,0.8044 -0.23068,5.11 0.0989,5.5832 0.0989,0.1419 0.19773,-0.1893 0.19773,-0.7571 0,-1.2775 0.95569,-1.3721 2.17502,-0.2365 0.62614,0.5677 0.72501,0.9463 0.46137,1.3721 -0.23068,0.3785 -0.23068,0.7097 -0.033,0.899 0.16477,0.1419 0.42841,0.047 0.52727,-0.1893 0.13182,-0.3312 0.39546,-0.2365 0.69206,0.1893 0.26364,0.3785 0.69205,0.5678 0.95569,0.4258 0.52728,-0.2839 1.48297,2.0819 1.25229,3.0755 -0.0989,0.3312 0.23068,1.2302 0.725,1.9872 0.88979,1.3249 0.88979,1.3249 0.16478,1.6561 -0.39546,0.1892 -1.08751,0.1892 -1.54888,0.047 -0.88978,-0.3312 -3.3614,1.4668 -2.86708,2.0818 0.16477,0.1893 1.12047,0.6151 2.14207,0.9463 1.0216,0.3313 1.94434,0.899 2.0432,1.2776 0.0989,0.3312 0.46137,0.6624 0.85683,0.6624 0.75797,0 0.92274,1.1828 0.23069,1.5614 -0.26364,0.1419 -0.62615,0 -0.82388,-0.2839 -0.19773,-0.2839 -0.3625,-0.3785 -0.3625,-0.1893 0,0.1893 0.19773,0.6624 0.46137,1.0409 0.26364,0.3786 0.52728,0.9463 0.62614,1.2776 0.0989,0.4258 0.2966,0.3312 0.6591,-0.3313 0.49432,-0.9463 0.49432,-0.9463 1.54888,0.142 0.75796,0.8044 1.15342,0.9463 1.48297,0.5678 0.32955,-0.3785 0.56024,-0.2366 0.98865,0.7097 0.29659,0.6624 0.72501,1.0883 0.88978,0.899 0.49433,-0.4258 0.9557,0.8043 0.72501,2.0345 -0.13182,0.7571 0,1.1356 0.42842,1.3722 0.32954,0.1419 1.12046,0.6151 1.77956,1.0409 1.28524,0.8044 5.20688,2.1292 5.53643,1.8453 0.13182,-0.095 1.71365,0 3.52617,0.2366 5.04211,0.7097 14.0388,0.9463 15.32404,0.4258 l 0,0 z"
     id="path5718"
     inkscape:connector-curvature="0" /><path
     style="fill:#c48855"
     d="m 65.08596,68.22838 c -1.6807,-0.4732 -1.18637,-0.9936 1.25229,-1.3722 2.57049,-0.3785 3.46027,0 2.47162,0.9936 -0.62614,0.7571 -2.0432,0.8517 -3.72391,0.3786 l 0,0 z"
     id="path5716"
     inkscape:connector-curvature="0" /><path
     style="fill:#c48855"
     d="m 72.86333,56.96738 c -0.0989,-0.3785 -0.0659,-1.1829 0.0659,-1.7034 0.23068,-0.9463 0.29659,-0.9463 0.82387,-0.1892 0.75796,1.0882 0.72501,2.6023 -0.0659,2.6023 -0.36251,0 -0.72501,-0.3312 -0.82387,-0.7097 z"
     id="path5714"
     inkscape:connector-curvature="0" /><path
     style="fill:#c48855"
     d="m 71.64399,41.54268 c 0,-0.2366 0.23069,-0.4259 0.49433,-0.4259 0.49432,0 0.6591,0.5678 0.29659,1.0883 -0.26364,0.3785 -0.79092,-0.047 -0.79092,-0.6624 z"
     id="path5712"
     inkscape:connector-curvature="0" /><path
     style="fill:#c48855"
     d="m 90.09875,38.75108 c 0,-0.2839 0.16477,-0.4732 0.3625,-0.4732 0.19773,0 0.26364,0.1893 0.13182,0.4732 -0.13182,0.2839 -0.26364,0.4731 -0.3625,0.4731 -0.0989,0 -0.13182,-0.2366 -0.13182,-0.4731 z"
     id="path5710"
     inkscape:connector-curvature="0" /><path
     style="fill:#c48855"
     d="m 92.73514,29.80848 c 0,-0.5678 0.95569,-1.0882 1.35115,-0.7097 0.16478,0.1419 0.23069,0.4731 0.13182,0.7097 -0.26364,0.5205 -1.48297,0.5678 -1.48297,0 l 0,0 z"
     id="path5708"
     inkscape:connector-curvature="0" /><path
     style="fill:#c48855"
     d="m 122.72411,97.94218 c 2.17503,-1.2775 4.94324,-5.2046 4.94324,-7.0972 0,-1.3722 -0.56023,-1.2302 -0.79092,0.1892 -0.13182,0.8044 -0.85682,1.7034 -2.43866,2.9336 -2.7023,2.1292 -4.11936,3.5013 -3.92163,3.8325 0.26363,0.2839 1.71365,0.4258 2.20797,0.1419 l 0,0 z"
     id="path5706"
     inkscape:connector-curvature="0" /><path
     style="fill:#c48855"
     d="m 71.97354,96.57008 c -0.0329,-0.8043 -1.25228,-2.6023 -1.58183,-2.2711 -0.56024,0.4731 -0.46137,2.0345 0.13182,2.3657 0.725,0.3786 1.45001,0.3312 1.45001,-0.095 z"
     id="path5704"
     inkscape:connector-curvature="0" /><path
     style="fill:#c48855"
     d="m 66.47007,96.14428 c 0.13182,-0.1893 0.23069,-0.5205 0.23069,-0.8044 0,-0.2839 -0.16478,-0.2839 -0.39546,0.095 -0.23069,0.3313 -0.32955,0.6625 -0.23069,0.8044 0.0989,0.095 0.2966,0.095 0.39546,-0.095 z"
     id="path5702"
     inkscape:connector-curvature="0" /><path
     style="fill:#c48855"
     d="m 97.77724,90.46648 c 0.13182,-0.1893 0.23069,-0.5205 0.23069,-0.8044 0,-0.2839 -0.16478,-0.2839 -0.39546,0.095 -0.23069,0.3312 -0.32955,0.6624 -0.23069,0.8044 0.0989,0.095 0.2966,0.095 0.39546,-0.095 z"
     id="path5700"
     inkscape:connector-curvature="0" /><path
     style="fill:#c48855"
     d="m 126.15143,87.34368 c -0.13182,-0.4732 -0.2966,-0.7098 -0.39546,-0.5678 -0.0989,0.1419 0,0.5205 0.23068,0.8517 0.32955,0.4258 0.36251,0.3785 0.16478,-0.2839 l 0,0 z"
     id="path5698"
     inkscape:connector-curvature="0" /><path
     style="fill:#c48855"
     d="m 29.00033,76.03538 c 0.0989,-0.2366 0.62614,-0.3312 1.12047,-0.1893 0.52728,0.1419 1.0216,0.095 1.15342,-0.1893 0.13182,-0.2839 -0.0659,-0.5204 -0.42841,-0.5204 -0.36251,0 -0.75797,-0.2366 -0.88979,-0.5205 -0.13182,-0.2839 -0.59319,-0.3785 -1.05455,-0.1893 -0.46137,0.142 -2.07616,-0.047 -3.59209,-0.4731 -2.10911,-0.6151 -2.86708,-0.6624 -3.22958,-0.2366 -0.32955,0.3785 -0.49433,0.3785 -0.56024,0.047 -0.0659,-0.2839 -2.01025,-1.1828 -4.35004,-1.9872 -3.55914,-1.2302 -4.28414,-1.3721 -4.51483,-0.8044 -0.16477,0.3786 -0.29659,0.8044 -0.29659,0.9937 0,0.8516 2.57048,2.3184 5.00915,2.7916 1.51592,0.2838 3.62504,0.8043 4.71255,1.1828 2.30684,0.6624 6.62394,0.7571 6.92053,0.095 z"
     id="path5696"
     inkscape:connector-curvature="0" /><path
     style="fill:#c48855"
     d="m 40.23796,75.46758 c -0.0659,-0.2839 -0.69206,-0.5678 -1.35115,-0.6624 -0.85683,-0.095 -1.21934,0.047 -1.12047,0.4258 0.0659,0.3312 0.69205,0.6151 1.35115,0.6624 0.79092,0.047 1.18638,-0.095 1.12047,-0.4258 l 0,0 z"
     id="path5694"
     inkscape:connector-curvature="0" /><path
     style="fill:#c48855"
     d="m 140.51977,75.32558 c 0.46137,-0.095 1.84548,-0.5204 3.13072,-0.9463 1.28524,-0.4258 2.86707,-0.8516 3.55913,-0.9463 0.69205,-0.1419 1.25228,-0.4258 1.25228,-0.7097 0,-0.2839 -0.42841,-0.3312 -1.08751,-0.095 -0.59319,0.1892 -1.3841,0.3312 -1.74661,0.3312 -1.15342,-0.047 -6.75576,1.8453 -6.75576,2.2711 0,0.4258 0.19773,0.4258 1.64775,0.095 l 0,0 z"
     id="path5692"
     inkscape:connector-curvature="0" /><path
     style="fill:#c48855"
     d="m 127.14007,72.43938 c 0.0989,-0.1419 0.72501,-0.3312 1.41707,-0.4258 8.60123,-1.1356 9.16146,-1.2775 9.98533,-2.1765 0.46137,-0.5205 1.3182,-0.9463 1.91139,-0.9463 1.3182,-0.047 1.35115,-0.6624 0.0989,-1.0883 -0.56023,-0.1892 -1.25228,-0.047 -1.64774,0.3312 -0.49432,0.4259 -0.75796,0.4732 -0.92274,0.095 -0.29659,-0.6151 -4.54778,-0.4732 -6.65689,0.2365 -0.82387,0.2839 -2.47162,0.5678 -3.69095,0.6151 -1.21933,0.047 -2.27389,0.2366 -2.40571,0.4259 -0.32955,0.4731 0.52728,2.6969 1.15342,2.9335 0.32955,0.142 0.6591,0.142 0.75796,0 l 0,0 z"
     id="path5690"
     inkscape:connector-curvature="0" /><path
     style="fill:#c48855"
     d="m 151.82331,71.54038 c 0.29659,-0.4258 -0.0659,-1.1355 -0.56024,-1.1355 -0.23068,0 -0.69205,0.3312 -1.05455,0.7097 -0.59319,0.6624 -0.59319,0.7097 0.3625,0.7097 0.59319,0 1.15342,-0.095 1.25229,-0.2839 z"
     id="path5688"
     inkscape:connector-curvature="0" /><path
     style="fill:#c48855"
     d="m 36.1845,68.32298 c 0.16478,-0.6151 0.49433,-0.757 1.28524,-0.5678 0.59319,0.142 1.81252,0.047 2.70231,-0.1892 0.88978,-0.2366 2.7023,-0.5205 3.95459,-0.6625 1.25228,-0.1419 2.53753,-0.2838 2.80117,-0.3312 0.26363,-0.047 0.85682,0.047 1.31819,0.2366 0.98865,0.3785 1.9773,-0.3312 1.48297,-1.0409 -0.16477,-0.2366 -1.15342,-0.5678 -2.14207,-0.7097 -0.98864,-0.142 -2.76821,-0.4732 -3.95459,-0.7571 -1.18637,-0.2839 -3.82277,-0.7097 -5.93188,-0.9463 -4.44891,-0.5205 -7.15122,-1.1829 -7.74441,-1.8926 -0.32955,-0.3785 -0.59319,-0.3785 -1.08751,0.047 -0.52728,0.4732 -0.82387,0.3785 -1.81252,-0.7097 -1.0216,-1.1356 -1.38411,-1.2302 -2.96594,-1.0409 -1.35115,0.1892 -1.91139,0.095 -2.20798,-0.4259 -0.2966,-0.5204 -0.56023,-0.5678 -1.05456,-0.1892 -0.52728,0.3785 -0.79092,0.2839 -1.38411,-0.4732 -0.59318,-0.8043 -0.98864,-0.899 -2.0432,-0.6624 -0.72501,0.142 -1.61479,0.6151 -2.01025,0.9463 -0.39546,0.3785 -0.88978,0.6151 -1.15342,0.5205 -0.59319,-0.1893 -0.42842,2.7443 0.23068,4.211 0.56024,1.2302 2.24094,1.798 4.0205,1.3248 3.13072,-0.8043 7.31599,0.3312 8.43646,2.2712 0.56023,0.9463 1.05456,1.2302 2.50457,1.3248 1.3182,0.095 1.77957,0 1.74662,-0.4258 -0.0989,-0.6625 0.46136,-0.8044 0.62614,-0.142 0.0659,0.2366 1.0216,0.5678 2.10911,0.757 1.77957,0.2839 2.07616,0.1893 2.27389,-0.4731 l 0,0 z"
     id="path5686"
     inkscape:connector-curvature="0" /><path
     style="fill:#c48855"
     d="m 108.22395,65.95718 c 0,-0.4258 -0.16477,-0.757 -0.32955,-0.757 -0.16477,0 -0.32955,0.1893 -0.32955,0.4258 0,0.2366 0.16478,0.5678 0.32955,0.7571 0.16478,0.1892 0.32955,0 0.32955,-0.4259 z"
     id="path5684"
     inkscape:connector-curvature="0" /><path
     style="fill:#c48855"
     d="m 60.76887,64.77438 c 0,-0.2839 -0.23068,-0.4732 -0.49432,-0.4732 -0.26364,0 -0.49433,0.1893 -0.49433,0.4732 0,0.2839 0.23069,0.4731 0.49433,0.4731 0.26364,0 0.49432,-0.2366 0.49432,-0.4731 z"
     id="path5682"
     inkscape:connector-curvature="0" /><path
     style="fill:#c48855"
     d="m 66.63485,58.57608 c -0.0659,-0.6151 -0.2966,-1.1829 -0.56024,-1.2775 -0.29659,-0.142 -0.39546,0.1419 -0.32955,0.8517 0.0659,0.615 0.2966,1.1828 0.56024,1.2775 0.32955,0.1419 0.42841,-0.095 0.32955,-0.8517 z"
     id="path5680"
     inkscape:connector-curvature="0" /><path
     style="fill:#c48855"
     d="m 30.45035,58.85998 c 0,-0.5678 0.19773,-0.7571 0.6591,-0.5678 0.85682,0.3312 1.94434,-0.9936 2.0432,-2.5077 0.0989,-1.5141 -0.85683,-1.6087 -1.0216,-0.1419 -0.13182,1.1828 -0.19773,1.2301 -1.0216,0.615 -0.85683,-0.6624 -2.01025,-0.095 -2.01025,0.9937 0,0.4731 -0.16478,0.899 -0.36251,0.899 -0.19773,0 -0.29659,-0.4259 -0.19773,-0.9464 0.13182,-0.757 -0.0329,-0.9936 -0.69205,-1.2301 -0.49433,-0.142 -1.05456,-0.3312 -1.25229,-0.4259 -0.19773,-0.095 -0.46137,0.142 -0.56023,0.5205 -0.0989,0.3785 0,0.6624 0.26364,0.6624 0.23068,0 0.52728,0.3785 0.59319,0.899 0.0989,0.5678 0.59318,0.9936 1.3841,1.2302 0.6591,0.1892 1.41706,0.4258 1.6807,0.5678 0.32955,0.1419 0.49433,-0.095 0.49433,-0.5678 l 0,0 z"
     id="path5678"
     inkscape:connector-curvature="0" /><path
     style="fill:#c48855"
     d="m 150.17556,55.92638 c 0.26364,-0.3785 -0.033,-1.1355 -0.46137,-1.1355 -0.16477,0 -0.29659,0.3312 -0.29659,0.7097 0,0.757 0.39546,0.9463 0.75796,0.4258 z"
     id="path5676"
     inkscape:connector-curvature="0" /><path
     style="fill:#c48855"
     d="m 147.04484,55.21668 c -0.16477,-0.757 -1.3841,-1.3248 -1.87843,-0.899 -0.23068,0.1893 -0.32955,0.6151 -0.19773,0.899 0.2966,0.7571 2.24094,0.7097 2.07616,0 l 0,0 z"
     id="path5674"
     inkscape:connector-curvature="0" /><path
     style="fill:#c48855"
     d="m 143.98004,54.83818 c 0.0989,-0.2839 -0.0989,-0.4732 -0.46137,-0.4732 -0.36251,0 -0.69206,0.1893 -0.69206,0.4732 0,0.2839 0.19773,0.4731 0.46137,0.4731 0.26364,0 0.59319,-0.2365 0.69206,-0.4731 z"
     id="path5672"
     inkscape:connector-curvature="0" /><path
     style="fill:#c48855"
     d="m 65.54733,52.47238 c 0.0989,-0.2839 0.033,-0.4731 -0.13182,-0.4731 -0.16477,0 -0.3625,0.1892 -0.3625,0.4731 0,0.2839 0.0659,0.4732 0.13182,0.4732 0.0659,0 0.26364,-0.2366 0.3625,-0.4732 z"
     id="path5670"
     inkscape:connector-curvature="0" /><path
     style="fill:#c48855"
     d="m 40.00727,49.39698 c 0,-0.095 -0.16477,-0.3312 -0.32955,-0.5205 -0.16477,-0.1893 -0.32955,-0.047 -0.32955,0.1893 0,0.2838 0.16478,0.5204 0.32955,0.5204 0.16478,0 0.32955,-0.047 0.32955,-0.1892 z"
     id="path5668"
     inkscape:connector-curvature="0" /><path
     style="fill:#c48855"
     d="m 100.21591,45.09128 c -0.0989,-0.142 -0.39546,-0.1893 -0.62615,-0.047 -0.26364,0.1419 -0.19773,0.2839 0.19773,0.2839 0.36251,0 0.56024,-0.095 0.42842,-0.2366 z"
     id="path5666"
     inkscape:connector-curvature="0" /><path
     style="fill:#c48855"
     d="m 79.22362,41.11678 c 0,-0.5204 -0.23068,-0.9463 -0.49432,-0.9463 -0.26364,0 -0.49432,0.4259 -0.49432,0.9463 0,0.5205 0.23068,0.9463 0.49432,0.9463 0.26364,0 0.49432,-0.4258 0.49432,-0.9463 z"
     id="path5664"
     inkscape:connector-curvature="0" /><path
     style="fill:#c48855"
     d="m 74.93949,40.17048 c 0,-0.6151 -0.36251,-0.6151 -0.98865,0 -0.39546,0.3785 -0.36251,0.4732 0.26364,0.4732 0.39546,0 0.72501,-0.2366 0.72501,-0.4732 z"
     id="path5662"
     inkscape:connector-curvature="0" /><path
     style="fill:#c48855"
     d="m 81.53047,39.69738 c 0,-0.2839 -0.16478,-0.4732 -0.32955,-0.4732 -0.16478,0 -0.32955,0.1893 -0.32955,0.4732 0,0.2839 0.16477,0.4731 0.32955,0.4731 0.16477,0 0.32955,-0.2366 0.32955,-0.4731 z"
     id="path5660"
     inkscape:connector-curvature="0" /><path
     style="fill:#c48855"
     d="m 127.83213,34.68198 c 0.52728,-0.3312 1.3841,-0.7571 1.84547,-0.8517 1.08751,-0.3312 2.60344,-2.0346 2.60344,-2.9335 0,-0.8517 -1.28524,-0.5678 -3.46027,0.757 -1.51592,0.9463 -2.27388,1.9872 -2.10911,2.9808 0.13182,0.5678 0.29659,0.5678 1.12047,0.047 l 0,0 z"
     id="path5658"
     inkscape:connector-curvature="0" /><path
     style="fill:#c48855"
     d="m 79.22362,26.68568 c 0,-0.095 -0.16477,-0.3312 -0.32954,-0.5205 -0.16478,-0.1892 -0.32955,-0.047 -0.32955,0.1893 0,0.2839 0.16477,0.5205 0.32955,0.5205 0.16477,0 0.32954,-0.047 0.32954,-0.1893 z"
     id="path5656"
     inkscape:connector-curvature="0" /><path
     style="fill:#c48855"
     d="m 81.53047,24.98238 0.82387,-0.899 -1.08751,0 c -0.72501,0 -1.08751,0.2366 -1.08751,0.6624 0.0329,1.1356 0.49432,1.1829 1.35115,0.2366 l 0,0 z"
     id="path5654"
     inkscape:connector-curvature="0" /><path
     style="fill:#c48855"
     d="m 85.48506,24.08338 c 0,-0.2839 -0.13182,-0.4732 -0.2966,-0.4732 -0.16477,0 -0.39545,0.1893 -0.52727,0.4732 -0.13182,0.2839 0.0329,0.4731 0.29659,0.4731 0.26364,0 0.52728,-0.2365 0.52728,-0.4731 z"
     id="path5652"
     inkscape:connector-curvature="0" /><path
     style="fill:#c48855"
     d="m 101.23751,21.29178 c 0.52728,-0.4732 1.35115,-3.454 1.15342,-4.2111 -0.19773,-0.8043 0.39546,-0.757 0.88978,0.142 0.46137,0.8043 3.95459,1.0409 3.95459,0.2366 0,-0.2839 -0.29659,-0.4732 -0.65909,-0.4732 -0.79092,0 -0.82388,-0.3785 -0.13182,-1.4668 0.32954,-0.5204 0.42841,-1.1828 0.29659,-1.8452 -0.19773,-0.8044 -0.46137,-0.9937 -1.58184,-0.899 -0.75796,0.047 -2.27389,-0.047 -3.3614,-0.2839 -1.64774,-0.2839 -2.07616,-0.2366 -2.43866,0.3785 -0.23069,0.4258 -0.69205,0.757 -0.98865,0.757 -0.85683,0 -1.05456,0.5205 -0.56023,1.3722 0.23068,0.4258 0.62614,1.7506 0.85683,2.9808 0.23068,1.2775 0.62614,2.2712 0.88978,2.2712 0.26364,0 0.46137,-0.1893 0.46137,-0.4732 0,-0.2839 0.13182,-0.4731 0.29659,-0.4731 0.16478,0 0.23069,0.3785 0.13182,0.8989 -0.19773,1.041 0.19773,1.6088 0.79092,1.0883 l 0,0 z"
     id="path5650"
     inkscape:connector-curvature="0" /><path
     style="fill:#c48855"
     d="m 99.65567,16.51298 c 0,-0.2839 0.13182,-0.4732 0.2966,-0.4732 0.16477,0 0.39546,0.1893 0.52728,0.4732 0.13182,0.2839 -0.033,0.4731 -0.2966,0.4731 -0.26364,0 -0.52728,-0.2366 -0.52728,-0.4731 z"
     id="path5648"
     inkscape:connector-curvature="0" /><path
     style="fill:#c48855"
     d="m 125.36051,19.39918 c 0,-0.2839 -0.23069,-0.5205 -0.52728,-0.5205 -0.29659,0 -0.79092,-0.5204 -1.15342,-1.1355 -0.39546,-0.7098 -1.08751,-1.2302 -1.9773,-1.3722 -1.61479,-0.3312 -3.59208,0.095 -3.59208,0.7097 0,0.2366 0.13182,0.3313 0.29659,0.1893 0.16478,-0.1419 0.72501,0.2839 1.18638,0.899 0.72501,0.9463 1.25228,1.1829 2.57048,1.1829 0.92274,0 2.01025,0.1419 2.43867,0.2839 0.46136,0.1892 0.75796,0.047 0.75796,-0.2366 l 0,0 z"
     id="path5646"
     inkscape:connector-curvature="0" /><path
     style="fill:#c48855"
     d="m 94.91016,17.41198 c 0.2966,-0.7098 -0.49432,-2.7916 -1.05455,-2.7916 -0.56024,0 -0.56024,0 0.0659,1.7979 0.56023,1.6561 0.6591,1.7507 0.98864,0.9937 l 0,0 z"
     id="path5644"
     inkscape:connector-curvature="0" /><path
     style="fill:#c48855"
     d="m 116.62746,17.03338 c 1.35115,-0.4258 0.52727,-1.1828 -1.38411,-1.2775 -1.45002,-0.047 -1.84548,0.3785 -0.82387,0.899 0.32954,0.142 0.725,0.3785 0.92273,0.4732 0.19773,0.095 0.75797,0.047 1.28525,-0.095 l 0,0 z"
     id="path5642"
     inkscape:connector-curvature="0" /><path
     style="fill:#c48855"
     d="m 113.49674,15.14078 c 0,-0.5204 -0.85683,-1.0409 -1.12047,-0.6624 -0.39546,0.5678 -0.16477,1.0883 0.46137,1.0883 0.3625,0 0.6591,-0.1893 0.6591,-0.4259 z"
     id="path5640"
     inkscape:connector-curvature="0" /><path
     style="fill:#bd824f"
     d="m 17.36725,103.71468 c 0.13181,-0.1893 1.28524,-0.3785 2.57048,-0.4732 1.28524,-0.095 2.53753,-0.3785 2.73526,-0.6151 0.19773,-0.2365 0.725,-0.3312 1.12046,-0.1892 0.42842,0.1419 0.72501,0.047 0.72501,-0.2366 0,-0.2839 -0.52728,-0.5205 -1.15342,-0.5205 -0.62614,0 -1.58184,-0.2838 -2.07616,-0.6624 -0.72501,-0.5204 -1.58184,-0.6151 -4.08641,-0.2839 -4.61369,0.5678 -5.27279,1.4668 -2.0432,2.7443 1.54888,0.6151 1.91138,0.6624 2.20798,0.2366 l 0,0 z"
     id="path5510"
     inkscape:connector-curvature="0" /><path
     style="fill:#bd824f"
     d="m 99.95227,100.26068 c 1.54888,-0.5205 1.94434,-1.2302 1.08751,-1.8453 -0.85683,-0.6624 -0.95569,-2.0819 -0.0989,-1.7033 0.32955,0.1419 1.15343,-0.142 1.84548,-0.6151 0.92274,-0.6625 1.58184,-0.8044 2.3398,-0.5205 1.18638,0.3785 1.45002,0.2366 1.45002,-0.9936 0,-1.0883 -1.51593,-1.2775 -8.53533,-1.1356 -4.97619,0.142 -5.80006,0.047 -6.12961,-0.6151 -0.69206,-1.3721 0.59319,-4.0218 2.63639,-5.3939 1.08751,-0.7097 1.9773,-3.7379 1.21933,-4.1164 -0.52728,-0.2366 -0.49432,-1.798 0.0659,-3.0755 0.62615,-1.4195 0.92274,-4.211 0.56024,-5.0154 -0.2966,-0.6624 -1.08752,-0.4258 -3.22959,1.0409 -0.59318,0.3786 -0.85682,0.3312 -1.3841,-0.3312 -0.75797,-0.9936 -1.35115,-0.6624 -1.12047,0.6624 0.13182,0.6625 0,0.9463 -0.3625,0.9463 -0.36251,0 -0.52728,0.4259 -0.52728,1.4195 0,1.3248 -0.0989,1.4194 -1.15342,1.4194 -0.62615,0 -1.15343,-0.1419 -1.15343,-0.2838 0,-0.5205 0.75797,-2.3658 1.41706,-3.4067 0.56024,-0.899 0.59319,-1.1829 0.23069,-1.798 -0.3625,-0.6151 -0.32955,-0.899 0.13182,-1.5614 0.52728,-0.757 0.59319,-0.757 0.98865,0 0.39546,0.757 0.52728,0.757 1.84547,0.095 1.08751,-0.5204 1.48297,-0.5678 1.6807,-0.1419 0.13182,0.3312 0.46137,0.4258 0.72501,0.2839 0.26364,-0.142 0.6591,0 0.85683,0.2839 0.29659,0.4258 0.46137,0.3785 0.69205,-0.142 0.46137,-1.0409 0.39546,-1.4194 -0.29659,-1.4194 -0.32955,0 -0.79092,-0.3312 -1.0216,-0.7098 -0.23069,-0.3785 -0.62615,-0.7097 -0.85683,-0.7097 -0.26364,0 -0.46137,-0.1892 -0.46137,-0.4731 0,-0.2839 -0.46137,-0.4732 -1.0216,-0.4732 -0.56024,0 -1.48298,-0.4731 -2.01025,-1.0409 l -1.02161,-1.041 -0.62614,1.0883 c -0.49432,0.899 -0.69205,0.9936 -1.12047,0.4731 -0.29659,-0.3785 -0.98864,-0.4731 -1.81252,-0.3312 -1.64774,0.3312 -1.91138,-0.2365 -0.69205,-1.514 1.15342,-1.1829 1.3182,-1.1829 2.0432,-0.2366 0.52728,0.6624 0.6591,0.6624 1.35116,0.047 0.49432,-0.4258 1.54888,-0.7097 2.90003,-0.6624 3.09776,0.047 4.74551,-0.7571 6.42621,-3.1701 1.64774,-2.3185 1.84547,-3.3594 0.69205,-4.0218 -0.42841,-0.2366 -0.85683,-0.6151 -0.92274,-0.899 -0.0659,-0.2366 -0.75796,-1.5614 -1.54888,-2.8389 -0.98865,-1.656 -1.48297,-2.9335 -1.54888,-4.0691 -0.0659,-0.899 0,-1.656 0.13182,-1.6087 0.13182,0.047 0.56023,-0.095 0.98865,-0.2839 0.75796,-0.3312 1.0216,-1.1829 0.42841,-1.1829 -0.59319,0 -0.3625,-0.8517 0.32955,-1.1829 0.92274,-0.4258 0.82387,-1.2302 -0.29659,-2.7916 -0.75797,-1.0409 -1.18638,-1.2775 -1.94434,-1.0409 -0.52728,0.142 -1.05456,0.1893 -1.12047,0.047 -0.3625,-0.5204 -4.94324,-0.4731 -5.07506,0.095 -0.19773,0.757 -3.88868,1.3248 -7.67849,1.1828 -2.9989,-0.095 -3.16368,-0.047 -3.92164,1.0883 -0.95569,1.4668 -1.21933,1.5141 -1.45001,0.2839 -0.2966,-1.6561 -1.21934,-1.1356 -1.21934,0.6624 0,1.3248 0.13182,1.656 0.82388,1.8926 0.65909,0.2366 0.82387,0.6151 0.82387,1.7507 0,1.3248 0.0659,1.4194 0.79092,1.1828 0.75796,-0.2839 1.61479,0.4259 1.87843,1.5614 0.13182,0.4732 7.15121,1.5614 7.61258,1.1829 0.39546,-0.3312 3.82277,0.757 4.08641,1.3248 0.32955,0.8044 -2.86707,4.6842 -3.62504,4.4003 -0.92274,-0.3312 -1.25228,0.142 -2.14207,2.7916 -0.52728,1.6087 -0.69205,2.7443 -0.56023,3.9272 0.0989,0.899 0.0329,1.6087 -0.13182,1.6087 -0.16478,0 -0.29659,-0.3785 -0.29659,-0.8044 0,-0.4258 -0.23069,-1.1828 -0.56024,-1.656 -0.52728,-0.8044 -0.49432,-0.9463 0.16478,-1.9399 0.85682,-1.2775 0.88978,-1.7507 0.19773,-1.7507 -0.26364,0 -0.82388,0.7571 -1.18638,1.6561 -0.6591,1.6087 -1.12047,2.2238 -0.85683,1.0882 0.13182,-0.5678 -0.85683,-2.2711 -1.35115,-2.2711 -0.16478,0 -0.52728,0.3785 -0.82387,0.8516 -0.42842,0.6625 -0.46137,0.9937 -0.16478,1.4195 0.62614,0.899 -0.16477,1.7507 -0.98865,1.0882 -0.82387,-0.615 -1.18637,0 -0.85682,1.4195 0.16477,0.7097 0.39546,0.899 0.88978,0.757 0.79092,-0.2838 1.58183,0.095 1.58183,0.7571 0,0.2839 -0.3625,0.3785 -0.82387,0.2366 -0.46137,-0.142 -0.98865,0.047 -1.18637,0.4258 -0.59319,1.0409 -1.28525,0.757 -1.28525,-0.5205 0,-0.6624 -0.16477,-1.1828 -0.3625,-1.1828 -0.19773,0 -0.2966,0.2838 -0.19773,0.615 0.0989,0.3313 -0.26364,1.3249 -0.79092,2.2239 l -0.95569,1.5614 0.0989,-1.5614 c 0.0989,-1.5614 0.0989,-1.5614 -1.48297,-1.6561 -0.85683,-0.047 -1.64774,0.095 -1.74661,0.2839 -0.0989,0.1893 0.0659,0.4259 0.32955,0.4259 0.2966,0 0.52728,0.3785 0.52728,0.8989 0,0.5205 0.0989,1.2776 0.23068,1.7507 0.19773,0.7097 0.0659,0.8044 -0.82387,0.5205 -0.59319,-0.1893 -1.12047,-0.095 -1.25229,0.1892 -0.32954,0.7571 0.033,0.9936 1.51593,1.1829 1.48297,0.142 2.17503,0.757 2.47162,2.1292 0.0989,0.5205 0.42841,0.899 0.69205,0.899 0.36251,0 0.42842,0.2839 0.26364,1.0409 -0.23068,0.9936 -0.19773,0.9936 0.39546,0.3785 0.32955,-0.3785 0.92274,-1.0409 1.28524,-1.5141 0.98865,-1.2302 2.47162,-1.656 2.47162,-0.7097 0,0.4259 -0.16477,0.899 -0.3625,1.0409 -0.19773,0.1893 -0.26364,0.7571 -0.19773,1.2776 0.0989,0.5204 0.0329,1.3721 -0.16478,1.8452 -0.23068,0.6151 -0.23068,0.8517 0.0659,0.7571 0.6591,-0.1893 0.72501,1.0409 0.0989,1.3248 -0.32955,0.142 -0.85683,0.4732 -1.18638,0.7097 -0.39546,0.2839 -0.82387,0.2839 -1.28524,-0.095 -0.79092,-0.6151 -3.42731,-0.2366 -4.08641,0.5678 -0.23068,0.2839 -0.59319,0.3785 -0.79092,0.1892 -0.59319,-0.5204 -2.30684,0.7571 -2.30684,1.7034 0,0.7097 0.3625,0.899 1.91138,1.1829 1.05456,0.1892 2.24094,0.7097 2.66935,1.2302 0.42841,0.4731 0.98865,0.8989 1.25229,0.8989 0.3625,0 0.42841,0.3313 0.26364,1.4195 -0.19773,1.2775 -0.0989,1.4668 0.92273,2.1292 0.62615,0.3785 2.30685,0.8043 3.72391,0.9936 2.86708,0.3312 3.42731,0.7097 2.73526,1.8926 -0.2966,0.5205 -0.75796,0.6624 -1.38411,0.5205 -0.75796,-0.2366 -0.92274,-0.095 -0.92274,0.6624 0,1.3248 1.45002,2.2238 2.14207,1.3721 0.42842,-0.5205 0.56024,-0.5205 0.79092,0 0.19773,0.4259 0.69206,0.5678 1.61479,0.3785 0.75797,-0.1419 1.41706,-0.095 1.51593,0.095 0.19773,0.4731 3.85572,0.3785 4.383,-0.142 0.23069,-0.2366 0.92274,-0.2839 1.51593,-0.095 0.62614,0.1893 1.48297,0.047 2.01025,-0.2839 0.82387,-0.5205 0.95569,-0.4732 1.38411,0.4732 0.59318,1.2775 1.18637,1.3721 0.92273,0.1892 -0.16477,-0.7097 0.0659,-0.9936 1.25229,-1.4668 2.14207,-0.8516 3.78982,0.1893 2.20798,1.3722 -0.3625,0.2839 -1.05456,0.5204 -1.58184,0.5204 l -0.92273,0 0.82387,0.6625 c 0.92274,0.6151 1.0216,0.6151 2.60344,0.095 l 0,0 z"
     id="path5508"
     inkscape:connector-curvature="0" /><path
     style="fill:#bd824f"
     d="m 84.82596,95.95498 c 0,-0.2366 0.16477,-0.4258 0.32955,-0.4258 0.16477,0 0.32955,0.3312 0.32955,0.757 0,0.4259 -0.16478,0.6151 -0.32955,0.4259 -0.16478,-0.1893 -0.32955,-0.5205 -0.32955,-0.7571 z"
     id="path5506"
     inkscape:connector-curvature="0" /><path
     style="fill:#bd824f"
     d="m 83.24412,94.86678 c -0.0659,-0.4732 0.0989,-0.8044 0.42842,-0.8044 0.29659,0 0.52728,0.4258 0.52728,0.9936 -0.033,1.1829 -0.79092,0.9936 -0.9557,-0.1892 l 0,0 z"
     id="path5504"
     inkscape:connector-curvature="0" /><path
     style="fill:#bd824f"
     d="m 93.4931,84.50478 c 0.16478,-0.6625 0.69206,-0.6151 0.85683,0.1419 0.0659,0.2839 -0.13182,0.4732 -0.42841,0.4732 -0.32955,0 -0.52728,-0.2839 -0.42842,-0.6151 z"
     id="path5502"
     inkscape:connector-curvature="0" /><path
     style="fill:#bd824f"
     d="m 86.01234,80.19908 c 0.16477,-0.6151 0.32955,-0.6624 0.6591,-0.2366 0.3625,0.4258 0.3625,0.7097 0.0659,1.2302 -0.46137,0.8044 -1.02161,0.095 -0.72501,-0.9936 l 0,0 z"
     id="path5500"
     inkscape:connector-curvature="0" /><path
     style="fill:#bd824f"
     d="m 81.03614,81.09808 c 0,-0.2366 0.26364,-0.5205 0.59319,-0.6151 0.36251,-0.095 0.59319,0.1419 0.59319,0.6151 0,0.4731 -0.23068,0.7097 -0.59319,0.6151 -0.32955,-0.095 -0.59319,-0.3786 -0.59319,-0.6151 z"
     id="path5498"
     inkscape:connector-curvature="0" /><path
     style="fill:#bd824f"
     d="m 91.1533,79.67858 c -0.13182,-0.1892 -0.0989,-0.2839 0.0989,-0.1892 0.16477,0.095 0.95569,-0.3312 1.71365,-0.899 1.38411,-1.041 2.73526,-1.3722 2.73526,-0.6624 0,0.7097 -0.82387,1.8926 -1.48297,2.1291 -0.88978,0.2366 -2.76821,0.047 -3.06481,-0.3785 l 0,0 z"
     id="path5496"
     inkscape:connector-curvature="0" /><path
     style="fill:#bd824f"
     d="m 85.51801,78.06988 c -0.3625,-0.3312 -0.29659,-0.4731 0.26364,-0.757 0.82388,-0.3786 1.18638,-0.095 0.85683,0.6624 -0.23068,0.6151 -0.49432,0.6151 -1.12047,0.095 z"
     id="path5494"
     inkscape:connector-curvature="0" /><path
     style="fill:#bd824f"
     d="m 81.53047,77.26558 c 0,-0.4259 0.16477,-0.6625 0.39546,-0.5678 0.62614,0.2839 0.72501,1.3248 0.13182,1.3248 -0.2966,0 -0.52728,-0.3785 -0.52728,-0.757 z"
     id="path5492"
     inkscape:connector-curvature="0" /><path
     style="fill:#bd824f"
     d="m 79.55317,75.94068 c 0,-0.6624 2.27389,-2.4604 2.53753,-2.0345 0.32955,0.4731 -0.26364,1.7506 -0.98865,2.1292 -1.05455,0.6624 -1.54888,0.6151 -1.54888,-0.095 z"
     id="path5490"
     inkscape:connector-curvature="0" /><path
     style="fill:#bd824f"
     d="m 83.04639,74.94708 c -0.49432,-1.0882 -0.49432,-1.1829 0.19773,-1.8926 0.82388,-0.8517 1.77957,-0.9463 2.07616,-0.2366 0.13182,0.2839 0.69206,0.3786 1.35116,0.1893 0.98864,-0.2839 1.12046,-0.1893 1.12046,0.6151 0,0.7097 -0.39546,1.1356 -1.58183,1.656 -2.14207,1.0409 -2.53753,0.9936 -3.16368,-0.3312 z"
     id="path5488"
     inkscape:connector-curvature="0" /><path
     style="fill:#bd824f"
     d="m 93.85561,48.87648 c 0.85683,-0.899 1.35115,-0.3312 0.6591,0.8043 -0.42842,0.6625 -0.6591,0.7571 -0.92274,0.3786 -0.26364,-0.3786 -0.16478,-0.7098 0.26364,-1.1829 z"
     id="path5486"
     inkscape:connector-curvature="0" /><path
     style="fill:#bd824f"
     d="m 94.87721,45.84828 c 0.0989,-0.2839 0.26364,-0.4731 0.3625,-0.4731 0.0989,0 0.13182,0.1892 0.13182,0.4731 0,0.2839 -0.16477,0.4732 -0.3625,0.4732 -0.19773,0 -0.23068,-0.2366 -0.13182,-0.4732 z"
     id="path5484"
     inkscape:connector-curvature="0" /><path
     style="fill:#bd824f"
     d="m 51.87104,99.78748 c 0,-0.2839 -0.29659,-0.4731 -0.69205,-0.4731 -0.39546,0 -0.59319,0.1892 -0.46137,0.4731 0.13182,0.2839 0.42842,0.4732 0.69205,0.4732 0.26364,0 0.46137,-0.2366 0.46137,-0.4732 z"
     id="path5482"
     inkscape:connector-curvature="0" /><path
     style="fill:#bd824f"
     d="m 104.92846,98.36808 c 0,-0.5678 -0.19773,-0.9936 -0.52728,-0.9936 -0.29659,0 -0.46137,0.3312 -0.42841,0.8043 0.19773,1.1829 0.95569,1.3722 0.95569,0.1893 l 0,0 z"
     id="path5480"
     inkscape:connector-curvature="0" /><path
     style="fill:#bd824f"
     d="m 106.74098,97.84758 c 0.32955,-0.7097 -0.13182,-1.1829 -0.52728,-0.5678 -0.23068,0.3312 -0.23068,0.6151 -0.033,0.8044 0.19773,0.1419 0.46137,0.047 0.56023,-0.2366 z"
     id="path5478"
     inkscape:connector-curvature="0" /><path
     style="fill:#bd824f"
     d="m 109.70692,97.51638 c 0.36251,-0.1419 0.79092,-0.4258 0.9557,-0.6624 0.49432,-0.6624 -0.82388,-1.1356 -1.48298,-0.5205 -0.32955,0.2839 -0.82387,0.5678 -1.12046,0.5678 -0.2966,0 -0.49433,0.1893 -0.49433,0.4732 0,0.5204 0.9557,0.5677 2.14207,0.1419 z"
     id="path5476"
     inkscape:connector-curvature="0" /><path
     style="fill:#bd824f"
     d="m 109.47624,93.25808 c -0.13182,-0.9937 -1.45002,-1.3722 -2.10912,-0.5678 -0.69205,0.8516 -0.26364,1.4194 1.05456,1.4194 0.95569,0 1.15342,-0.1892 1.05456,-0.8516 l 0,0 z"
     id="path5474"
     inkscape:connector-curvature="0" /><path
     style="fill:#bd824f"
     d="m 76.25768,79.67858 c 0,-0.757 -0.19773,-1.1829 -0.52728,-1.1829 -0.3625,0 -0.46137,0.2366 -0.32955,0.7571 0.0989,0.4258 0.19773,0.9463 0.19773,1.1829 0,0.2365 0.16478,0.4258 0.32955,0.4258 0.16478,0 0.32955,-0.5678 0.32955,-1.1829 z"
     id="path5472"
     inkscape:connector-curvature="0" /><path
     style="fill:#bd824f"
     d="m 72.96219,80.29368 c 0,-0.7097 -1.25229,-2.9808 -1.48297,-2.6969 -0.0659,0.095 -0.033,0.8516 0.0989,1.6087 0.2966,1.3721 1.38411,2.2711 1.38411,1.0882 z"
     id="path5470"
     inkscape:connector-curvature="0" /><path
     style="fill:#bd824f"
     d="m 67.62349,72.20278 c 1.35116,-1.3721 1.21934,-1.9872 -0.56023,-2.1765 -1.35115,-0.1419 -1.41706,-0.095 -1.21933,0.9463 0.0989,0.6151 0.19773,1.3722 0.19773,1.7034 0,0.8517 0.3625,0.757 1.58183,-0.4732 z"
     id="path5468"
     inkscape:connector-curvature="0" /><path
     style="fill:#bd824f"
     d="m 16.51042,73.00718 c -0.0989,-0.142 -0.39546,-0.1893 -0.62615,-0.047 -0.26364,0.1419 -0.19773,0.2839 0.19773,0.2839 0.36251,0 0.56024,-0.095 0.42842,-0.2366 z"
     id="path5466"
     inkscape:connector-curvature="0" /><path
     style="fill:#bd824f"
     d="m 127.53553,71.35118 c 0.32955,-0.8044 -0.42841,-1.7034 -0.88978,-1.041 -0.39546,0.5678 -0.13182,1.5614 0.3625,1.5614 0.16478,0 0.39546,-0.2365 0.52728,-0.5204 l 0,0 z"
     id="path5464"
     inkscape:connector-curvature="0" /><path
     style="fill:#bd824f"
     d="m 64.36096,71.20918 c 0.3625,-0.6151 0.3625,-0.8043 -0.0989,-1.0409 -0.88978,-0.4732 -1.28524,-0.047 -0.79092,0.899 0.42842,0.8043 0.49433,0.8043 0.88979,0.1419 l 0,0 z"
     id="path5462"
     inkscape:connector-curvature="0" /><path
     style="fill:#bd824f"
     d="m 133.92879,69.74248 c 0,-0.3786 -0.16478,-0.7098 -0.32955,-0.7098 -0.16478,0 -0.32955,0.3312 -0.32955,0.7098 0,0.3785 0.16477,0.7097 0.32955,0.7097 0.16477,0 0.32955,-0.3312 0.32955,-0.7097 z"
     id="path5460"
     inkscape:connector-curvature="0" /><path
     style="fill:#bd824f"
     d="m 136.16972,69.36388 c -0.0659,-0.3312 -0.42841,-0.6624 -0.75796,-0.757 -0.52728,-0.142 -0.56024,-0.047 -0.16478,0.6151 0.49433,0.899 1.12047,0.9936 0.92274,0.1419 z"
     id="path5458"
     inkscape:connector-curvature="0" /><path
     style="fill:#bd824f"
     d="m 39.77659,66.52498 c 2.30684,-0.2366 4.21823,-0.6151 4.21823,-0.8516 0,-0.5205 -1.21933,-1.041 -2.6364,-1.1829 -3.3614,-0.2839 -10.18306,-1.2302 -11.03989,-1.5141 -1.25229,-0.4258 -2.37276,-0.5678 -5.27279,-0.7097 -1.94434,-0.095 -2.30684,0 -2.40571,0.6624 -0.0659,0.5678 0.23069,0.899 1.15342,1.2302 0.69206,0.2365 1.91139,0.6624 2.73526,0.9936 1.21933,0.4731 9.0626,2.0819 9.0626,1.8453 -0.0329,0 1.87843,-0.2366 4.18528,-0.4732 l 0,0 z"
     id="path5456"
     inkscape:connector-curvature="0" /><path
     style="fill:#bd824f"
     d="m 75.13721,66.14648 c 0.13182,-0.2839 0.13182,-0.6151 0.033,-0.757 -0.23068,-0.3312 -0.88978,0.2365 -0.88978,0.8043 0,0.6151 0.56023,0.5678 0.85682,-0.047 z"
     id="path5454"
     inkscape:connector-curvature="0" /><path
     style="fill:#bd824f"
     d="m 45.93916,65.72068 c 0,-0.2839 -0.2966,-0.4732 -0.69206,-0.4732 -0.39545,0 -0.59318,0.1893 -0.46136,0.4732 0.13182,0.2839 0.42841,0.4731 0.69205,0.4731 0.26364,0 0.46137,-0.2366 0.46137,-0.4731 z"
     id="path5452"
     inkscape:connector-curvature="0" /><path
     style="fill:#bd824f"
     d="m 69.0076,64.49048 c 0,-0.4259 -0.16477,-0.6624 -0.39546,-0.5678 -0.62614,0.2839 -0.72501,1.3248 -0.13182,1.3248 0.2966,0 0.52728,-0.3785 0.52728,-0.757 z"
     id="path5450"
     inkscape:connector-curvature="0" /><path
     style="fill:#bd824f"
     d="m 19.90477,62.88178 c 0,-0.8517 -0.39546,-1.94 -0.725,-1.94 -0.16478,0 -0.69206,-0.4258 -1.15343,-0.9463 -0.46137,-0.5204 -1.05455,-0.9463 -1.31819,-0.9463 -0.6591,0 -1.71366,1.94 -1.71366,3.2175 0,1.2302 0.32955,1.2775 2.14207,0.3785 1.15342,-0.5678 1.35115,-0.5678 1.6807,0 0.39546,0.757 1.08751,0.9463 1.08751,0.2366 l 0,0 z"
     id="path5448"
     inkscape:connector-curvature="0" /><path
     style="fill:#bd824f"
     d="m 73.12696,45.84828 c 0.0989,-0.2839 0.033,-0.4731 -0.13181,-0.4731 -0.16478,0 -0.36251,0.1892 -0.36251,0.4731 0,0.2839 0.0659,0.4732 0.13182,0.4732 0.0659,0 0.26364,-0.2366 0.3625,-0.4732 z"
     id="path5446"
     inkscape:connector-curvature="0" /><path
     style="fill:#bd824f"
     d="m 96.36018,21.71758 c 0,-0.2839 -0.19773,-0.4731 -0.46137,-0.4731 -0.26364,0 -0.56023,0.1892 -0.69205,0.4731 -0.13182,0.2839 0.0989,0.4732 0.46137,0.4732 0.3625,0 0.69205,-0.2366 0.69205,-0.4732 z"
     id="path5444"
     inkscape:connector-curvature="0" /><path
     style="fill:#bd824f"
     d="m 87.69304,21.52838 c 0.29659,-0.7098 -0.13182,-0.899 -2.37276,-1.041 -1.51592,-0.095 -2.14207,0 -2.0432,0.3786 0.13182,0.7097 4.18527,1.2775 4.41596,0.6624 z"
     id="path5442"
     inkscape:connector-curvature="0" /><path
     style="fill:#bd824f"
     d="m 75.76336,21.24448 c 0.0989,-0.2839 -0.033,-0.4732 -0.2966,-0.4732 -0.59318,0 -0.65909,0.2839 -0.19773,0.7098 0.16478,0.095 0.39546,0 0.49433,-0.2366 l 0,0 z"
     id="path5440"
     inkscape:connector-curvature="0" /><path
     style="fill:#bd824f"
     d="m 82.18957,20.77128 c 0,-0.2839 -0.13182,-0.4731 -0.2966,-0.4731 -0.16477,0 -0.39546,0.1892 -0.52728,0.4731 -0.13182,0.2839 0.033,0.4732 0.2966,0.4732 0.26364,0 0.52728,-0.2366 0.52728,-0.4732 z"
     id="path5438"
     inkscape:connector-curvature="0" /><path
     style="fill:#ba7b44"
     d="m 17.69679,102.38988 c 0.13182,-0.5205 -0.0659,-0.6624 -0.79091,-0.6151 -0.75797,0.047 -0.88979,0.1892 -0.59319,0.6624 0.49432,0.8517 1.18637,0.8043 1.3841,-0.047 l 0,0 z"
     id="path5192"
     inkscape:connector-curvature="0" /><path
     style="fill:#ba7b44"
     d="m 89.43965,97.84758 c 0.26364,-0.2366 1.0216,-0.3312 1.6807,-0.1892 0.6591,0.1419 2.57048,-0.047 4.28414,-0.4732 1.71365,-0.4258 3.39436,-0.757 3.75686,-0.757 1.45002,0 2.37275,-0.3312 3.46027,-1.1829 l 1.15342,-0.899 -0.98865,-0.3785 c -0.56023,-0.2366 -1.28524,-0.2839 -1.64775,-0.1893 -0.56023,0.1893 -8.766,0.3785 -10.38079,0.2366 -0.26364,0 -0.79092,0.095 -1.18638,0.2839 -0.52728,0.2366 -0.82387,0 -1.28524,-0.9936 -0.32955,-0.7098 -0.42842,-1.1356 -0.26364,-0.9936 0.16477,0.1419 0.59319,-0.142 0.92273,-0.6625 0.32955,-0.5204 0.88979,-0.9463 1.28525,-0.9463 0.39546,0 1.18637,-0.757 1.81252,-1.656 0.62614,-0.899 1.21933,-1.656 1.31819,-1.656 0.0989,0 0.39546,-0.1893 0.6591,-0.4259 0.36251,-0.3312 0.32955,-0.6151 -0.26364,-1.4194 -0.82387,-1.1829 -0.88978,-2.555 -0.19773,-3.3594 0.26364,-0.3312 0.49433,-0.757 0.49433,-0.9936 0,-0.6624 -5.50347,-0.4731 -6.68985,0.1893 -0.59319,0.3312 -1.81252,0.5677 -2.7023,0.5204 -1.77957,-0.095 -5.20688,0.8044 -7.25009,1.8453 -0.85682,0.4732 -1.94434,0.6151 -3.19662,0.4259 -1.05456,-0.142 -2.30685,0 -2.83413,0.2365 -0.49432,0.2839 -1.31819,0.6151 -1.81252,0.8044 -0.49432,0.1419 -0.92273,0.4731 -0.92273,0.7097 0,0.4258 2.4057,1.1356 4.05345,1.1356 0.62614,0 1.18638,0.4731 1.74661,1.3721 0.6591,1.0883 0.92274,1.2775 1.28524,0.8517 0.32955,-0.3785 0.52728,-0.3785 0.69206,-0.047 0.16477,0.3785 0.3625,0.3785 0.69205,-0.047 0.26364,-0.2839 0.46137,-0.4259 0.46137,-0.2839 0,0.1419 0.0989,0.5677 0.19773,0.9463 0.13182,0.5204 -0.13182,0.7097 -1.18638,0.7097 -1.54888,0.047 -2.20798,0.6151 -1.54888,1.3721 0.75796,0.899 7.34895,2.0346 8.50237,1.4668 0.85683,-0.4258 1.12047,-0.3785 1.6807,0.3785 0.62614,0.8044 0.69205,0.8044 0.98865,0.047 0.29659,-0.757 0.39546,-0.7097 1.08751,0.4732 0.92274,1.5614 0.79092,2.2711 -0.59319,2.9808 -0.59319,0.3312 -0.85683,0.6624 -0.62614,0.8044 0.23068,0.1419 0.62614,0 0.88978,-0.3312 0.32955,-0.3785 0.6591,-0.4258 1.12047,-0.047 0.79091,0.757 0.72501,0.757 1.35115,0.1419 l 0,0 z"
     id="path5190"
     inkscape:connector-curvature="0" /><path
     style="fill:#ba7b44"
     d="m 83.73845,97.61098 c -0.0989,-0.1419 -0.39546,-0.1892 -0.62615,-0.047 -0.26363,0.142 -0.19772,0.2839 0.19773,0.2839 0.36251,0 0.56024,-0.095 0.42842,-0.2366 z"
     id="path5188"
     inkscape:connector-curvature="0" /><path
     style="fill:#ba7b44"
     d="m 95.70108,76.60308 c 0.26364,-0.2365 0.39546,-0.5677 0.26364,-0.757 -0.29659,-0.4258 -1.25228,0.095 -1.25228,0.7097 0,0.6151 0.32954,0.6151 0.98864,0.047 l 0,0 z"
     id="path5186"
     inkscape:connector-curvature="0" /><path
     style="fill:#ba7b44"
     d="m 75.7304,73.19648 c 0.36251,-0.7571 0.39546,-1.1356 0.13182,-1.3722 -0.42841,-0.3785 -0.95569,-0.047 -2.24093,1.4668 l -0.82387,0.9463 1.21933,0 c 0.88978,0 1.35115,-0.2839 1.71365,-1.0409 l 0,0 z"
     id="path5184"
     inkscape:connector-curvature="0" /><path
     style="fill:#ba7b44"
     d="m 81.00319,72.95988 c 0.32955,-0.4732 0.26364,-1.5614 -0.0989,-1.5614 -0.39546,0 -0.72501,1.3248 -0.39546,1.6087 0.16477,0.1419 0.3625,0.095 0.49432,-0.047 z"
     id="path5182"
     inkscape:connector-curvature="0" /><path
     style="fill:#ba7b44"
     d="m 92.83401,72.01358 c 0.13181,-0.1893 0.13181,-0.4732 0.0329,-0.7098 -0.19773,-0.4731 -0.79092,-0.047 -0.79092,0.5678 0,0.5205 0.46137,0.6151 0.75797,0.142 z"
     id="path5180"
     inkscape:connector-curvature="0" /><path
     style="fill:#ba7b44"
     d="m 86.47371,71.44578 c 0.46136,-1.1829 -0.19773,-1.9872 -1.21934,-1.4195 -0.92273,0.4732 -0.95569,1.1829 -0.0989,1.8453 0.82387,0.6151 0.92274,0.6151 1.3182,-0.4258 l 0,0 z"
     id="path5178"
     inkscape:connector-curvature="0" /><path
     style="fill:#ba7b44"
     d="m 83.60663,71.54078 c 0.49432,-0.7097 0.19773,-2.0345 -0.42842,-2.0345 -0.3625,0 -0.82387,-0.5205 -1.08751,-1.2775 -0.49432,-1.4195 -1.0216,-1.7034 -1.18637,-0.5678 -0.0659,0.4258 0.26363,0.9936 0.79091,1.3248 0.49433,0.3312 0.79092,0.7097 0.69206,0.8517 -0.23069,0.3312 0.3625,2.0345 0.725,2.0345 0.16478,0 0.39546,-0.1419 0.49433,-0.3312 l 0,0 z"
     id="path5176"
     inkscape:connector-curvature="0" /><path
     style="fill:#ba7b44"
     d="m 85.4521,66.47808 c 0.2966,-0.4731 0.92274,-0.5678 2.53753,-0.4258 3.09776,0.3785 8.66715,-0.7098 8.93078,-1.7034 0.0989,-0.4258 0.49433,-1.3248 0.82388,-2.0345 0.62614,-1.2775 0.62614,-1.2775 -0.0989,-2.8389 -1.21933,-2.555 -3.7239,-6.0564 -4.31709,-6.0564 -0.2966,0 -0.62614,-0.3312 -0.75796,-0.7097 -0.13182,-0.5205 -0.69206,-0.7097 -1.84548,-0.7097 -0.92274,0 -1.64775,-0.1893 -1.64775,-0.4258 0,-0.2366 0.72501,-0.4259 1.6148,-0.4259 1.87843,0 2.33979,-0.2839 2.33979,-1.5141 0,-0.4731 0.23069,-1.1355 0.49433,-1.4667 0.26364,-0.3312 0.49432,-1.041 0.49432,-1.5614 0,-0.5205 0.23069,-1.3722 0.56024,-1.8453 0.49432,-0.7571 0.49432,-0.8517 0.033,-0.8517 -0.29659,0 -0.62614,0.2366 -0.75796,0.5205 -0.13182,0.2839 -0.46137,0.3785 -0.75797,0.1892 -0.29659,-0.1892 -1.48297,-0.4258 -2.60343,-0.5204 -1.58184,-0.142 -2.10912,-0.047 -2.24094,0.4731 -0.0989,0.3785 -0.6591,0.6624 -1.3841,0.6624 -8.86488,0.095 -8.56828,0.047 -8.79897,1.041 -0.0989,0.5204 -0.39546,0.9463 -0.59319,0.9936 -0.23068,0.047 -0.69205,0.095 -1.05455,0.1419 -0.52728,0.047 -0.62615,0.3312 -0.56024,1.4668 0.0659,0.8043 0.26364,1.5141 0.42842,1.5614 0.16477,0.095 0.725,0.6624 1.21933,1.2302 1.08751,1.3248 3.3614,2.0818 6.82167,2.3184 3.26253,0.2366 8.13986,1.7034 7.97509,2.4131 -0.0659,0.2839 -0.62615,0.6151 -1.25229,0.757 -0.72501,0.142 -0.98865,0.3786 -0.72501,0.6151 0.6591,0.6151 0.46137,1.4195 -0.26364,1.1356 -0.42841,-0.142 -1.15342,0.1893 -1.84547,0.899 -0.6591,0.6151 -1.35115,1.1355 -1.54888,1.1355 -0.88979,0 -2.14207,1.2302 -2.17503,2.0819 0,0.5205 -0.23068,1.2775 -0.49432,1.7034 -0.26364,0.4258 -0.39546,1.1355 -0.2966,1.5613 0.26364,0.9937 1.21933,1.0883 1.74661,0.1893 l 0,0 z"
     id="path5174"
     inkscape:connector-curvature="0" /><path
     style="fill:#ba7b44"
     d="m 77.11451,48.64028 c 0.29659,-0.6624 0.49432,-0.5204 0.49432,0.2839 0,0.4258 -0.16477,0.6151 -0.32955,0.4258 -0.16477,-0.1892 -0.29659,-0.4731 -0.16477,-0.7097 z"
     id="path5172"
     inkscape:connector-curvature="0" /><path
     style="fill:#ba7b44"
     d="m 39.67772,66.24148 c 0.69206,-0.3312 0.2966,-1.4194 -0.56023,-1.7033 -0.49432,-0.142 -2.60344,-0.3785 -4.64664,-0.5205 -2.04321,-0.1419 -4.11937,-0.4731 -4.54778,-0.7097 -0.46137,-0.2366 -1.21933,-0.4258 -1.71366,-0.4258 -0.49432,0 -1.81252,-0.095 -2.93298,-0.142 -1.35116,-0.095 -2.04321,0 -1.94434,0.3312 0.0989,0.4259 1.0216,0.8517 5.96484,2.697 1.15342,0.4258 9.65579,0.8517 10.38079,0.4731 l 0,0 z"
     id="path5170"
     inkscape:connector-curvature="0" /><path
     style="fill:#ba7b44"
     d="m 42.67662,65.67378 c 0.36251,-0.3313 0.32955,-0.4732 -0.13182,-0.7098 -0.32955,-0.1892 -0.72501,-0.095 -0.92274,0.142 -0.46136,0.6151 0.42842,1.1355 1.05456,0.5678 z"
     id="path5168"
     inkscape:connector-curvature="0" /><path
     style="fill:#ba7b44"
     d="m 17.53202,60.89488 c -0.0659,-0.3312 -0.42841,-0.7097 -0.72501,-0.8043 -0.3625,-0.095 -0.52728,0.047 -0.42841,0.4731 0.0659,0.3312 0.42841,0.7097 0.72501,0.8044 0.3625,0.095 0.52727,-0.047 0.42841,-0.4732 z"
     id="path5166"
     inkscape:connector-curvature="0" /><path
     style="fill:#af6b30"
     d="m 83.4089,91.79128 c 0.13182,-0.7571 0.29659,-0.8044 1.08751,-0.3785 0.75796,0.4258 1.12047,0.3312 2.10912,-0.5205 0.65909,-0.5678 1.41706,-0.899 1.64774,-0.757 0.52728,0.2838 0.98865,-0.5205 0.69205,-1.2302 -0.13181,-0.3312 -0.3625,-0.3312 -0.69205,0.095 -0.59319,0.7097 -1.12047,-0.142 -0.85683,-1.5141 0.13182,-0.8043 0.23069,-0.8043 1.58184,-0.095 1.3182,0.7097 1.48297,0.7097 2.0432,0 0.32955,-0.4259 0.79092,-0.6151 1.02161,-0.5205 0.29659,0.142 0.39546,-0.095 0.32955,-0.6624 -0.0659,-0.4731 -0.46137,-0.9463 -0.85683,-1.0409 -0.92274,-0.1893 -0.95569,-1.3249 -0.0659,-1.7507 0.3625,-0.1892 0.62614,-0.5678 0.56023,-0.8517 -0.16477,-0.6624 -3.26253,-0.6624 -5.99779,0.095 -1.08752,0.2839 -3.29549,0.8043 -4.87733,1.1828 -3.03185,0.6625 -3.95459,1.3249 -3.26254,2.3185 0.19773,0.2839 0.72501,0.5678 1.15342,0.6151 0.52728,0.047 0.75797,0.3785 0.72501,1.0882 -0.0329,1.2775 0.42842,1.2775 1.51593,0.095 1.12047,-1.2775 1.97729,-1.2302 1.97729,0.1419 0,1.7034 -0.46136,2.3184 -1.3841,1.9872 -0.6591,-0.2365 -0.92274,-0.095 -1.21933,0.7098 -0.52728,1.4194 -0.16478,1.9399 1.35115,1.9399 0.95569,-0.047 1.28524,-0.2839 1.41706,-0.9463 l 0,0 z"
     id="path4948"
     inkscape:connector-curvature="0" /><path
     style="fill:#af6b30"
     d="m 35.88791,65.24748 c 0.13182,-0.2839 -0.26364,-0.4731 -0.95569,-0.4731 -0.6591,0 -1.18638,0.1892 -1.18638,0.4731 0,0.2839 0.42841,0.4732 0.95569,0.4732 0.52728,0 1.08751,-0.2366 1.18638,-0.4732 z"
     id="path4946"
     inkscape:connector-curvature="0" /><path
     style="fill:#af6b30"
     d="m 32.92197,65.24748 c 0.26364,-0.6151 -0.26364,-0.9463 -0.79092,-0.5204 -0.32955,0.2838 -0.2966,0.4258 0.0989,0.6624 0.2966,0.1419 0.59319,0.095 0.69206,-0.142 z"
     id="path4944"
     inkscape:connector-curvature="0" /><path
     style="fill:#af6b30"
     d="m 29.95602,64.30118 c -0.0989,-0.2839 -0.42841,-0.4731 -0.69205,-0.4731 -0.26364,0 -0.46137,0.1892 -0.46137,0.4731 0,0.2839 0.2966,0.4732 0.69205,0.4732 0.39546,0 0.59319,-0.2366 0.46137,-0.4732 z"
     id="path4942"
     inkscape:connector-curvature="0" /><path
     style="fill:#af6b30"
     d="m 94.97607,63.68608 c 1.3182,-0.4258 1.81253,-1.3248 1.08752,-1.9872 -0.19773,-0.1893 -0.13182,-0.7097 0.19773,-1.4195 0.75796,-1.656 0.19773,-1.7033 -1.9773,-0.1892 -1.08751,0.757 -2.3398,1.3721 -2.80117,1.3721 -0.79091,0 -4.31709,2.0819 -4.31709,2.5077 -0.033,0.3785 6.42621,0.142 7.81031,-0.2839 l 0,0 z"
     id="path4940"
     inkscape:connector-curvature="0" /><path
     style="fill:#af6b30"
     d="m 93.72379,55.31128 c 0,-0.2838 -0.16478,-0.5204 -0.32955,-0.5204 -0.16478,0 -0.32955,0.095 -0.32955,0.1892 0,0.095 0.16477,0.3312 0.32955,0.5205 0.16477,0.1893 0.32955,0.095 0.32955,-0.1893 z"
     id="path4938"
     inkscape:connector-curvature="0" /><path
     style="fill:#af6b30"
     d="m 90.92262,53.89188 c -0.0989,-0.2839 -0.49432,-0.4732 -0.85683,-0.4732 -0.3625,0 -0.56023,0.1893 -0.46137,0.4732 0.0989,0.2839 0.49433,0.4731 0.85683,0.4731 0.36251,0 0.59319,-0.2365 0.46137,-0.4731 z"
     id="path4936"
     inkscape:connector-curvature="0" /><path
     style="fill:#af6b30"
     d="m 88.22032,52.89828 c -0.16478,-0.2366 -1.08752,-0.6151 -2.01025,-0.7571 -1.41706,-0.2365 -1.71366,-0.1419 -1.71366,0.4259 0,0.5678 0.42841,0.757 2.01025,0.757 1.35115,0 1.94434,-0.1419 1.71366,-0.4258 z"
     id="path4934"
     inkscape:connector-curvature="0" /><path
     style="fill:#af6b30"
     d="m 80.54182,51.05298 c 0,-0.2839 -0.16477,-0.4732 -0.32955,-0.4732 -0.16477,0 -0.32955,0.1893 -0.32955,0.4732 0,0.2839 0.16478,0.4731 0.32955,0.4731 0.16478,0 0.32955,-0.2365 0.32955,-0.4731 z"
     id="path4932"
     inkscape:connector-curvature="0" /><path
     style="fill:#af6b30"
     d="m 86.50666,49.68078 c 0.49432,-0.2838 0.46137,-0.3785 -0.0329,-1.1828 -0.49433,-0.7571 -0.62615,-0.7571 -0.9557,-0.142 -0.23068,0.3785 -0.29659,0.9463 -0.19773,1.1829 0.23069,0.6151 0.42842,0.6151 1.18638,0.1419 z"
     id="path4930"
     inkscape:connector-curvature="0" /><path
     style="fill:#af6b30"
     d="m 89.43965,49.16038 c 0.26364,-0.2366 0.3625,-0.5678 0.23068,-0.7571 -0.13182,-0.1892 -0.42841,-0.095 -0.62614,0.1893 -0.49432,0.7097 -0.23068,1.0882 0.39546,0.5678 l 0,0 z"
     id="path4928"
     inkscape:connector-curvature="0" /><path
     style="fill:#af6b30"
     d="m 80.41,47.22048 c 0.36251,-0.8044 -0.033,-0.9937 -0.49432,-0.2366 -0.26364,0.4731 -0.2966,0.7097 -0.0659,0.7097 0.16477,0.047 0.42841,-0.1892 0.56023,-0.4731 z"
     id="path4926"
     inkscape:connector-curvature="0" /></svg>