<?xml version="1.0" encoding="UTF-8" standalone="no"?>
<svg
   xmlns:dc="http://purl.org/dc/elements/1.1/"
   xmlns:cc="http://creativecommons.org/ns#"
   xmlns:rdf="http://www.w3.org/1999/02/22-rdf-syntax-ns#"
   xmlns:svg="http://www.w3.org/2000/svg"
   xmlns="http://www.w3.org/2000/svg"
   xmlns:sodipodi="http://sodipodi.sourceforge.net/DTD/sodipodi-0.dtd"
   xmlns:inkscape="http://www.inkscape.org/namespaces/inkscape"
   version="1.1"
   id="svg2"
   x="0px"
   y="0px"
   viewBox="0 0 188.93509 93.243419"
   xml:space="preserve"
   inkscape:version="0.48.5 r10040"
   width="100%"
   height="100%"
   sodipodi:docname="Bristol_stool_chart_Type_1.svg"><metadata
     id="metadata3183"><rdf:RDF><cc:Work
         rdf:about=""><dc:format>image/svg+xml</dc:format><dc:type
           rdf:resource="http://purl.org/dc/dcmitype/StillImage" /><dc:title></dc:title></cc:Work></rdf:RDF></metadata><defs
     id="defs3181" /><sodipodi:namedview
     pagecolor="#ffffff"
     bordercolor="#666666"
     borderopacity="1"
     objecttolerance="10"
     gridtolerance="10"
     guidetolerance="10"
     inkscape:pageopacity="0"
     inkscape:pageshadow="2"
     inkscape:window-width="1440"
     inkscape:window-height="852"
     id="namedview3179"
     showgrid="false"
     inkscape:zoom="0.56216002"
     inkscape:cx="230.0736"
     inkscape:cy="-435.3833"
     inkscape:window-x="0"
     inkscape:window-y="0"
     inkscape:window-maximized="1"
     inkscape:current-layer="svg2"
     fit-margin-top="0"
     fit-margin-left="0"
     fit-margin-right="0"
     fit-margin-bottom="0" /><style
     type="text/css"
     id="style3105">
	.st0{fill:#fff;}
	.st1{fill:#D9B194;}
	.st2{fill:#D0A27B;}
	.st3{fill:#CB966B;}
	.st4{fill:#C48855;}
	.st5{fill:#BD824F;}
	.st6{fill:#BA7B44;}
	.st7{fill:#AF6B30;}
	.st8{fill:#965624;}
	.st9{fill:#8E4D19;}
	.st10{fill:#7C4116;}
	.st11{fill:#6A3310;}
	.st12{fill:#800000;stroke:#800000;stroke-width:1.2764;}
	.st13{fill:#800000;stroke:#800000;stroke-width:1.2765;}
	.st14{fill:#800000;stroke:#800000;stroke-width:1.2745;}
	.st15{fill:#800000;stroke:#800000;stroke-width:1.2774;}
	.st16{fill:#800000;stroke:#800000;stroke-width:1.2759;}
	.st17{fill:#800000;stroke:#800000;stroke-width:1.2753;}
	.st18{fill:#800000;stroke:#800000;stroke-width:1.4659;}
	.st19{fill:#800000;}
	.st20{font-family:'Arial';}
	.st21{font-size:33px;}
	.st22{font-family:'Arial Bold';}
	.st23{font-size:66px;}
</style><path
     style="fill:#d9b194"
     d="m 128.58617,90.916849 c 2.90003,-0.99362 7.05235,-4.25836 7.71145,-6.05634 0.29659,-0.80435 1.05455,-2.60233 1.6807,-3.92715 2.63639,-5.67781 2.7023,-13.39017 0.23068,-20.53475 -2.80117,-8.04357 -8.93078,-11.54489 -15.48881,-8.94255 -5.60234,2.27112 -7.81031,5.06271 -9.85352,12.5385 -1.15342,4.25835 -1.25229,4.82614 -1.08751,8.04356 0.19773,4.02179 1.81252,9.88886 3.52617,12.91702 1.18638,2.08187 4.77847,4.77883 8.07396,6.00902 2.30684,0.80436 2.7023,0.80436 5.20688,-0.0473 l 0,0 z"
     id="path5946"
     inkscape:connector-curvature="0" /><path
     style="fill:#d9b194"
     d="m 57.667183,90.254429 c 2.27389,-0.56778 8.37055,-4.63687 10.0183,-6.71874 0.79092,-0.99362 2.0432,-3.40669 2.80117,-5.34661 l 1.35115,-3.54863 -0.0989,-6.05633 -0.0989,-6.05633 -1.48297,-4.11642 c -2.27389,-6.38753 -4.38301,-8.75329 -10.15012,-11.59219 -2.96594,-1.46677 -6.32734,-1.37214 -9.58988,0.23657 -5.10801,2.55502 -7.25008,4.96809 -9.26033,10.69321 l -1.12047,3.21743 0.39546,6.71874 0.39546,6.71875 1.94434,5.48855 c 1.74661,4.87345 2.10912,5.58318 3.3614,6.52948 0.75797,0.56778 1.9773,1.5614 2.66935,2.1765 0.75796,0.66241 2.27389,1.32482 3.72391,1.65602 2.73526,0.52047 2.93298,0.52047 5.14096,0 l 0,0 z"
     id="path5944"
     inkscape:connector-curvature="0" /><path
     style="fill:#d9b194"
     d="m 177.7549,68.915329 c 5.27279,-2.08187 7.54668,-4.49494 9.91943,-10.6459 1.28524,-3.26474 1.28524,-3.35937 1.25229,-8.28014 -0.033,-6.10365 -0.62614,-9.32108 -2.53753,-13.34286 -1.21933,-2.55502 -1.84548,-3.31206 -4.74551,-5.67781 -2.76821,-2.27113 -3.75686,-2.83891 -5.93188,-3.31206 -3.82277,-0.85167 -5.96484,-0.61509 -8.43646,0.99362 -2.66935,1.70334 -7.0194,7.23921 -8.10691,10.362 -0.72501,2.03455 -0.75796,2.55502 -0.62614,8.37478 0.16477,6.86069 0.46136,8.23282 2.53752,12.30192 2.24094,4.35299 5.89893,8.23283 8.60124,9.0845 2.0432,0.66241 6.59098,0.75704 8.07395,0.14195 l 0,0 z"
     id="path5942"
     inkscape:connector-curvature="0" /><path
     style="fill:#d9b194"
     d="m 18.516743,50.462439 c 3.13072,-0.66241 6.16257,-2.22381 7.44781,-3.83252 4.41596,-5.53587 6.12962,-14.47842 4.28414,-22.33273 -1.0216,-4.30567 -2.10911,-7.14458 -3.88868,-9.93617 -0.88978,-1.41945 -1.71365,-2.83891 -1.87843,-3.26474 -0.46137,-1.1828795 -3.52617,-3.1227995 -5.86597,-3.7378995 -1.74661,-0.47315 -2.90004,-0.47315 -5.56938,0 -3.5591295,0.6151 -4.6795995,1.32483 -7.9091795,4.7315095 -2.60344,2.74428 -4.15232003,8.70598 -4.18528003,15.80325 0,2.22381 1.58184003,9.17913 3.03185003,13.34285 0.85683,2.46039 3.658,6.34023 5.70121,7.90163 1.8784295,1.41945 5.6352895,1.98723 8.8319095,1.32482 l 0,0 z"
     id="path5940"
     inkscape:connector-curvature="0" /><path
     style="fill:#d9b194"
     d="m 79.450383,47.670849 c 3.09777,-0.56778 5.23984,-2.36576 7.11827,-6.05634 2.47162,-4.77882 3.3614,-8.23282 3.3614,-13.01165 0,-9.0845 -2.47162,-15.56666 -7.44781,-19.5884495 -5.37165,-4.30567 -12.0615,-3.64326 -16.64224,1.6560295 -2.90003,3.35937 -3.7239,5.0154 -4.41596,8.84792 -0.46136,2.60233 -0.52727,4.40031 -0.39545,8.46941 0.16477,4.87345 0.26364,5.44123 1.54888,9.13181 1.81252,5.20466 4.08641,8.56403 6.78871,9.98349 2.14207,1.08824 5.99779,1.32482 10.0842,0.56778 l 0,0 z"
     id="path5938"
     inkscape:connector-curvature="0" /><path
     style="fill:#d9b194"
     d="m 132.77144,43.838319 c 4.35005,-1.08824 7.18417,-3.02816 9.82057,-6.71874 2.10911,-2.93354 2.10911,-2.88622 2.99889,-7.66505 0.62615,-3.21742 0.69206,-4.49493 0.52728,-8.51671 -0.3625,-8.1382 -1.58183,-12.5384995 -4.31709,-15.4247195 -0.82388,-0.89899 -1.94434,-2.08187 -2.47162,-2.69696 -1.41706,-1.60872 -3.52618,-2.50770002 -6.59098,-2.74428002 -3.85573,-0.33121 -5.83303,0.42584 -9.62284,3.45400002 -3.29549,2.64965 -5.30574,5.44124 -6.3603,8.8479195 -0.23068,0.80436 -0.72501,2.31844 -1.05456,3.35938 -0.82387,2.55501 -0.72501,7.00263 0.23069,12.58581 0.6591,3.87984 0.95569,4.6842 2.43866,7.09727 2.90003,4.77882 5.83302,7.94893 7.77736,8.4694 1.9773,0.52047 4.41596,0.52047 6.62394,-0.0473 l 0,0 z"
     id="path3018"
     inkscape:connector-curvature="0" /><path
     style="fill:#d0a27b"
     d="m 126.51001,92.667499 c 3.62504,-1.04093 8.4035,-5.11003 8.4035,-7.14458 0,-0.18926 0.3625,-0.99361 0.82387,-1.84528 3.95459,-7.42847 2.83413,-20.01429 -2.30684,-26.02331 -3.59209,-4.21104 -7.15122,-5.15734 -12.25923,-3.35937 -5.3387,1.8926 -7.97509,5.53587 -9.88648,13.57943 -1.21933,5.11003 -0.88978,8.46941 1.41707,15.85056 0.88978,2.83891 2.50457,4.92077 5.0421,6.5768 2.01025,1.32482 5.99779,3.07548 6.62394,2.93354 0.0989,0 1.05455,-0.28389 2.14207,-0.56779 l 0,0 z"
     id="path5866"
     inkscape:connector-curvature="0" /><path
     style="fill:#d0a27b"
     d="m 55.887623,91.863149 c 2.3398,-0.56778 8.30464,-4.58957 10.01829,-6.71875 0.82388,-1.04093 2.07616,-3.31205 2.83413,-5.11003 l 1.35115,-3.26474 -0.0989,-5.86707 -0.0989,-5.86707 -1.48297,-4.11642 c -2.10912,-5.91438 -4.08641,-8.28014 -9.26033,-11.16636 -2.3398,-1.27751 -7.11827,-1.75066 -8.40351,-0.80436 -0.52728,0.37853 -1.45001,0.80436 -2.0432,0.99362 -1.6807,0.47315 -5.86598,3.97447 -6.75576,5.67781 -0.42842,0.80436 -1.28524,2.83891 -1.87843,4.44762 l -1.08751,2.98085 0.39546,6.67143 0.39545,6.67143 1.87843,5.25198 1.87843,5.25197 2.60344,2.22381 c 2.07616,1.79798 3.09777,2.31844 5.04211,2.74428 2.60343,0.56778 2.50457,0.56778 4.71255,0 l 0,0 z"
     id="path5864"
     inkscape:connector-curvature="0" /><path
     style="fill:#d0a27b"
     d="m 177.26058,69.956259 c 4.58073,-2.12918 6.3603,-4.21105 8.50237,-9.84154 0.98864,-2.60233 1.21933,-3.73789 1.31819,-6.38754 0.13182,-3.454 -0.23068,-7.5231 -0.82387,-9.84154 -0.19773,-0.75704 -0.95569,-2.74428 -1.6807,-4.35299 -0.98865,-2.22381 -1.74661,-3.31206 -2.9989,-4.30567 -0.92274,-0.75704 -2.40571,-1.93992 -3.26253,-2.64965 -1.58184,-1.32482 -5.96484,-2.64964 -8.66715,-2.64964 -2.10911,0 -5.33869,2.55501 -8.37055,6.71874 -1.48297,1.98723 -2.90003,4.4003 -3.16367,5.29929 -0.26364,0.89899 -0.56023,3.64326 -0.6591,6.05633 -0.32955,8.61135 1.38411,13.34286 7.21713,19.96697 1.74661,1.98724 3.03185,2.46039 7.61259,2.83891 2.17502,0.18926 3.13071,0 4.97619,-0.85167 z"
     id="path5862"
     inkscape:connector-curvature="0" /><path
     style="fill:#d0a27b"
     d="m 18.879253,51.408739 c 3.42731,-1.08825 5.37165,-2.60233 6.92053,-5.44124 1.77957,-3.21742 2.14207,-4.25835 2.80117,-8.13819 1.25228,-7.1919 -0.26364,-14.52574 -4.35005,-21.33911 -3.62504,-6.00902 -6.98644,-7.5230995 -13.51152,-6.10365 -4.0204995,0.85167 -7.9421295,4.82614 -9.6228295,9.74691 -0.88979003,2.64965 -1.02161003,3.454 -1.08752003,7.90162 -0.0659,4.87346 -0.0329,5.06272 1.38411003,10.36201 1.71366,6.29291 3.29549,9.17913 6.62394,11.97072 2.0431995,1.75066 2.1420695,1.75066 5.4046095,1.70334 1.84547,0 4.28413,-0.3312 5.43756,-0.66241 l 0,0 z"
     id="path5860"
     inkscape:connector-curvature="0" /><path
     style="fill:#d0a27b"
     d="m 76.583313,49.326879 c 4.58073,-0.56779 6.3603,-1.93992 8.53532,-6.52949 2.24093,-4.73151 2.83412,-7.33384 2.83412,-12.15998 0,-5.86707 -0.95569,-10.17274 -3.09776,-13.86332 -1.84547,-3.17011 -5.00915,-6.10365 -7.25008,-6.71874 -0.82387,-0.2365795 -2.20798,-0.6150995 -3.06481,-0.8516795 -1.05456,-0.28389 -2.14207,-0.23657 -3.46026,0.18926 -3.16368,0.9936195 -3.92164,1.4194595 -5.83302,3.4540095 -4.54778,4.82614 -5.3387,7.23921 -5.27279,16.08713 0.0329,5.72513 0.0659,5.91439 1.25229,9.22644 1.94434,5.53587 3.39435,7.90162 5.93188,9.74691 2.50457,1.79798 4.25118,2.08187 9.42511,1.41946 l 0,0 z"
     id="path5858"
     inkscape:connector-curvature="0" /><path
     style="fill:#d0a27b"
     d="m 131.12369,45.257779 c 0.36251,-0.14195 1.6148,-0.56778 2.76822,-0.9463 2.47162,-0.85168 5.89893,-3.83253 7.81031,-6.86069 1.77957,-2.79159 2.60344,-7.28653 2.50458,-13.67407 -0.0989,-6.34022 -1.08752,-11.02441 -2.96595,-13.8633195 -1.0216,-1.60871 -4.81141,-5.25198 -6.16257,-6.00902 -1.31819,-0.70972 -6.82166,-1.04093 -8.50236,-0.47315 -2.04321,0.66241 -6.72281,4.49494 -8.50237,6.9553195 -1.15342,1.60871 -1.84548,3.21743 -2.76822,6.34022 -1.08751,3.78521 -1.21933,4.49494 -1.05455,7.14458 0.23068,3.69058 1.54888,9.74691 2.60344,11.73415 1.94434,3.73789 5.33869,7.99625 7.01939,8.89524 1.3182,0.70972 6.03075,1.18287 7.25008,0.75704 l 0,0 z"
     id="path3016"
     inkscape:connector-curvature="0" /><path
     style="fill:#cb966b"
     d="m 127.1691,92.147039 c 2.27389,-0.80436 6.32735,-3.83252 6.85463,-5.11003 0.26364,-0.56778 1.08751,-2.46039 1.81252,-4.11642 0.75796,-1.70334 1.41706,-3.50131 1.51592,-4.02178 0.0659,-0.52046 0.2966,-2.03455 0.46137,-3.40669 0.79092,-5.63049 -1.3841,-13.91063 -4.61369,-17.60121 -3.55913,-4.0691 -7.28303,-4.92077 -12.55582,-2.98085 -4.51482,1.70334 -7.34895,5.63049 -8.96374,12.5385 -1.0216,4.35299 -1.05455,7.42847 -0.13182,11.30831 1.74661,7.38115 2.90004,9.22644 7.57963,12.15998 3.09777,1.93991 5.23984,2.27112 8.041,1.23019 z"
     id="path5734"
     inkscape:connector-curvature="0" /><path
     style="fill:#cb966b"
     d="m 56.217173,91.437309 c 1.58183,-0.42583 6.68985,-3.69058 8.33759,-5.29929 1.6807,-1.65603 2.76821,-3.35937 4.11937,-6.52948 0.88978,-2.12918 1.08751,-3.17011 1.18637,-5.86707 0.19773,-5.11003 -0.3625,-9.60497 -1.51592,-12.25461 -0.52728,-1.2302 -0.98865,-2.46039 -0.98865,-2.64965 0,-0.80436 -2.76821,-4.82614 -4.11936,-5.9617 -2.53753,-2.12918 -6.42621,-3.87984 -8.89783,-4.02179 -1.81252,-0.0946 -2.90004,0.14195 -5.10801,1.18288 -1.54889,0.70973 -3.19663,1.70335 -3.69096,2.22381 -0.49432,0.52047 -1.0216,0.89899 -1.21933,0.89899 -1.25228,0 -4.94323,7.47578 -5.0421,10.22006 -0.0329,0.75704 0.0659,3.87984 0.19773,7.00263 0.26364,5.58319 0.26364,5.72513 2.01025,10.69322 1.54888,4.49493 2.93299,7.04995 3.78982,7.04995 0.16477,0 0.92273,0.61509 1.6807,1.41945 2.0432,1.98723 6.03075,2.79159 9.26033,1.8926 l 0,0 z"
     id="path5732"
     inkscape:connector-curvature="0" /><path
     style="fill:#cb966b"
     d="m 177.0958,69.719679 c 4.44892,-2.08186 6.75576,-4.73151 8.56828,-9.98348 1.77957,-5.06272 1.61479,-12.2073 -0.3625,-17.83779 -1.18638,-3.35938 -2.30685,-4.96809 -5.07506,-7.33384 -3.52618,-2.98086 -4.08641,-3.26475 -7.84327,-3.83253 l -3.69095,-0.52046 -2.30684,1.56139 c -2.70231,1.79798 -6.88758,7.28653 -7.84327,10.17275 -0.42842,1.27751 -0.6591,3.40669 -0.79092,6.76606 -0.16478,4.49493 -0.0989,5.15735 0.69205,8.09088 0.62614,2.27113 1.41706,4.02178 2.76821,6.05633 3.26254,4.92077 4.74551,6.34023 7.21713,7.09727 2.9989,0.85167 6.45916,0.80435 8.66714,-0.23658 l 0,0 z"
     id="path5730"
     inkscape:connector-curvature="0" /><path
     style="fill:#cb966b"
     d="m 17.528103,51.408739 c 3.3614,-0.89899 5.50347,-1.98723 6.68984,-3.40669 1.87843,-2.27112 3.62504,-6.5768 4.28414,-10.59858 0.79092,-4.68419 0.79092,-6.71874 0,-9.22644 -0.32955,-1.08825 -0.72501,-2.60233 -0.82387,-3.35937 -0.49432,-3.17012 -4.71255,-10.88248 -6.82167,-12.44388 -1.77956,-1.32482 -5.76711,-2.5076995 -7.34894,-2.17649 -0.75797,0.14195 -2.30685,0.47315 -3.46027,0.75704 -1.3181995,0.28389 -2.6034395,0.9463 -3.4602695,1.75066 -4.54778,4.25836 -6.09666003,7.61773 -6.49212003,14.05258 -0.29659,4.58957 0.033,6.71875 1.97730003,13.10629 1.48297,4.92077 3.16367,7.75967 6.03075,10.26737 1.45002,1.27751 2.1420695,1.51409 4.3500495,1.70335 1.51592,0.14194 3.7239,-0.0473 5.07506,-0.42584 l 0,0 z"
     id="path5728"
     inkscape:connector-curvature="0" /><path
     style="fill:#cb966b"
     d="m 77.901503,48.995669 c 1.84548,-0.47315 4.0205,-1.75066 4.94324,-2.83891 2.30685,-2.79159 4.71255,-9.51033 5.07506,-14.24184 0.26364,-3.21743 -0.56024,-8.4694 -1.84548,-12.11266 -1.51592,-4.25836 -6.09666,-9.0845 -9.09555,-9.55765 -0.85683,-0.14195 -2.14207,-0.4731595 -2.86708,-0.7097295 -1.84548,-0.66241 -6.03075,0.9462995 -8.23873,3.1227995 -2.9989,2.93353 -4.64664,5.67781 -5.20688,8.70597 -0.59319,3.02817 -0.69205,10.0308 -0.19773,13.1536 0.39546,2.55502 3.29549,9.60497 4.58074,11.16636 2.27388,2.74428 3.85572,3.40669 8.10691,3.50132 2.14206,0 4.28413,-0.0473 4.7455,-0.18926 l 0,0 z"
     id="path5726"
     inkscape:connector-curvature="0" /><path
     style="fill:#cb966b"
     d="m 130.62937,45.068519 c 3.06481,-0.70973 5.3387,-1.89261 7.48077,-3.97447 3.98754,-3.78521 4.44891,-4.63688 5.37165,-9.51034 0.59319,-3.21742 0.6591,-4.44761 0.46137,-8.51671 -0.26364,-5.44124 -1.05456,-9.51034 -2.27389,-11.78146 -0.92274,-1.7506595 -4.6796,-5.7251295 -6.42621,-6.7660595 -1.38411,-0.85167 -7.28304,-1.23019 -8.93078,-0.6151 -2.24094,0.85167 -6.42621,4.44762 -8.27169,7.0972695 -1.51592,2.17649 -2.01025,3.31205 -2.90003,6.81337 -1.25229,4.87346 -1.21933,6.29291 0.26364,12.15998 1.28524,5.11003 2.60344,7.75968 5.37165,11.07173 1.94434,2.31844 2.80117,3.02817 4.21823,3.45401 2.90003,0.80435 4.05345,0.89898 5.63529,0.56778 l 0,0 z"
     id="path3014"
     inkscape:connector-curvature="0" /><path
     style="fill:#c48855"
     d="m 127.36683,91.863149 c 1.77957,-0.6151 5.80007,-3.64326 6.39326,-4.82614 3.59208,-7.1919 4.48187,-11.35563 3.78981,-17.27001 -0.42841,-3.64326 -1.91138,-8.1382 -3.42731,-10.40932 -2.37275,-3.59595 -6.0637,-5.58319 -9.58988,-5.11003 -8.041,1.04093 -12.7206,7.5231 -13.24788,18.35825 -0.16477,3.02817 -0.0659,4.11642 0.59319,6.62412 1.08752,4.25836 1.77957,6.10364 2.83413,7.66504 0.88978,1.32483 4.35004,3.87984 6.65689,4.96809 1.28524,0.56778 4.25118,0.61509 5.99779,0 l 0,0 z"
     id="path5522"
     inkscape:connector-curvature="0" /><path
     style="fill:#c48855"
     d="m 55.492163,91.437309 c 0.82387,-0.18926 3.09776,-1.37214 5.07506,-2.64964 4.21823,-2.74428 6.52507,-5.44124 8.07395,-9.65228 0.98865,-2.64965 1.05456,-3.1228 1.05456,-7.75968 0,-5.53587 -0.2966,-7.14458 -2.10912,-11.45025 -1.74661,-4.11642 -2.80116,-5.53587 -5.7012,-7.66505 -2.86707,-2.08186 -4.51482,-2.79159 -7.64554,-3.17011 -2.50457,-0.33121 -4.25118,0.37852 -8.20577,3.21743 -3.19663,2.27112 -4.21823,3.69057 -5.7012,7.80699 l -1.08751,3.02816 0.39545,6.43486 c 0.39546,6.38754 0.42842,6.48217 2.20798,11.63951 l 1.77957,5.20466 2.57048,2.1765 c 1.84548,1.56139 3.06481,2.27112 4.38301,2.5077 0.98864,0.18926 2.17502,0.37852 2.63639,0.47315 0.46137,0.0946 1.45002,0.0473 2.27389,-0.14195 l 0,0 z"
     id="path5520"
     inkscape:connector-curvature="0" /><path
     style="fill:#c48855"
     d="m 177.59013,69.246529 c 4.18527,-2.17649 5.63529,-3.87984 7.64554,-9.03718 1.08751,-2.79159 1.21933,-3.50132 1.35115,-7.42847 0.26364,-7.66505 -1.58184,-13.43749 -5.43756,-16.98612 -3.49322,-3.21743 -4.87733,-4.02179 -7.71145,-4.58957 -3.59209,-0.66241 -4.94324,-0.61509 -6.09666,0.28389 -0.52728,0.42584 -1.48297,1.08825 -2.14207,1.51409 -0.6591,0.42583 -2.37276,2.5077 -3.82277,4.63688 -2.43867,3.59594 -2.6364,4.0691 -3.03185,6.81337 -0.85683,6.24559 -0.36251,11.92341 1.3841,15.51935 0.92274,1.89261 3.658,5.81976 5.37165,7.71236 1.64775,1.84529 3.69095,2.46039 7.81032,2.41307 2.07616,0 3.55913,-0.28389 4.6796,-0.85167 z"
     id="path5518"
     inkscape:connector-curvature="0" /><path
     style="fill:#c48855"
     d="m 18.088333,50.982899 c 4.64664,-1.32482 5.93188,-2.41307 8.30464,-7.00263 1.35115,-2.60233 2.40571,-7.71236 2.40571,-11.63951 0,-2.46039 -0.85683,-6.48217 -2.24094,-10.36201 -1.0216,-2.93354 -4.383,-8.1382 -5.96484,-9.27376 -2.60344,-1.8926 -5.23983,-2.36575 -8.89782,-1.70334 -3.7239095,0.70972 -5.7341595,2.12918 -8.4035095,5.86707 -2.20798,3.07548 -2.86708003,5.77244 -2.93299003,11.78146 -0.0659,4.21104 0,4.58956 1.45002003,9.65228 1.77957,6.19828 2.9989,8.4694 5.89893,11.11905 2.0432,1.84528 2.27389,1.93991 5.1080095,2.12918 1.64775,0.0473 3.98755,-0.18927 5.27279,-0.56779 l 0,0 z"
     id="path5516"
     inkscape:connector-curvature="0" /><path
     style="fill:#c48855"
     d="m 76.088983,48.853719 c 4.91029,-0.61509 6.62394,-1.93991 8.89783,-6.86068 2.76821,-5.91439 3.39436,-11.11905 2.14207,-17.27001 -0.39546,-1.93992 -1.0216,-4.30568 -1.41706,-5.20467 -1.9773,-4.77882 -6.03075,-8.51671 -10.15012,-9.4157 -4.97619,-1.0409295 -8.83191,0.9463 -12.72059,6.52948 -1.91139,2.74428 -2.40571,5.25198 -2.43867,12.11267 l 0,5.58318 1.41706,4.02178 c 1.84548,5.15735 3.39436,7.61773 5.89893,9.22645 2.27389,1.51408 4.18528,1.79797 8.37055,1.2775 l 0,0 z"
     id="path5514"
     inkscape:connector-curvature="0" /><path
     style="fill:#c48855"
     d="m 131.28847,44.548049 c 0.62614,-0.23657 1.87843,-0.66241 2.80117,-0.9463 1.71365,-0.6151 6.39325,-4.6842 7.71145,-6.71874 1.81252,-2.7916 2.57048,-12.72777 1.51592,-19.16262 -0.88978,-5.48855 -1.87843,-7.38115 -5.76711,-10.9297895 -2.76821,-2.55501 -3.7239,-2.88622 -8.07395,-2.74427 -3.59209,0.0946 -3.658,0.14194 -6.39326,2.22381 -4.28413,3.26474 -5.93188,5.6778095 -7.44781,10.8824695 -1.48297,5.11003 -1.45001,6.95532 0.0989,12.77508 1.41706,5.20466 2.76821,8.04356 5.23983,10.88247 3.26254,3.69058 6.7228,4.96808 10.31489,3.73789 z"
     id="path3012"
     inkscape:connector-curvature="0" /><path
     style="fill:#bd824f"
     d="m 126.97137,91.815829 c 0.79092,-0.23657 2.6364,-1.37213 4.08641,-2.41307 2.07616,-1.5614 2.76822,-2.36575 3.36141,-3.87984 0.39545,-1.04093 1.18637,-2.93353 1.77956,-4.21104 0.59319,-1.27751 1.0216,-2.88622 1.0216,-3.54863 0,-0.66241 0.13182,-1.93992 0.32955,-2.79159 0.52728,-2.60233 -0.3625,-8.42209 -1.81252,-11.97072 -1.84547,-4.49494 -3.59208,-6.48217 -7.05235,-7.85431 -3.46027,-1.37214 -8.99669,-0.0946 -11.73195,2.74428 -1.61479,1.65603 -3.85573,5.53586 -4.41596,7.57041 -0.82387,3.17012 -1.38411,7.57042 -1.21933,9.6996 0.26364,3.31206 1.84547,9.03718 3.03185,11.02442 1.74661,2.93353 7.3819,6.2929 10.28194,6.15096 0.49432,-0.0473 1.54888,-0.28389 2.33979,-0.52047 z"
     id="path5204"
     inkscape:connector-curvature="0" /><path
     style="fill:#bd824f"
     d="m 59.809253,89.118869 c 1.91139,-1.23019 3.85573,-2.60233 4.35005,-3.02816 1.45002,-1.37214 3.49322,-4.6842 4.54778,-7.33384 0.95569,-2.46039 0.98865,-2.55502 0.82387,-8.04357 -0.16477,-5.25198 -0.23068,-5.72513 -1.41706,-9.03718 -1.64774,-4.63688 -3.3614,-7.09727 -6.32734,-9.27376 -3.49322,-2.5077 -5.66825,-3.21743 -9.55693,-3.17011 -1.87843,0.0473 -8.96373,4.96808 -10.05125,7.00263 -0.42841,0.80436 -1.25228,2.74428 -1.81252,4.30567 -1.0216,2.83891 -1.05455,2.88622 -0.69205,6.52949 0.19773,1.98723 0.3625,4.77882 0.3625,6.19827 0,2.1765 0.26364,3.31206 1.91139,7.85431 1.87843,5.29929 1.91138,5.29929 4.28414,7.38116 2.57048,2.22381 4.6796,2.98085 8.13986,2.93353 1.58184,-0.0946 2.57049,-0.47315 5.43756,-2.31844 z"
     id="path5202"
     inkscape:connector-curvature="0" /><path
     style="fill:#bd824f"
     d="m 177.0958,69.246529 c 4.44892,-2.08186 6.62394,-4.68419 8.30464,-9.98348 0.98865,-3.07549 1.38411,-8.23283 0.88979,-11.87609 -0.72501,-5.48855 -2.60344,-9.03719 -6.68985,-12.63313 -2.3398,-2.08187 -3.19663,-2.55502 -5.20688,-2.93354 -5.76711,-1.13556 -5.86597,-1.13556 -6.82167,-0.14195 -0.49432,0.52047 -1.31819,1.08825 -1.84547,1.27751 -1.21933,0.42584 -6.03075,7.09727 -6.68985,9.22645 -0.82387,2.79159 -1.12047,9.32107 -0.59319,12.68044 0.56023,3.454 1.15342,4.96809 3.22958,8.1382 2.76822,4.25836 4.71256,5.9617 7.31599,6.52948 3.46027,0.75704 6.06371,0.66241 8.10691,-0.28389 z"
     id="path5200"
     inkscape:connector-curvature="0" /><path
     style="fill:#bd824f"
     d="m 17.264463,50.982899 c 5.14096,-1.37213 6.92053,-2.8389 9.16146,-7.38115 1.21933,-2.46039 2.3398,-7.94894 2.37276,-11.26099 0,-3.87984 -1.9773,-10.17275 -4.84438,-15.18815 -1.3841,-2.41307 -2.24093,-3.454 -3.65799,-4.4003 -2.90003,-1.89261 -5.3387,-2.5077 -7.3819,-1.84529 -0.9557,0.28389 -2.40571,0.66241 -3.2625395,0.80435 -1.74661,0.33121 -3.88868,2.12918 -6.22848,5.25198 -2.14207,2.83891 -2.93299003,5.86707 -3.03185003,11.45025 -0.0659,3.87984 0,4.40031 1.38411003,9.27376 1.71365,6.10365 3.49322,9.46302 6.29438,11.82878 1.71366,1.46676 2.3068495,1.70334 4.5148295,1.8926 1.3841,0.0473 3.49322,-0.0946 4.6796,-0.42584 l 0,0 z"
     id="path5198"
     inkscape:connector-curvature="0" /><path
     style="fill:#bd824f"
     d="m 79.252653,47.907419 c 2.76822,-1.04093 3.95459,-2.27112 5.43757,-5.63049 1.77956,-4.02179 2.63639,-7.04995 2.90003,-10.55127 0.39546,-5.58318 -1.6807,-13.1536 -4.58073,-16.6076 -2.04321,-2.46038 -4.58074,-4.11641 -7.0194,-4.58956 -1.3182,-0.28389 -2.47162,-0.52047 -2.6364,-0.5677795 -0.56023,-0.18927 -3.62504,0.6624095 -5.00914,1.4194495 -0.79092,0.42583 -2.57049,2.03455 -3.88868,3.54863 -3.32845,3.78521 -3.78982,5.34661 -3.95459,13.05897 l -0.13182,5.86707 1.58183,4.44762 c 1.81252,5.11003 3.22959,7.38115 5.56938,9.0845 1.45002,1.04093 2.07616,1.18287 5.60234,1.23019 2.86708,0.0946 4.58073,-0.0946 6.12961,-0.70973 z"
     id="path5196"
     inkscape:connector-curvature="0" /><path
     style="fill:#bd824f"
     d="m 130.79415,44.595369 c 0.725,-0.18926 1.74661,-0.56779 2.24093,-0.89899 0.49432,-0.28389 1.21933,-0.52047 1.61479,-0.52047 0.98865,0 5.30574,-4.02178 6.75576,-6.2929 0.98865,-1.5614 1.3841,-2.74428 1.91138,-5.67782 0.56024,-3.35937 0.59319,-4.25836 0.26364,-9.0845 -0.56023,-8.23282 -1.54888,-10.74052 -5.66824,-14.6203595 -2.80117,-2.60233 -3.55913,-2.98085 -7.08531,-3.31206 -3.22958,-0.28389 -5.37165,0.33121 -7.08531,2.08187 -0.52728,0.52046 -1.12046,0.9463 -1.31819,0.9463 -1.05456,0 -5.93189,6.2455895 -5.93189,7.5704095 0,0.2839 -0.39546,1.70335 -0.85683,3.21743 -1.25228,3.97447 -1.28524,5.11003 -0.29659,9.32108 2.60344,10.92978 6.59098,16.46565 12.52287,17.36464 0.88978,0.14194 2.20798,0.0946 2.93299,-0.0946 l 0,0 z"
     id="path3010"
     inkscape:connector-curvature="0" /><path
     style="fill:#ba7b44"
     d="m 126.34523,91.721229 c 1.21933,-0.3312 3.19663,-1.37214 4.61369,-2.46038 2.40571,-1.84529 2.53753,-1.98724 4.44891,-6.52949 l 1.9773,-4.68419 v -5.06272 c 0,-4.92077 -0.033,-5.15734 -1.28524,-8.75329 -0.98865,-2.79159 -1.71366,-4.21104 -3.06481,-5.77244 -0.98865,-1.13556 -2.17503,-2.22381 -2.66935,-2.36576 -0.49432,-0.14194 -1.45002,-0.61509 -2.17502,-0.99361 -1.41706,-0.75704 -3.09777,-0.6151 -7.21713,0.61509 -2.7023,0.80436 -4.61369,2.64965 -6.49212,6.19828 -1.94434,3.64326 -2.66935,6.43485 -2.86708,10.78784 -0.16477,3.31206 -0.0659,4.25836 0.75797,7.57042 1.18637,4.82614 2.7023,7.23921 5.86597,9.36839 1.84548,1.27751 5.53643,2.88622 5.89893,2.64964 0.033,0 1.0216,-0.28389 2.20798,-0.56778 l 0,0 z"
     id="path4964"
     inkscape:connector-curvature="0" /><path
     style="fill:#ba7b44"
     d="m 55.821713,90.916879 c 1.3182,-0.33121 4.77846,-2.36576 7.84327,-4.63688 1.48297,-1.08825 3.42731,-4.0691 4.77846,-7.28653 l 1.12047,-2.69696 -0.13182,-5.3466 c -0.13182,-5.20467 -0.16477,-5.44124 -1.51593,-9.32108 -0.98864,-2.79159 -1.87843,-4.58956 -3.03185,-6.05633 -3.75686,-4.73151 -10.3808,-7.33384 -14.33539,-5.53587 -2.7023,1.23019 -4.35005,2.22381 -5.23983,3.1228 -0.42841,0.47315 -0.95569,0.85167 -1.18638,0.85167 -0.62614,0 -2.30684,2.83891 -3.49322,5.86707 l -1.08751,2.79159 0.32955,6.67143 c 0.32955,6.62412 0.32955,6.71875 1.87843,11.16636 0.85683,2.46039 1.71366,4.82614 1.94434,5.20467 0.23068,0.37852 1.45002,1.60871 2.7023,2.69696 1.74661,1.51408 2.86708,2.08186 4.61369,2.46038 2.60344,0.56778 2.73526,0.56778 4.81142,0.0473 l 0,0 z"
     id="path4962"
     inkscape:connector-curvature="0" /><path
     style="fill:#ba7b44"
     d="m 176.33784,69.388509 c 2.40571,-0.94631 5.47052,-3.21743 6.62394,-5.0154 0.52728,-0.80436 1.45002,-2.79159 2.0432,-4.35299 0.92274,-2.5077 1.08752,-3.454 1.21934,-7.1919 0.29659,-8.32745 -1.28525,-13.01165 -5.89893,-17.17538 -3.13072,-2.88622 -4.77847,-3.83252 -6.59099,-3.83252 -0.69205,0 -1.97729,-0.23658 -2.83412,-0.52047 -1.51593,-0.52046 -1.71366,-0.42583 -4.05346,1.13557 -3.16367,2.17649 -7.34894,7.99625 -7.84327,10.9771 -0.69205,4.0691 -0.79091,9.46302 -0.23068,12.34924 0.6591,3.21743 1.18638,4.35299 3.75686,8.1382 2.76821,4.02178 4.31709,5.20466 7.28304,5.53586 1.35115,0.14195 2.96594,0.33121 3.62504,0.42584 0.6591,0.0946 1.97729,-0.0946 2.90003,-0.47315 l 0,0 z"
     id="path4960"
     inkscape:connector-curvature="0" /><path
     style="fill:#ba7b44"
     d="m 165.89113,49.090329 c 0,-0.6151 0.16478,-1.27751 0.32955,-1.46677 0.19773,-0.18926 0.32955,0.33121 0.32955,1.13556 0,0.80436 -0.16477,1.46677 -0.32955,1.46677 -0.16477,0 -0.32955,-0.47315 -0.32955,-1.13556 z"
     id="path4958"
     inkscape:connector-curvature="0" /><path
     style="fill:#ba7b44"
     d="m 168.95594,45.115859 c 1.15342,-0.18926 1.08751,-0.28389 1.3182,1.84529 l 0.19773,1.70334 -1.21934,-1.70334 -1.21933,-1.70334 0.92274,-0.14195 z"
     id="path4956"
     inkscape:connector-curvature="0" /><path
     style="fill:#ba7b44"
     d="m 17.594013,50.746359 c 4.51482,-0.99362 6.85462,-2.98085 8.89782,-7.57042 0.9557,-2.17649 2.30685,-8.61134 2.30685,-11.07173 0,-1.5614 -1.87843,-8.75329 -2.86708,-10.92979 -3.95459,-8.70597 -7.6785,-11.11904 -14.73085,-9.60496 -3.2295795,0.70972 -3.6579895,0.9463 -5.3057395,2.69696 -4.18527,4.54225 -5.40461003,7.71236 -5.40461003,14.00527 0,3.73789 0.59319003,6.81337 2.33980003,12.44387 1.21933,3.87984 2.50458,5.9617 5.20688,8.4694 2.1750195,1.98723 2.1750195,1.98723 5.1409695,1.93992 1.61479,-0.0473 3.59208,-0.18926 4.41596,-0.37852 l 0,0 z"
     id="path4954"
     inkscape:connector-curvature="0" /><path
     style="fill:#ba7b44"
     d="m 76.418533,48.380599 c 4.6796,-0.66241 6.12962,-1.75065 8.23873,-6.34022 1.64775,-3.54863 2.50458,-6.5768 2.83412,-10.07811 0.26364,-2.74428 0.19773,-3.50132 -0.52727,-6.95532 -1.41707,-6.43486 -2.9989,-9.27376 -7.08531,-12.49119 -2.04321,-1.65603 -5.7012,-2.5550095 -8.40351,-2.12918 -2.43866,0.37852 -5.50347,2.64965 -7.87622,5.81976 -1.84548,2.46038 -2.14207,3.12279 -2.60344,5.77244 -1.12047,6.24559 -0.59319,12.25461 1.54888,17.60122 1.84548,4.63688 2.70231,5.9617 5.07506,7.66504 2.07616,1.51408 4.18527,1.75066 8.79896,1.13556 l 0,0 z"
     id="path4952"
     inkscape:connector-curvature="0" /><path
     style="fill:#ba7b44"
     d="m 131.61802,44.074929 c 0.62614,-0.23658 1.74661,-0.56778 2.47162,-0.80436 0.725,-0.23657 1.77956,-0.80435 2.30684,-1.2775 4.87733,-4.35299 5.86598,-5.72513 6.42621,-8.89524 0.19773,-1.08825 0.49432,-2.79159 0.69205,-3.78521 0.32955,-1.8926 0.16478,-6.81337 -0.42841,-11.21368 -0.56023,-4.21104 -1.58184,-6.5768 -3.95459,-9.0844995 -3.75686,-4.02178 -4.48187,-4.35299 -9.19442,-4.35299 -3.85573,0 -4.21823,0.0473 -5.43756,1.18288 -0.72501,0.66241 -2.01025,1.70335 -2.90004,2.27113 -2.66935,1.84529 -4.383,4.5422495 -5.66824,8.9425495 -0.6591,2.27112 -1.15342,4.73151 -1.15342,5.81976 0,2.36575 1.21933,7.33384 2.80116,11.54488 2.96595,7.61773 8.60124,11.49757 14.0388,9.65228 l 0,0 z"
     id="path3008"
     inkscape:connector-curvature="0" /><path
     style="fill:#af6b30"
     d="m 126.51001,91.484629 c 1.74661,-0.42584 6.0637,-3.454 6.95348,-4.82614 0.36251,-0.6151 1.35115,-2.69696 2.14207,-4.6842 l 1.45002,-3.54863 v -5.44124 c 0,-5.29929 -0.033,-5.53586 -1.15342,-8.70597 -0.75797,-2.12918 -1.71366,-3.97447 -2.80117,-5.29929 -1.84548,-2.27113 -2.83412,-2.7916 -4.28414,-2.1765 -0.75796,0.28389 -1.25229,0.18926 -2.07616,-0.47315 -0.82387,-0.66241 -1.45002,-0.80436 -2.47162,-0.56778 -0.75796,0.14194 -2.27389,0.47315 -3.39435,0.66241 -1.64775,0.28389 -2.30685,0.70973 -3.55914,2.17649 -0.95569,1.13557 -1.61479,2.31844 -1.71365,3.17012 -0.0989,0.75704 -0.39546,1.51408 -0.62615,1.60871 -0.23068,0.14194 -0.46136,0.52047 -0.46136,0.89899 0,0.37852 -0.36251,0.99361 -0.79092,1.37213 -0.85683,0.80436 -1.38411,2.41307 -1.64775,4.96809 -0.52728,5.20466 -0.52728,5.34661 0.52728,9.55765 0.88978,3.59595 1.28524,4.49493 2.7023,6.34022 1.87843,2.46039 4.21823,4.11642 6.75576,4.87346 1.81252,0.52046 2.40571,0.56778 4.44892,0.0946 l 0,0 z"
     id="path4710"
     inkscape:connector-curvature="0" /><path
     style="fill:#af6b30"
     d="m 122.85201,66.265679 c -0.0989,-0.23658 -0.46137,-0.42584 -0.82387,-0.42584 -0.49433,0 -0.62615,-0.3312 -0.62615,-1.41945 0,-0.75704 0.0659,-1.41945 0.16478,-1.41945 0.29659,0 1.94434,1.60871 2.20798,2.08186 0.13182,0.28389 0.49432,0.0946 0.92274,-0.42583 0.82387,-1.04093 0.85682,-0.89899 0.16477,1.04093 -0.3625,1.08825 -0.6591,1.37214 -1.15342,1.18288 -0.36251,-0.0473 -0.75797,-0.37852 -0.85683,-0.6151 z"
     id="path4708"
     inkscape:connector-curvature="0" /><path
     style="fill:#af6b30"
     d="m 57.469453,90.112489 c 0.62615,-0.47315 2.04321,-1.37214 3.13072,-1.98723 3.658,-2.08187 6.06371,-5.06272 7.87623,-9.65228 0.88978,-2.22381 0.88978,-2.5077 0.75796,-7.57042 -0.13182,-5.39392 -0.23068,-5.91439 -2.20798,-11.21368 -0.98865,-2.64964 -2.7023,-4.82614 -5.30574,-6.81337 -2.9989,-2.22381 -4.05346,-2.64965 -7.31599,-2.93354 -2.24094,-0.18926 -2.93299,-0.0473 -5.40461,1.18288 -1.54888,0.80436 -3.13072,1.84529 -3.46027,2.36575 -0.32954,0.52047 -0.88978,0.94631 -1.25228,0.94631 -0.85683,0 -2.07616,1.98723 -3.49322,5.58318 -1.02161,2.55501 -1.15343,3.26474 -0.9557,4.96808 0.0989,1.08825 0.32955,4.11642 0.49433,6.71875 0.26364,4.06909 0.46137,5.25197 1.58183,8.56403 2.01025,5.91439 2.40571,6.52948 6.29439,9.22644 2.01025,1.46677 7.64554,1.84529 9.26033,0.6151 l 0,0 z"
     id="path4706"
     inkscape:connector-curvature="0" /><path
     style="fill:#af6b30"
     d="m 50.219373,72.700529 c 0,-0.37852 0.26364,-0.66241 0.62615,-0.66241 0.46137,0 0.59318,0.28389 0.46137,1.13556 -0.0989,0.6151 0,1.27751 0.19772,1.46677 0.19773,0.18926 0.36251,0.56778 0.36251,0.85167 0,0.28389 -0.36251,-0.0473 -0.82387,-0.75704 -0.46137,-0.70972 -0.82388,-1.65603 -0.82388,-2.03455 z"
     id="path4704"
     inkscape:connector-curvature="0" /><path
     style="fill:#af6b30"
     d="m 48.967093,70.618669 c -0.0659,-0.28389 -0.49433,-1.18288 -0.9557,-1.93992 -0.75796,-1.27751 -0.79091,-1.51408 -0.39546,-2.83891 0.23069,-0.80435 0.69206,-1.41945 1.02161,-1.41945 0.39546,0 0.59319,-0.37852 0.59319,-1.18288 0,-1.32482 0.65909,-1.65602 0.65909,-0.37852 0,0.75705 0.0659,0.75705 0.49433,-0.0473 0.26364,-0.47315 0.52728,-1.13556 0.59319,-1.41945 0.16477,-0.70973 1.51592,1.60871 1.51592,2.64964 0.033,1.32482 0.39546,2.27113 0.85683,2.27113 0.26364,0 0.46137,0.3312 0.46137,0.70972 0,0.37852 -0.19773,0.70973 -0.46137,0.70973 -0.46137,0 -1.0216,1.65603 -0.88978,2.69696 0.13182,1.04093 -3.26254,1.18288 -3.49322,0.18926 z"
     id="path4702"
     inkscape:connector-curvature="0" /><path
     style="fill:#af6b30"
     d="m 176.53557,69.151899 c 2.10911,-0.70973 5.7012,-3.54863 6.55803,-5.25197 1.87843,-3.64327 2.50457,-5.81976 2.93299,-10.17275 0.39546,-3.87984 0.3625,-4.68419 -0.13182,-7.28653 -0.98865,-5.15734 -2.96595,-8.4694 -7.08531,-11.82877 -1.84548,-1.51408 -2.96594,-2.08186 -4.61369,-2.36575 -1.21933,-0.18926 -2.96594,-0.52047 -3.88868,-0.70973 -1.48297,-0.28389 -1.84547,-0.18926 -2.96594,0.89899 -0.69206,0.66241 -1.48297,1.23019 -1.71366,1.23019 -0.59319,0 -4.35005,5.20466 -5.50347,7.61773 -0.82387,1.70334 -0.88978,2.12918 -0.72501,5.06271 0.13182,2.5077 0.0659,3.35938 -0.32955,4.02179 -0.46136,0.70972 -0.46136,1.23019 -0.13182,3.87984 0.49433,3.73789 1.25229,5.63049 3.62505,9.17912 2.47161,3.64327 3.65799,4.73151 5.89893,5.48856 2.17502,0.70972 6.26143,0.80435 8.07395,0.23657 l 0,0 z"
     id="path4700"
     inkscape:connector-curvature="0" /><path
     style="fill:#af6b30"
     d="m 166.61614,53.916439 c -0.0659,-0.47315 -0.46137,-1.37214 -0.92274,-1.98723 -0.42841,-0.6151 -0.79092,-1.51409 -0.79092,-1.93992 0,-0.42584 -0.3625,-1.41946 -0.82387,-2.1765 -0.46137,-0.75704 -0.82387,-1.84529 -0.82387,-2.31844 0,-0.70972 -0.19773,-0.89898 -0.92274,-0.80435 -0.72501,0.0946 -0.92274,-0.0473 -0.92274,-0.80436 0,-0.6151 0.16478,-0.89899 0.49433,-0.75704 0.26364,0.0946 0.95569,0.23657 1.54888,0.23657 0.56023,0 1.15342,0.18926 1.28524,0.37852 0.72501,1.04094 2.24093,-0.28389 2.50457,-2.17649 0.0989,-0.80436 0.39546,-1.13556 1.94434,-2.17649 0.52728,-0.37853 2.96595,1.18287 2.96595,1.8926 0,0.23657 0.42841,0.80436 0.95569,1.23019 1.18638,0.99362 1.54888,3.31206 0.6591,4.11642 -0.32955,0.28389 -0.52728,0.75704 -0.42842,1.04093 0.2966,1.08824 -0.39546,3.35937 -1.0216,3.35937 -0.42841,0 -0.72501,0.52047 -0.92274,1.5614 -0.29659,1.46677 -0.39546,1.5614 -1.35115,1.27751 -0.6591,-0.18927 -1.25229,-0.0473 -1.6807,0.42583 -0.82387,0.85167 -1.61479,0.70973 -1.74661,-0.37852 l 0,0 z"
     id="path4698"
     inkscape:connector-curvature="0" /><path
     style="fill:#af6b30"
     d="m 17.066733,50.699009 c 4.71255,-1.13556 7.25008,-3.26474 9.39215,-7.71236 1.15342,-2.46038 2.14207,-8.32745 1.94434,-11.45025 -0.23069,-3.17011 -1.54888,-8.04357 -2.90003,-10.69321 -0.62615,-1.18288 -1.58184,-3.07548 -2.10912,-4.11642 -1.6807,-3.26474 -5.40461,-5.48855 -9.0626,-5.39392 -2.7023,0.0946 -6.0966595,1.08825 -7.3818995,2.1765 -0.75797,0.61509 -2.17503,2.31844 -3.19663,3.69057 -2.07616,2.88623 -2.73526,5.11004 -3.09776003,10.36201 -0.23069,3.50132 0.0989,5.39392 2.07616003,11.97072 1.41706,4.63688 2.73526,6.95532 5.37165,9.32107 1.84547,1.65603 2.2409295,1.84529 4.6795995,1.98724 1.45001,0.18926 3.39435,0.0946 4.28414,-0.14195 l 0,0 z"
     id="path4696"
     inkscape:connector-curvature="0" /><path
     style="fill:#af6b30"
     d="m 72.068483,48.522519 c 0.0659,-0.0946 1.48297,-0.28389 3.16368,-0.37852 3.0648,-0.23658 4.58073,-0.70973 6.55802,-2.03455 1.87843,-1.27751 5.3387,-9.65228 5.3387,-12.86971 0,-0.75704 0.13182,-1.8926 0.29659,-2.55501 0.36251,-1.37214 -1.15342,-8.7533 -2.4057,-11.5922 -1.05456,-2.41307 -3.36141,-5.0154 -5.9978,-6.81338 -2.01025,-1.37213 -2.47162,-1.46676 -5.7012,-1.46676 -3.16367,0 -3.69095,0.14194 -5.40461,1.2775 -1.0216,0.70973 -2.83412,2.55502 -4.0205,4.11642 -2.66934,3.50131 -3.16367,5.53586 -3.16367,12.8697 v 5.0154 l 1.51593,4.16373 c 1.77956,4.87346 2.66935,6.34023 4.94324,8.23283 1.54888,1.23019 4.54777,2.5077 4.87732,2.03455 l 0,0 z"
     id="path4694"
     inkscape:connector-curvature="0" /><path
     style="fill:#af6b30"
     d="m 68.838903,27.798509 c -0.3625,-0.37852 -0.52728,-0.80436 -0.42841,-0.99362 0.3625,-0.52047 1.58183,0.23658 1.58183,0.99362 0,0.85167 -0.3625,0.85167 -1.15342,0 l 0,0 z"
     id="path4692"
     inkscape:connector-curvature="0" /><path
     style="fill:#af6b30"
     d="m 71.705983,19.139839 c -0.0989,-0.80435 0.0659,-0.9463 0.98865,-0.89898 0.85682,0.0473 1.12046,0.28389 1.18637,1.13556 0.0989,0.9463 -0.0329,1.04093 -0.98864,0.89899 -0.79092,-0.14195 -1.12047,-0.42584 -1.18638,-1.13557 z"
     id="path4690"
     inkscape:connector-curvature="0" /><path
     style="fill:#af6b30"
     d="m 130.79415,44.074899 c 4.21822,-1.32482 5.14096,-1.84529 7.28303,-3.87984 2.6364,-2.5077 4.3171,-5.0154 4.61369,-6.908 0.0989,-0.70973 0.32955,-1.89261 0.49432,-2.64965 0.72501,-3.31205 0.033,-13.39017 -1.18637,-16.84417 -0.75797,-2.1765 -1.94434,-3.78521 -4.61369,-6.1982795 -2.27389,-2.08186 -3.95459,-2.79159 -6.82167,-2.88622 -3.19663,-0.0946 -4.58073,0.28389 -6.19552,1.70334 -0.62615,0.56778 -1.87843,1.51409 -2.73526,2.12918 -1.64775,1.13556 -4.84437,5.3939195 -4.84437,6.4348595 0,0.3312 -0.46137,2.03454 -1.05456,3.7852 -0.95569,2.93354 -1.0216,3.35937 -0.69206,5.39392 0.52728,3.31206 1.71366,7.71236 2.53753,9.27376 0.39546,0.75704 0.92274,2.12918 1.18638,2.98085 0.52728,1.84529 3.39436,5.15735 5.76711,6.67143 1.87843,1.2302 4.35005,1.60872 6.26144,0.99362 l 0,0 z"
     id="path4688"
     inkscape:connector-curvature="0" /><path
     style="fill:#af6b30"
     d="m 127.33388,20.890499 c -0.2966,-0.80435 -0.26364,-1.18288 0.19773,-1.84529 0.3625,-0.56778 0.46137,-1.23019 0.32955,-1.84529 -0.16478,-0.70972 -0.0659,-0.99361 0.29659,-0.99361 0.2966,0 0.62615,-0.33121 0.72501,-0.70973 0.16477,-0.61509 0.29659,-0.61509 0.98865,0.0473 0.59319,0.56778 0.79092,1.18287 0.79092,2.36575 0,0.89899 -0.13182,1.60871 -0.2966,1.60871 -0.16477,0 -0.39546,0.42584 -0.52728,0.94631 -0.16477,0.66241 -0.39546,0.89898 -0.82387,0.70972 -0.32955,-0.14194 -0.69205,-0.0473 -0.82387,0.23658 -0.32955,0.66241 -0.46137,0.56778 -0.85683,-0.52047 z"
     id="path3006"
     inkscape:connector-curvature="0" /><path
     style="fill:#965624"
     d="m 124.20316,91.058779 c 0.0989,-0.14194 0.95569,-0.28389 1.91139,-0.37852 1.61479,-0.14194 2.40571,-0.6151 5.33869,-3.17011 1.6807,-1.46677 2.70231,-2.98085 3.52618,-5.25198 1.97729,-5.39392 2.01025,-5.44123 1.81252,-10.22006 -0.13182,-3.83252 -0.29659,-4.92077 -1.18638,-7.38115 -1.31819,-3.64327 -2.14207,-4.82614 -2.86707,-3.97447 -0.42842,0.52047 -0.46137,0.47315 -0.2966,-0.18926 0.13182,-0.47315 -0.033,-1.18288 -0.3625,-1.70334 -0.62615,-0.99362 -1.48297,-1.2302 -1.48297,-0.42584 0,1.23019 1.12046,5.25198 1.61479,5.77244 0.75796,0.85167 1.35115,2.5077 1.35115,3.87984 0,0.70973 0.26364,1.37214 0.6591,1.65603 0.42841,0.3312 0.65909,0.99361 0.65909,1.93992 0,1.60871 -0.75796,1.70334 -0.92273,0.14194 -0.0659,-0.52046 -0.2966,-1.13556 -0.49433,-1.37214 -0.75796,-0.89898 -1.51592,-2.8389 -1.51592,-3.87983 0,-3.07549 -2.30685,-0.47316 -2.47162,2.79159 -0.0989,1.65603 -0.23069,2.03455 -0.95569,2.36575 -0.59319,0.28389 -1.02161,0.23658 -1.35116,-0.18926 -0.39545,-0.47315 -0.62614,-0.42583 -1.18637,0.28389 -0.39546,0.47315 -1.05456,0.80436 -1.48297,0.75704 -0.59319,-0.0946 -0.79092,0.0946 -0.79092,0.75704 0,1.2302 -0.56024,1.79798 -2.20798,2.22381 -1.28524,0.28389 -1.41706,0.23658 -1.77957,-0.89898 -0.19773,-0.66241 -0.56023,-1.2302 -0.79092,-1.2302 -0.69205,0 -1.15342,-1.23019 -1.21933,-3.12279 -0.0329,-1.37214 0.13182,-1.93992 0.6591,-2.46039 0.82387,-0.80435 0.92274,-1.51408 0.19773,-1.51408 -0.39546,0 -0.49432,-0.56778 -0.46137,-2.79159 0.0659,-3.50132 -0.19773,-4.21104 -1.12047,-3.07548 -0.3625,0.47315 -0.85682,1.51408 -1.08751,2.31844 -0.23068,0.80435 -1.08751,2.5077 -1.87843,3.78521 -1.41706,2.22381 -1.48297,2.5077 -1.71365,6.19827 -0.19773,3.31206 -0.13182,4.30568 0.49432,7.00264 0.59319,2.55501 1.0216,3.50132 2.3398,5.11003 0.88978,1.08825 1.6807,2.31844 1.77957,2.74427 0.0989,0.42584 0.85682,1.18288 1.71365,1.75066 1.61479,1.08825 5.27279,2.1765 5.56938,1.75066 l 0,0 z"
     id="path4326"
     inkscape:connector-curvature="0" /><path
     style="fill:#965624"
     d="m 57.799003,89.213489 c 0.62615,-0.42583 1.71366,-1.13556 2.40571,-1.60871 0.69206,-0.47315 1.45002,-0.89899 1.6807,-0.89899 0.23069,0 0.9557,-0.75704 1.61479,-1.65603 0.6591,-0.89898 1.3182,-1.65602 1.45002,-1.65602 0.39546,0 2.73526,-3.31206 2.73526,-3.87984 0,-0.28389 0.3625,-1.08825 0.79092,-1.84529 0.69205,-1.18288 0.79092,-1.75066 0.6591,-4.30568 -0.13182,-2.88622 -0.9557,-7.2392 -2.17503,-11.16636 -0.32955,-1.13556 -0.62614,-2.27112 -0.62614,-2.55501 0,-1.08825 -3.19663,-5.58318 -3.98755,-5.58318 -0.0989,0 -0.29659,0.47315 -0.39546,1.04093 -0.16477,0.85167 -0.26364,0.9463 -0.69205,0.42583 -0.29659,-0.3312 -0.52728,-0.89898 -0.52728,-1.2775 0,-0.52047 -0.13182,-0.56779 -0.62614,-0.0946 -0.49433,0.47315 -0.79092,0.42583 -1.45002,-0.18926 -0.42841,-0.42584 -1.31819,-0.89899 -1.91138,-1.04094 -0.98865,-0.28389 -1.15343,-0.14194 -1.54888,1.04094 -0.36251,1.13556 -0.32955,1.41945 0.0989,1.84528 0.26364,0.28389 0.49432,0.89899 0.49432,1.37214 0,1.04093 1.21934,3.87984 1.87843,4.44762 0.82388,0.66241 0.79092,5.9617 -0.0329,6.81337 -0.49432,0.52047 -0.56023,0.80436 -0.23069,1.65603 0.59319,1.5614 0.46137,1.98724 -0.62614,1.98724 -0.72501,0 -0.98865,0.23657 -0.98865,0.85167 0,0.47315 -0.46136,1.18288 -0.98864,1.65603 -1.08752,0.89898 -1.25229,1.84529 -0.49433,2.74427 0.26364,0.33121 0.49433,0.89899 0.49433,1.2302 0,0.99361 -1.08752,0.75704 -2.30685,-0.52047 -1.45001,-1.5614 -1.71365,-1.51408 -1.58183,0.37852 0.0989,1.51408 0.0989,1.51408 -1.35116,1.51408 -0.92273,-0.0473 -1.58183,-0.3312 -1.84547,-0.80435 -0.23069,-0.42584 -0.95569,-1.41946 -1.6807,-2.22381 -1.08751,-1.27751 -1.25229,-1.65603 -1.18638,-3.1228 0.0659,-1.23019 -0.0989,-1.8926 -0.62614,-2.55501 -0.39546,-0.52047 -0.85683,-0.89899 -1.0216,-0.89899 -0.16478,0 0.0329,-0.75704 0.39545,-1.65603 0.88979,-2.27112 0.82388,-3.35937 -0.26363,-4.21104 -0.88979,-0.66241 -0.9557,-0.66241 -1.48298,0.80435 -0.52727,1.37214 -0.52727,1.70335 -0.0659,3.59595 0.39546,1.65603 0.42842,2.22381 0.0989,2.74428 -0.42841,0.70972 -0.39546,3.7852 0.0659,4.58956 0.13182,0.28389 0.32955,1.51408 0.42841,2.74428 0.0989,1.23019 0.39546,2.64964 0.69206,3.12279 0.29659,0.47315 0.52727,1.18288 0.52727,1.60872 0,1.32482 3.32845,5.06271 5.10802,5.77244 2.3398,0.75704 7.64554,0.70972 9.09555,-0.23658 l 0,0 z"
     id="path4324"
     inkscape:connector-curvature="0" /><path
     style="fill:#965624"
     d="m 63.895663,59.263039 c -0.0989,-0.28389 -0.0659,-0.47315 0.13182,-0.47315 0.19773,0 0.42842,0.18926 0.52728,0.47315 0.0989,0.28389 0.0659,0.47315 -0.13182,0.47315 -0.19773,0 -0.39546,-0.23658 -0.52728,-0.47315 z"
     id="path4322"
     inkscape:connector-curvature="0" /><path
     style="fill:#965624"
     d="m 176.60148,68.773369 c 2.24093,-0.85167 5.63529,-3.73789 6.49212,-5.58318 1.54888,-3.40669 1.94434,-5.20466 2.73526,-12.5385 0.23068,-2.03455 -0.59319,-6.10365 -1.61479,-8.09088 -2.43867,-4.77883 -6.06371,-8.65867 -7.6785,-8.23283 -0.52728,0.14195 -0.88978,-0.0473 -1.08751,-0.6151 -0.46137,-1.23019 -2.76822,-0.9463 -2.90004,0.33121 -0.0659,0.6151 -0.29659,0.89899 -0.65909,0.75704 -0.32955,-0.14194 -0.72501,0.23658 -0.98865,0.80436 -0.49432,1.18288 -0.23069,1.65603 1.25229,2.12918 1.94434,0.61509 2.27389,1.04093 2.80116,3.83252 0.2966,1.51408 0.6591,3.17011 0.79092,3.69058 0.16478,0.52046 0.26364,2.36575 0.26364,4.11641 0,2.69696 -0.0989,3.17011 -0.62614,3.40669 -0.39546,0.14194 -0.62615,0.66241 -0.62615,1.46677 0,0.89898 -0.16477,1.23019 -0.62614,1.23019 -0.3625,0 -0.98865,0.66241 -1.45002,1.41945 -0.98864,1.70334 -1.18637,1.75066 -2.30684,0.28389 l -0.85683,-1.13556 -0.46137,0.99362 c -0.42841,0.9463 -0.52727,0.9463 -1.91138,0.3312 -0.79092,-0.37852 -1.58184,-0.85167 -1.77957,-1.04093 -0.16477,-0.23658 -0.56023,-0.37852 -0.88978,-0.37852 -0.32955,0 -1.05456,-0.89899 -1.64775,-2.03455 -1.61479,-2.98085 -1.91138,-3.21743 -2.63639,-2.17649 -0.75796,1.08824 -0.75796,1.32482 -0.0989,2.03454 0.42841,0.42584 0.46137,0.75705 0.13182,1.75066 -0.52728,1.65603 0.52727,4.58957 2.30684,6.38754 0.72501,0.75704 1.3182,1.70335 1.3182,2.12918 0,0.99362 1.64774,2.83891 3.46026,3.92715 1.54888,0.89899 7.64554,1.37214 9.29329,0.80436 l 0,0 z"
     id="path4320"
     inkscape:connector-curvature="0" /><path
     style="fill:#965624"
     d="m 44.682953,63.095569 c 0.29659,-0.47315 0.62614,-1.32482 0.75796,-1.84529 0.16477,-0.80436 0.0989,-0.89899 -0.46137,-0.70973 -0.75796,0.28389 -0.85683,-0.18926 -0.19773,-1.37213 0.52728,-0.99362 0.85683,-1.04094 0.85683,-0.14195 0,0.37852 0.0989,0.70973 0.26364,0.70973 0.32955,0 1.18638,-1.84529 1.41706,-3.07548 0.16477,-0.80436 0.46137,-0.94631 1.91139,-0.89899 1.15342,0.0473 1.71365,-0.14195 1.71365,-0.52047 0,-0.3312 0.2966,-0.99361 0.6591,-1.46677 0.6591,-0.85167 0.6591,-0.85167 -0.32955,-1.56139 -0.88978,-0.6151 -1.05456,-0.6151 -1.58184,0.0946 -0.32954,0.42583 -0.79091,0.75704 -1.0216,0.75704 -0.23068,0 -0.85683,0.70972 -1.41706,1.60871 -0.85683,1.37214 -1.08751,1.5614 -1.61479,1.08825 -0.82387,-0.75704 -1.74661,0.0946 -1.87843,1.70334 -0.13182,1.41946 -1.28524,2.22381 -1.74661,1.23019 -0.16478,-0.37852 -0.19773,0 -0.0989,0.99362 0.2966,2.60233 0.39546,2.83891 1.12047,2.83891 0.36251,0 0.6591,0.3312 0.6591,0.70972 -0.0659,0.99362 0.32955,0.89899 0.98865,-0.14194 z"
     id="path4318"
     inkscape:connector-curvature="0" /><path
     style="fill:#965624"
     d="m 128.7839,62.622419 c 0.0989,-0.28389 0.033,-0.6151 -0.16478,-0.80436 -0.49432,-0.47315 -0.82387,0.18926 -0.39546,0.75704 0.23069,0.37852 0.42842,0.37852 0.56024,0.0473 l 0,0 z"
     id="path4316"
     inkscape:connector-curvature="0" /><path
     style="fill:#965624"
     d="m 127.59752,60.635179 c -0.0659,-0.3312 -0.32955,-0.70972 -0.59319,-0.85167 -0.26364,-0.14194 -0.3625,0.0473 -0.29659,0.42584 0.0659,0.3312 0.32954,0.70972 0.59318,0.85167 0.26364,0.0946 0.39546,-0.0946 0.2966,-0.42584 z"
     id="path4314"
     inkscape:connector-curvature="0" /><path
     style="fill:#965624"
     d="m 19.307663,49.610769 c 0.49432,-0.37852 1.3182,-0.80436 1.84548,-0.99362 0.52727,-0.18926 1.25228,-0.75704 1.58183,-1.27751 0.32955,-0.52046 0.98865,-1.23019 1.45002,-1.60871 0.46137,-0.33121 1.38411,-1.75066 2.0432,-3.1228 0.9557,-2.03455 1.28525,-3.40669 1.74661,-7.14458 0.52728,-4.25836 0.52728,-4.73151 0.033,-5.77244 -0.2966,-0.6151 -0.82387,-2.31844 -1.18638,-3.69058 -0.3625,-1.37213 -0.95569,-2.93353 -1.31819,-3.40668 -0.36251,-0.47316 -0.6591,-1.13557 -0.6591,-1.46677 0,-0.33121 -0.26364,-0.89899 -0.59319,-1.23019 -0.32955,-0.33121 -0.88978,-1.46677 -1.25229,-2.5077 -0.49432,-1.41946 -1.15342,-2.27113 -2.63639,-3.45401 -1.71366,-1.37213 -2.20798,-1.51408 -3.75686,-1.32482 -0.98865,0.14195 -2.01025,0.0473 -2.30685,-0.18926 -0.29659,-0.23658 -1.91138,-0.0946 -3.75686,0.33121 -2.9659395,0.66241 -3.3284395,0.85167 -4.4818695,2.41307 -0.69205,0.9463 -1.77956,2.36575 -2.43866,3.21742 -1.51593,1.89261 -1.97729,3.17011 -1.71366,4.63688 0.13182,0.85167 0.0659,1.27751 -0.29659,1.46677 -0.32955,0.18926 -0.56023,1.23019 -0.72501003,3.21743 -0.19773,2.55501 -0.0989,3.40668 0.82388003,6.81337 0.56023,2.12918 1.18637,3.92715 1.35115,3.92715 0.16477,0 0.62614,0.47315 1.0216,0.99362 0.59319,0.85167 0.6591,1.13556 0.29659,1.98723 -0.32955,0.80436 -0.32955,1.04094 0.033,1.46677 0.26364,0.28389 0.85683,1.27751 1.35115,2.22381 1.35115,2.60233 3.98754,4.58957 6.4262095,4.82614 1.25229,0.14195 2.0432,0.0473 2.14207,-0.28389 0.0659,-0.3312 0.52728,-0.3312 1.41706,0.0473 1.77957,0.70972 2.50457,0.66241 3.55913,-0.0946 l 0,0 z"
     id="path4312"
     inkscape:connector-curvature="0" /><path
     style="fill:#965624"
     d="m 11.365533,37.024949 c -0.23069,-0.6151 -0.9557,-1.08825 -2.1420695,-1.46677 -1.54888,-0.47315 -1.91139,-0.80435 -2.53753,-2.27112 -0.39546,-0.9463 -0.95569,-1.98724 -1.25229,-2.31844 -0.46137,-0.52047 -0.42841,-0.6151 0.13182,-1.23019 0.46137,-0.52047 0.62614,-1.32483 0.69205,-3.35938 0.033,-1.8926 0.23069,-2.98085 0.72501,-3.73789 0.36251,-0.56778 0.82387,-1.60871 1.0216,-2.31844 0.23069,-0.85167 0.69206,-1.32482 1.41707,-1.5614 0.5931795,-0.18926 1.2522795,-0.66241 1.5159195,-1.13556 0.42842,-0.80436 0.46137,-0.80436 0.88978,0 0.23069,0.47315 0.62615,0.85167 0.85683,0.85167 0.49433,0 2.3398,2.83891 2.3398,3.59595 0,0.28389 -0.23068,0.80436 -0.49432,1.13556 -0.42842,0.52047 -0.36251,0.80436 0.42841,2.41307 0.72501,1.41946 1.05456,1.75066 1.64775,1.5614 0.69205,-0.23658 0.72501,-0.0946 0.6591,1.46677 -0.0659,1.46677 -0.23069,1.79797 -0.98865,1.98723 -0.59319,0.18926 -0.88978,0.52047 -0.82387,0.99362 0.0659,0.47315 -0.46137,1.18288 -1.3182,1.84529 -1.21933,0.99362 -1.41706,1.32482 -1.41706,2.74427 -0.0659,1.93992 -0.79092,2.36576 -1.35115,0.80436 l 0,0 z"
     id="path4310"
     inkscape:connector-curvature="0" /><path
     style="fill:#965624"
     d="m 11.332533,20.464669 c 0,-0.23658 -0.16477,-0.47315 -0.32955,-0.47315 -0.16477,0 -0.32955,0.23657 -0.32955,0.47315 0,0.23657 0.16478,0.47315 0.32955,0.47315 0.16478,0 0.32955,-0.23658 0.32955,-0.47315 z"
     id="path4308"
     inkscape:connector-curvature="0" /><path
     style="fill:#965624"
     d="m 73.716193,47.623529 c 0.0989,-0.14194 1.18638,-0.37852 2.37275,-0.47315 1.18638,-0.0946 2.47162,-0.47315 2.83413,-0.85167 0.3625,-0.37852 0.95569,-0.56778 1.31819,-0.42584 0.36251,0.14195 0.62615,0 0.62615,-0.28389 0,-0.28389 0.26364,-0.52046 0.59318,-0.52046 0.59319,0 2.66935,-3.54864 3.92164,-6.62412 0.3625,-0.89898 0.75796,-2.69696 0.88978,-3.92715 0.13182,-1.23019 0.46137,-2.88622 0.75797,-3.64326 0.49432,-1.18288 0.49432,-1.5614 0.0989,-3.35937 -0.26364,-1.08825 -0.79092,-2.60233 -1.21933,-3.31206 -0.42842,-0.70973 -1.0216,-2.41307 -1.35115,-3.83252 -0.52728,-2.22381 -0.69206,-2.5077 -1.45002,-2.36576 -0.56023,0.0946 -0.98865,-0.18926 -1.28524,-0.85167 -0.23069,-0.52047 -0.6591,-0.9463 -0.95569,-0.9463 -0.2966,0 -0.72501,-0.66241 -0.9557,-1.41946 -0.49432,-1.75065 -1.21933,-1.84528 -1.71365,-0.23657 -0.32955,1.04093 -0.2966,1.32482 0.32955,2.22381 0.59319,0.85167 0.79091,0.89899 1.21933,0.37852 0.42841,-0.52047 0.52728,-0.47315 0.52728,0.18926 0,0.42584 -0.23069,0.89899 -0.49433,1.04093 -0.26364,0.14195 -0.49432,0.6151 -0.49432,0.99362 0,0.52047 -0.23068,0.6151 -0.88978,0.37852 -0.49433,-0.18926 -1.05456,-0.37852 -1.21933,-0.42584 -0.52728,-0.14194 -0.62615,1.60872 -0.16478,2.79159 0.29659,0.80436 0.32955,1.27751 0.033,1.75066 -0.19773,0.33121 -0.2966,1.04094 -0.19773,1.5614 0.23068,1.23019 -1.38411,2.36576 -2.10912,1.51408 -0.42841,-0.47315 -0.46137,-0.37852 -0.26364,0.89899 0.19773,1.23019 0.0989,1.60871 -0.46137,2.03455 -0.82387,0.6151 -0.88978,1.5614 -0.16477,2.41307 0.32955,0.42584 0.49432,1.23019 0.42841,2.55502 l -0.0989,1.93992 -2.47162,0 c -2.53753,0 -3.62504,-0.70973 -3.62504,-2.36576 0,-0.85167 -1.51593,-3.07548 -2.10912,-3.07548 -0.49432,0 -0.95569,-0.75704 -1.28524,-2.03455 -0.16477,-0.6151 -0.033,-0.9463 0.39546,-1.08825 0.46137,-0.18926 0.59319,-0.70972 0.59319,-2.55501 0,-1.98724 -0.0659,-2.31844 -0.56023,-2.08187 -0.32955,0.14195 -0.88979,0 -1.25229,-0.3312 -0.59319,-0.52047 -0.72501,-0.52047 -1.0216,0.0946 -0.16478,0.37852 -0.26364,0.9463 -0.16478,1.27751 0.0989,0.3312 -0.0659,0.80435 -0.32955,1.13556 -0.72501,0.85167 -0.56023,1.41945 0.36251,1.41945 1.0216,0 1.05455,0.56778 0.0989,1.18288 -0.39546,0.23657 -0.75796,0.9463 -0.75796,1.51408 -0.033,0.56778 -0.13182,1.18288 -0.26364,1.37214 -0.13182,0.18926 0,1.04093 0.26364,1.93992 0.26364,0.89898 0.49432,2.22381 0.49432,2.98085 0,0.75704 0.23069,1.5614 0.49433,1.8926 0.26364,0.33121 0.49432,0.85167 0.49432,1.13556 0,1.98724 1.6807,4.21105 3.46027,4.63688 0.3625,0.0946 0.725,0.66242 0.85682,1.32483 0.0989,0.66241 0.39546,1.13556 0.6591,1.04093 0.56024,-0.18926 2.30685,0.85167 2.30685,1.37214 -0.16478,0.37852 2.57048,0.47315 2.90003,0.0473 l 0,0 z"
     id="path4306"
     inkscape:connector-curvature="0" /><path
     style="fill:#965624"
     d="m 130.79411,43.601749 c 0.725,-0.18926 2.10911,-0.6151 3.03185,-0.89899 1.84547,-0.56778 5.83302,-4.0691 7.3819,-6.48217 0.56023,-0.89898 1.12047,-2.69696 1.58183,-5.25197 0.72501,-3.83252 0.72501,-3.97447 0.19773,-9.36839 -0.79091,-8.23283 -1.71365,-9.98349 -7.28303,-13.8633195 -3.09776,-2.12918 -6.16257,-2.83891 -7.87623,-1.79798 -0.56023,0.37852 -1.54888,0.9463 -2.17502,1.27751 -0.62615,0.33121 -1.77957,1.32482 -2.57049,2.17649 -0.79091,0.8516795 -1.58183,1.5613995 -1.74661,1.5613995 -0.49432,0 -2.63639,2.88622 -2.63639,3.54863 0,0.33121 -0.6591,1.75066 -1.48297,3.1228 -2.04321,3.40669 -2.20798,4.63688 -1.25229,8.51672 0.42842,1.70334 0.75797,3.454 0.75797,3.87984 0,0.42583 0.42841,1.46676 0.95569,2.31844 0.52728,0.85167 1.25228,2.5077 1.61479,3.69057 0.72501,2.41307 2.20798,4.25836 5.27279,6.48217 2.20798,1.65603 3.52617,1.89261 6.22848,1.08825 z"
     id="path4304"
     inkscape:connector-curvature="0" /><path
     style="fill:#965624"
     d="m 123.28038,30.306209 c -1.12046,-0.85168 -1.94434,-2.27113 -1.74661,-3.02817 0.0989,-0.37852 0.32955,-0.66241 0.52728,-0.66241 0.39546,0 0.46137,-2.69696 0.0659,-3.02817 -0.42841,-0.37852 -0.23068,-6.48217 0.23069,-7.71236 0.23068,-0.56778 0.3625,-1.65603 0.29659,-2.36575 -0.0659,-1.04093 0.0989,-1.41946 0.95569,-1.98724 0.56024,-0.37852 1.3182,-1.23019 1.6807,-1.8925995 0.49433,-0.85167 0.79092,-1.04093 1.25229,-0.75704 0.32955,0.23657 0.92274,0.42583 1.28524,0.42583 0.46137,0 0.6591,0.37852 0.6591,1.2301995 0,0.89898 0.19773,1.23019 0.82387,1.32482 1.77957,0.28389 2.66935,1.18288 3.36141,3.35937 0.98864,3.07548 0.95569,6.67143 -0.16478,10.0308 -0.88978,2.69696 -2.0432,3.87984 -2.43866,2.5077 -0.2966,-1.08825 -0.88979,-0.75704 -1.87843,1.04093 -0.72501,1.27751 -1.12047,1.60872 -1.64775,1.41946 -0.39546,-0.14195 -0.92274,-0.0473 -1.18638,0.18926 -0.65909,0.56778 -1.21933,0.56778 -2.07616,-0.0946 l 0,0 z"
     id="path4302"
     inkscape:connector-curvature="0" /><path
     style="fill:#965624"
     d="m 130.82706,10.717759 c -0.0989,-0.42584 -0.0989,-0.9463095 0,-1.1828795 0.29659,-0.66241 1.12047,0.4731495 0.88978,1.2775095 -0.23068,0.85167 -0.62614,0.80435 -0.88978,-0.0946 l 0,0 z"
     id="path4300"
     inkscape:connector-curvature="0" /><path
     style="fill:#965624"
     d="m 166.58314,38.539029 c 0.23069,-0.80435 0.52728,-1.08824 1.18638,-0.99361 1.12047,0.0946 2.40571,-0.80436 2.40571,-1.70335 0,-0.85167 -0.56023,-1.37213 -0.82387,-0.70972 -0.32955,0.75704 -1.48297,0.56778 -1.71366,-0.23658 -0.16477,-0.6151 -0.26364,-0.6151 -0.72501,-0.0946 -0.29659,0.37852 -1.08751,0.99362 -1.74661,1.46677 -1.45001,0.9463 -1.61479,1.23019 -1.3841,2.5077 0.26364,1.37214 2.40571,1.27751 2.80116,-0.23658 z"
     id="path4298"
     inkscape:connector-curvature="0" /><path
     style="fill:#965624"
     d="m 68.608183,20.559299 c 0.85682,-0.14195 1.08751,-0.37852 1.08751,-1.32483 0,-1.56139 -0.39546,-1.75065 -1.58184,-0.66241 -0.59319,0.52047 -1.18637,0.89899 -1.3841,0.89899 -0.56024,0 -0.32955,-1.5614 0.39546,-2.64965 0.56023,-0.85167 0.82387,-0.99361 1.35115,-0.56778 0.49432,0.37852 0.79092,0.33121 1.21933,-0.23657 0.32955,-0.42584 0.82387,-0.75704 1.12047,-0.75704 0.29659,0 0.85682,-0.28389 1.18637,-0.56779 0.52728,-0.47315 0.72501,-0.42583 1.08752,0.2839 0.3625,0.70972 0.56023,0.80435 1.15342,0.3312 0.92274,-0.70973 0.92274,-1.65603 0,-2.88622 -0.82388,-1.08825 -1.28524,-1.18288 -1.81252,-0.42584 -0.26364,0.37852 -0.56024,0.37852 -1.02161,0 -0.88978,-0.70972 -1.15342,-0.66241 -0.95569,0.14195 0.32955,1.18288 -0.62614,2.5077 -1.64774,2.31844 -0.72501,-0.14195 -1.18638,0.18926 -2.24094,1.75066 -1.0216,1.51408 -1.21933,2.03455 -0.92274,2.5077 0.23069,0.3312 0.39546,0.9463 0.39546,1.41945 0,0.80436 0.23069,0.85167 2.57049,0.42584 l 0,0 z"
     id="path3004"
     inkscape:connector-curvature="0" /><path
     style="fill:#8e4d19"
     d="m 125.09294,89.592019 c 0.56024,-0.56778 0.82388,-0.56778 1.3182,-0.14194 0.6591,0.61509 1.91139,0.28389 1.91139,-0.47315 0,-0.23658 0.26364,-0.42584 0.59318,-0.42584 0.32955,0 1.02161,-0.6151 1.54889,-1.41945 0.52727,-0.80436 1.08751,-1.41945 1.28524,-1.41945 0.46137,0 2.53753,-3.35938 2.90003,-4.63688 0.16477,-0.6151 0.29659,-1.65603 0.29659,-2.27113 0,-0.80436 0.23069,-1.27751 0.6591,-1.46677 0.36251,-0.14194 0.6591,-0.52046 0.6591,-0.85167 0,-0.3312 0.0989,-0.99362 0.19773,-1.46677 0.13182,-0.66241 0.0989,-0.70972 -0.13182,-0.23657 -0.59319,1.18288 -1.77956,0.42583 -2.50457,-1.70335 -0.62615,-1.84528 -1.21933,-2.36575 -2.30685,-2.08186 -0.16477,0.0473 -0.19773,-0.23658 -0.0989,-0.6151 0.13182,-0.47315 -0.0989,-0.75704 -0.6591,-0.89898 -0.6591,-0.18926 -0.79092,-0.0473 -0.69205,0.61509 0.23068,1.2302 -0.36251,2.36576 -1.25229,2.36576 -0.42841,0 -0.88978,0.18926 -0.98865,0.47315 -0.0989,0.28389 -0.49432,0.47315 -0.85683,0.47315 -0.42841,0 -0.62614,0.33121 -0.62614,0.89899 0,1.08824 -1.91138,3.35937 -2.86708,3.35937 -0.3625,0 -0.82387,0.47315 -1.0216,1.18288 -0.32955,1.04093 -0.46137,1.13556 -1.3182,0.70972 -0.52727,-0.28389 -1.28524,-1.08824 -1.6807,-1.8926 -0.39546,-0.75704 -0.98864,-1.41945 -1.35115,-1.41945 -0.3625,0 -0.88978,-0.6151 -1.21933,-1.41946 -0.3625,-0.89898 -0.85683,-1.41945 -1.35115,-1.41945 -0.46137,0 -0.75796,-0.28389 -0.75796,-0.75704 0,-0.42584 -0.16478,-0.6151 -0.36251,-0.42584 -0.19773,0.18926 -0.29659,1.08825 -0.26364,2.03455 0.0989,1.5614 0.033,1.70335 -0.6591,1.70335 -0.725,-0.0473 -0.75796,0.0946 -0.59318,1.70334 0.0989,0.9463 0.42841,2.36575 0.69205,3.17011 0.72501,2.08186 2.90003,4.44762 4.08641,4.44762 0.92274,0 0.98865,0.0946 0.82387,1.5614 -0.13182,1.32482 -0.033,1.60871 0.69205,2.08186 0.72501,0.47315 0.79092,0.47315 0.52728,-0.0473 -0.26364,-0.47315 -0.23068,-0.75704 0.16478,-1.2302 0.59319,-0.70972 1.0216,-0.23657 1.18637,1.18288 0.23069,1.23019 2.9989,1.79798 4.0205,0.75704 z"
     id="path3946"
     inkscape:connector-curvature="0" /><path
     style="fill:#8e4d19"
     d="m 128.98162,78.189079 c 0,-0.28389 0.16478,-0.47315 0.32955,-0.47315 0.16478,0 0.32955,0.18926 0.32955,0.47315 0,0.2839 -0.16477,0.47316 -0.32955,0.47316 -0.16477,0 -0.32955,-0.23658 -0.32955,-0.47316 z"
     id="path3944"
     inkscape:connector-curvature="0" /><path
     style="fill:#8e4d19"
     d="m 126.67478,75.539439 c 0,-0.0946 0.16478,-0.18926 0.32955,-0.18926 0.16477,0 0.32955,0.23657 0.32955,0.52047 0,0.28389 -0.16478,0.37852 -0.32955,0.18926 -0.16477,-0.18926 -0.32955,-0.42584 -0.32955,-0.52047 z"
     id="path3942"
     inkscape:connector-curvature="0" /><path
     style="fill:#8e4d19"
     d="m 57.238773,88.787669 c 0.56023,-0.42584 0.82387,-0.94631 0.69205,-1.27751 -0.16477,-0.37852 -0.0329,-0.33121 0.2966,0.0473 0.46137,0.56779 0.79092,0.42584 2.37275,-0.85167 0.98865,-0.80435 2.14207,-2.03455 2.50458,-2.74427 0.3625,-0.70973 1.15342,-1.46677 1.74661,-1.75066 0.62614,-0.28389 1.08751,-0.85167 1.15342,-1.41945 0.0659,-0.52047 0.75796,-1.79798 1.54888,-2.83891 l 1.41706,-1.8926 -0.23068,-3.31206 c -0.13182,-1.93992 -0.46137,-3.78521 -0.79092,-4.49494 -0.32955,-0.66241 -0.56024,-1.65602 -0.56024,-2.27112 0,-0.6151 -0.26363,-1.46677 -0.59318,-1.8926 -0.32955,-0.47315 -0.52728,-1.18288 -0.46137,-1.60872 0.0659,-0.56778 -0.0659,-0.70972 -0.49433,-0.56778 -0.39546,0.14195 -1.05455,-0.42583 -1.91138,-1.70334 -0.72501,-1.04093 -1.48297,-1.89261 -1.71366,-1.93992 -0.23068,0 -0.52728,-0.28389 -0.6591,-0.6151 -0.95569,-2.22381 -4.25118,-3.7852 -3.98754,-1.8926 0.0659,0.47315 0.49432,0.9463 1.0216,1.08825 1.0216,0.28389 2.47162,3.02816 1.87843,3.54863 -0.19773,0.18926 -0.32955,1.04093 -0.32955,1.8926 0,1.13556 0.16478,1.65603 0.62615,1.89261 0.69205,0.3312 1.21933,2.27112 0.69205,2.55501 -0.16477,0.0946 -0.32955,0.56778 -0.32955,1.08825 0,0.52046 -0.23068,0.89899 -0.49432,0.89899 -0.62615,0 -0.69206,2.64964 -0.0989,2.98085 0.26364,0.14194 0.23069,0.23657 -0.13182,0.28389 -0.29659,0 -0.72501,0.37852 -0.95569,0.75704 -0.29659,0.52046 -0.72501,0.61509 -1.38411,0.42583 -0.92273,-0.28389 -0.95569,-0.23657 -0.85682,1.18288 0.13182,1.65603 -0.56024,2.64965 -1.28525,1.84529 -0.23068,-0.28389 -0.52727,-0.3312 -0.65909,-0.14194 -0.13182,0.18926 -0.0659,0.47315 0.16477,0.56778 0.23068,0.0946 0.42841,0.9463 0.42841,1.8926 v 1.70334 l -1.45001,-0.28389 c -1.51593,-0.28389 -2.14207,0.23658 -2.60344,2.1765 -0.2966,1.13556 -0.98865,1.04093 -1.38411,-0.23658 -0.19773,-0.56778 -0.52728,-0.99361 -0.79092,-0.9463 -0.62614,0.18926 -2.66934,-1.27751 -2.66934,-1.93992 0,-0.80436 -1.3182,-2.03455 -2.57049,-2.46038 l -1.08751,-0.33121 0.52728,1.46677 c 0.29659,0.80436 0.42841,1.8926 0.32955,2.41307 -0.16478,0.70973 -0.033,0.9463 0.42841,0.9463 0.36251,0 0.72501,0.33121 0.85683,0.75704 0.13182,0.52047 0.46137,0.70973 1.0216,0.52047 0.72501,-0.18926 0.79092,-0.0946 0.72501,1.41945 -0.0329,1.18288 0.0989,1.79797 0.59319,2.1765 0.3625,0.28389 0.95569,1.04093 1.3182,1.60871 0.52727,0.85167 1.18637,1.13556 2.90003,1.37214 2.0432,0.28389 2.27389,0.18926 2.73526,-0.70973 0.26364,-0.56778 0.725,-0.99362 0.95569,-0.99362 0.6591,0 0.59319,0.75704 -0.0989,1.13557 -0.49432,0.28389 -0.49432,0.37852 -0.0989,0.75704 0.62614,0.56778 0.6591,0.56778 1.74661,-0.28389 l 0,0 z"
     id="path3940"
     inkscape:connector-curvature="0" /><path
     style="fill:#8e4d19"
     d="m 47.912533,87.888679 c 0,-0.52047 -0.62614,-0.70973 -0.82387,-0.28389 -0.0989,0.28389 0.0329,0.47315 0.29659,0.47315 0.26364,0 0.52728,-0.0473 0.52728,-0.18926 z"
     id="path3938"
     inkscape:connector-curvature="0" /><path
     style="fill:#8e4d19"
     d="m 114.18487,71.375709 c 0.46137,-0.3312 0.98864,-0.52047 1.18637,-0.42583 0.56024,0.28389 0.92274,-0.85168 0.39546,-1.32483 -0.26364,-0.23657 -0.92273,-0.42583 -1.51592,-0.42583 -0.79092,0 -1.12047,0.23657 -1.25229,0.99361 -0.32955,1.37214 0.19773,1.89261 1.18638,1.18288 z"
     id="path3936"
     inkscape:connector-curvature="0" /><path
     style="fill:#8e4d19"
     d="m 136.23171,69.435789 c 0,-0.66241 -0.13182,-1.18288 -0.2966,-1.18288 -0.16477,0 -0.19773,0.52047 -0.13182,1.18288 0.0989,0.66241 0.23069,1.18288 0.2966,1.18288 0.0659,0 0.13182,-0.56778 0.13182,-1.18288 z"
     id="path3934"
     inkscape:connector-curvature="0" /><path
     style="fill:#8e4d19"
     d="m 176.60148,68.300229 c 1.08751,-0.37852 4.58073,-3.07548 5.56938,-4.25836 1.38411,-1.65603 3.13072,-8.75329 3.13072,-12.82239 0,-2.27113 -0.88978,-6.5768 -1.64775,-7.94894 -0.3625,-0.61509 -0.62614,-1.37213 -0.62614,-1.60871 0,-0.66241 -2.24094,-3.78521 -3.75686,-5.25198 -1.3182,-1.2775 -2.6364,-1.60871 -3.03185,-0.75704 -0.13182,0.33121 -0.49433,0.14195 -0.98865,-0.52046 -0.46137,-0.6151 -0.98865,-0.94631 -1.3182,-0.75704 -0.72501,0.37852 -0.46137,1.41945 0.42842,1.60871 1.0216,0.23657 1.94434,1.84529 1.48297,2.55501 -0.52728,0.75705 -0.49433,1.32483 0.0989,1.32483 0.26364,0 0.49433,0.42583 0.49433,0.9463 0,0.52046 0.13181,0.9463 0.26363,0.9463 0.26364,0 1.38411,3.26474 1.38411,3.97447 0,0.18926 -0.23068,0.23657 -0.49432,0.0946 -0.59319,-0.33121 -0.69206,1.5614 -0.13182,2.41307 0.56023,0.80436 0.0329,4.92077 -0.6591,5.15734 -0.2966,0.0946 -0.79092,0.85168 -1.12047,1.60872 -0.32955,0.85167 -0.82387,1.37214 -1.25228,1.37214 -0.42842,0 -0.79092,0.42583 -0.98865,1.18287 -0.16478,0.66241 -0.59319,1.32483 -0.88979,1.46677 -0.32954,0.14195 -0.82387,0.47315 -1.15342,0.70973 -0.85682,0.66241 -1.51592,0.52046 -1.84547,-0.37852 -0.23069,-0.6151 -0.42842,-0.66242 -0.75797,-0.28389 -0.65909,0.75704 -3.32844,0.0473 -4.25118,-1.18288 -0.42841,-0.56778 -0.85683,-1.04093 -0.98865,-1.04093 -0.13182,0 -0.39546,-0.52047 -0.59319,-1.18288 -0.46136,-1.41945 -1.25228,-1.5614 -1.54888,-0.28389 -0.19773,0.9463 0.42842,2.88622 0.92274,2.88622 0.16478,0 0.19773,0.56778 0.0659,1.23019 -0.19773,1.04093 -0.0659,1.27751 0.79092,1.75066 0.75796,0.42584 1.08751,0.99362 1.35115,2.31844 0.32955,1.70334 0.49432,1.93992 3.13072,3.83252 1.15342,0.85167 7.3819,1.41946 8.93078,0.89899 l 0,0 z"
     id="path3932"
     inkscape:connector-curvature="0" /><path
     style="fill:#8e4d19"
     d="m 178.74355,52.828189 c 0,-0.42583 0.16477,-0.61509 0.32955,-0.42583 0.19773,0.14194 0.26364,0.47315 0.13182,0.75704 -0.26364,0.61509 -0.46137,0.52046 -0.46137,-0.33121 l 0,0 z"
     id="path3930"
     inkscape:connector-curvature="0" /><path
     style="fill:#8e4d19"
     d="m 116.39285,67.921709 c 0.88978,-0.23658 0.98864,-1.5614 0.13182,-1.5614 -0.32955,0 -0.69206,0.42584 -0.79092,0.9463 -0.0989,0.52047 -0.16478,0.89899 -0.13182,0.89899 0.0329,0 0.3625,-0.18926 0.79092,-0.28389 z"
     id="path3928"
     inkscape:connector-curvature="0" /><path
     style="fill:#8e4d19"
     d="m 117.11785,63.757979 c 0,-0.0946 -0.16477,-0.33121 -0.32954,-0.52047 -0.16478,-0.18926 -0.32955,-0.0473 -0.32955,0.18926 0,0.23658 0.16477,0.52047 0.32955,0.52047 0.16477,0 0.32954,-0.0473 0.32954,-0.18926 z"
     id="path3926"
     inkscape:connector-curvature="0" /><path
     style="fill:#8e4d19"
     d="m 134.25441,63.048249 c 0,-0.23657 -0.13182,-0.56778 -0.32955,-0.75704 -0.19773,-0.18926 -0.23068,0.0473 -0.13182,0.42584 0.23069,0.85167 0.46137,1.04093 0.46137,0.3312 z"
     id="path3924"
     inkscape:connector-curvature="0" /><path
     style="fill:#8e4d19"
     d="m 132.60667,62.575099 c 0,-0.28389 -0.16478,-0.47315 -0.32955,-0.47315 -0.16478,0 -0.32955,0.18926 -0.32955,0.47315 0,0.28389 0.16477,0.47315 0.32955,0.47315 0.16477,0 0.32955,-0.23657 0.32955,-0.47315 z"
     id="path3922"
     inkscape:connector-curvature="0" /><path
     style="fill:#8e4d19"
     d="m 18.582653,48.995669 c 1.08751,-0.52047 2.14207,-1.37214 2.40571,-1.93992 0.13182,-0.3312 0.59319,-0.6151 1.0216,-0.6151 0.49433,0 0.82388,-0.3312 0.9557,-0.9463 0.0989,-0.52046 0.46137,-0.9463 0.79091,-0.9463 0.36251,0 1.21934,-1.13556 2.04321,-2.69696 1.38411,-2.55501 1.45002,-2.88622 1.51593,-6.00902 0.0989,-4.92077 -0.85683,-9.84154 -2.53753,-12.96433 -0.72501,-1.37214 -1.61479,-2.74428 -1.9773,-2.98085 -0.49432,-0.37853 -0.59319,-0.80436 -0.42841,-1.84529 0.19773,-1.18288 0.0989,-1.46677 -0.72501,-1.98724 -0.52728,-0.3312 -1.48297,-1.13556 -2.17502,-1.84529 -1.25229,-1.2775 -2.04321,-1.32482 -3.95459,-0.18926 -0.32955,0.18926 -0.79092,0.0946 -1.05456,-0.23657 -0.56024,-0.66241 -5.3057395,-0.23658 -5.6023395,0.47315 -0.0989,0.23657 -0.42841,0.28389 -0.72501,0.14194 -0.59318,-0.3312 -1.41706,0.99362 -1.41706,2.27113 0,0.99362 1.54888,1.51408 1.77957,0.6151 0.0989,-0.33121 0.49432,-0.66242 0.92274,-0.66242 0.42841,0 1.1534195,-0.3312 1.6806995,-0.70972 0.98864,-0.75704 2.83412,-0.52047 3.26253,0.42583 0.16478,0.37852 0.42842,0.37852 0.85683,-0.0473 0.69205,-0.6151 1.0216,-0.37852 1.0216,0.66241 0,0.42584 -0.23068,0.56778 -0.65909,0.37852 -0.98865,-0.47315 -1.25229,1.75066 -0.36251,3.02817 0.36251,0.52046 0.82387,0.99361 0.98865,0.99361 0.16477,0 0.49432,0.37852 0.75796,0.85168 0.26364,0.47315 0.69206,0.99361 1.0216,1.18287 0.62615,0.33121 0.79092,2.22381 0.23069,2.98085 -0.23069,0.33121 -0.16478,1.18288 0.23068,2.64965 0.46137,1.75066 0.49433,2.41307 0.19773,3.26474 -0.19773,0.6151 -0.46137,1.60871 -0.59319,2.22381 -0.16477,0.89899 -0.3625,1.08825 -1.12046,0.85167 -1.15343,-0.3312 -1.6807,1.08825 -1.28524,3.21743 0.3625,1.84529 0.13181,2.60233 -0.72501,2.60233 -0.36251,0 -1.02161,0.3312 -1.41706,0.70973 -0.98865,0.9463 -3.03186,0.18926 -3.2955,-1.18288 -0.0989,-0.52047 -0.3954595,-0.9463 -0.6920495,-0.9463 -0.69205,0 -0.6591,-0.94631 0.0659,-1.70335 0.32955,-0.3312 0.4613695,-0.75704 0.32955,-0.9463 -0.13182,-0.18926 -0.46137,-0.0946 -0.69205,0.18926 -0.36251,0.42584 -0.56024,0.37852 -0.85683,-0.18926 -0.56024,-0.9463 -0.92274,-0.89899 -1.15342,0.23658 -0.0989,0.52046 -0.39546,0.9463 -0.6591,0.9463 -0.46137,0 -0.62615,-0.47315 -0.98865,-3.31206 -0.29659,-2.22381 -0.46137,-2.5077 -0.98865,-1.8926 -0.56023,0.66241 -0.98864,-0.18926 -0.62614,-1.32483 0.13182,-0.42583 0.26364,-2.17649 0.26364,-3.87983 0.0329,-2.64965 0.13182,-3.1228 0.72501,-3.50132 0.39546,-0.23658 1.0216,-1.46677 1.45001,-2.69696 0.62615,-1.84529 0.69206,-2.41307 0.32955,-2.98085 -0.23068,-0.37852 -0.62614,-0.70973 -0.88978,-0.70973 -0.79092,0 -3.03185,2.88622 -2.83412,3.59595 0.19773,0.75704 -0.85683,6.71874 -1.25229,7.09726 -0.49432,0.47315 -0.29659,2.55502 0.29659,2.93354 0.32955,0.18926 0.59319,0.85167 0.59319,1.51408 0,0.89899 0.23069,1.2302 1.08752,1.5614 1.12046,0.42584 1.87843,2.1765 1.58183,3.64326 -0.19773,0.94631 0.16478,1.70335 0.82387,1.70335 0.2966,0 0.49433,0.42583 0.46137,1.08824 -0.0329,1.27751 0.39546,1.37214 1.25229,0.28389 0.32955,-0.42583 0.72501,-0.61509 0.85683,-0.42583 0.13182,0.18926 0,0.52046 -0.2966,0.75704 -0.29659,0.23658 -0.62614,0.9463 -0.75796,1.60871 -0.0989,0.66241 -0.3625,1.18288 -0.52728,1.18288 -0.16477,0 -0.0989,0.52047 0.19773,1.18288 0.2966,0.66241 0.69205,1.18288 0.85683,1.18288 0.16477,0 0.72501,0.42583 1.25229,0.99361 0.7909095,0.85167 1.1863695,0.9463 2.8011595,0.66241 1.02161,-0.18926 1.84548,-0.47315 1.84548,-0.66241 0,-0.18926 -0.23069,-0.80435 -0.52728,-1.37214 -0.59319,-1.18287 -0.42841,-1.75065 0.3625,-1.32482 0.26364,0.14195 0.49433,0.75704 0.49433,1.37214 -0.0989,1.60871 2.63639,3.17011 4.18527,2.41307 l 0,0 z"
     id="path3920"
     inkscape:connector-curvature="0" /><path
     style="fill:#8e4d19"
     d="m 18.417883,46.677229 c 0.69205,-0.75704 1.51592,-0.89899 1.51592,-0.28389 0,0.70973 -0.42841,1.04093 -1.28524,0.99362 -0.85683,0 -0.85683,-0.0473 -0.23068,-0.70973 z"
     id="path3918"
     inkscape:connector-curvature="0" /><path
     style="fill:#8e4d19"
     d="m 15.946263,41.945719 c 0,-0.0946 0.16477,-0.18926 0.32955,-0.18926 0.16477,0 0.32955,0.23658 0.32955,0.52047 0,0.28389 -0.16478,0.37852 -0.32955,0.18926 -0.16478,-0.18926 -0.32955,-0.42584 -0.32955,-0.52047 z"
     id="path3916"
     inkscape:connector-curvature="0" /><path
     style="fill:#8e4d19"
     d="m 73.024183,47.150379 c 0.0989,-0.14194 1.28524,-0.37852 2.60343,-0.52046 1.3182,-0.14195 2.80117,-0.52047 3.26254,-0.85168 0.46137,-0.3312 1.3182,-0.89898 1.91139,-1.23019 0.59318,-0.3312 1.28524,-1.13556 1.54888,-1.79797 0.26364,-0.66241 0.88978,-1.89261 1.45001,-2.69696 1.02161,-1.51409 2.3398,-7.00264 2.3398,-9.84154 0,-0.99362 0.13182,-1.27751 0.49433,-1.08825 0.26364,0.14194 0.49432,0.18926 0.49432,0.14194 0,-0.47315 -1.41706,-4.11641 -2.10911,-5.44123 -0.46137,-0.89899 -0.92274,-2.22381 -1.05456,-2.98085 -0.0989,-0.75704 -0.39546,-1.37214 -0.62615,-1.37214 -0.23068,0 -0.82387,-0.47315 -1.31819,-0.99362 -0.75797,-0.85167 -0.95569,-0.89898 -1.18638,-0.37852 -0.16477,0.37852 -0.29659,0.9463 -0.29659,1.23019 0,0.85168 1.21933,2.5077 1.81252,2.5077 0.29659,0 0.6591,0.66242 0.85682,1.41946 0.19773,0.75704 0.49433,1.41945 0.62615,1.41945 0.13182,0 0.29659,0.42584 0.29659,0.9463 0,1.60872 -1.21933,1.08825 -1.94434,-0.80435 -0.19773,-0.56779 -0.72501,-1.32483 -1.15342,-1.65603 -0.42841,-0.33121 -1.25229,-0.99362 -1.81252,-1.46677 -0.98865,-0.80436 -1.0216,-0.80436 -1.0216,0.0946 0,0.52047 0.46137,1.46677 1.05455,2.12918 0.9557,1.08825 1.02161,1.27751 0.6591,2.41307 -0.19773,0.66241 -0.59319,1.23019 -0.85682,1.23019 -0.26364,0 -0.56024,0.33121 -0.6591,0.70973 -0.0989,0.42583 -0.59319,0.70972 -1.15343,0.70972 -0.85682,0 -0.95569,0.14195 -0.88978,1.46677 0.0989,1.79798 -0.32955,2.22381 -1.15342,1.13556 -1.18638,-1.56139 -1.08751,-0.18926 0.13182,1.5614 l 1.21933,1.75066 -0.59319,1.32482 c -1.0216,2.22381 -1.64774,2.60233 -3.49322,2.22381 -0.92274,-0.18926 -2.01025,-0.28389 -2.47162,-0.14194 -0.92273,0.23657 -1.97729,-1.08825 -2.90003,-3.69058 -0.72501,-2.08186 -1.15342,-2.17649 -2.0432,-0.42584 l -0.72501,1.46677 0.72501,1.37214 c 0.79091,1.51408 0.62614,2.5077 -0.2966,2.08186 -0.49432,-0.23657 -0.56023,-0.0946 -0.42841,0.70973 0.23068,1.23019 0.75796,1.70334 1.08751,0.99362 0.3625,-0.85167 1.48297,-0.37852 1.45002,0.61509 -0.033,0.75705 1.54888,3.64327 2.01025,3.64327 0.0989,0 0.79091,0.52046 1.51592,1.18287 1.18638,1.08825 2.24094,1.46677 2.6364,0.89899 l 0,0 z"
     id="path3914"
     inkscape:connector-curvature="0" /><path
     style="fill:#8e4d19"
     d="m 130.4646,43.081279 c 3.26253,-0.85167 4.97619,-1.51408 5.60233,-2.27112 0.36251,-0.42584 1.3182,-1.27751 2.14207,-1.89261 0.82387,-0.56778 1.74661,-1.41945 2.07616,-1.84528 1.18638,-1.51409 2.86708,-8.23283 2.86708,-11.30831 0,-2.79159 -1.28524,-10.07812 -1.9773,-11.35563 -0.88978,-1.60871 -3.55913,-4.8734495 -4.05345,-4.8734495 -0.19773,0 -1.08751,-0.52047 -2.01025,-1.18288 -2.27389,-1.5614 -3.49322,-1.98723 -3.49322,-1.13556 0,0.6151 2.01025,2.7915895 2.57048,2.7915895 0.16478,0 0.56024,0.42584 0.88978,0.9463 0.49433,0.75704 0.52728,1.18288 0.23069,2.08187 -0.19773,0.61509 -0.26364,1.60871 -0.16478,2.17649 0.13182,0.80436 0.36251,0.9463 0.9557,0.75704 0.6591,-0.23657 0.79091,-0.0946 0.79091,0.85167 0,0.6151 0.23069,1.41946 0.49433,1.70335 0.69205,0.80435 0.62614,1.8926 -0.13182,1.8926 -1.15342,0 -1.74661,1.37214 -1.51593,3.454 0.16478,1.37214 0.0989,1.79798 -0.19773,1.65603 -0.23068,-0.0946 -0.42841,-0.80435 -0.42841,-1.5614 0,-0.9463 -0.19773,-1.41945 -0.59319,-1.51408 -0.49432,-0.14194 -0.56023,0.0946 -0.3625,1.46677 0.13182,1.04093 0.0329,2.27112 -0.2966,3.31206 -0.39546,1.37213 -0.75796,1.79797 -1.77956,2.2238 -1.02161,0.37853 -1.28524,0.70973 -1.25229,1.5614 0.033,0.75704 -0.19773,1.08825 -0.72501,1.2302 -0.56023,0.0946 -0.75796,-0.0946 -0.75796,-0.85168 0,-1.13556 -0.72501,-1.2775 -1.3182,-0.28389 -0.23068,0.37852 -0.69205,0.70973 -1.0216,0.70973 -0.32955,0 -0.69205,0.18926 -0.79092,0.47315 -0.32955,0.75704 -1.54888,0.52047 -3.26254,-0.70973 -1.18637,-0.85167 -1.77956,-1.04093 -2.20797,-0.70972 -0.46137,0.3312 -0.6591,0.23657 -0.92274,-0.47315 -0.52728,-1.41946 -0.39546,-2.41307 0.32955,-2.41307 0.46137,0 0.6591,-0.33121 0.6591,-1.13557 0,-1.70334 -0.32955,-2.60233 -0.85683,-2.31844 -0.69206,0.37853 -0.59319,-1.18287 0.19773,-3.31205 0.49432,-1.32482 0.62614,-2.22381 0.46137,-3.454 -0.16478,-1.18288 -0.0989,-1.79798 0.23068,-2.08187 0.23068,-0.23657 0.3625,-0.52046 0.26364,-0.66241 -0.0989,-0.14194 -0.52728,0.28389 -0.98865,0.9463 -0.42841,0.66241 -1.05456,1.5614 -1.3841,1.98724 -0.46137,0.66241 -0.52728,1.2775 -0.36251,3.31205 0.19773,2.41307 0.19773,2.5077 -0.59319,2.36576 -0.42841,-0.0473 -0.88978,-0.33121 -1.05455,-0.6151 -0.32955,-0.56778 0,2.69696 0.49432,5.06272 0.19773,0.99361 0.72501,2.08186 1.12047,2.5077 0.42841,0.37852 0.69205,0.99361 0.59318,1.32482 -0.46136,1.65603 3.09777,8.84792 4.38301,8.84792 0.23068,0 1.0216,0.6151 1.77956,1.41946 1.38411,1.46676 2.40571,1.65602 5.37166,0.89898 l 0,0 z"
     id="path3912"
     inkscape:connector-curvature="0" /><path
     style="fill:#8e4d19"
     d="m 64.060443,36.788379 c 0,-0.52047 -0.62615,-0.70973 -0.82387,-0.2839 -0.0989,0.2839 0.0329,0.47316 0.29659,0.47316 0.26364,0 0.52728,-0.0473 0.52728,-0.18926 z"
     id="path3910"
     inkscape:connector-curvature="0" /><path
     style="fill:#8e4d19"
     d="m 63.928623,34.611879 c 0.26364,-0.66241 -0.0989,-3.64326 -0.52728,-4.02178 -0.16477,-0.14195 -0.46137,0.23657 -0.6591,0.80435 -0.59319,1.89261 0.49433,4.82614 1.18638,3.21743 z"
     id="path3908"
     inkscape:connector-curvature="0" /><path
     style="fill:#8e4d19"
     d="m 17.363323,33.381689 c 0.46137,-0.66241 0.23069,-1.65603 -0.3625,-1.51409 -0.32955,0.0946 -0.59319,0.47316 -0.59319,0.80436 0.0329,0.80436 0.62614,1.23019 0.95569,0.70973 z"
     id="path3906"
     inkscape:connector-curvature="0" /><path
     style="fill:#8e4d19"
     d="m 134.91351,19.139839 c 0,-0.80435 -0.13182,-1.60871 -0.29659,-1.75065 -0.36251,-0.2839 -0.2966,2.36575 0.0329,2.8389 0.16477,0.23658 0.26364,-0.28389 0.26364,-1.08825 l 0,0 z"
     id="path3904"
     inkscape:connector-curvature="0" /><path
     style="fill:#8e4d19"
     d="m 133.76009,14.313699 c 0.23068,-0.56778 -0.0659,-1.41945 -0.49433,-1.41945 -0.39546,0 -0.39546,1.27751 0,1.65603 0.16478,0.0946 0.39546,0 0.49433,-0.23658 z"
     id="path3902"
     inkscape:connector-curvature="0" /><path
     style="fill:#8e4d19"
     d="m 129.97027,6.9325495 c 0,-0.42584 -0.23068,-0.66241 -0.56023,-0.6151 -0.82387,0.23658 -0.95569,1.32483 -0.13182,1.32483 0.42841,0.0473 0.69205,-0.2839 0.69205,-0.70973 z"
     id="path3002"
     inkscape:connector-curvature="0" /><path
     style="fill:#7c4116"
     d="m 126.4441,86.563899 c 0.3625,-0.66241 0.92273,-0.9463 2.07616,-0.99362 1.35115,-0.0473 1.64774,-0.23658 1.87843,-1.23019 0.16477,-0.6151 0.42841,-0.99362 0.62614,-0.85167 0.49432,0.42583 2.07616,-0.89899 2.83412,-2.41307 0.62615,-1.2302 2.10912,-5.53587 2.10912,-6.05634 0,-0.14194 -0.23069,-0.23657 -0.52728,-0.23657 -0.2966,0 -0.72501,-0.70973 -0.98865,-1.60872 -0.49432,-1.65602 -1.0216,-2.17649 -2.30684,-2.17649 -0.62615,0 -0.85683,0.42584 -1.28525,2.22381 -0.3625,1.46677 -0.42841,2.36575 -0.19772,2.69696 0.19772,0.28389 0.32954,0.85167 0.32954,1.32482 0,1.08825 -1.58183,1.18288 -1.87843,0.0946 -0.19773,-0.70972 -0.26363,-0.66241 -0.65909,0.14195 -0.42842,0.85167 -0.49433,0.85167 -0.88979,0.0946 -0.32955,-0.6151 -0.52728,-0.66241 -0.79091,-0.28389 -0.19773,0.28389 -0.39546,0.85167 -0.39546,1.23019 0,0.56778 -0.13182,0.52047 -0.62615,-0.14194 -0.52728,-0.70973 -0.72501,-0.70973 -1.41706,-0.18927 -0.42841,0.33121 -0.88978,0.89899 -1.0216,1.18288 -0.52728,1.13556 -3.92164,-0.18926 -4.81142,-1.8926 -0.29659,-0.6151 -0.79092,-0.80436 -1.71365,-0.70973 -1.18638,0.0946 -1.28525,0.23658 -1.28525,1.5614 0,0.85167 0.26364,1.75066 0.6591,2.22381 0.36251,0.42584 0.6591,1.13556 0.6591,1.51408 0,0.47315 0.46137,0.80436 1.35115,1.04093 0.72501,0.18927 1.41706,0.6151 1.51593,0.94631 0.0989,0.3312 0.46137,0.66241 0.85683,0.66241 0.39545,0 0.85682,0.37852 1.08751,0.80435 0.32955,0.66242 0.49432,0.70973 0.92274,0.18927 0.56023,-0.66242 1.41706,-0.23658 2.17502,1.08824 0.59319,0.9463 1.08751,0.89899 1.71366,-0.23657 l 0,0 z"
     id="path3608"
     inkscape:connector-curvature="0" /><path
     style="fill:#7c4116"
     d="m 119.88607,81.501179 c 0.0659,-0.47315 0.26364,-0.85167 0.42841,-0.85167 0.16478,0 0.36251,0.37852 0.42842,0.85167 0.0659,0.52047 -0.0989,0.85167 -0.42842,0.85167 -0.32955,-0.0473 -0.49432,-0.3312 -0.42841,-0.85167 z"
     id="path3606"
     inkscape:connector-curvature="0" /><path
     style="fill:#7c4116"
     d="m 124.79635,79.466629 c 0,-0.23657 0.16477,-0.47315 0.3625,-0.47315 0.19773,0 0.26364,0.18926 0.13182,0.47315 -0.0989,0.28389 -0.26364,0.47315 -0.3625,0.47315 -0.0659,0 -0.13182,-0.18926 -0.13182,-0.47315 z"
     id="path3604"
     inkscape:connector-curvature="0" /><path
     style="fill:#7c4116"
     d="m 53.152363,85.759539 c 0.13182,-0.70973 0.52728,-0.80436 2.93299,-0.75704 1.74661,0.0473 2.96594,0.28389 3.29549,0.66241 0.42841,0.52047 0.6591,0.47315 1.48297,-0.42584 0.52728,-0.56778 1.08751,-1.04093 1.21933,-1.04093 0.36251,0 2.07616,-2.31844 2.07616,-2.8389 0,-0.23658 0.32955,-0.47315 0.72501,-0.56778 0.88978,-0.18927 2.27389,-3.7379 2.01025,-5.15735 -0.16477,-0.85167 -0.0659,-0.9463 0.46137,-0.70973 1.35115,0.6151 2.01025,-5.91438 0.75796,-7.5231 -0.3625,-0.47315 -0.6591,-1.18287 -0.6591,-1.60871 0,-1.32482 -4.05345,-8.04357 -4.383,-7.28653 -0.16477,0.42584 -0.29659,2.31844 -0.26364,3.7379 0.033,0.61509 0.32955,1.13556 0.75796,1.2775 0.59319,0.23658 0.6591,0.37853 0.2966,0.99362 -0.23069,0.37852 -0.32955,0.89899 -0.23069,1.13556 0.0989,0.23658 -0.0329,0.70973 -0.32954,1.04094 -0.26364,0.3312 -0.39546,0.70972 -0.23069,0.89898 0.62614,0.66241 1.12047,3.78521 0.75796,4.77883 -0.46137,1.23019 -1.12046,1.27751 -0.82387,0.0473 0.0989,-0.52046 0.033,-1.04093 -0.13182,-1.23019 -0.19773,-0.18926 -0.32955,0.18926 -0.32955,0.89899 0,0.85167 -0.16477,1.23019 -0.59319,1.23019 -0.32955,0 -0.88978,0.33121 -1.25228,0.70973 -0.36251,0.37852 -0.88979,0.70972 -1.21934,0.70972 -0.32954,0 -0.65909,0.37852 -0.75796,0.85167 -0.0989,0.47316 -0.42841,1.65603 -0.72501,2.64965 -0.52728,1.79797 -0.56023,1.79797 -1.87843,1.5614 -1.77956,-0.33121 -2.63639,0 -3.0648,1.32482 -0.26364,0.85167 -0.23069,1.23019 0.16477,1.79797 0.3625,0.52047 0.39546,0.80436 0.13182,1.04094 -0.23068,0.18926 -0.46137,-0.0473 -0.56023,-0.66241 -0.13182,-0.75705 -0.36251,-0.94631 -0.82388,-0.70973 -0.46137,0.23657 -0.69205,0.0473 -0.82387,-0.70973 -0.19773,-1.13556 -1.41706,-1.37214 -1.41706,-0.28389 0,0.42584 -0.19773,0.56778 -0.49432,0.42584 -0.36251,-0.18926 -0.49433,0.0473 -0.49433,0.9463 0,1.23019 0.42842,1.65603 0.82387,0.75704 0.36251,-0.85167 1.15343,-0.47315 1.48298,0.66241 0.26364,1.04093 1.21933,2.1765 1.84547,2.1765 0,0 0.19773,-0.37852 0.26364,-0.80436 l 0,0 z"
     id="path3602"
     inkscape:connector-curvature="0" /><path
     style="fill:#7c4116"
     d="m 47.352303,79.513949 c 0,-0.47315 -0.23069,-1.13556 -0.49433,-1.46677 -0.26364,-0.33121 -0.49432,-0.89899 -0.49432,-1.23019 0,-0.37852 -0.23069,-0.66241 -0.49433,-0.66241 -0.725,0 -0.59318,1.79797 0.16478,2.46038 0.3625,0.33121 0.6591,0.85167 0.6591,1.18288 0,0.3312 0.16477,0.61509 0.32955,0.61509 0.16477,0 0.32955,-0.37852 0.32955,-0.89898 z"
     id="path3600"
     inkscape:connector-curvature="0" /><path
     style="fill:#7c4116"
     d="m 129.83845,73.031779 c 0.13182,-0.52047 0.033,-0.70973 -0.3625,-0.6151 -0.2966,0.0946 -0.62614,0.42584 -0.69205,0.75704 -0.16478,0.89899 0.82387,0.75705 1.05455,-0.14194 z"
     id="path3598"
     inkscape:connector-curvature="0" /><path
     style="fill:#7c4116"
     d="m 178.414,65.745249 c 0.95569,-0.75704 1.9773,-1.41945 2.27389,-1.41945 0.72501,0 3.72391,-4.54225 3.72391,-5.6305 0,-0.42583 0.16477,-1.04093 0.3625,-1.2775 0.19773,-0.28389 0.42841,-2.83891 0.52728,-5.72513 0.19773,-5.20466 0.19773,-5.25198 -0.85683,-8.28014 -0.59319,-1.65603 -1.54888,-3.73789 -2.17502,-4.58957 l -1.12047,-1.56139 -1.35115,0.89898 c -0.72501,0.47315 -1.41706,1.27751 -1.54888,1.75066 -0.16478,0.75704 0.39545,2.79159 1.58183,5.53587 0.36251,0.85167 0.36251,1.08824 -0.13182,1.46677 -0.79092,0.66241 -0.75796,2.79159 0.033,2.79159 0.46137,0 0.6591,0.42583 0.79091,1.56139 0.16478,1.70335 0,2.83891 -0.42841,2.46039 -0.16477,-0.14195 -0.88978,-0.0946 -1.61479,0.0473 -1.0216,0.23658 -1.35115,0.52047 -1.35115,1.18288 0,0.47315 -0.19773,0.89899 -0.46137,0.89899 -0.26364,0 -1.05456,0.75704 -1.74661,1.65603 -0.69205,0.89898 -1.51593,1.65603 -1.81252,1.65603 -0.32955,0 -0.59319,0.42583 -0.6591,1.08824 -0.0659,0.75704 -0.3625,1.08825 -1.0216,1.2302 -0.49433,0.0946 -0.92274,-0.0946 -0.92274,-0.33121 0,-0.23658 -0.29659,-0.52047 -0.62614,-0.52047 -0.36251,0 -0.72501,-0.23657 -0.85683,-0.52046 -0.13182,-0.28389 -0.56023,-0.37852 -0.95569,-0.23658 -0.46137,0.14195 -0.92274,0 -1.15343,-0.42583 -0.23068,-0.37852 -0.79091,-0.70973 -1.21933,-0.70973 h -0.82387 l 0.72501,1.70334 c 0.39546,0.94631 0.62614,2.03455 0.52728,2.36576 -0.0989,0.37852 0.26364,0.9463 0.88978,1.41945 0.59319,0.42584 1.28524,1.04093 1.54888,1.37214 0.46137,0.52047 5.40461,1.65603 7.28304,1.65603 0.49432,-0.0946 1.61479,-0.70973 2.57048,-1.51409 l 0,0 z"
     id="path3596"
     inkscape:connector-curvature="0" /><path
     style="fill:#7c4116"
     d="m 181.74245,56.613439 c 0.26364,-0.37852 0.3625,-0.33121 0.3625,0.18926 0,0.9463 -0.42841,1.5614 -0.59319,0.85167 -0.0659,-0.23657 0.033,-0.75704 0.23069,-1.04093 l 0,0 z"
     id="path3594"
     inkscape:connector-curvature="0" /><path
     style="fill:#7c4116"
     d="m 177.82081,56.471499 c -0.3625,-0.6151 -0.3625,-0.80436 0.033,-1.18288 0.75796,-0.70973 1.28524,-0.52047 1.28524,0.42583 0.0329,1.60872 -0.62615,1.98724 -1.3182,0.75705 z"
     id="path3592"
     inkscape:connector-curvature="0" /><path
     style="fill:#7c4116"
     d="m 180.72084,48.617189 c 0.49433,-0.70973 0.88979,-0.18926 0.59319,0.85167 -0.16477,0.6151 -0.29659,0.66241 -0.59319,0.23658 -0.29659,-0.37852 -0.29659,-0.66241 0,-1.08825 l 0,0 z"
     id="path3590"
     inkscape:connector-curvature="0" /><path
     style="fill:#7c4116"
     d="m 11.431443,46.156799 c 0,-0.52046 -0.62615,-0.70972 -0.82388,-0.28389 -0.0989,0.28389 0.033,0.47315 0.2966,0.47315 0.29659,0 0.52728,-0.0946 0.52728,-0.18926 z"
     id="path3588"
     inkscape:connector-curvature="0" /><path
     style="fill:#7c4116"
     d="m 74.375333,45.447079 c 0.46137,-0.18926 1.61479,-0.37852 2.53753,-0.42584 1.18637,-0.0473 2.20798,-0.47315 3.42731,-1.41945 1.48297,-1.13556 2.01025,-1.93992 3.32844,-5.06272 0.85683,-2.03455 1.58184,-4.16372 1.58184,-4.68419 0,-0.52047 0.29659,-1.60871 0.6591,-2.41307 0.3625,-0.75704 0.6591,-1.65603 0.6591,-1.98724 0,-1.08824 -1.41706,-2.5077 -2.53753,-2.5077 -0.6591,0 -1.18638,-0.28389 -1.28524,-0.70972 -0.39546,-1.46677 -1.45002,-0.75704 -2.14207,1.41945 -0.46137,1.51408 -0.85683,2.12918 -1.35116,2.12918 -0.49432,0 -0.62614,0.23658 -0.49432,0.75704 0.0989,0.42584 0.19773,0.85167 0.19773,0.9463 0,0.0946 0.23069,0.0473 0.52728,-0.0946 0.3625,-0.18926 0.49432,-0.0946 0.39546,0.37852 -0.0989,0.37853 -0.2966,0.6151 -0.46137,0.56779 -0.46137,-0.14195 -1.12047,1.8926 -0.92274,2.8389 0.13182,0.56778 -0.033,0.9463 -0.46137,1.08825 -0.42841,0.14194 -0.79092,0.99362 -1.08751,2.60233 -0.42841,2.27112 -0.49432,2.36575 -1.45002,2.17649 -0.56023,-0.0946 -1.28524,0.0473 -1.61479,0.33121 -0.49432,0.42584 -0.725,0.28389 -1.35115,-0.75704 -0.82387,-1.46677 -1.18638,-1.65603 -1.18638,-0.6151 0,0.37852 -0.29659,0.89899 -0.65909,1.18288 -0.98865,0.75704 -0.79092,2.08186 0.46137,3.50132 1.21933,1.23019 1.77956,1.37213 3.22958,0.75704 z"
     id="path3586"
     inkscape:connector-curvature="0" /><path
     style="fill:#7c4116"
     d="m 71.079843,42.608169 c 0,-0.23657 0.16477,-0.56778 0.32954,-0.75704 0.16478,-0.18926 0.32955,0.0473 0.32955,0.42584 0,0.42583 -0.16477,0.75704 -0.32955,0.75704 -0.16477,0 -0.32954,-0.18926 -0.32954,-0.42584 z"
     id="path3584"
     inkscape:connector-curvature="0" /><path
     style="fill:#7c4116"
     d="m 21.383823,43.459839 c 0.32955,-0.28389 0.59319,-0.80435 0.59319,-1.18287 0,-0.47315 0.39546,-0.70973 1.35115,-0.70973 1.81252,0 3.75686,-2.17649 4.25119,-4.73151 0.42841,-2.27112 0.13181,-6.43485 -0.69206,-10.22006 -0.75796,-3.454 -2.9989,-7.38116 -4.25118,-7.47579 -0.62615,-0.0473 -0.79092,-0.28389 -0.72501,-1.08824 0.0659,-0.66241 -0.16478,-1.2302 -0.62614,-1.60872 -0.62615,-0.47315 -0.82388,-0.42583 -1.3182,0.56778 -0.32955,0.6151 -0.59319,1.37214 -0.59319,1.70335 0,0.3312 -0.23068,0.61509 -0.49432,0.61509 -0.26364,0 -0.49433,0.18926 -0.49433,0.42584 0,0.56778 0.9557,1.08825 1.35115,0.75704 0.16478,-0.14194 0.2966,0.6151 0.2966,1.65603 0,1.5614 0.0989,1.93992 0.62614,1.93992 0.36251,0 0.69206,0.42583 0.82388,1.08825 0.3625,2.03455 0.26363,2.36575 -0.6591,2.03455 -0.82388,-0.2839 -0.85683,-0.23658 -0.62615,1.23019 0.13182,0.85167 0.36251,1.79797 0.49433,2.03455 0.69205,1.23019 -1.25229,5.39392 -2.50458,5.39392 -0.59318,0 -0.62614,1.60871 -0.0329,3.21742 0.26364,0.70973 0.69205,2.03455 0.98865,3.02817 0.52727,1.8926 1.15342,2.27113 2.24093,1.32482 l 0,0 z"
     id="path3582"
     inkscape:connector-curvature="0" /><path
     style="fill:#7c4116"
     d="m 128.25662,41.141399 c 0.13182,-0.28389 0.69205,-0.37852 1.31819,-0.18926 0.62615,0.18926 1.41706,0.0473 1.81252,-0.23657 0.39546,-0.28389 1.61479,-0.6151 2.66935,-0.70973 1.64775,-0.14194 2.04321,-0.3312 2.6364,-1.37214 0.39545,-0.75704 1.0216,-1.23019 1.48297,-1.23019 0.82387,0 3.09776,-2.22381 3.09776,-3.02816 0,-0.23658 0.29659,-1.32483 0.62614,-2.36576 0.98865,-2.98085 1.64775,-6.05633 1.64775,-7.66505 0,-2.27112 -0.95569,-7.28652 -1.81252,-9.4157 -0.79092,-1.98723 -3.19663,-5.3939195 -3.78982,-5.3939195 -0.42841,0 -0.42841,4.1164095 0,4.4949295 0.16478,0.14195 0.32955,0.70973 0.32955,1.2302 0,0.52046 0.23069,1.41945 0.52728,2.08186 0.32955,0.70973 0.49432,1.93992 0.42841,3.40669 -0.0989,2.08186 -0.16477,2.27112 -0.85682,2.12918 -0.62615,-0.14195 -0.75797,0.0473 -0.75797,1.32482 0,0.9463 -0.16477,1.46677 -0.46137,1.46677 -0.26364,0 -0.56023,0.37852 -0.65909,0.85167 -0.0989,0.47315 -0.75797,1.37214 -1.41707,1.98723 -0.69205,0.66241 -1.84547,1.84529 -2.57048,2.69696 -1.15342,1.32483 -1.48297,1.46677 -2.3398,1.13557 -0.6591,-0.28389 -1.12047,-0.23658 -1.3841,0.0946 -0.49433,0.70972 -3.78982,0.66241 -4.38301,0 -0.46137,-0.56779 -2.53753,-0.52047 -3.19663,0.0473 -0.19773,0.18926 -0.3625,0.85167 -0.3625,1.46677 0,1.23019 2.14207,4.21104 3.78982,5.25197 0.56023,0.33121 1.28524,1.04094 1.61479,1.60872 0.65909,0.89899 1.64774,1.13556 2.01025,0.3312 l 0,0 z"
     id="path3580"
     inkscape:connector-curvature="0" /><path
     style="fill:#7c4116"
     d="m 82.943613,18.997939 c 0,-0.23658 -0.23069,-0.56778 -0.52728,-0.75704 -0.32955,-0.18926 -0.46137,-0.0946 -0.39546,0.28389 0.16477,0.70972 0.92274,1.08824 0.92274,0.47315 z"
     id="path3578"
     inkscape:connector-curvature="0" /><path
     style="fill:#7c4116"
     d="m 20.329263,15.401989 c 0,-0.0946 -0.16477,-0.3312 -0.32955,-0.52046 -0.16477,-0.14195 -0.32955,-0.0473 -0.32955,0.18926 0,0.23657 0.16478,0.52046 0.32955,0.52046 0.16478,0 0.32955,-0.0946 0.32955,-0.18926 z"
     id="path3000"
     inkscape:connector-curvature="0" /><path
     style="fill:#6a3310"
     d="m 58.688793,83.677599 c 0.39546,-1.37214 3.7239,-4.0691 4.35005,-3.50132 0.62614,0.56778 1.31819,-0.70973 1.87843,-3.50132 0.29659,-1.46677 0.725,-2.88622 0.95569,-3.17011 0.59319,-0.66241 0.98865,-4.73151 0.52728,-5.15735 -0.19773,-0.18926 -0.36251,-0.80435 -0.36251,-1.41945 0,-0.61509 -0.23068,-1.37214 -0.49432,-1.70334 -0.59319,-0.70973 -1.28524,-0.0473 -1.9773,1.8926 -0.39545,1.13556 -0.3625,1.46677 0.36251,3.31206 0.79092,1.98723 0.79092,2.12918 0.23068,2.69696 -0.32955,0.33121 -1.15342,0.75704 -1.81252,0.89899 -0.92274,0.18926 -1.25228,0.52046 -1.31819,1.2775 -0.0659,0.70973 -0.36251,1.04094 -0.98865,1.13557 -1.0216,0.18926 -3.06481,2.64964 -2.76821,3.35937 0.0989,0.23657 -0.0989,0.56778 -0.46137,0.75704 -0.72501,0.33121 -0.85683,0.9463 -0.2966,1.41945 0.19773,0.18926 0.26364,0.6151 0.16478,0.99362 -0.13182,0.47315 0.0659,0.66241 0.59319,0.66241 0.42841,0 0.85682,0.28389 0.92273,0.6151 0.0659,0.42583 0.2966,0.14194 0.49433,-0.56778 l 0,0 z"
     id="path3029"
     inkscape:connector-curvature="0" /><path
     style="fill:#6a3310"
     d="m 62.214963,78.047099 c -0.26364,-0.6151 0.13182,-2.36576 0.52728,-2.36576 0.16478,0 0.2966,0.66242 0.2966,1.41946 0,1.41945 -0.42842,1.8926 -0.82388,0.9463 z"
     id="path3027"
     inkscape:connector-curvature="0" /><path
     style="fill:#6a3310"
     d="m 128.61912,83.819539 c 0,-0.23657 -0.3625,-0.66241 -0.82387,-1.04093 -0.46137,-0.33121 -0.82388,-0.9463 -0.82388,-1.27751 0,-0.89899 -0.88978,-1.32482 -1.45001,-0.66241 -0.75796,0.89899 -0.26364,2.41307 0.82387,2.41307 0.52728,0 1.0216,0.18926 1.12047,0.47315 0.23068,0.56778 1.15342,0.66241 1.15342,0.0946 z"
     id="path3025"
     inkscape:connector-curvature="0" /><path
     style="fill:#6a3310"
     d="m 121.53381,83.251759 c 0.39546,-0.89899 -0.16477,-1.13556 -0.75796,-0.28389 -0.52728,0.75704 -0.52728,0.80436 0,0.80436 0.29659,-0.0473 0.62614,-0.28389 0.75796,-0.52047 l 0,0 z"
     id="path3023"
     inkscape:connector-curvature="0" /><path
     style="fill:#6a3310"
     d="m 122.62133,82.447399 c 0.0329,-0.28389 0.13182,-0.9463 0.26364,-1.41945 0.16477,-0.66241 0.13181,-0.75704 -0.19773,-0.3312 -0.23069,0.28389 -0.32955,0.9463 -0.26364,1.41945 0.0659,0.47315 0.19773,0.66241 0.19773,0.3312 z"
     id="path3021"
     inkscape:connector-curvature="0" /><path
     style="fill:#6a3310"
     d="m 54.931933,82.447399 c 0.46137,-0.66241 0.13182,-1.56139 -0.62615,-1.56139 -0.56023,0 -0.75796,0.18926 -0.62614,0.66241 0.19773,0.80435 0.95569,1.32482 1.25229,0.89898 l 0,0 z"
     id="path3019"
     inkscape:connector-curvature="0" /><path
     style="fill:#6a3310"
     d="m 129.11344,81.832309 c 0.0989,-0.28389 0.0989,-0.9463 -0.0329,-1.51409 -0.23068,-1.04093 -0.23068,-1.04093 -0.6591,0.14195 -0.23068,0.6151 -0.46137,1.32482 -0.46137,1.51408 -0.033,0.52047 0.88979,0.42584 1.15342,-0.14194 l 0,0 z"
     id="path3017"
     inkscape:connector-curvature="0" /><path
     style="fill:#6a3310"
     d="m 130.92596,81.359159 c 0,-0.28389 -0.13181,-0.47315 -0.29659,-0.47315 -0.16477,0 -0.39546,0.18926 -0.52728,0.47315 -0.13182,0.28389 0.033,0.47315 0.2966,0.47315 0.29659,0 0.52727,-0.18926 0.52727,-0.47315 z"
     id="path3015"
     inkscape:connector-curvature="0" /><path
     style="fill:#6a3310"
     d="m 132.70553,79.371919 c 1.58184,-3.73789 1.54888,-3.50131 0.72501,-4.82614 l -0.79092,-1.18288 -0.52728,1.75066 c -0.29659,0.99362 -0.62614,2.69696 -0.72501,3.78521 -0.26364,2.5077 0.36251,2.69696 1.3182,0.47315 z"
     id="path3013"
     inkscape:connector-curvature="0" /><path
     style="fill:#6a3310"
     d="m 116.7224,78.330989 c 0,-0.52047 -0.0659,-0.75704 -0.16478,-0.6151 -0.0989,0.14195 -0.13182,0.56779 -0.033,0.89899 0.0989,0.37852 0.16477,0.28389 0.19773,-0.28389 z"
     id="path3011"
     inkscape:connector-curvature="0" /><path
     style="fill:#6a3310"
     d="m 175.87647,65.981749 c 0.52728,-0.42584 1.15342,-1.18288 1.41706,-1.70334 0.2966,-0.56778 0.82388,-0.94631 1.45002,-0.94631 1.38411,0 2.14207,-0.70972 2.53753,-2.36575 0.19773,-0.80436 0.52728,-1.41945 0.79092,-1.41945 0.49432,0 1.58183,-2.55502 1.58183,-3.7379 0,-0.42583 -0.16477,-1.04093 -0.39546,-1.37213 -0.29659,-0.42584 -0.29659,-0.70973 0,-1.18288 0.19773,-0.33121 0.39546,-1.04093 0.39546,-1.5614 0,-0.52047 0.0989,-1.98723 0.16478,-3.26474 0.0989,-1.89261 -0.0659,-2.93354 -0.85683,-5.20466 -0.52728,-1.5614 -1.41706,-3.35937 -1.94434,-3.97447 l -0.95569,-1.08825 -0.98865,0.99362 c -1.15342,1.18288 -1.21933,1.65603 -0.32955,2.36575 0.46137,0.37853 0.62614,0.80436 0.46137,1.41946 -0.13182,0.66241 -0.033,0.89898 0.32955,0.89898 0.52728,0 1.21933,1.84529 0.92274,2.5077 -0.0989,0.23658 0.16477,0.89899 0.56023,1.51409 0.69205,1.04093 0.69205,1.18288 0.19773,2.17649 -0.72501,1.51409 -0.69206,2.74428 0.0659,2.46039 0.32955,-0.14195 0.75796,0.0946 0.98865,0.42583 0.59318,1.04094 -1.15343,5.72513 -2.20798,5.96171 -0.69206,0.14194 -0.75797,0 -0.59319,-1.04094 0.0989,-0.66241 0.29659,-1.51408 0.39546,-1.93992 0.13182,-0.52046 0,-0.75704 -0.49433,-0.75704 -0.52728,0 -0.69205,0.28389 -0.69205,1.13556 0,1.04094 -0.19773,1.2302 -1.9773,1.70335 -1.08751,0.3312 -2.07616,0.75704 -2.17502,0.99362 -0.0989,0.23657 -0.46137,0.42583 -0.82387,0.42583 -0.46137,0 -0.62615,0.33121 -0.62615,1.13556 0,0.6151 -0.19773,1.32483 -0.42841,1.60872 -0.56023,0.66241 -2.07616,1.13556 -2.3398,0.75704 -0.3625,-0.52047 -2.63639,-1.51408 -2.90003,-1.27751 -0.56024,0.47315 -0.26364,2.12918 0.46137,2.5077 4.25118,2.36576 6.65689,2.88622 8.00804,1.84529 l 0,0 z"
     id="path3009"
     inkscape:connector-curvature="0" /><path
     style="fill:#6a3310"
     d="m 175.74465,62.669689 c 0,-0.37852 0.16478,-0.70972 0.32955,-0.70972 0.16478,0 0.32955,0.3312 0.32955,0.70972 0,0.37852 -0.16477,0.70973 -0.32955,0.70973 -0.16477,0 -0.32955,-0.33121 -0.32955,-0.70973 z"
     id="path3007"
     inkscape:connector-curvature="0" /><path
     style="fill:#6a3310"
     d="m 75.726483,44.500739 c 2.43866,-0.37852 4.74551,-2.22381 5.40461,-4.30568 0.39545,-1.32482 0.39545,-1.51408 -0.16478,-2.12918 -0.3625,-0.37852 -0.42841,-0.66241 -0.19773,-0.66241 0.23069,0 0.62614,-0.75704 0.88978,-1.65603 0.36251,-1.23019 0.62615,-1.5614 1.12047,-1.37213 0.36251,0.14194 0.72501,0.0473 0.82387,-0.18927 0.32955,-0.70972 0.52728,-5.77244 0.23069,-6.00901 -0.36251,-0.33121 -2.60344,0.61509 -2.86708,1.23019 -0.13182,0.28389 -0.0329,0.75704 0.16478,1.04093 0.62614,0.89899 0.39545,1.75066 -0.46137,1.75066 -0.59319,0 -0.75797,0.18926 -0.62615,0.70973 0.0989,0.37852 0.0659,0.70972 -0.0989,0.61509 -0.16478,-0.0473 -0.56024,0.0473 -0.85683,0.28389 -0.42841,0.28389 -0.52728,0.70973 -0.3625,1.60872 0.0989,0.70972 0.32955,1.41945 0.46137,1.65603 0.39545,0.61509 -0.6591,2.64964 -1.41707,2.64964 -0.42841,0 -0.79091,0.52047 -1.0216,1.41945 -0.3625,1.32483 -0.46137,1.41946 -1.61479,1.13557 -0.88978,-0.23658 -1.38411,-0.0946 -1.74661,0.47315 -0.29659,0.42583 -0.6591,0.61509 -0.82387,0.47315 -0.49433,-0.42584 -1.61479,0.28389 -1.61479,0.99362 0,0.75704 1.05455,0.80435 4.77846,0.28389 l 0,0 z"
     id="path3005"
     inkscape:connector-curvature="0" /><path
     style="fill:#6a3310"
     d="m 19.340623,39.911169 c 0.13182,-0.47315 0.39545,-0.66241 0.725,-0.47315 0.32955,0.18926 0.72501,-0.0946 1.02161,-0.70973 0.46137,-0.9463 0.52728,-0.99361 0.92273,-0.18926 0.26364,0.56778 0.62615,0.70973 1.02161,0.52047 0.56023,-0.33121 0.56023,-0.33121 0,-0.9463 -0.52728,-0.56778 -0.56024,-0.85167 -0.19773,-2.79159 0.19773,-1.18288 0.52728,-2.31844 0.69205,-2.46039 0.49432,-0.42583 1.25229,0.75704 1.25229,1.93992 0,0.56778 0.19773,1.32482 0.46137,1.60871 0.75796,0.89899 1.21933,-0.9463 0.98864,-3.87983 -0.32955,-4.11642 -0.46137,-4.63688 -1.15342,-4.63688 -0.85683,0 -1.18638,-1.27751 -0.6591,-2.5077 0.36251,-0.80436 0.2966,-1.13557 -0.46137,-2.1765 -0.79091,-1.13556 -0.88978,-1.18288 -1.18637,-0.42583 -0.16478,0.47315 -0.72501,0.85167 -1.18638,0.85167 -0.79092,0 -0.82387,0.0946 -0.59319,1.5614 0.39546,2.36575 0.26364,3.7852 -0.32955,4.25835 -0.49432,0.37853 -0.49432,0.52047 -0.0329,1.2302 0.29659,0.42583 0.49432,1.41945 0.46137,2.22381 -0.033,0.75704 0.0659,1.75066 0.19773,2.17649 0.23068,0.70973 0.0989,0.75704 -0.92274,0.52047 -1.15342,-0.28389 -1.18638,-0.23658 -1.18638,1.18288 0,0.80435 -0.16477,1.46676 -0.32955,1.46676 -0.16477,0 -0.32955,-0.18926 -0.32955,-0.47315 0,-0.28389 -0.16477,-0.47315 -0.32955,-0.47315 -0.46137,0 -0.42841,2.03455 0.0659,2.74428 0.56024,0.80435 0.82388,0.75704 1.08752,-0.14195 l 0,0 z"
     id="path3003"
     inkscape:connector-curvature="0" /><path
     style="fill:#6a3310"
     d="m 129.57481,39.769229 c 0.2966,-0.23658 0.36251,-0.89899 0.23069,-1.98724 -0.16478,-1.27751 -0.13182,-1.41945 0.13182,-0.75704 0.19773,0.47315 0.72501,0.85167 1.15342,0.85167 0.42841,0 0.88978,0.18926 0.98865,0.47315 0.3625,0.85167 2.40571,0.52047 3.0648,-0.47315 0.32955,-0.52046 1.15343,-1.23019 1.81252,-1.5614 0.6591,-0.3312 1.54889,-1.32482 2.04321,-2.27112 2.14207,-4.21104 3.62504,-10.59858 2.90003,-12.34924 -0.19773,-0.47315 -0.39546,-1.41945 -0.39546,-2.03455 0,-0.6151 -0.23068,-1.41945 -0.49432,-1.70334 -0.26364,-0.33121 -0.49432,-0.94631 -0.49432,-1.41946 0,-0.42583 -0.2966,-1.32482 -0.6591,-1.93992 -1.45002,-2.55501 -1.38411,-2.46038 -1.6807,-1.79797 -0.42842,0.9463 -0.36251,1.27751 0.32955,1.5614 0.3625,0.14194 0.725,0.89899 0.85682,1.70334 0.13182,0.75704 0.39546,1.41946 0.62615,1.41946 0.26364,0 0.39546,0.80435 0.39546,2.27112 0,2.03455 -0.0989,2.22381 -0.75797,2.12918 -0.56023,-0.0946 -0.79092,0.18926 -0.95569,1.08825 -0.13182,0.66241 -0.75796,2.36575 -1.41706,3.83252 -0.88978,1.93992 -1.18638,2.93354 -1.08751,3.97447 0.0659,0.80435 0,1.41945 -0.23069,1.41945 -0.19773,0.0473 -0.49432,0.0946 -0.6591,0.14195 -0.16477,0.0473 -0.85682,0.75704 -1.51592,1.60871 -0.6591,0.85167 -1.3182,1.41945 -1.41706,1.27751 -0.0989,-0.14195 0,-0.52047 0.19773,-0.80436 0.23068,-0.33121 0.39545,-0.85167 0.39545,-1.18288 0,-0.85167 -0.95569,-0.75704 -1.21933,0.14195 -0.13182,0.52046 -0.52728,0.70972 -1.21933,0.61509 -0.88978,-0.14194 -1.05456,0.0473 -1.15342,1.04094 -0.0659,0.66241 -0.39546,1.70334 -0.75796,2.31844 -0.36251,0.61509 -0.62615,1.32482 -0.62615,1.51408 0,0.6151 1.15342,1.27751 1.61479,0.89899 l 0,0 z"
     id="path3001"
     inkscape:connector-curvature="0" /><path
     style="fill:#6a3310"
     d="m 124.33498,37.166899 c 0,-0.70973 -0.3625,-1.5614 -0.92274,-2.1765 l -0.92273,-1.04093 -0.0989,1.27751 c -0.0989,1.32482 0.72501,3.07548 1.48297,3.07548 0.26364,0 0.46137,-0.47315 0.46137,-1.13556 l 0,0 z"
     id="path2999"
     inkscape:connector-curvature="0" /><path
     style="fill:#6a3310"
     d="m 125.65318,35.936699 c 0,-0.28389 -0.16478,-0.47315 -0.32955,-0.47315 -0.16478,0 -0.32955,0.18926 -0.32955,0.47315 0,0.28389 0.16477,0.47315 0.32955,0.47315 0.16477,0 0.32955,-0.18926 0.32955,-0.47315 z"
     id="path2996"
     inkscape:connector-curvature="0" /><path
     style="fill:#6a3310"
     d="m 19.867893,19.187159 c 0,-0.0946 -0.16477,-0.33121 -0.32954,-0.52047 -0.16478,-0.14194 -0.32955,-0.0473 -0.32955,0.18926 0,0.23658 0.16477,0.52047 0.32955,0.52047 0.16477,0 0.32954,-0.0946 0.32954,-0.18926 z"
     id="path2998"
     inkscape:connector-curvature="0" /></svg>