<?xml version="1.0" encoding="UTF-8" standalone="no"?>
<svg
   xmlns:dc="http://purl.org/dc/elements/1.1/"
   xmlns:cc="http://creativecommons.org/ns#"
   xmlns:rdf="http://www.w3.org/1999/02/22-rdf-syntax-ns#"
   xmlns:svg="http://www.w3.org/2000/svg"
   xmlns="http://www.w3.org/2000/svg"
   xmlns:sodipodi="http://sodipodi.sourceforge.net/DTD/sodipodi-0.dtd"
   xmlns:inkscape="http://www.inkscape.org/namespaces/inkscape"
   version="1.1"
   id="svg2"
   x="0px"
   y="0px"
   viewBox="0 0 192.96455 89.55819"
   xml:space="preserve"
   inkscape:version="0.48.5 r10040"
   width="100%"
   height="100%"
   sodipodi:docname="Bristol_stool_chart_Type_4.svg"><metadata
     id="metadata3183"><rdf:RDF><cc:Work
         rdf:about=""><dc:format>image/svg+xml</dc:format><dc:type
           rdf:resource="http://purl.org/dc/dcmitype/StillImage" /><dc:title></dc:title></cc:Work></rdf:RDF></metadata><defs
     id="defs3181" /><sodipodi:namedview
     pagecolor="#ffffff"
     bordercolor="#666666"
     borderopacity="1"
     objecttolerance="10"
     gridtolerance="10"
     guidetolerance="10"
     inkscape:pageopacity="0"
     inkscape:pageshadow="2"
     inkscape:window-width="1440"
     inkscape:window-height="852"
     id="namedview3179"
     showgrid="false"
     inkscape:zoom="0.79501432"
     inkscape:cx="224.34216"
     inkscape:cy="186.05526"
     inkscape:window-x="0"
     inkscape:window-y="0"
     inkscape:window-maximized="1"
     inkscape:current-layer="svg2"
     fit-margin-top="0"
     fit-margin-left="0"
     fit-margin-right="0"
     fit-margin-bottom="0" /><style
     type="text/css"
     id="style3105">
	.st0{fill:#fff;}
	.st1{fill:#D9B194;}
	.st2{fill:#D0A27B;}
	.st3{fill:#CB966B;}
	.st4{fill:#C48855;}
	.st5{fill:#BD824F;}
	.st6{fill:#BA7B44;}
	.st7{fill:#AF6B30;}
	.st8{fill:#965624;}
	.st9{fill:#8E4D19;}
	.st10{fill:#7C4116;}
	.st11{fill:#6A3310;}
	.st12{fill:#800000;stroke:#800000;stroke-width:1.2764;}
	.st13{fill:#800000;stroke:#800000;stroke-width:1.2765;}
	.st14{fill:#800000;stroke:#800000;stroke-width:1.2745;}
	.st15{fill:#800000;stroke:#800000;stroke-width:1.2774;}
	.st16{fill:#800000;stroke:#800000;stroke-width:1.2759;}
	.st17{fill:#800000;stroke:#800000;stroke-width:1.2753;}
	.st18{fill:#800000;stroke:#800000;stroke-width:1.4659;}
	.st19{fill:#800000;}
	.st20{font-family:'Arial';}
	.st21{font-size:33px;}
	.st22{font-family:'Arial Bold';}
	.st23{font-size:66px;}
</style><path
     style="fill:#d9b194"
     d="m 154.55736,89.085021 c 0.0989,-0.23658 0.0329,-0.47315 -0.13182,-0.47315 -0.19773,0 -0.36251,0.23657 -0.36251,0.47315 0,0.23657 0.0659,0.47315 0.13182,0.47315 0.0989,0 0.26364,-0.23658 0.36251,-0.47315 z"
     id="path5956"
     inkscape:connector-curvature="0" /><path
     style="fill:#d9b194"
     d="m 143.55041,73.754921 c 0.0989,-0.14194 4.05346,-0.52046 8.76601,-0.75704 9.52397,-0.52046 15.88427,-1.70334 24.15596,-4.54225 6.39325,-2.17649 7.77736,-2.79159 11.00694,-4.92077 3.09776,-2.03455 4.94324,-4.4003 5.27278,-6.67142 0.62615,-4.58957 -0.13182,-8.09089 -2.27388,-10.6459 -2.96595,-3.50132 -10.41376,-6.00902 -20.89342,-7.09727 -1.18638,-0.14194 -3.69095,-0.42583 -5.60234,-0.70972 -1.91138,-0.28389 -6.0637,-0.70973 -9.22737,-0.9463 -3.16368,-0.23658 -7.54668,-0.66242 -9.72171,-0.94631 -2.17502,-0.28389 -7.44781,-0.70972 -11.69899,-0.9463 -7.05235,-0.42583 -12.16037,-1.13556 -16.64223,-2.36575 -0.92274,-0.23658 -3.49323,-0.66241 -5.76711,-0.94631 -6.85463,-0.80435 -7.94214,-0.99361 -11.369445,-1.8926 -1.81252,-0.47315 -4.48187,-1.13556 -5.93189,-1.46677 -1.45001,-0.3312 -4.18527,-1.32482 -6.09666,-2.17649 -1.91138,-0.89899 -5.4046,-2.36576 -7.81031,-3.26474 -2.40571,-0.89899 -5.56938,-2.27113 -7.08531,-3.07548 -1.51592,-0.80436 -6.3603,-3.1228 -10.80921,-5.15735 -4.44891,-2.03455 -10.21602,-4.92077 -12.85242,-6.4348501 -2.63639,-1.51409 -6.19552,-3.31206 -7.90918,-4.0691 -1.71365,-0.70973 -4.15232,-1.75066 -5.43756,-2.31844 -5.00915,-2.12918002 -13.11606,-3.02817002 -17.79565,-1.93992002 -1.08752,0.23658 -4.77847,0.66241002 -8.2387304,0.94630002 -3.46027,0.28389 -6.68985,0.6151 -7.18418,0.80436 -1.08751,0.3312 -1.61479005,1.8926 -1.12046,3.26474 0.42841,1.18288 6.3603,9.4157001 8.9307804,12.4438701 1.05456,1.23019 2.66935,3.1228 3.55913,4.25836 0.88978,1.08825 2.20798,2.46038 2.93299,2.98085 0.72501,0.52047 2.47162,2.12918 3.85572,3.54863 1.38411,1.41946 3.658,3.35937 5.00915,4.30568 1.35115,0.9463 3.39436,2.55501 4.48187,3.59594 3.42731,3.26475 7.05235,5.96171 14.00584,10.31469 9.85352,6.19828 16.04904,9.41571 23.85936,12.25461 2.93299,1.08825 6.85462,2.55502 8.76601,3.35938 6.59098,2.64964 23.958215,7.42847 32.460585,8.94255 6.95349,1.23019 15.0604,1.93992 24.22186,2.22381 5.47052,0.23658 10.08421,0.18926 10.18307,0.0473 l 0,0 z"
     id="path5954"
     inkscape:connector-curvature="0" /><path
     style="fill:#d0a27b"
     d="m 144.01178,75.127061 c 0.98865,-0.23657 4.94324,-0.56778 8.73306,-0.70972 8.4035,-0.37852 14.92857,-1.70335 23.56276,-4.82614 4.3171,-1.5614 7.05235,-2.83891 9.39215,-4.44762 3.39436,-2.31844 4.48187,-3.54864 5.07506,-5.81976 0.49432,-1.8926 0.42841,-5.81976 -0.13182,-7.33384 -0.69205,-1.84529 -2.80117,-4.68419 -4.15232,-5.48855 -3.29549,-1.98724 -11.13876,-4.02178 -18.09225,-4.77883 -1.35115,-0.14194 -3.95459,-0.47315 -5.76711,-0.75704 -1.81252,-0.28389 -6.19552,-0.70972 -9.7217,-0.9463 -3.52618,-0.23657 -7.97509,-0.66241 -9.88648,-0.9463 -1.91138,-0.28389 -7.31599,-0.70973 -12.02854,-0.99362 -4.71255,-0.28389 -9.82057,-0.80435 -11.36945,-1.18288 -1.54888,-0.37852 -6.29439,-1.23019 -10.54557,-1.8926 -4.25118,-0.66241 -8.63419,-1.37214 -9.721695,-1.65603 -6.75576,-1.5614 -11.699,-3.07548 -15.29108,-4.73151 -2.24094,-1.04093 -4.28414,-1.8926 -4.54778,-1.8926 -0.79092,0 -8.37055,-3.31206 -11.27058,-4.96809 -1.54888,-0.85167 -4.51483,-2.31844 -6.62394,-3.26474 -8.63419,-3.83252 -10.18307,-4.58956 -13.21492,-6.38754 -3.46027,-2.08186 -4.84437,-2.7442701 -11.33649,-5.6778101 -7.71145,-3.454 -13.70925,-4.4003 -20.7616,-3.21742 -2.37276,0.37852 -6.4262104,0.85167 -9.0626004,0.99361 -9.26033,0.56778 -9.3592,1.13556 -1.94434,10.7405301 6.5250704,8.42209 13.7751504,15.85056 19.0808904,19.49382 1.54888,1.04093 3.69095,2.79159 4.77847,3.83252 4.97619,4.82614 13.28083,10.45664 24.71618,16.74955 5.83302,3.21742 7.05236,3.73789 13.34675,6.00901 2.63639,0.94631 6.55802,2.41307 8.73305,3.26475 6.7228,2.69696 24.02413,7.38115 32.295815,8.75329 10.57853,1.98723 31.40603,3.07548 35.75608,2.08186 l 0,0 z"
     id="path5878"
     inkscape:connector-curvature="0" /><path
     style="fill:#cb966b"
     d="m 141.54016,75.079751 c 1.64775,-0.18926 4.9762,-0.47315 7.41486,-0.66241 8.79896,-0.56778 11.10581,-0.85168 15.65359,-1.75066 4.31709,-0.85167 13.80811,-3.87984 16.807,-5.34661 0.72501,-0.37852 2.3398,-1.32482 3.55913,-2.12918 4.81142,-3.17011 5.83302,-4.92077 5.83302,-9.93617 0,-2.8389 -0.033,-2.98085 -1.71365,-5.48855 -1.51593,-2.27112 -2.01025,-2.69696 -4.38301,-3.73789 -6.65689,-2.88622 -14.00583,-4.11642 -37.76633,-6.29291 -11.17172,-1.04093 -19.57522,-1.04093 -20.95933,0 -0.85683,0.6151 -1.48297,0.66241 -5.23983,0.0946 -4.41596,-0.66241 -7.84327,-1.5614 -9.55692,-2.60233 -0.56024,-0.33121 -1.41707,-0.66241 -1.91139,-0.75704 -0.49432,-0.0946 -1.6807,-0.47315 -2.63639,-0.85167 -0.9557,-0.37852 -2.66935,-0.80436 -3.85573,-0.99362 -1.18638,-0.14195 -3.789805,-0.70973 -5.767105,-1.18288 -2.01025,-0.47315 -4.48187,-1.04093 -5.53643,-1.18288 -1.05455,-0.14194 -2.73525,-0.70972 -3.75686,-1.23019 -1.0216,-0.52046 -2.33979,-0.89898 -2.93298,-0.89898 -0.59319,0 -1.18638,-0.23658 -1.28525,-0.47316 -0.13181,-0.3312 -0.3625,-0.3312 -0.65909,0.0473 -0.26364,0.33121 -0.75797,0.37852 -1.21934,0.18926 -0.42841,-0.18926 -0.82387,-0.33121 -0.92273,-0.28389 -0.0989,0.0473 -0.49433,-0.28389 -0.88979,-0.6151 -0.39545,-0.37852 -0.92273,-0.56778 -1.15342,-0.42583 -0.23068,0.14194 -1.0216,-0.18926 -1.74661,-0.70973 -0.72501,-0.52047 -1.51592,-0.9463 -1.77956,-0.9463 -0.26364,0 -1.15343,-0.42584 -1.9773,-0.99362 -0.82387,-0.56778 -1.94434,-1.27751 -2.50457,-1.60871 -0.56024,-0.33121 -1.64775,-1.04093 -2.47162,-1.5614 -2.14207,-1.37214 -7.77736,-4.11641 -11.36945,-5.53587 -1.71365,-0.66241 -4.54778,-2.08186 -6.32734,-3.12279 -4.84437,-2.88622 -15.35699,-7.9489401 -18.71839,-8.9898701 -5.07506,-1.60871 -9.52398,-1.8926 -15.65359,-1.08825 -16.97178045,2.22381 -15.48881045,1.89261 -15.48881045,3.50132 0,0.99362 0.92274005,2.46038 4.51482005,7.1445801 2.47162,3.26474 5.0421004,6.43485 5.7012004,7.09726 0.6591,0.66241 1.64775,1.65603 2.17503,2.27113 2.96594,3.26474 9.75465,9.36839 11.92968,10.69321 1.3841,0.85167 3.49322,2.5077 4.6796,3.64326 2.53752,2.5077 4.71255,4.35299 7.41485,6.2456 2.80117,1.98723 11.33649,7.19189 14.82971,9.13181 1.64775,0.89899 4.0205,2.22381 5.27279,2.98085 1.25229,0.75704 4.74551,2.22381 7.74441,3.31206 2.99889,1.08824 8.10691,2.98085 11.36944,4.25836 3.26254,1.2775 7.57963,2.74427 9.55693,3.26474 19.212715,5.20466 25.243465,6.29291 40.567495,7.42847 10.24898,0.61509 10.67739,0.66241 15.15926,0.0946 l 0,0 z"
     id="path5758"
     inkscape:connector-curvature="0" /><path
     style="fill:#c48855"
     d="m 143.18791,74.653911 c 0.72501,-0.18926 3.75686,-0.52046 6.75576,-0.66241 8.76601,-0.52047 10.44671,-0.70973 15.48881,-1.70334 5.00915,-1.04094 13.34674,-3.87984 16.90587,-5.81976 6.26144,-3.40669 8.13987,-6.00902 8.13987,-11.54488 0,-2.98085 0,-2.98085 -1.68071,-5.20466 -0.98864,-1.32483 -2.37275,-2.55502 -3.32844,-3.02817 -2.86708,-1.41945 -8.86487,-3.1228 -12.78651,-3.64326 -13.31379,-1.75066 -18.91612,-2.36576 -23.56277,-2.60233 -2.90003,-0.14195 -6.82166,-0.52047 -8.70009,-0.80436 -3.55913,-0.56778 -11.86377,0.0473 -14.10471,1.08825 -0.72501,0.3312 -2.76821,0.23657 -6.75576,-0.28389 -6.68984,-0.85168 -7.71145,-1.08825 -8.93078,-1.98724 -0.59319,-0.42583 -1.08751,-0.52046 -1.45001,-0.23657 -0.32955,0.23657 -0.98865,0.18926 -1.71366,-0.18926 -0.6591,-0.33121 -1.45002,-0.6151 -1.74661,-0.6151 -0.2966,0 -0.98865,-0.28389 -1.48297,-0.56778 -2.20798,-1.32482 -7.546675,-2.69696 -11.797855,-2.98085 -5.07506,-0.37852 -8.79897,-1.18288 -10.57853,-2.36576 -0.92274,-0.61509 -2.40571,-1.37213 -3.29549,-1.70334 -0.88979,-0.33121 -2.40571,-1.04093 -3.32845,-1.65603 -0.92274,-0.56778 -2.20798,-1.18288 -2.80117,-1.37214 -1.45001,-0.42583 -6.03075,-2.8389 -7.61258,-4.06909 -0.6591,-0.52047 -1.41706,-0.94631 -1.64775,-0.94631 -0.23068,0 -1.28524,-0.66241 -2.37275,-1.46676 -1.05456,-0.80436 -2.76822,-1.65603 -3.82277,-1.84529 -1.05456,-0.18926 -2.70231,-0.94631 -3.69095,-1.60872 -2.20798,-1.51408 -5.96484,-3.54863 -7.57964,-4.11641 -0.65909,-0.23658 -2.07615,-0.9463 -3.13071,-1.5614 -6.22848,-3.6905801 -8.00805,-4.5422501 -9.19442,-4.5422501 -0.72501,0 -1.9773,-0.28389 -2.80117,-0.66241 -3.49322,-1.60871 -5.96484,-1.84529 -13.24788,-1.27751 -3.85572,0.33121 -8.5682804,0.99362 -10.4796604,1.46677 -1.91139,0.52047 -3.98755,0.99362 -4.61369,1.04093 -0.82387,0.0946 -1.15342,0.37852 -1.15342,0.94631 0,0.89898 8.33759,11.9707101 11.0728504,14.6676801 0.98865,0.99361 3.19663,3.12279 4.94324,4.77882 1.74661,1.65603 3.59208,3.454 4.11936,4.02178 0.52728,0.56778 2.14207,1.70335 3.59209,2.55502 1.45001,0.85167 4.15232,2.98085 5.99779,4.73151 3.92164,3.69058 7.21713,6.10365 14.26948,10.362 12.91833,7.807 14.10471,8.46941 20.1025,10.50396 2.80117,0.99361 7.34895,2.69696 10.05125,3.83252 4.31709,1.79797 10.64444,3.78521 14.82971,4.73151 0.72501,0.14194 2.43867,0.56778 3.78982,0.9463 4.74551,1.27751 15.027435,3.50132 18.454745,3.97447 4.74551,0.66241 22.17866,1.8926 26.19916,1.84529 1.87843,-0.0473 3.95459,-0.23658 4.6796,-0.42584 l 0,0 z"
     id="path5548"
     inkscape:connector-curvature="0" /><path
     style="fill:#bd824f"
     d="m 141.70494,74.559281 c 1.91138,-0.18926 4.48187,-0.47315 5.76711,-0.61509 1.28524,-0.14195 4.383,-0.37853 6.92053,-0.52047 11.10581,-0.52047 23.49686,-4.11641 30.51625,-8.89524 2.47162,-1.65603 4.25119,-3.59595 4.25119,-4.63688 0,-0.3312 0.19773,-0.89899 0.46137,-1.32482 0.26364,-0.42584 0.56023,-1.98724 0.69205,-3.454 l 0.23069,-2.69696 -1.58184,-2.27113 c -2.76821,-3.97447 -8.4035,-6.05633 -19.87182,-7.42847 -3.3614,-0.42583 -7.18417,-0.9463 -8.50236,-1.18288 -1.3182,-0.23657 -4.21823,-0.47315 -6.42621,-0.47315 -2.20798,0 -6.82167,-0.3312 -10.28194,-0.75704 -5.14096,-0.6151 -7.11826,-0.66241 -11.20467,-0.18926 -2.73526,0.28389 -5.43756,0.70973 -6.03075,0.9463 -2.01025,0.75704 -14.33539,-0.89898 -21.15706,-2.8389 -0.98864,-0.28389 -2.24093,-0.6151 -2.80116,-0.75704 -0.98865,-0.23658 -1.64775,-0.56779 -3.130715,-1.5614 -0.46137,-0.28389 -1.41706,-0.52047 -2.14207,-0.47315 -1.91139,0.0946 -6.7228,-0.47315 -7.15122,-0.80436 -0.19773,-0.18926 -1.31819,-0.47315 -2.53753,-0.70973 -3.7239,-0.70972 -5.10801,-1.13556 -5.99779,-1.98723 -0.46137,-0.42584 -1.84548,-1.13556 -3.06481,-1.51408 -1.21933,-0.42584 -2.50457,-0.89899 -2.80117,-1.13557 -0.29659,-0.18926 -0.98864,-0.70972 -1.54888,-1.08824 -0.56023,-0.37852 -1.54888,-0.85168 -2.24093,-1.04094 -1.87843,-0.47315 -5.89893,-2.41307 -7.34895,-3.50131 -1.77956,-1.32483 -4.61369,-2.93354 -5.20687,-2.93354 -0.85683,0 -5.37166,-2.31844 -7.38191,-3.78521 -1.0216,-0.75704 -2.30684,-1.51408 -2.86707,-1.70334 -0.56024,-0.18926 -2.70231,-1.27751 -4.77847,-2.46039 -3.62504,-2.03454 -7.28303,-3.9271501 -9.39215,-4.8734501 -0.56023,-0.23658 -2.90003,-0.9463 -5.27279,-1.60871 -3.95459,-1.08825 -4.91028,-1.13557 -12.02854,-0.99362 -6.88758,0.14194 -7.9750904,0.28389 -9.7217004,1.18288 -1.41706,0.70972 -2.66935,0.99361 -4.35005,0.9463 -3.59209005,-0.0946 -3.55913005,0.0473 0.85683,5.6778101 1.3182,1.70334 2.80117,3.69058 3.26254,4.4003 1.51592,2.36576 13.9069704,14.38379 15.9172204,15.42473 2.20798,1.13556 4.81142,3.17011 8.50237,6.67142 4.94324,4.63688 7.61258,6.43486 18.61953,12.53851 1.08751,0.61509 3.03185,1.75065 4.28414,2.60233 1.25228,0.85167 2.73525,1.79797 3.29549,2.12918 0.98865,0.61509 7.44781,2.98085 11.66604,4.25835 1.18638,0.37852 3.82277,1.41946 5.80006,2.36576 3.39436,1.60871 10.28194,3.73789 15.98314,4.96808 5.07506,1.08825 8.831915,1.98724 12.028535,2.83891 4.81142,1.32482 13.84107,2.55502 17.59793,2.41307 0.98865,-0.0473 3.13072,0.14195 4.77846,0.42584 3.88868,0.61509 10.97399,0.85167 15.38995,0.42583 l 0,0 z"
     id="path5280"
     inkscape:connector-curvature="0" /><path
     style="fill:#ba7b44"
     d="m 143.51746,74.180761 c 0.72501,-0.23657 3.85572,-0.52047 6.92053,-0.70973 8.99669,-0.52046 10.7433,-0.66241 13.01719,-1.18287 1.18638,-0.28389 3.19663,-0.70973 4.44892,-0.99362 6.95348,-1.51408 16.60928,-5.91439 19.57522,-8.94255 1.08751,-1.13557 2.53753,-5.15735 2.80117,-7.80699 0.16477,-1.70335 0.0659,-1.98724 -1.48298,-4.21105 -1.77956,-2.55501 -2.93298,-3.31205 -7.87622,-5.0154 -5.23983,-1.79797 -12.98424,-2.88622 -31.30717,-4.30567 -10.64444,-0.85167 -12.98424,-0.89899 -16.97178,-0.37852 -5.9978,0.75704 -15.65359,0.80435 -17.96043,0.14194 -2.3398,-0.70972 -5.23984,-1.41945 -9.55693,-2.36575 -1.91138,-0.42584 -4.05345,-0.99362 -4.77846,-1.2302 -2.471615,-0.89898 -4.613685,-1.37213 -7.217125,-1.60871 -1.45002,-0.14194 -2.76821,-0.37852 -2.93299,-0.52046 -0.16477,-0.14195 -1.3841,-0.47316 -2.66935,-0.66242 -1.28524,-0.18926 -2.57048,-0.47315 -2.83412,-0.56778 -0.26364,-0.0946 -1.05456,-0.3312 -1.74661,-0.56778 -0.69205,-0.18926 -1.35115,-0.66241 -1.51592,-1.04093 -0.16478,-0.37852 -0.75797,-0.75704 -1.38411,-0.80436 -2.14207,-0.28389 -5.07506,-1.75066 -5.60234,-2.79159 -0.19773,-0.37852 -6.32734,-2.69696 -7.15121,-2.69696 -0.26364,0 -1.18638,-0.61509 -2.01025,-1.37214 -0.82388,-0.75704 -2.47162,-1.79797 -3.658,-2.31844 -1.18638,-0.52046 -3.62504,-1.65602 -5.43756,-2.46038 -1.81252,-0.85167 -3.42731,-1.5614 -3.62504,-1.5614 -0.19773,-0.0473 -0.69206,-0.42583 -1.15342,-0.89899 -0.46137,-0.42583 -1.84548,-1.37213 -3.13072,-2.03455 -1.28524,-0.66241 -3.49322,-1.93991 -4.94324,-2.79159 -4.05345,-2.41307 -8.46941,-4.3056701 -13.18197,-5.6304901 -4.0205,-1.13556 -4.81141,-1.18288 -12.35809,-1.04093 -7.11826,0.14194 -8.2387304,0.23657 -9.3921504,1.04093 -0.72501,0.47315 -1.48297,1.23019 -1.6807,1.5614 -0.2966,0.56778 -0.59319,0.56778 -1.6807,0.14194 -1.51593,-0.66241 -3.26254,-0.75704 -3.52618,-0.18926 -0.0989,0.23658 0.95569,1.8452901 2.37276,3.6905801 1.3841,1.79797 3.13071,4.11641 3.85572,5.11003 1.48297,2.08186 5.8989304,6.67143 8.5023704,8.84792 0.95569,0.80436 2.63639,2.36576 3.7239,3.454 1.08752,1.08825 2.6364,2.41307 3.42732,2.93354 3.29549,2.12918 6.59098,4.73151 9.58988,7.61773 2.90003,2.74428 9.49101,7.61773 11.53422,8.4694 2.01025,0.85167 9.7217,5.39392 13.70924,8.09088 0.92274,0.6151 1.91139,1.13557 2.17503,1.13557 0.26364,0 1.15342,0.28389 1.94434,0.66241 0.79092,0.37852 2.93299,1.13556 4.74551,1.70334 4.67959,1.51408 6.85462,2.31844 9.88647,3.78521 1.45002,0.70973 3.52618,1.51408 4.61369,1.84529 1.08751,0.3312 2.60344,0.75704 3.3614,1.04093 0.75796,0.23658 3.19663,0.80436 5.43756,1.18288 2.24094,0.42583 4.15232,0.85167 4.25119,0.9463 0.13182,0.0946 1.15342,0.37852 2.30684,0.6151 1.15342,0.23657 4.251185,0.99361 6.887575,1.60871 2.63639,0.66241 6.49212,1.41945 8.56828,1.75066 8.30464,1.08825 28.80259,2.03455 31.10944,1.32482 l 0,0 z"
     id="path5050"
     inkscape:connector-curvature="0" /><path
     style="fill:#af6b30"
     d="m 143.35268,73.991501 c 0.16478,-0.23658 2.20798,-0.42584 12.68765,-1.27751 6.09666,-0.47315 9.85352,-1.08824 13.67629,-2.22381 1.35115,-0.42583 2.93299,-0.85167 3.46026,-0.9463 1.3182,-0.3312 7.84327,-3.17011 9.7217,-4.25836 3.49323,-2.03455 4.87733,-3.454 5.70121,-6.00901 0.42841,-1.32483 0.98864,-3.35938 1.21933,-4.44762 l 0.42841,-2.03455 -1.74661,-2.36576 c -1.45002,-1.98723 -1.87843,-2.31844 -2.57048,-2.08186 -0.49433,0.18926 -1.05456,0.0473 -1.35115,-0.33121 -2.07616,-2.41307 -12.32514,-4.82614 -19.97068,-4.68419 -0.56024,0 -1.74662,-0.23658 -2.6364,-0.52047 -0.88978,-0.28389 -3.19662,-0.56778 -5.10801,-0.61509 -1.91139,-0.0473 -6.42621,-0.23658 -10.05125,-0.42584 -7.61259,-0.42584 -12.81946,-0.42584 -19.77295,0 -6.42621,0.37852 -7.41486,0.56778 -7.41486,1.60871 0,0.66241 0.23069,0.75704 1.15343,0.6151 1.48297,-0.23658 3.62504,0.3312 3.26253,0.85167 -0.16477,0.23658 -1.12046,0.42584 -2.10911,0.47315 -2.14207,0.0946 -9.55693,0.0946 -10.64444,0 -0.39546,-0.0473 -1.87843,-0.0473 -3.29549,0 -2.10912,0.0473 -2.57049,-0.0473 -2.57049,-0.70972 0,-1.32483 -1.21933,-0.85168 -1.64774,0.66241 -0.46137,1.56139 -1.48297,2.03455 -1.15342,0.52046 0.19773,-0.85167 0,-0.89898 -3.361395,-0.99361 -8.13987,-0.18926 -9.88648,-0.33121 -11.46832,-0.85168 -0.92273,-0.3312 -2.17502,-0.66241 -2.83412,-0.75704 -0.6591,-0.0946 -1.61479,-0.42583 -2.14207,-0.70972 -0.52728,-0.28389 -1.61479,-0.6151 -2.43866,-0.75705 -0.82388,-0.0946 -1.54888,-0.37852 -1.64775,-0.61509 -0.32955,-0.70973 -1.61479,-1.46677 -2.43866,-1.46677 -0.46137,0 -1.64775,-0.52047 -2.6364,-1.18288 -0.98864,-0.66241 -2.07616,-1.18287 -2.4057,-1.18287 -0.82388,-0.0473 -3.16368,-1.98724 -3.03186,-2.60234 0.16478,-0.66241 2.43867,-0.37852 3.52618,0.42584 0.49432,0.37852 1.91138,0.75704 3.16367,0.85167 1.25229,0.0946 2.63639,0.42584 3.03185,0.75704 0.39546,0.33121 0.92274,0.42584 1.21934,0.28389 0.26364,-0.14194 0.95569,0.0473 1.48297,0.47316 0.56023,0.42583 1.3841,0.75704 1.84547,0.75704 0.46137,0 1.3182,0.37852 1.91139,0.80435 1.0216,0.75705 1.45001,0.94631 5.00914,2.03455 2.10912,0.66241 6.68985,0.99362 6.88758,0.52047 0.23069,-0.56778 6.623935,-0.28389 9.095555,0.42583 1.18638,0.33121 3.46027,0.66242 5.10801,0.70973 1.64775,0.0473 3.22958,0.28389 3.52618,0.47315 0.59319,0.37852 1.25228,0 1.25228,-0.61509 0,-0.56779 -1.64774,-1.51409 -3.46026,-1.98724 -0.92274,-0.23657 -2.53753,-0.61509 -3.62504,-0.89899 -1.81252,-0.47315 -5.23983,-1.23019 -11.039895,-2.41306 -1.18638,-0.23658 -3.13072,-0.52047 -4.31709,-0.6151 -1.18638,-0.0946 -2.93299,-0.42584 -3.88868,-0.75704 -0.9557,-0.33121 -1.91139,-0.47315 -2.14207,-0.33121 -0.42842,0.23658 -3.06481,-0.61509 -3.69095,-1.18288 -0.19773,-0.18926 -1.12047,-0.47315 -2.07616,-0.66241 -0.9557,-0.18926 -2.27389,-0.70972 -2.93299,-1.23019 -0.6591,-0.47315 -1.38411,-0.89899 -1.61479,-0.89899 -0.75797,0 -2.73526,-1.60871 -2.73526,-2.22381 0,-0.3312 -0.16478,-0.61509 -0.32955,-0.61509 -0.16477,0 -0.32955,0.23657 -0.32955,0.47315 0,0.75704 -0.75796,0.52046 -1.64774,-0.47315 -0.46137,-0.52047 -1.12047,-0.9463 -1.48298,-0.9463 -0.79091,0 -4.41595,-1.65603 -6.26143,-2.83891 -0.72501,-0.47315 -1.9773,-1.13556 -2.80117,-1.46677 -0.82387,-0.3312 -2.37275,-1.18288 -3.46026,-1.93992 -1.08752,-0.70972 -2.53753,-1.32482 -3.22959,-1.32482 -1.15342,0 -3.52617,-1.65603 -4.0205,-2.79159 -0.0989,-0.23658 -1.28524,-0.99362 -2.57048,-1.70334 -1.3182,-0.70973 -3.42731,-1.84529 -4.6796,-2.60233 -1.28524,-0.75705 -3.19663,-1.70335 -4.28414,-2.12918 -1.08751,-0.42584 -2.50457,-1.0409401 -3.13071,-1.4194601 -4.54778,-2.64964 -16.80701,-4.02178 -16.80701,-1.8926 0,0.33121 0.23068,0.70973 0.49432,0.89899 0.26364,0.18926 0.49433,0.52046 0.49433,0.85167 0,0.37852 -0.19773,0.28389 -0.59319,-0.18926 -0.36251,-0.47315 -0.75797,-0.6151 -1.02161,-0.37852 -0.59318,0.52046 -2.17502,-0.0946 -2.17502,-0.85167 0,-0.89899 -0.85683,-1.46677 -2.24093,-1.46677 -1.58184,0 -1.74661,1.2775 -0.16478,1.51408 1.41706,0.18926 1.58184,1.46677 0.2966,2.2711201 -0.79092,0.47316 -1.12047,0.47316 -1.74662,-0.0473 -0.52727,-0.4258401 -1.87843,-0.6151001 -4.2182204,-0.5204701 -2.73526,0.0473 -3.59209,-0.0946 -4.0205,-0.66241 -0.59319,-0.75704 -1.58184,-0.56778 -1.58184,0.28389 0,0.23658 1.3182,2.1291801 2.96594,4.1164201 1.61479,1.98723 3.03185,3.92715 3.13072,4.25836 0.13182,0.56778 1.51593,1.8926 6.6239404,6.57679 0.92274,0.85168 2.7023,2.5077 3.98754,3.69058 1.28524,1.18288 4.48187,3.73789 7.08531,5.6305 2.60344,1.8926 5.63529,4.44762 6.7228,5.67781 2.04321,2.31844 8.66715,7.28652 11.53422,8.61135 4.18528,1.93992 12.39105,6.71874 13.80811,8.04356 0.92274,0.85168 3.98755,2.08187 8.76601,3.50132 4.81142,1.41945 6.29439,2.03455 11.36945,4.58957 2.60344,1.32482 7.94213,2.79159 11.86377,3.26474 1.45001,0.18926 5.89893,1.23019 9.88647,2.36575 3.987545,1.13556 8.139865,2.1765 9.227375,2.31844 4.48187,0.6151 5.7012,0.70973 9.3592,0.99362 2.10911,0.14194 5.00914,0.37852 6.45916,0.52046 4.15232,0.33121 18.15816,0.70973 18.32293,0.42584 l 0,0 z"
     id="path4806"
     inkscape:connector-curvature="0" /><path
     style="fill:#af6b30"
     d="m 125.98544,44.561511 c -0.0659,-0.28389 0.46137,-0.52047 1.21933,-0.52047 1.41707,-0.0473 1.81253,0.56779 0.59319,0.89899 -1.05455,0.33121 -1.6807,0.18926 -1.81252,-0.37852 z"
     id="path4804"
     inkscape:connector-curvature="0" /><path
     style="fill:#af6b30"
     d="m 119.13082,42.952801 c -0.0989,-0.23658 -0.42841,-0.47315 -0.69205,-0.47315 -0.26364,0 -0.46137,0.23657 -0.46137,0.47315 0,0.23657 0.29659,0.47315 0.69205,0.47315 0.39546,0 0.59319,-0.23658 0.46137,-0.47315 z"
     id="path4802"
     inkscape:connector-curvature="0" /><path
     style="fill:#af6b30"
     d="m 10.709145,7.9396209 c 0.0989,-0.23657 0.033,-0.47315 -0.13182,-0.47315 -0.16477,0 -0.3625,0.23658 -0.3625,0.47315 0,0.23658 0.0659,0.47316 0.13182,0.47316 0.0659,0 0.26364,-0.23658 0.3625,-0.47316 z"
     id="path4800"
     inkscape:connector-curvature="0" /><path
     style="fill:#965624"
     d="m 146.15385,73.187111 c 1.64775,-0.18926 4.08641,-0.47315 5.43756,-0.61509 2.90004,-0.28389 8.56828,-0.99362 13.7422,-1.65603 2.04321,-0.28389 4.3171,-0.70973 5.10802,-0.99362 0.79091,-0.28389 2.17502,-0.70972 3.09776,-0.89898 2.0432,-0.47316 7.57963,-3.07549 10.01829,-4.73151 2.70231,-1.79798 5.27279,-5.58319 5.27279,-7.75968 0,-0.42584 -0.46137,-0.80436 -1.18638,-0.99362 -0.6591,-0.18926 -1.64774,-0.70972 -2.24093,-1.13556 -0.79092,-0.6151 -1.64775,-0.80436 -3.59209,-0.70973 -1.84547,0.0946 -2.63639,-0.0946 -2.93299,-0.56778 -0.19772,-0.37852 -0.69205,-0.56778 -1.08751,-0.42583 -0.39546,0.14194 -1.28524,0.0473 -2.01025,-0.18926 -1.0216,-0.33121 -1.12046,-0.47315 -0.46137,-0.47315 1.12047,-0.0473 1.94434,-1.32483 1.15343,-1.75066 -0.2966,-0.14195 -0.52728,-0.56778 -0.52728,-0.94631 0,-0.89898 -0.62615,-0.85167 -0.85683,0.0473 -0.26364,1.04093 -1.08751,0.89899 -0.88978,-0.18926 0.13182,-0.70973 -0.0989,-0.9463 -1.08752,-1.27751 -0.69205,-0.23657 -1.71365,-0.42583 -2.24093,-0.52046 -0.52728,-0.0473 -1.35115,-0.18926 -1.81252,-0.28389 -1.05456,-0.18927 -1.38411,1.46676 -0.3625,1.84528 0.69205,0.28389 0.88978,0.85168 0.42841,1.27751 -0.13182,0.14195 -0.79092,0.0473 -1.41706,-0.14194 -0.62615,-0.18926 -1.3182,-0.28389 -1.54888,-0.18926 -0.62615,0.28389 -0.13182,1.04093 0.69205,1.08824 0.69205,0.0473 0.69205,0.0473 0.0659,0.42584 -0.95569,0.6151 -4.44891,0 -5.7012,-1.04093 -0.59319,-0.47315 -1.38411,-0.85167 -1.77957,-0.85167 -0.59318,0 -0.62614,0.0946 -0.26364,0.75704 0.36251,0.66241 0.36251,0.75704 -0.19773,0.61509 -0.79091,-0.18926 -2.14206,1.37214 -1.91138,2.27113 0.16477,0.61509 -0.75796,1.46677 -1.08751,0.99361 -0.16478,-0.23657 -0.033,-0.70972 0.82387,-3.12279 0.39546,-1.08825 0.3625,-1.08825 -0.6591,-0.75704 -1.48297,0.47315 -2.30684,1.60871 -2.10911,2.8389 0.16477,0.9463 0.0659,0.99362 -1.74661,0.89899 -1.94434,-0.14195 -2.70231,-0.80436 -1.41706,-1.27751 0.39545,-0.14194 0.62614,-0.52046 0.56023,-0.89899 -0.19773,-0.89898 -4.71255,-0.85167 -4.71255,0.0946 0,0.37852 0.52727,0.85167 1.15342,1.08824 0.62614,0.23658 1.31819,0.66241 1.48297,0.89899 0.23068,0.3312 0.033,0.37852 -0.6591,0.14194 -2.96594,-1.08824 -3.09776,-1.08824 -3.52618,-0.37852 -0.32954,0.56778 -0.85682,0.6151 -2.43866,0.37852 -1.3182,-0.18926 -2.10911,-0.14194 -2.27389,0.18926 -0.13182,0.2839 -0.56023,0.37853 -0.98865,0.23658 -0.42841,-0.14194 -0.85682,-0.0473 -0.98864,0.23658 -0.13182,0.28389 -0.85683,0.52046 -1.61479,0.52046 -0.75797,0 -1.54889,0.23658 -1.74662,0.47315 -0.19772,0.23658 -0.95569,0.56778 -1.74661,0.66241 -0.75796,0.0946 -1.61479,0.47316 -1.87843,0.75705 -0.26364,0.3312 -0.88978,0.42583 -1.48297,0.28389 -0.69205,-0.18926 -0.92274,-0.14195 -0.79092,0.23657 0.26364,0.6151 -2.07616,0.14195 -2.66934,-0.52046 -0.16478,-0.18926 -1.71366,-0.37852 -3.39436,-0.37852 -3.22958,0 -3.49322,0.23657 -2.7023,2.31843 0.32955,0.89899 0.26364,0.94631 -1.05456,0.80436 -1.48297,-0.14194 -2.14207,-1.13556 -0.92274,-1.41945 0.39546,-0.0946 0.79092,-0.37852 0.85683,-0.70973 0.16477,-0.70972 -2.86708,-1.08825 -3.16367,-0.37852 -0.2966,0.66241 -2.04321,1.27751 -2.04321,0.70973 0,-0.23658 0.19773,-0.56778 0.42842,-0.66241 0.29659,-0.18926 0.29659,-0.37852 -0.0989,-0.75705 -0.62614,-0.66241 -2.40571,-0.66241 -2.14207,-0.0473 0.0989,0.23658 0.42842,0.47315 0.69206,0.47315 0.29659,0 0.46136,0.33121 0.39545,0.80436 -0.0989,0.61509 -0.3625,0.80435 -1.08751,0.70972 -0.52728,-0.0946 -1.94434,-0.18926 -3.13071,-0.23657 -1.48298,-0.0946 -2.47162,-0.37852 -3.13072,-0.99362 -1.25229,-1.18288 -0.52728,-1.51408 1.12047,-0.56778 1.18637,0.70973 1.28524,0.66241 1.97729,-0.28389 0.56023,-0.80436 0.82387,-0.89899 1.28524,-0.52047 0.32955,0.28389 0.75797,0.42584 0.98865,0.33121 0.79092,-0.37852 0.39546,-0.9463 -0.92274,-1.23019 -1.0216,-0.23658 -1.41706,-0.56778 -1.64774,-1.46677 -0.2966,-1.13556 -0.9557,-1.51408 -1.45002,-0.85167 -0.39546,0.56778 -2.96594,0.0946 -3.55913,-0.66241 -0.56024,-0.70973 -0.92274,-0.66242 -1.9773,0.42583 -0.46137,0.47315 -0.725,0.47315 -1.25228,-0.0473 -0.39546,-0.33121 -1.285245,-0.6151 -1.977295,-0.66242 -1.12047,0 -1.28524,-0.14194 -1.28524,-1.13556 0,-0.80435 0.19773,-1.13556 0.6591,-1.13556 0.3625,0 0.6591,-0.18926 0.6591,-0.42584 0,-0.75704 -0.79092,-0.85167 -1.74661,-0.18926 -0.72501,0.52047 -0.85683,0.89899 -0.69206,1.84529 0.16478,0.9463 0.0989,1.18288 -0.49432,1.18288 -0.56023,0 -0.69205,-0.28389 -0.72501,-1.5614 -0.033,-0.85167 0,-1.79797 0,-2.12918 0.033,-0.3312 -0.0989,-0.61509 -0.29659,-0.61509 -0.19773,0 -0.32955,0.23657 -0.32955,0.52046 0,0.28389 -0.52728,1.27751 -1.15342,2.12918 l -1.15343,1.60872 v -1.18288 c 0,-0.89899 -0.16477,-1.18288 -0.6591,-1.18288 -0.3625,0 -0.65909,0.28389 -0.65909,0.6151 0,0.3312 -0.13182,0.28389 -0.32955,-0.18926 -0.19773,-0.47315 -0.6591,-0.75705 -1.08751,-0.66242 -0.62615,0.0946 -0.75797,-0.0473 -0.62615,-0.75704 0.0989,-0.52046 -0.0659,-0.99361 -0.3625,-1.18287 -0.2966,-0.14195 -0.42842,-0.47316 -0.32955,-0.75705 0.0989,-0.23657 0,-0.75704 -0.19773,-1.13556 -0.52728,-0.89898 -1.9773,-0.89898 -1.9773,0 0,0.37852 -0.23068,0.70973 -0.49432,0.70973 -0.26364,0 -0.49432,0.3312 -0.49432,0.75704 0,0.6151 -0.26364,0.70973 -1.45002,0.52047 -1.3182,-0.18926 -1.41706,-0.14195 -1.28524,0.70972 0.13182,0.70973 0.0329,0.89899 -0.46137,0.75704 -0.42841,-0.0946 -0.6591,-0.66241 -0.72501,-1.65602 -0.0659,-1.08825 -0.23068,-1.41946 -0.59319,-1.2302 -0.26364,0.14195 -0.46137,0.66241 -0.46137,1.13557 0,1.08824 -0.0329,1.08824 -1.51592,0.18926 -0.95569,-0.56779 -1.12047,-0.89899 -0.95569,-1.65603 0.23068,-1.08825 -0.42842,-1.32483 -1.08752,-0.42584 -0.49432,0.70973 -1.45001,-0.3312 -1.18637,-1.27751 0.0989,-0.37852 0,-0.66241 -0.26364,-0.66241 -0.26364,0 -1.71366,-0.75704 -3.26254,-1.70334 -1.54888,-0.9463 -3.32845,-1.79797 -4.0205,-1.93992 -1.08751,-0.18926 -1.25229,-0.37852 -1.25229,-1.5614 0,-1.37214 -0.39546,-1.98723 -1.41706,-2.22381 -0.32955,-0.0946 -0.92274,-0.47315 -1.35115,-0.85167 -0.49432,-0.47315 -1.08751,-0.6151 -1.64775,-0.42584 -0.725,0.23658 -0.82387,0.18927 -0.65909,-0.47315 0.0989,-0.42583 0.0659,-0.70972 -0.0989,-0.66241 -0.16477,0.0473 -0.6591,-0.3312 -1.08751,-0.9463 -0.59319,-0.75704 -1.05456,-0.99362 -1.64775,-0.80436 -0.62614,0.18926 -1.0216,0 -1.48297,-0.75704 -0.82387,-1.32482 -2.86708,-2.79159 -3.82277,-2.79159 -0.88978,0 -2.96594,-0.99362 -3.59208,-1.70334 -0.6591,-0.75704 -3.49323,-1.27751 -3.72391,-0.66241 -0.13182,0.28389 0.13182,0.47315 0.6591,0.47315 0.49432,0 1.25228,0.42583 1.71365,0.9463 0.46137,0.52047 0.9557,0.80436 1.12047,0.66241 0.6591,-0.56778 5.14097,4.0691 4.77846,4.96809 -0.26364,0.61509 -1.25228,0.70972 -1.6807,0.0946 -0.39546,-0.52047 -3.78981,-2.41307 -4.383,-2.41307 -0.23069,0 -0.79092,-0.37852 -1.21933,-0.89899 -0.42842,-0.52047 -1.45002,-1.04093 -2.24094,-1.18288 -1.77956,-0.37852 -2.37275,-1.23019 -1.81252,-2.55501 0.32955,-0.75704 0.2966,-1.13557 -0.13182,-2.12918 -0.29659,-0.66241 -0.46137,-1.51409 -0.3625,-1.89261 0.26364,-1.04093 -2.10912,-2.69696 -3.03185,-2.08186 -0.56024,0.33121 -0.85683,0.23657 -1.38411,-0.52047 -0.3625,-0.52046 -1.48297,-1.32482 -2.47162,-1.75066 -0.98865,-0.42583 -1.94434,-0.99361 -2.14207,-1.32482 -0.23068,-0.37852 -1.21933,-0.56778 -2.90003,-0.52046 -1.51593,0.0473 -2.90003,-0.18926 -3.39436,-0.52047 -0.46137,-0.33121 -1.58183,-0.75704 -2.47162,-0.9463 -0.88978,-0.18926 -1.77956,-0.52047 -1.97729,-0.70973 -0.46137,-0.47315 -2.17503,-0.9463 -5.40461,-1.41945 -2.3398,-0.37852 -2.93299,-0.28389 -3.95459,0.37852 -1.31819,0.89899 -2.3398,0.85167 -2.3398,-0.18926 0,-0.80436 -1.0216004,-1.65603 -1.9443404,-1.65603 -1.08751,0 -0.79092,1.13556 0.69206,2.83891 0.7579604,0.89898 1.1863704,1.65602 0.9886404,1.79797 -0.23068,0.0946 -0.5931804,-0.0473 -0.8238704,-0.28389 -0.42841,-0.52047 -1.87843,-0.18926 -1.87843,0.42584 0,0.18926 0.23068,0.61509 0.49432,0.9463 0.26364,0.3312 0.49433,0.89898 0.49433,1.23019 0,0.37852 0.16477,0.66241 0.32955,0.70973 0.16477,0.0473 0.46137,0.0946 0.6591,0.14194 0.16477,0.0473 0.5272704,0.47315 0.7909104,1.04093 0.26364,0.52047 1.3182,1.60872 2.37276,2.36576 1.05455,0.75704 2.27389,1.84529 2.7023,2.46038 0.46137,0.6151 1.05456,1.08825 1.38411,1.08825 0.32955,0 0.85683,0.42584 1.18637,0.99362 0.32955,0.56778 1.21934,1.46677 1.91139,2.03455 2.7023,2.12918 5.3387,4.0691 6.12961,4.54225 0.46137,0.28389 1.05456,0.66241 1.3182,0.9463 0.88978,0.80435 2.73526,1.93992 3.16367,1.93992 0.23069,0 0.49433,0.37852 0.62615,0.85167 0.42841,1.75066 6.3603,7.00263 10.31489,9.0845 1.12046,0.61509 2.14206,1.27751 2.24093,1.51408 0.0989,0.23658 0.42841,0.42584 0.72501,0.42584 0.29659,0 2.3398,0.99361 4.51482,2.17649 2.17503,1.18288 4.91028,2.64965 6.06371,3.26474 1.15342,0.6151 2.37275,1.46677 2.66934,1.89261 0.69206,0.89898 3.85573,2.36575 7.25009,3.31205 4.11936,1.18288 6.98644,2.12918 7.61258,2.60233 0.32955,0.23658 0.85683,0.47315 1.15342,0.47315 0.2966,0 1.02161,0.33121 1.58184,0.70973 3.69095,2.46039 7.71145,3.59595 17.13656,4.92077 1.97729,0.28389 4.58073,0.89899 5.76711,1.41945 5.997785,2.55502 13.841055,3.87984 23.628665,4.0691 2.90004,0.0473 5.47052,0.23658 5.7012,0.42584 0.6591,0.37852 14.96154,0.56778 18.4218,0.14194 l 0,0 z"
     id="path4526"
     inkscape:connector-curvature="0" /><path
     style="fill:#965624"
     d="m 123.31609,59.513051 c -0.0989,-0.37852 0.033,-0.52047 0.2966,-0.42584 0.23068,0.0946 0.49432,0.47316 0.59319,0.85168 0.0989,0.37852 -0.033,0.52046 -0.2966,0.42583 -0.26364,-0.14194 -0.52728,-0.52046 -0.59319,-0.85167 z"
     id="path4524"
     inkscape:connector-curvature="0" /><path
     style="fill:#965624"
     d="m 100.44538,55.869791 c 0.23069,-0.14195 0.52728,-0.14195 0.62615,0.0473 0.0989,0.14195 -0.0989,0.28389 -0.42842,0.23658 -0.3625,-0.0473 -0.46137,-0.14195 -0.19773,-0.28389 l 0,0 z"
     id="path4522"
     inkscape:connector-curvature="0" /><path
     style="fill:#965624"
     d="m 160.68697,54.024501 c -0.42841,0.14194 -0.88978,0.0946 -1.0216,-0.18926 -0.23069,-0.52047 1.12047,-1.13556 2.01025,-0.89899 0.32955,0.0946 0.6591,0.56778 0.72501,1.08825 0.0989,0.80436 0.0659,0.85167 -0.39546,0.28389 -0.2966,-0.33121 -0.85683,-0.47315 -1.3182,-0.28389 z"
     id="path4520"
     inkscape:connector-curvature="0" /><path
     style="fill:#965624"
     d="m 170.44163,50.617811 c 0.0989,-1.37214 0.75796,-1.84529 1.58183,-1.08824 0.39546,0.37852 0.32955,0.61509 -0.32955,1.41945 -1.08751,1.27751 -1.3841,1.23019 -1.25228,-0.33121 z"
     id="path4518"
     inkscape:connector-curvature="0" /><path
     style="fill:#965624"
     d="m 93.590765,51.469481 c 0,-0.23657 0.16477,-0.47315 0.32955,-0.47315 0.16477,0 0.32955,0.23658 0.32955,0.47315 0,0.23658 -0.16478,0.47316 -0.32955,0.47316 -0.16478,0 -0.32955,-0.23658 -0.32955,-0.47316 z"
     id="path4516"
     inkscape:connector-curvature="0" /><path
     style="fill:#965624"
     d="m 86.340685,48.110111 c 0,-0.70972 0.13182,-0.89898 0.52728,-0.70972 0.29659,0.14194 0.65909,0.28389 0.82387,0.28389 0.16477,0 0.29659,0.3312 0.29659,0.70972 0,0.42584 -0.29659,0.70973 -0.82387,0.70973 -0.62614,0 -0.82387,-0.28389 -0.82387,-0.99362 z"
     id="path4514"
     inkscape:connector-curvature="0" /><path
     style="fill:#965624"
     d="m 67.984795,43.283971 c -0.23069,-0.23657 -0.52728,-0.3312 -0.69205,-0.18926 -0.36251,0.33121 -2.37276,-1.04093 -2.37276,-1.65603 0,-0.70972 0.98865,-0.47315 1.18638,0.28389 0.26364,0.94631 1.91138,0.89899 2.43866,0 0.36251,-0.66241 0.49433,-0.66241 1.18638,0 0.42841,0.37852 0.98865,0.70973 1.25229,0.70973 0.59318,0 0.95569,0.75704 0.69205,1.41945 -0.26364,0.6151 -3.06481,0.18926 -3.69095,-0.56778 l 0,0 z"
     id="path4512"
     inkscape:connector-curvature="0" /><path
     style="fill:#965624"
     d="m 59.317655,39.214871 c 0,-0.47315 0.98864,-1.13556 1.21933,-0.80435 0.0989,0.14194 0.0659,0.42583 -0.0659,0.70972 -0.23069,0.6151 -1.15342,0.66242 -1.15342,0.0946 l 0,0 z"
     id="path4510"
     inkscape:connector-curvature="0" /><path
     style="fill:#965624"
     d="m 62.283595,38.694411 c 0,-0.23658 0.16477,-0.47315 0.3625,-0.47315 0.19773,0 0.26364,0.23657 0.13182,0.47315 -0.13182,0.23657 -0.26364,0.47315 -0.3625,0.47315 -0.0989,0 -0.13182,-0.23658 -0.13182,-0.47315 z"
     id="path4508"
     inkscape:connector-curvature="0" /><path
     style="fill:#965624"
     d="m 64.689305,38.079311 c 0.0659,-0.3312 0.32955,-0.61509 0.59319,-0.61509 0.26364,0 0.49432,0.28389 0.59318,0.61509 0.0659,0.33121 -0.16477,0.6151 -0.59318,0.6151 -0.42842,0 -0.69206,-0.23658 -0.59319,-0.6151 z"
     id="path4506"
     inkscape:connector-curvature="0" /><path
     style="fill:#965624"
     d="m 56.186935,34.388731 c -0.0989,-0.23657 -0.46137,-0.42583 -0.82387,-0.42583 -0.36251,0 -0.62615,-0.28389 -0.62615,-0.6151 0,-1.08825 0.39546,-1.23019 1.38411,-0.52046 0.52728,0.37852 1.08751,0.61509 1.25229,0.47315 0.42841,-0.37852 1.35115,0.23657 1.35115,0.9463 -0.0659,0.66241 -2.27389,0.80436 -2.53753,0.14194 l 0,0 z"
     id="path4504"
     inkscape:connector-curvature="0" /><path
     style="fill:#965624"
     d="m 41.521995,28.710921 c 0,-0.28389 0.16478,-0.37852 0.32955,-0.18926 0.16477,0.18926 0.32955,0.37852 0.32955,0.52047 0,0.0946 -0.16478,0.18926 -0.32955,0.18926 -0.16477,0 -0.32955,-0.23658 -0.32955,-0.52047 z"
     id="path4502"
     inkscape:connector-curvature="0" /><path
     style="fill:#965624"
     d="m 39.149245,27.953881 c 0.23068,-0.14194 0.59318,-0.14194 0.82387,0 0.23068,0.14195 0.0329,0.23658 -0.42841,0.23658 -0.46137,0 -0.62615,-0.0946 -0.39546,-0.23658 z"
     id="path4500"
     inkscape:connector-curvature="0" /><path
     style="fill:#965624"
     d="m 35.458295,26.203221 c -0.52728,-0.56778 -0.52728,-0.75704 -0.16478,-1.65603 0.52728,-1.23019 0.88978,-1.32482 1.18638,-0.18926 0.0989,0.47315 0.42841,1.18288 0.69205,1.65603 0.46137,0.75704 0.42842,0.85167 -0.32955,0.85167 -0.42841,0 -1.05456,-0.28389 -1.3841,-0.66241 z"
     id="path4498"
     inkscape:connector-curvature="0" /><path
     style="fill:#965624"
     d="m 33.184405,24.783771 c -0.39546,-0.37852 -1.35116,-0.80436 -2.14207,-0.9463 -1.6807,-0.37852 -6.98645,-4.02179 -6.98645,-4.87346 0,-1.08824 0.72501,-1.18287 1.45002,-0.18926 0.39546,0.56778 1.0216,0.99362 1.35115,0.99362 0.32955,0 1.12047,0.56778 1.71366,1.23019 0.69205,0.75704 1.35115,1.08825 1.74661,0.9463 0.85683,-0.37852 2.3398,0.18926 2.3398,0.94631 0,0.3312 0.42841,0.70972 0.98865,0.89898 0.59318,0.18926 0.98864,0.56778 0.98864,0.99362 -0.0329,0.80436 -0.49432,0.85167 -1.45001,0 l 0,0 z"
     id="path4496"
     inkscape:connector-curvature="0" /><path
     style="fill:#965624"
     d="m 21.056995,16.125111 c -0.49433,-0.89899 0.32955,-1.27751 1.25228,-0.6151 0.98865,0.75704 0.98865,1.13556 0.0659,2.08186 -0.69205,0.70973 -0.75796,0.66242 -0.85682,-0.0946 -0.0989,-0.42583 -0.2966,-1.08824 -0.46137,-1.37213 z"
     id="path4494"
     inkscape:connector-curvature="0" /><path
     style="fill:#965624"
     d="m 18.453555,15.935851 c -0.26364,-0.70973 -0.49433,-0.85168 -0.75796,-0.52047 -0.36251,0.42584 -2.66935,0 -3.06481,-0.56778 -0.46137,-0.66241 0.39546,-1.32482 1.31819,-1.04093 0.56024,0.18926 1.58184,0.3312 2.24094,0.28389 1.28524,-0.0473 2.10911,0.89898 1.81252,2.08186 -0.29659,1.04093 -1.12047,0.89899 -1.54888,-0.23657 z"
     id="path4492"
     inkscape:connector-curvature="0" /><path
     style="fill:#965624"
     d="m 123.25018,52.179211 c 0,-1.41945 0.82388,-1.60871 1.3182,-0.23657 0.23069,0.61509 0.69205,0.9463 1.3182,0.9463 0.62614,0 1.08751,-0.33121 1.31819,-0.9463 0.2966,-0.80436 0.69206,-0.94631 2.6364,-0.94631 1.25228,0 2.37275,-0.23657 2.47162,-0.47315 0.0989,-0.23657 0.56023,-0.47315 1.0216,-0.47315 0.69205,0 0.79092,-0.23657 0.79092,-1.65603 0,-1.84529 0.033,-1.79797 -1.81252,-1.18287 -0.92274,0.3312 -1.38411,0.28389 -1.54888,-0.0946 -0.13182,-0.2839 -0.32955,-0.42584 -0.46137,-0.23658 -0.13182,0.18926 -0.033,0.66241 0.19773,1.04093 0.32955,0.56778 0.32955,0.85167 0,1.41945 -0.56024,0.94631 -0.79092,0.89899 -1.94434,-0.52046 -0.85683,-1.04093 -1.08752,-1.13556 -1.54888,-0.6151 -0.42842,0.52047 -0.56024,0.47315 -0.79092,-0.0946 -0.32955,-0.85167 -2.40571,-1.08824 -2.17503,-0.23657 0.0659,0.3312 0.52728,0.52046 1.02161,0.42583 0.59318,-0.0946 0.85682,0.0946 0.85682,0.6151 0,0.47315 -0.32955,0.70973 -0.98864,0.70973 -1.38411,0 -2.6364,1.2775 -2.6364,2.64964 0,0.70973 0.19773,1.13556 0.49433,1.13556 0.26364,-0.0473 0.46136,-0.52046 0.46136,-1.23019 l 0,0 z"
     id="path4490"
     inkscape:connector-curvature="0" /><path
     style="fill:#965624"
     d="m 120.77857,52.888941 c 0.0989,-0.23658 -0.0989,-0.47315 -0.46137,-0.47315 -0.36251,0 -0.69206,0.23657 -0.69206,0.47315 0,0.23657 0.19773,0.47315 0.46137,0.47315 0.26364,0 0.59319,-0.23658 0.69206,-0.47315 z"
     id="path4488"
     inkscape:connector-curvature="0" /><path
     style="fill:#965624"
     d="m 183.39291,51.942641 c 0.0989,-0.23658 -0.13182,-0.56779 -0.49433,-0.75705 -0.92273,-0.42583 -1.18637,0.0473 -0.3625,0.66241 0.39546,0.33121 0.72501,0.37853 0.85683,0.0946 l 0,0 z"
     id="path4486"
     inkscape:connector-curvature="0" /><path
     style="fill:#965624"
     d="m 119.55923,51.800691 c 0.9557,-0.66241 0.92274,-1.23019 -0.0989,-1.60871 -0.95569,-0.33121 -1.84548,0.52046 -1.58184,1.51408 0.19773,0.80436 0.62615,0.80436 1.6807,0.0946 l 0,0 z"
     id="path4484"
     inkscape:connector-curvature="0" /><path
     style="fill:#965624"
     d="m 116.09897,51.043651 c 0.32955,-0.56778 0.26364,-0.6151 -0.32955,-0.33121 -0.46137,0.23658 -0.72501,0.14195 -0.72501,-0.18926 0,-0.66241 -1.38411,-0.42583 -1.54888,0.28389 -0.23069,0.85167 2.14207,1.04093 2.60344,0.23658 l 0,0 z"
     id="path4482"
     inkscape:connector-curvature="0" /><path
     style="fill:#965624"
     d="m 163.78473,49.860771 c 0,-0.42584 -0.23068,-0.56778 -0.6591,-0.42584 -1.0216,0.37853 -1.12046,1.08825 -0.16477,1.08825 0.49432,0 0.82387,-0.28389 0.82387,-0.66241 l 0,0 z"
     id="path4480"
     inkscape:connector-curvature="0" /><path
     style="fill:#965624"
     d="m 136.43215,48.867151 c 0,-0.61509 0.23069,-1.37213 0.52728,-1.60871 0.32955,-0.28389 0.39546,-0.56778 0.19773,-0.75704 -0.19773,-0.18926 -0.42841,-0.0946 -0.56023,0.18926 -0.0989,0.28389 -0.6591,0.47315 -1.25229,0.47315 h -1.0216 l 0.725,0.9463 c 0.39546,0.52047 0.72501,1.18288 0.72501,1.41946 0,0.23657 0.16478,0.47315 0.32955,0.47315 0.16478,0 0.32955,-0.47315 0.32955,-1.13557 z"
     id="path4478"
     inkscape:connector-curvature="0" /><path
     style="fill:#965624"
     d="m 122.92064,48.346691 c 0,-0.80436 -0.98865,-1.60872 -1.58184,-1.32482 -0.69205,0.37852 -0.46137,0.9463 0.59319,1.46676 0.79092,0.47315 0.98865,0.42584 0.98865,-0.14194 z"
     id="path4476"
     inkscape:connector-curvature="0" /><path
     style="fill:#965624"
     d="m 120.21833,48.299391 c 0.56024,-0.3312 0.52728,-1.08824 -0.0989,-1.08824 -0.26364,0 -0.49433,0.3312 -0.49433,0.70972 0,0.37852 0.033,0.70973 0.0989,0.66241 0.0329,-0.0473 0.26364,-0.14194 0.49432,-0.28389 z"
     id="path4474"
     inkscape:connector-curvature="0" /><path
     style="fill:#965624"
     d="m 164.44383,47.211151 c 0,-0.52047 -0.29659,-1.13557 -0.62614,-1.41946 -0.85683,-0.66241 -1.71366,-0.61509 -0.92274,0 0.32955,0.28389 0.59319,0.89899 0.59319,1.41946 0,0.52046 0.23068,0.9463 0.49432,0.9463 0.26364,0 0.46137,-0.42584 0.46137,-0.9463 l 0,0 z"
     id="path4472"
     inkscape:connector-curvature="0" /><path
     style="fill:#965624"
     d="m 139.52991,45.980961 c 0.2966,-0.66241 0.46137,-1.41945 0.32955,-1.70334 -0.16477,-0.42584 -1.45001,1.93992 -1.45001,2.64964 0,0.66242 0.65909,0.14195 1.12046,-0.9463 l 0,0 z"
     id="path4470"
     inkscape:connector-curvature="0" /><path
     style="fill:#965624"
     d="m 157.75398,44.561511 c -0.0989,-0.14195 -0.39546,-0.18926 -0.62614,-0.0473 -0.26364,0.14195 -0.19773,0.2839 0.19773,0.2839 0.3625,0 0.56023,-0.0946 0.42841,-0.23658 l 0,0 z"
     id="path4468"
     inkscape:connector-curvature="0" /><path
     style="fill:#965624"
     d="m 97.380575,39.167591 c -0.0989,-0.23658 -0.42841,-0.47315 -0.69205,-0.47315 -0.26364,0 -0.39546,0.23657 -0.29659,0.47315 0.0989,0.23657 0.42841,0.47315 0.69205,0.47315 0.26364,0 0.42841,-0.23658 0.29659,-0.47315 z"
     id="path4466"
     inkscape:connector-curvature="0" /><path
     style="fill:#965624"
     d="m 92.173705,39.356851 c -0.0989,-0.14195 -0.39546,-0.18926 -0.62615,-0.0473 -0.26363,0.14195 -0.19772,0.28389 0.19773,0.28389 0.36251,0 0.56024,-0.0946 0.42842,-0.23657 l 0,0 z"
     id="path4464"
     inkscape:connector-curvature="0" /><path
     style="fill:#965624"
     d="m 90.558915,38.789071 c -0.0989,-0.6151 -0.46137,-0.85167 -1.51593,-0.85167 l -1.38411,-0.0473 0.88979,0.85167 c 1.18637,1.13557 2.17502,1.13557 2.01025,0.0473 l 0,0 z"
     id="path4462"
     inkscape:connector-curvature="0" /><path
     style="fill:#965624"
     d="m 75.465565,33.489781 c 0,-0.28389 -0.16478,-0.52047 -0.32955,-0.52047 -0.16478,0 -0.32955,0.0946 -0.32955,0.18926 0,0.0946 0.16477,0.33121 0.32955,0.52047 0.16477,0.18926 0.32955,0.0946 0.32955,-0.18926 z"
     id="path4460"
     inkscape:connector-curvature="0" /><path
     style="fill:#965624"
     d="m 71.181425,32.543481 c 0,-0.56779 -0.92274,-1.18288 -1.18638,-0.80436 -0.0989,0.14194 0.13182,0.47315 0.49432,0.80436 0.49433,0.3312 0.69206,0.3312 0.69206,0 l 0,0 z"
     id="path4458"
     inkscape:connector-curvature="0" /><path
     style="fill:#965624"
     d="m 59.647195,28.285121 c 0,-0.23658 -0.23068,-0.47315 -0.52727,-0.47315 -0.2966,0 -0.42842,0.23657 -0.2966,0.47315 0.13182,0.23657 0.32955,0.47315 0.52728,0.47315 0.19773,0 0.29659,-0.23658 0.29659,-0.47315 z"
     id="path4456"
     inkscape:connector-curvature="0" /><path
     style="fill:#965624"
     d="m 56.549435,27.054921 c -0.72501,-0.75704 -1.51592,-0.89898 -1.51592,-0.28389 0,0.52047 0.82387,0.99362 1.58183,0.99362 0.49433,0 0.46137,-0.0946 -0.0659,-0.70973 l 0,0 z"
     id="path4454"
     inkscape:connector-curvature="0" /><path
     style="fill:#965624"
     d="m 58.329005,24.736481 c 0,-0.0946 -0.16478,-0.3312 -0.32955,-0.52046 -0.16478,-0.18926 -0.32955,-0.0473 -0.32955,0.18926 0,0.28389 0.16477,0.52046 0.32955,0.52046 0.16477,0 0.32955,-0.0473 0.32955,-0.18926 z"
     id="path4452"
     inkscape:connector-curvature="0" /><path
     style="fill:#965624"
     d="m 45.147035,24.499911 c 0,-0.23658 -0.16477,-0.47315 -0.32955,-0.47315 -0.16477,0 -0.32955,0.23657 -0.32955,0.47315 0,0.23657 0.16478,0.47315 0.32955,0.47315 0.16478,0 0.32955,-0.23658 0.32955,-0.47315 z"
     id="path4450"
     inkscape:connector-curvature="0" /><path
     style="fill:#965624"
     d="m 7.5125246,13.948641 c -0.0659,-0.56778 -0.26364,-1.04093 -0.42842,-0.99361 -0.16477,0.0473 -0.82387,-0.33121 -1.45001,-0.80436 -0.62615,-0.47315 -1.21934,-0.75704 -1.3182,-0.56778 -0.0989,0.14194 0.0329,0.37852 0.29659,0.52046 0.26364,0.14195 0.85683,0.85168 1.3182,1.60872 0.98865,1.60871 1.74661,1.70334 1.58184,0.23657 l 0,0 z"
     id="path4448"
     inkscape:connector-curvature="0" /><path
     style="fill:#965624"
     d="m 38.885605,14.137901 c 0,-0.52046 -0.52728,-0.80435 -2.30685,-1.18287 l -1.15342,-0.2839 0.98865,0.66242 c 1.61479,1.04093 2.47162,1.32482 2.47162,0.80435 z"
     id="path4446"
     inkscape:connector-curvature="0" /><path
     style="fill:#965624"
     d="m 7.2488846,11.251681 c 0,-0.23657 -0.16478,-0.47315 -0.32955,-0.47315 -0.16478,0 -0.32955,0.23658 -0.32955,0.47315 0,0.23658 0.16477,0.47315 0.32955,0.47315 0.16477,0 0.32955,-0.23657 0.32955,-0.47315 z"
     id="path4444"
     inkscape:connector-curvature="0" /><path
     style="fill:#8e4d19"
     d="m 143.4845,72.855921 c 0.0989,-0.14195 2.40571,-0.33121 7.77736,-0.75704 1.35116,-0.0946 4.18528,-0.47315 6.26144,-0.75705 2.07616,-0.3312 4.6796,-0.66241 5.76711,-0.80435 1.08751,-0.14195 2.14207,-0.37852 2.30684,-0.6151 0.16478,-0.23657 1.02161,-0.28389 1.87843,-0.23657 1.41706,0.14194 3.46027,-0.52047 3.88868,-1.27751 0.0989,-0.14195 1.05456,-0.28389 2.14207,-0.23658 1.58184,0.0473 2.40571,-0.28389 4.15232,-1.46676 1.21933,-0.85168 2.47162,-1.51409 2.80117,-1.51409 0.32955,0 0.82387,-0.42583 1.05456,-0.99361 0.32955,-0.70973 0.62614,-0.89899 1.21933,-0.70973 0.59319,0.18926 0.92274,0.0473 1.21933,-0.66241 0.23069,-0.52047 0.6591,-0.9463 0.92274,-0.9463 0.79092,0 2.27389,-2.5077 2.27389,-3.83253 0,-1.5614 -0.26364,-1.8926 -1.0216,-1.32482 -0.49433,0.37852 -0.62615,0.28389 -0.62615,-0.42584 0,-1.13556 -0.42841,-1.37213 -2.40571,-1.13556 -1.41706,0.18926 -1.58183,0.33121 -1.58183,1.37214 0,0.9463 -0.13182,1.13556 -0.6591,0.85167 -0.3625,-0.18926 -1.35115,-0.37852 -2.20798,-0.47315 -0.85683,-0.0946 -1.61479,-0.37852 -1.64775,-0.66241 -0.0659,-0.28389 -0.29659,-0.37852 -0.56023,-0.28389 -0.23068,0.14194 -0.52728,-0.0946 -0.62614,-0.47315 -0.2966,-1.13556 -1.28524,-0.37852 -1.02161,0.80435 0.16478,0.66242 0.0659,0.89899 -0.23068,0.70973 -0.23068,-0.14194 -0.39546,-0.56778 -0.3625,-0.9463 0.0659,-0.52047 -0.36251,-0.89899 -1.61479,-1.27751 -1.71366,-0.52047 -3.92164,-0.28389 -3.92164,0.47315 0,0.18926 -0.26364,0.47315 -0.59319,0.6151 -0.42841,0.14194 -0.3625,0.23657 0.19773,0.28389 0.42842,0.0473 1.05456,0.28389 1.45002,0.56778 0.56023,0.42584 0.79092,0.33121 1.31819,-0.42584 0.52728,-0.75704 0.79092,-0.85167 1.45002,-0.42583 0.42841,0.28389 0.79092,0.80435 0.79092,1.08825 0,0.75704 -1.38411,1.2775 -2.30685,0.85167 -0.39545,-0.18926 -0.92273,-0.0473 -1.21933,0.28389 -0.59319,0.70972 -0.98864,0.75704 -8.60123,1.04093 -5.37165,0.18926 -5.7012,0.18926 -6.03075,-0.70973 -0.39546,-1.08824 -0.82387,-1.13556 -2.07616,-0.18926 -0.52728,0.37852 -1.21933,0.70973 -1.58184,0.70973 -0.3625,0 -0.92273,0.23657 -1.28524,0.47315 -0.52728,0.42584 -0.59319,0.33121 -0.42841,-0.37852 0.13182,-0.47315 0.42841,-1.04093 0.69205,-1.23019 0.36251,-0.33121 0.32955,-0.6151 -0.29659,-1.41946 -0.59319,-0.80435 -1.12047,-0.99361 -2.37276,-0.9463 -0.88978,0.0473 -1.6807,0.18926 -1.77956,0.33121 -0.0989,0.14194 -0.033,0.9463 0.19773,1.75066 0.26364,1.04093 0.26364,1.75066 0.0329,2.41307 -0.26364,0.75704 -0.23068,0.89898 0.32955,0.89898 0.36251,0 0.75796,0.23658 0.88978,0.56778 0.32955,0.75705 -2.50457,0.0946 -3.16367,-0.75704 -0.26364,-0.37852 -0.88978,-0.61509 -1.31819,-0.56778 -0.46137,0.0473 -1.58184,-0.0946 -2.53753,-0.28389 -1.64775,-0.3312 -1.71366,-0.28389 -1.58184,0.70973 0.0659,0.56778 0.3625,1.23019 0.62614,1.46677 0.26364,0.23657 0.49433,0.56778 0.49433,0.75704 0,0.47315 -3.78982,0.23657 -6.92053,-0.37852 -3.75687,-0.75705 -5.20688,-0.89899 -12.3581,-1.18288 -3.62504,-0.14195 -6.88758,-0.42584 -7.25008,-0.70973 -1.21933,-0.85167 -3.72391,-1.32482 -4.08641,-0.85167 -0.23068,0.33121 -0.62614,0.33121 -1.25229,-0.0473 -1.12046,-0.6151 -2.66935,-1.18288 -3.49322,-1.32483 -0.32955,-0.0473 -0.75796,-0.3312 -0.98865,-0.61509 -0.19773,-0.28389 -1.15342,-0.52047 -2.07616,-0.52047 -1.15342,0 -1.845465,-0.23657 -2.142065,-0.75704 -0.3625,-0.6151 -0.3625,-0.80436 0.033,-1.18288 0.26364,-0.23657 0.757955,-0.3312 1.120465,-0.18926 1.74661,0.66241 3.39435,0.80436 3.59208,0.28389 0.13182,-0.28389 -0.0329,-0.66241 -0.3625,-0.80435 -0.32955,-0.14195 -0.82387,-0.42584 -1.08751,-0.56779 -0.6591,-0.37852 -2.40571,-0.52046 -6.953485,-0.70972 -2.20798,-0.0946 -4.0205,-0.33121 -4.28414,-0.66241 -0.88978,-1.04094 -1.87843,-1.13557 -3.22958,-0.37852 -0.75797,0.42583 -1.35115,1.08824 -1.35115,1.41945 0,0.3312 -0.23069,0.66241 -0.49433,0.66241 -0.26364,0 -0.49432,-0.28389 -0.49432,-0.6151 0,-0.75704 -1.35115,-1.98723 -1.9773,-1.84529 -0.26364,0.0946 -0.725,0.42584 -0.98864,0.75705 -0.6591,0.85167 -2.37276,1.2775 -2.93299,0.75704 -0.69205,-0.66241 -0.16478,-1.32482 0.85683,-1.13556 0.49432,0.0946 1.21933,-0.14195 1.58183,-0.52047 0.9557,-1.04093 0.26364,-1.79797 -1.6807,-1.79797 -1.18638,0 -1.71365,-0.23658 -2.0432,-0.89899 -0.2966,-0.6151 -0.82388,-0.89899 -1.58184,-0.89899 -0.62614,0 -1.12047,-0.23657 -1.12047,-0.47315 0,-0.23657 -0.62614,-0.47315 -1.41706,-0.47315 -0.82387,0 -2.01025,-0.47315 -2.90003,-1.13556 -1.28524,-0.99362 -3.09776,-1.51409 -6.7228,-1.98724 -0.52728,-0.0473 -1.12047,-0.42583 -1.3182,-0.80435 -0.19773,-0.37852 -1.12047,-0.9463 -2.07616,-1.2302 -2.3398,-0.70972 -2.80117,-0.70972 -2.57048,0.14195 0.26364,0.99362 -0.36251,1.37214 -0.72501,0.42584 -0.26364,-0.66242 -0.42842,-0.70973 -0.79092,-0.23658 -0.56023,0.66241 -1.54888,0.28389 -1.54888,-0.66241 0,-0.33121 -0.56023,-0.99362 -1.25229,-1.46677 -1.3841,-0.89899 -2.40571,-2.03455 -2.40571,-2.64964 0,-0.23658 0.39546,-0.6151 0.88979,-0.89899 0.52727,-0.28389 0.75796,-0.66241 0.59318,-0.89899 -0.3625,-0.52046 -3.0648,-0.70972 -3.82277,-0.23657 -0.42841,0.23657 -0.65909,0 -0.95569,-0.89899 -0.23068,-0.66241 -0.62614,-1.23019 -0.92274,-1.23019 -0.29659,0 -0.69205,-0.18926 -0.85682,-0.37852 -0.16478,-0.18926 -1.41707,-0.89899 -2.80117,-1.51409 -1.35115,-0.61509 -2.7023,-1.23019 -2.96594,-1.41945 -1.12047,-0.75704 -4.15232,-2.31844 -4.48187,-2.31844 -0.19773,0 -1.35115,-0.6151 -2.53753,-1.41945 -1.18638,-0.80436 -2.40571,-1.41946 -2.7023,-1.41946 -0.75797,0 -5.43757,-2.36575 -6.3603,-3.21742 -0.69206,-0.66241 -0.82388,-0.66241 -1.15343,0 -0.42841,0.85167 -1.64774,0.42583 -1.94434,-0.75704 -0.0989,-0.42584 -0.3625,-0.75705 -0.56023,-0.75705 -0.19773,0 -0.29659,0.18927 -0.19773,0.37853 0.0989,0.18926 0.033,0.66241 -0.13182,1.04093 -0.23068,0.56778 -0.46137,0.42583 -1.21933,-0.6151 -0.52728,-0.70972 -1.12047,-1.27751 -1.3182,-1.27751 -0.19773,0 -0.39546,-0.18926 -0.39546,-0.47315 0,-0.23657 -0.29659,-0.66241 -0.62614,-0.9463 -0.49432,-0.37852 -0.82387,-0.23657 -1.61479,0.70973 -1.21933,1.46677 -1.38411,1.46677 -1.38411,0 0,-0.66241 -0.19773,-1.18288 -0.42841,-1.18288 -0.6591,0 -1.18638,0.99362 -0.98865,1.84529 0.0989,0.47315 -0.23068,0.18926 -0.82387,-0.6151 -0.56024,-0.75704 -0.95569,-1.51408 -0.88978,-1.70334 0.0659,-0.18926 -0.033,-0.33121 -0.26364,-0.33121 -0.23069,0 -0.56024,-0.0946 -0.72501,-0.14194 -0.16478,-0.0473 -0.56024,-0.0473 -0.8238704,0 -0.26364,0.0473 -0.0659,0.23657 0.4943204,0.42583 0.75796,0.23658 0.98865,0.56779 0.98865,1.46677 0,0.9463 0.3625,1.41945 1.81252,2.46039 0.98864,0.70972 2.20798,1.84529 2.73526,2.5077 0.49432,0.66241 1.18637,1.18287 1.48297,1.18287 0.29659,0 0.75796,0.42584 0.98864,0.94631 0.23069,0.52046 0.9557,1.37213 1.64775,1.8926 0.69205,0.52047 1.45002,1.13556 1.74661,1.37214 2.07616,1.65603 4.61369,3.35937 5.0421,3.35937 0.26364,0 0.6591,0.28389 0.88979,0.66241 0.19772,0.37852 1.12046,0.9463 2.0432,1.27751 1.21933,0.47315 1.77957,0.9463 2.10911,1.8926 0.46137,1.32483 1.08752,1.84529 2.10912,1.84529 0.42841,0 0.56023,0.28389 0.46137,0.85167 -0.13182,0.70973 0.49432,1.32483 3.22958,3.21743 1.87843,1.32482 4.28414,2.83891 5.37165,3.454 1.08751,0.6151 2.43867,1.37214 2.9989,1.75066 0.56023,0.37852 1.41706,0.75704 1.87843,0.85167 0.49432,0.0946 1.05456,0.33121 1.28524,0.6151 0.23069,0.23657 1.15342,0.85167 2.07616,1.32482 0.92274,0.47315 1.94434,1.13556 2.30685,1.46677 0.3625,0.33121 0.92273,0.6151 1.25228,0.6151 0.32955,0 1.38411,0.56778 2.30685,1.2775 1.3841,1.04094 2.30684,1.32483 4.84437,1.5614 2.80117,0.23658 3.13072,0.33121 3.13072,1.18288 0,1.04093 0.79091,1.60871 1.15342,0.75704 0.16477,-0.42584 0.56023,-0.28389 1.41706,0.42584 0.6591,0.56778 1.25229,0.80435 1.35115,0.56778 0.19773,-0.47315 3.06481,0.70972 3.82277,1.60871 0.26364,0.33121 0.85683,0.75704 1.3182,0.9463 0.46137,0.18926 1.35115,0.75704 1.97729,1.2302 0.62615,0.47315 1.41706,0.89898 1.71366,0.89898 0.29659,0 1.28524,0.37852 2.14207,0.89899 1.61479,0.89899 3.98754,1.41945 12.09445,2.64964 2.53753,0.37853 5.43756,1.08825 6.42621,1.60872 0.98865,0.52046 2.636395,1.04093 3.625035,1.18288 0.98865,0.18926 2.07616,0.52046 2.47162,0.80435 0.62615,0.47315 3.13072,0.85167 7.64554,1.08825 1.12047,0.0473 2.66935,0.23657 3.46027,0.42583 3.32845,0.70973 5.17392,0.75705 6.62394,0.23658 1.28524,-0.47315 2.10911,-0.42584 4.84437,0.28389 1.81252,0.47315 3.46027,0.70973 3.658,0.52047 0.19773,-0.18926 0.52727,-0.0946 0.75796,0.14194 0.32955,0.56778 11.63308,0.70973 11.89672,0.33121 l 0,0 z"
     id="path4136"
     inkscape:connector-curvature="0" /><path
     style="fill:#8e4d19"
     d="m 147.24136,59.181851 c 0.23069,-0.14194 0.52728,-0.14194 0.62615,0.0473 0.0989,0.14195 -0.0989,0.28389 -0.42842,0.23658 -0.3625,-0.0473 -0.46137,-0.14195 -0.19773,-0.2839 l 0,0 z"
     id="path4134"
     inkscape:connector-curvature="0" /><path
     style="fill:#8e4d19"
     d="m 102.48859,58.282871 c 0,-0.75704 0.29659,-0.80436 0.95569,-0.23658 0.26364,0.23658 0.3625,0.66241 0.23068,0.89899 -0.29659,0.66241 -1.18637,0.14194 -1.18637,-0.66241 z"
     id="path4132"
     inkscape:connector-curvature="0" /><path
     style="fill:#8e4d19"
     d="m 96.490795,57.762401 c -0.79092,-0.18926 -1.25228,-0.56778 -1.25228,-0.99361 0,-0.47316 0.19772,-0.6151 0.59318,-0.37853 0.32955,0.18926 0.98865,0.42584 1.48297,0.56779 0.9557,0.28389 1.58184,1.08824 0.82388,1.08824 -0.23069,0 -0.98865,-0.0946 -1.64775,-0.28389 z"
     id="path4130"
     inkscape:connector-curvature="0" /><path
     style="fill:#8e4d19"
     d="m 76.849665,52.936261 c -0.32955,-0.3312 -0.32955,-0.52046 0.0659,-0.99361 0.56023,-0.66242 1.18638,-0.2839 1.18638,0.70972 0,0.75704 -0.59319,0.89899 -1.25229,0.28389 z"
     id="path4128"
     inkscape:connector-curvature="0" /><path
     style="fill:#8e4d19"
     d="m 74.378045,52.179221 c -1.15342,-0.70973 -1.87843,-1.65603 -1.25228,-1.65603 0.16477,0 0.42841,0.23658 0.52727,0.47315 0.0989,0.23658 0.56024,0.47315 0.9557,0.47315 0.39546,0 0.95569,0.33121 1.18637,0.70973 0.52728,0.89899 0.0659,0.89899 -1.41706,0 l 0,0 z"
     id="path4126"
     inkscape:connector-curvature="0" /><path
     style="fill:#8e4d19"
     d="m 25.209315,25.209621 c -0.36251,-0.37853 -0.52728,-0.85168 -0.39546,-1.04094 0.13182,-0.18926 0.59319,0.0946 0.98865,0.66241 0.79091,1.18288 0.39545,1.41946 -0.59319,0.37853 l 0,0 z"
     id="path4124"
     inkscape:connector-curvature="0" /><path
     style="fill:#8e4d19"
     d="m 135.04804,60.033531 c 1.25229,-0.47315 0.98865,-1.2302 -0.59318,-1.5614 -1.48297,-0.33121 -4.28414,0.42583 -4.28414,1.13556 0,0.42584 -0.0989,0.37852 2.30684,0.56778 0.98865,0.0946 2.17503,0 2.57048,-0.14194 z"
     id="path4122"
     inkscape:connector-curvature="0" /><path
     style="fill:#8e4d19"
     d="m 156.66647,58.614071 c 0.0989,-0.23657 1.08751,-0.42583 2.24093,-0.47315 2.37276,-0.0946 2.93299,-0.56778 1.87844,-1.65603 -1.41707,-1.41945 -4.91029,0.0946 -4.91029,2.12918 0,0.52047 0.56024,0.52047 0.79092,0 l 0,0 z"
     id="path4120"
     inkscape:connector-curvature="0" /><path
     style="fill:#8e4d19"
     d="m 144.73679,58.282871 c 0.0989,-0.14195 0.0989,-0.75704 0.033,-1.37214 -0.16478,-1.32482 -1.68071,-1.98723 -2.24094,-0.99362 -0.23068,0.47315 -0.75796,0.56778 -1.71365,0.37852 -1.08752,-0.18926 -1.41707,-0.0946 -1.58184,0.52047 -0.29659,1.08825 0.0989,1.51408 0.85683,0.85167 0.49432,-0.42583 0.69205,-0.42583 1.0216,0.14195 0.32955,0.70972 3.22958,1.04093 3.62504,0.47315 l 0,0 z"
     id="path4118"
     inkscape:connector-curvature="0" /><path
     style="fill:#8e4d19"
     d="m 136.56397,57.715091 c 0.13182,-0.18926 0.56023,-0.37852 0.92274,-0.37852 0.3625,0 0.75796,-0.28389 0.82387,-0.6151 0.0989,-0.47315 -0.13182,-0.56778 -1.12047,-0.28389 -1.54888,0.37852 -1.84547,0.6151 -1.58183,1.18288 0.26364,0.56778 0.62614,0.56778 0.95569,0.0946 z"
     id="path4116"
     inkscape:connector-curvature="0" /><path
     style="fill:#8e4d19"
     d="m 166.2234,56.342951 c 0.3625,-0.52047 0.23068,-1.08825 -0.2966,-1.08825 -0.26364,0 -0.49432,0.18926 -0.49432,0.42584 0,0.61509 0.52728,1.04093 0.79092,0.66241 z"
     id="path4114"
     inkscape:connector-curvature="0" /><path
     style="fill:#8e4d19"
     d="m 108.55229,56.248351 c 0.0989,-0.23658 -0.033,-0.56778 -0.29659,-0.70973 -0.26364,-0.14194 -0.49433,-0.0946 -0.49433,0.14195 0,0.66241 0.59319,1.04093 0.79092,0.56778 l 0,0 z"
     id="path4112"
     inkscape:connector-curvature="0" /><path
     style="fill:#8e4d19"
     d="m 163.61996,55.727881 c 0.0989,-0.23657 0.0659,-0.47315 -0.13182,-0.47315 -0.19773,0 -0.42842,0.23658 -0.52728,0.47315 -0.0989,0.23658 -0.0659,0.47315 0.13182,0.47315 0.19773,0 0.42841,-0.23657 0.52728,-0.47315 z"
     id="path4110"
     inkscape:connector-curvature="0" /><path
     style="fill:#8e4d19"
     d="m 86.340685,50.759801 c 0,-0.75704 -1.91139,-2.41307 -2.24094,-1.93992 -0.19773,0.28389 0.56024,1.27751 1.64775,2.17649 0.46137,0.37852 0.59319,0.33121 0.59319,-0.23657 l 0,0 z"
     id="path4108"
     inkscape:connector-curvature="0" /><path
     style="fill:#8e4d19"
     d="m 40.764035,26.581781 c -0.0989,-0.14194 -0.39546,-0.18926 -0.62615,-0.0473 -0.26364,0.14194 -0.19773,0.28389 0.19773,0.28389 0.36251,0 0.56024,-0.0946 0.42842,-0.23658 l 0,0 z"
     id="path4106"
     inkscape:connector-curvature="0" /><path
     style="fill:#8e4d19"
     d="m 32.294615,20.004981 c 0,-0.89898 -0.62614,-1.46676 -1.0216,-0.89898 -0.16477,0.23657 -0.0329,0.66241 0.36251,0.99361 0.56023,0.52047 0.65909,0.47316 0.65909,-0.0946 z"
     id="path4104"
     inkscape:connector-curvature="0" /><path
     style="fill:#8e4d19"
     d="m 12.851215,16.456351 c 0,-0.23657 -0.0659,-0.47315 -0.13182,-0.47315 -0.0659,0 -0.23068,0.23658 -0.3625,0.47315 -0.13182,0.23658 -0.033,0.47315 0.13182,0.47315 0.16477,0 0.3625,-0.23657 0.3625,-0.47315 z"
     id="path4102"
     inkscape:connector-curvature="0" /><path
     style="fill:#7c4116"
     d="m 139.59582,71.862331 c 0.13182,-0.18926 1.51593,-0.37852 3.09777,-0.47315 2.10911,-0.0946 2.96594,-0.33121 3.26253,-0.85167 0.46137,-0.9463 1.3182,-0.9463 1.58184,0 0.23068,0.85167 1.25229,0.9463 1.77956,0.18926 0.23069,-0.33121 2.07616,-0.6151 4.61369,-0.70973 4.61369,-0.18926 5.60234,-0.3312 9.32624,-1.13556 1.35116,-0.28389 3.42732,-0.6151 4.58074,-0.75704 1.15342,-0.0946 2.27389,-0.37852 2.47162,-0.6151 0.56023,-0.61509 3.59208,-1.60871 6.95348,-2.27112 0.72501,-0.14195 1.54888,-0.52047 1.81252,-0.85167 0.79092,-0.94631 3.62504,-2.60233 4.48187,-2.60233 0.42842,0 0.79092,-0.23658 0.79092,-0.52047 0,-0.28389 0.42841,-0.70973 0.95569,-0.9463 0.75797,-0.37852 1.6807,-2.03455 1.6807,-3.02817 0,-0.3312 -2.07616,-1.65603 -2.57048,-1.65603 -0.26364,0 -0.88978,0.6151 -1.35115,1.37214 -0.6591,1.04093 -1.15342,1.37214 -1.9773,1.27751 -0.59318,-0.0473 -1.18637,-0.33121 -1.31819,-0.6151 -0.23069,-0.52046 -0.98865,-0.37852 -3.29549,0.6151 -0.49433,0.23657 -0.85683,0.0946 -1.05456,-0.28389 -0.23069,-0.52047 -0.42842,-0.52047 -1.15342,-0.0473 -0.49433,0.33121 -1.18638,0.42584 -1.51593,0.28389 -0.32955,-0.14194 -0.85683,-0.0473 -1.08751,0.28389 -0.26364,0.28389 -0.62615,0.42584 -0.79092,0.23658 -0.19773,-0.14195 -0.6591,-0.0473 -1.0216,0.23657 -0.49433,0.37853 -0.82388,0.37853 -1.08751,0.0473 -0.26364,-0.33121 -0.52728,-0.33121 -0.72501,-0.0473 -0.39546,0.56779 -5.63529,0.75705 -6.45917,0.23658 -0.75796,-0.47315 -2.24093,0.0946 -2.73525,1.04093 -0.32955,0.6151 -0.56024,0.66241 -1.21934,0.23658 -0.46137,-0.28389 -1.51592,-0.66241 -2.3398,-0.85167 -1.31819,-0.28389 -1.51592,-0.23658 -1.51592,0.47315 0,0.66241 -0.23069,0.75704 -0.98865,0.61509 -0.56023,-0.0946 -1.08751,-0.0473 -1.18638,0.18926 -0.0989,0.23658 -0.62614,0.37852 -1.15342,0.37852 -1.12047,0 -3.7239,0.80436 -4.74551,1.46677 -1.54888,0.99362 -3.62504,1.32483 -4.91028,0.80436 -1.08751,-0.47315 -1.3182,-0.42584 -1.54888,0.18926 -0.23069,0.6151 -0.79092,0.70973 -2.96594,0.56778 -1.48297,-0.0946 -2.86708,-0.42584 -3.09777,-0.70973 -0.32954,-0.37852 -0.79091,-0.37852 -1.77956,0 -0.95569,0.37852 -1.51593,0.37852 -2.01025,0 -0.39546,-0.28389 -1.64775,-0.42583 -3.06481,-0.28389 -1.31819,0.14195 -3.19662,0.0946 -4.21823,-0.0946 -1.61479,-0.3312 -1.81252,-0.47315 -1.74661,-1.41945 0.0989,-1.18288 0.0659,-1.18288 -3.85572,-0.99362 -2.96595,0.14195 -6.62394,-0.0473 -9.42511,-0.47315 -0.19773,-0.0473 -0.46137,-0.47315 -0.56023,-0.99361 -0.19773,-0.99362 -1.54888,-1.37214 -1.54888,-0.42584 0,0.33121 -0.26364,0.37852 -0.75797,0.18926 -0.39546,-0.18926 -1.54888,-0.42584 -2.57048,-0.52047 -2.504565,-0.23657 -3.921635,-0.47315 -4.119365,-0.75704 -0.0989,-0.14194 -0.98864,-0.14194 -2.01025,-0.0946 -1.0216,0.0946 -2.14207,-0.0946 -2.47161,-0.3312 -0.62615,-0.47315 -0.88979,-2.79159 -0.2966,-2.79159 0.16478,0 0.32955,0.3312 0.32955,0.70972 0,0.9463 0.79092,0.89899 1.35115,-0.0473 0.32955,-0.56778 0.82388,-0.70973 2.10912,-0.52047 1.51592,0.23658 1.71365,0.14195 2.0432,-0.85167 l 0.36251,-1.08825 -3.32845,0.18926 c -1.84548,0.0946 -3.95459,-0.0473 -4.74551,-0.28389 -1.15342,-0.37852 -1.58183,-0.28389 -2.43866,0.47315 l -1.05456,0.89899 -1.41706,-1.13556 c -1.08751,-0.85167 -1.45002,-0.99362 -1.58184,-0.47315 -0.32955,1.23019 -7.18417,0.28389 -12.52287,-1.70335 -1.28524,-0.47315 -2.10911,-0.23657 -1.08751,0.33121 1.25229,0.66241 0.42842,0.99362 -0.98865,0.37852 -0.85682,-0.37852 -1.94434,-0.66241 -2.43866,-0.66241 -1.0216,0 -1.6807,-0.89899 -0.72501,-0.99362 1.58184,-0.0946 2.17503,-0.37852 3.09776,-1.32482 0.88979,-0.9463 1.12047,-0.99362 1.94434,-0.52047 0.92274,0.52047 1.64775,0.33121 1.64775,-0.42583 0,-0.18926 -0.42841,-0.52047 -0.98865,-0.66242 -0.56023,-0.14194 -0.98864,-0.56778 -0.98864,-0.9463 0,-1.04093 -1.51593,-1.75066 -3.13072,-1.41945 -0.98865,0.18926 -1.64775,0.0946 -2.01025,-0.33121 -0.32955,-0.37852 -1.58184,-0.66241 -3.22958,-0.75704 -3.85573,-0.18926 -6.26144,-1.32482 -9.06261,-4.30567 -0.79091,-0.85167 -1.58183,-1.41945 -1.71365,-1.27751 -0.16478,0.14195 -0.62614,-0.0946 -1.0216,-0.47315 -0.39546,-0.42584 -0.98865,-0.75704 -1.28525,-0.75704 -0.29659,0 -0.59318,-0.18926 -0.65909,-0.47315 -0.0989,-0.47315 -1.18638,-0.85167 -2.50458,-0.9463 -0.92274,-0.0473 -0.98865,-0.99362 -0.0989,-0.99362 0.42841,0 0.6591,-0.33121 0.6591,-0.9463 0,-0.75704 -0.46137,-1.18288 -1.08752,-0.89899 -0.0329,0 -0.98864,-0.6151 -2.10911,-1.41945 -1.12047,-0.80436 -2.20798,-1.46677 -2.40571,-1.46677 -0.19773,0 -0.95569,-0.42584 -1.64775,-0.9463 -0.69205,-0.52047 -1.64774,-0.9463 -2.0432,-0.9463 -0.42841,0 -1.05456,-0.2839 -1.41706,-0.6151 -1.05456,-0.99362 -3.55913,-2.22381 -4.61369,-2.22381 -0.52728,0 -1.45002,-0.42584 -2.04321,-0.9463 -1.31819,-1.18288 -3.03185,-1.32483 -2.37275,-0.23658 0.23069,0.37852 0.62614,0.70973 0.88978,0.70973 0.6591,0 2.10912,1.46677 1.91139,1.8926 -0.32955,0.70973 -3.06481,0.0946 -4.05346,-0.89898 -0.56023,-0.56779 -1.25228,-0.99362 -1.58183,-0.94631 -0.88978,0.14195 -2.66935,-1.08824 -2.83412,-1.93992 -0.0659,-0.42583 -0.52728,-1.04093 -1.05456,-1.41945 -0.82388,-0.61509 -0.95569,-0.61509 -1.38411,0.18926 -0.26364,0.52047 -0.46137,1.27751 -0.46137,1.70335 0,1.18287 1.51593,3.26474 2.60344,3.59594 0.52728,0.14195 1.05456,0.56778 1.15342,0.9463 0.0989,0.37853 0.52728,0.66242 0.9557,0.66242 0.42841,0 1.41706,0.66241 2.14207,1.41945 1.0216,1.04093 1.58183,1.37214 2.20797,1.13556 0.62615,-0.23657 1.02161,0 1.6148,0.89899 0.46136,0.70972 1.0216,1.13556 1.3841,0.99362 0.72501,-0.23658 1.48297,0.52046 2.04321,2.03454 0.26364,0.70973 0.82387,1.18288 1.74661,1.37214 1.25228,0.28389 1.31819,0.37852 1.15342,1.60872 -0.16478,1.18287 -0.033,1.37213 1.87843,2.55501 1.12047,0.66241 2.20798,1.23019 2.40571,1.23019 0.19773,0 0.62614,0.37852 0.92274,0.89899 0.29659,0.47315 1.25228,1.13556 2.10911,1.46677 0.85683,0.3312 2.30685,1.08825 3.22958,1.70334 1.02161,0.70973 1.91139,1.04093 2.27389,0.85167 0.39546,-0.23657 0.75797,0 1.12047,0.6151 0.29659,0.52047 1.28524,1.37214 2.17502,1.84529 0.92274,0.47315 2.07616,1.23019 2.6364,1.70334 0.56023,0.47315 1.28524,0.85167 1.64774,0.85167 0.36251,0 1.05456,0.33121 1.58184,0.70973 1.18638,0.89899 4.18527,1.65603 6.32734,1.65603 0.98865,0 1.94434,0.28389 2.3398,0.70973 0.36251,0.37852 0.95569,0.70972 1.35115,0.70972 0.39546,0 0.82388,0.23658 0.92274,0.47315 0.0989,0.23658 0.6591,0.47315 1.18638,0.47315 0.52728,0 1.97729,0.70973 3.19663,1.60872 5.43756,3.97446 8.041,5.11003 13.0831,5.72512 1.08751,0.14195 2.40571,0.42584 2.96594,0.66241 0.56023,0.23658 2.20798,0.56779 3.72391,0.70973 2.83412,0.28389 7.085295,1.41945 7.744395,2.03455 0.19773,0.18926 1.25229,0.37852 2.30685,0.42584 1.21933,0.0473 2.0432,0.28389 2.20797,0.66241 0.26364,0.61509 2.17503,0.99361 4.51483,0.9463 0.59319,0 1.15342,0.18926 1.25229,0.42584 0.29659,0.70972 1.41706,0.56778 2.33979,-0.33121 0.56024,-0.52047 0.92274,-0.6151 1.05456,-0.28389 0.26364,0.6151 4.0205,1.5614 6.12962,1.5614 1.25228,0 1.54888,-0.14195 1.3841,-0.70973 -0.23068,-0.80436 0.46137,-0.9463 1.02161,-0.18926 0.26363,0.37852 0.56023,0.37852 1.08751,-0.0473 0.56023,-0.42584 0.95569,-0.42584 1.77956,0.0473 0.56024,0.33121 2.04321,0.6151 3.22958,0.6151 1.21934,0 2.14207,0.0946 2.07616,0.23657 -0.0659,0.14195 0.32955,0.28389 0.85683,0.33121 0.52728,0.0473 0.9557,-0.0946 0.9557,-0.37852 0,-0.23658 0.29659,-0.47315 0.65909,-0.47315 0.36251,0 0.6591,-0.23658 0.6591,-0.47315 0,-0.23658 0.23069,-0.47316 0.49433,-0.47316 0.26363,0 0.49432,0.23658 0.49432,0.47316 0,0.23657 0.29659,0.47315 0.62614,0.47315 0.32955,0 0.72501,0.3312 0.82388,0.70972 0.0989,0.37852 0.56023,0.70973 0.98864,0.70973 0.42842,0 0.92274,0.23657 1.02161,0.47315 0.16477,0.75704 0.52727,0.80436 0.85682,0.37852 l 0,0 z"
     id="path3776"
     inkscape:connector-curvature="0" /><path
     style="fill:#7c4116"
     d="m 39.314015,31.691801 c -0.23068,-0.37852 -0.62614,-0.70972 -0.85683,-0.70972 -0.26364,0 -0.46137,-0.23658 -0.46137,-0.52047 0,-0.28389 -0.29659,-0.42583 -0.65909,-0.28389 -0.36251,0.14195 -0.75797,0.0473 -0.85683,-0.18926 -0.0989,-0.23658 -0.39546,-0.42584 -0.62615,-0.42584 -0.23068,0 -1.0216,-0.47315 -1.6807,-1.04093 -1.05455,-0.89898 -1.15342,-1.08825 -0.59318,-1.37214 0.39545,-0.18926 1.0216,0 1.64774,0.56779 0.56023,0.47315 1.35115,0.89898 1.74661,0.89898 0.39546,0 0.69206,0.23658 0.69206,0.52047 0,0.28389 0.26363,0.42583 0.56023,0.3312 0.56023,-0.14194 2.07616,1.65603 2.07616,2.46039 0,0.70973 -0.52728,0.56778 -0.98865,-0.23658 l 0,0 z"
     id="path3774"
     inkscape:connector-curvature="0" /><path
     style="fill:#7c4116"
     d="m 31.404835,27.244181 c -0.26364,-0.23657 -0.39546,-0.56778 -0.26364,-0.75704 0.2966,-0.42583 1.58184,0.18926 1.58184,0.75704 0,0.56779 -0.69206,0.56779 -1.3182,0 l 0,0 z"
     id="path3772"
     inkscape:connector-curvature="0" /><path
     style="fill:#7c4116"
     d="m 25.637725,27.196881 c -0.0989,-0.23658 0.0989,-0.47315 0.49432,-0.47315 0.39546,0 0.59319,0.23657 0.49433,0.47315 -0.0989,0.23657 -0.32955,0.47315 -0.49433,0.47315 -0.16477,0 -0.39545,-0.18926 -0.49432,-0.47315 z"
     id="path3770"
     inkscape:connector-curvature="0" /><path
     style="fill:#7c4116"
     d="m 79.848565,50.002761 c 0,-0.56779 -0.62614,-1.2302 -0.85683,-0.89899 -0.0989,0.14194 0.0659,0.47315 0.36251,0.80436 0.29659,0.37852 0.49432,0.42583 0.49432,0.0946 z"
     id="path3768"
     inkscape:connector-curvature="0" /><path
     style="fill:#7c4116"
     d="m 77.212175,50.144701 c 0,-0.99362 -0.79092,-2.08186 -1.48298,-2.08186 -1.12046,0 -1.0216,0.70972 0.23069,1.60871 1.12047,0.80436 1.25229,0.85167 1.25229,0.47315 l 0,0 z"
     id="path3766"
     inkscape:connector-curvature="0" /><path
     style="fill:#7c4116"
     d="m 18.156955,21.897591 c 0.56024,-0.80436 0.46137,-1.32482 -0.26363,-1.32482 -0.36251,0 -0.6591,0.28389 -0.6591,0.66241 0,0.99361 0.46137,1.32482 0.92273,0.66241 z"
     id="path3764"
     inkscape:connector-curvature="0" /><path
     style="fill:#6a3310"
     d="m 138.87082,70.726761 c 0.0989,-0.23658 0.0659,-0.47315 -0.13182,-0.47315 -0.19773,0 -0.42842,0.23657 -0.52728,0.47315 -0.0989,0.23657 -0.0659,0.47315 0.13182,0.47315 0.19773,0 0.39546,-0.18926 0.52728,-0.47315 z"
     id="path3241"
     inkscape:connector-curvature="0" /><path
     style="fill:#6a3310"
     d="m 148.32888,69.496571 c 0.0989,-0.14195 2.63639,-0.33121 5.60233,-0.42584 3.32845,-0.0946 5.66825,-0.33121 6.12962,-0.66241 0.39546,-0.28389 1.41706,-0.6151 2.27389,-0.70973 0.85682,-0.0946 1.54888,-0.23657 1.54888,-0.28389 0,-0.14194 1.08751,-0.3312 3.29549,-0.61509 0.92274,-0.0946 2.60344,-0.52047 3.78981,-0.89899 1.18638,-0.37852 2.30685,-0.70973 2.47162,-0.75704 0.16478,-0.0473 0.88979,-0.28389 1.54888,-0.56778 0.6591,-0.23658 1.35116,-0.42584 1.48298,-0.42584 0.69205,0.18926 1.05455,-0.0946 1.25228,-0.9463 0.13182,-0.6151 0.39546,-0.80436 0.85683,-0.66241 0.49432,0.18926 0.6591,0 0.6591,-0.80436 0,-0.89899 0.0659,-0.9463 0.49432,-0.47315 0.39546,0.47315 0.88979,0.3312 2.6364,-0.75704 2.07616,-1.27751 2.7023,-2.12918 2.27389,-3.1228 -0.26364,-0.61509 -2.17503,0 -2.6364,0.80436 -0.69205,1.23019 -2.43866,1.98723 -3.42731,1.46677 -1.08751,-0.6151 -2.63639,-0.0946 -2.63639,0.85167 0,0.37852 -0.19773,0.70972 -0.46137,0.70972 -0.26364,0 -0.62615,0.28389 -0.85683,0.66242 -0.49432,0.85167 -1.25229,0.47315 -1.51593,-0.70973 -0.23068,-1.08825 -0.92273,-1.18288 -1.48297,-0.14195 -0.42841,0.75705 -2.14207,0.75705 -3.3614,0 -0.42841,-0.28389 -0.59319,-0.14194 -0.59319,0.37852 0,0.80436 -0.42841,0.94631 -3.13071,0.85168 -1.05456,-0.0473 -1.77957,-0.33121 -2.01025,-0.75705 -0.62615,-1.23019 -3.06481,-0.9463 -4.11937,0.52047 -0.88978,1.18288 -0.92274,1.23019 -2.0432,0.42584 -1.08752,-0.75704 -1.21934,-0.70973 -2.57049,0.14194 -0.79092,0.52047 -1.91138,1.08825 -2.50457,1.23019 -0.72501,0.18926 -0.98865,0.52047 -0.85683,0.99362 0.0989,0.37852 0,0.66241 -0.19773,0.66241 -0.19773,0 -0.46137,-0.3312 -0.56023,-0.70972 -0.23069,-0.80436 -1.61479,-0.94631 -1.94434,-0.23658 -0.13182,0.28389 -1.21933,0.37852 -2.86708,0.23658 -1.94434,-0.18926 -2.93299,-0.0473 -3.69095,0.47315 -0.79092,0.52046 -2.07616,0.66241 -5.47052,0.52046 -2.43866,-0.0946 -4.71255,0.0473 -5.0421,0.28389 -0.42841,0.33121 -0.72501,0.23658 -0.98865,-0.28389 -0.39546,-0.75704 -2.10911,-0.99361 -10.87512,-1.41945 -2.43866,-0.14194 -3.39436,-0.37852 -3.85572,-0.9463 -0.32955,-0.42584 -1.21934,-0.85167 -1.91139,-0.9463 -0.69205,-0.0946 -1.45002,-0.28389 -1.61479,-0.42584 -0.16478,-0.14194 -1.71366,-0.37852 -3.42731,-0.56778 -1.71366,-0.14195 -3.52618,-0.52047 -4.0205,-0.80436 -0.49433,-0.28389 -1.48297,-0.37852 -2.20798,-0.18926 -0.75796,0.18926 -1.38411,0.0946 -1.48297,-0.18926 -0.0989,-0.28389 -0.527275,-0.47315 -0.922735,-0.47315 -0.39546,0 -1.0216,-0.3312 -1.35115,-0.70973 -0.46137,-0.47315 -0.75796,-0.52046 -1.05456,-0.18926 -0.23068,0.28389 -0.62614,0.42584 -0.85683,0.37853 -0.23068,-0.0473 -0.69205,0.0473 -1.0216,0.28389 -0.3625,0.23657 -1.18638,0.0473 -2.07616,-0.47316 -1.05456,-0.56778 -1.61479,-0.66241 -1.84547,-0.3312 -0.23069,0.3312 -0.62615,0.3312 -1.18638,0.0473 -0.98865,-0.52046 -1.48297,-0.0946 -0.6591,0.56779 0.32955,0.23657 0.56023,0.66241 0.56023,0.89898 0,0.52047 -2.96594,0.0473 -3.52617,-0.61509 -0.23069,-0.23658 -0.59319,-0.28389 -0.79092,-0.0946 -0.69205,0.61509 -5.80007,0.0473 -6.32734,-0.70973 -0.49433,-0.70973 -0.88979,-0.6151 -0.88979,0.18926 0,0.37852 -0.26364,0.75704 -0.59319,0.85167 -0.98864,0.28389 4.05346,2.31844 5.56939,2.22381 1.91138,-0.0946 4.25118,0.42584 4.77846,1.04093 0.23068,0.28389 0.69205,0.37852 1.05456,0.18926 0.3625,-0.14194 0.75796,-0.0473 0.88978,0.23658 0.13182,0.3312 0.98865,0.47315 2.24093,0.37852 1.12047,-0.0946 2.20798,0.0473 2.43867,0.23658 0.23068,0.18926 1.6807,0.37852 3.22958,0.37852 1.54888,0 2.801165,0.18926 2.801165,0.42583 0,0.23658 0.49432,0.42584 1.08751,0.42584 3.46026,-0.0473 7.64554,1.51408 8.10691,2.98085 0.16477,0.52046 1.71365,0.42583 1.71365,-0.0946 0,-0.85167 1.51593,-0.99362 2.96595,-0.28389 0.79091,0.37852 1.54888,0.61509 1.64774,0.52046 0.13182,-0.0946 0.75797,0 1.41706,0.28389 0.9557,0.37853 1.35116,0.33121 2.04321,-0.3312 0.82387,-0.75704 4.08641,-1.04093 4.81142,-0.37852 0.56023,0.52046 6.49212,0.66241 6.7228,0.18926 0.13182,-0.28389 2.63639,-0.47315 6.19552,-0.47315 3.2955,0 6.29439,0 6.6569,0 1.21933,-0.0473 2.76821,0.56778 3.16367,1.23019 0.42841,0.75704 0.75796,0.89899 1.05456,0.42584 l 0,0 z"
     id="path3239"
     inkscape:connector-curvature="0" /><path
     style="fill:#6a3310"
     d="m 77.080355,58.992611 c 0,-1.32482 3.46026,-2.41307 4.18527,-1.32482 0.0989,0.14195 0.3625,0.0473 0.59319,-0.18926 0.23068,-0.23657 1.58183,-0.56778 2.9989,-0.70972 3.13071,-0.2839 4.58073,-0.80436 4.58073,-1.70335 0,-0.37852 0.16477,-0.85167 0.32955,-1.04093 0.19773,-0.18926 0.0989,-0.33121 -0.23069,-0.37852 -0.29659,0 -0.65909,0.23657 -0.79091,0.52046 -0.13182,0.33121 -1.25229,0.42584 -3.39436,0.18927 -1.74661,-0.18927 -4.15232,-0.37853 -5.30574,-0.42584 -1.18638,-0.0946 -2.37276,-0.28389 -2.66935,-0.47315 -0.29659,-0.18926 -0.6591,-0.28389 -0.82387,-0.23658 -0.16478,0.0473 -0.9557,-0.14194 -1.74661,-0.47315 -0.9557,-0.37852 -1.6807,-0.42583 -2.14207,-0.14194 -0.85683,0.52046 -5.10802,-0.0473 -7.11826,-0.94631 -0.82388,-0.37852 -2.10912,-0.9463 -2.90004,-1.32482 -1.45001,-0.61509 -2.43866,-1.79797 -1.12046,-1.27751 0.39545,0.14195 0.85682,0 1.08751,-0.42583 0.49432,-0.85167 -0.42842,-2.36576 -2.07616,-3.54863 -1.71366,-1.18288 -5.66825,-3.26475 -6.26144,-3.26475 -0.29659,0 -1.08751,-0.52046 -1.77956,-1.18287 -0.6591,-0.66241 -1.51593,-1.18288 -1.84548,-1.18288 -0.3625,0 -1.12046,-0.33121 -1.6807,-0.75704 -2.17502,-1.65603 -2.7023,-1.93992 -3.06481,-1.75066 -0.23068,0.0946 -0.75796,-0.14195 -1.25228,-0.56778 -0.46137,-0.42584 -0.85683,-0.6151 -0.85683,-0.42584 0,0.18926 -0.32955,0 -0.75796,-0.37852 -0.42842,-0.37852 -1.58184,-0.85167 -2.60344,-1.04093 -1.71366,-0.33121 -1.87843,-0.23658 -2.53753,0.9463 -0.39546,0.70973 -0.59319,1.51408 -0.49432,1.75066 0.0989,0.23658 -0.0659,0.75704 -0.39546,1.13556 -0.56024,0.6151 -0.56024,0.6151 0.0329,0.9463 0.32955,0.18926 0.88978,0.66242 1.25229,1.08825 0.56023,0.70973 0.6591,0.66241 1.12047,-0.3312 0.59318,-1.27751 1.21933,-1.41946 0.98864,-0.18926 -0.23068,1.32482 0.2966,2.36575 1.05456,2.08186 0.3625,-0.14195 1.0216,0.0946 1.48297,0.52047 0.46137,0.42583 1.0216,0.75704 1.28524,0.75704 0.26364,0 0.56024,0.28389 0.6591,0.66241 0.26364,0.99362 1.41706,1.23019 2.40571,0.47315 1.0216,-0.75704 1.6807,-0.28389 1.84548,1.37214 0.13182,1.32482 0.92273,1.65603 0.92273,0.37852 0,-0.56778 0.19773,-0.99362 0.49433,-0.99362 0.32955,0 0.49432,0.52047 0.49432,1.65603 0,1.84529 0.23069,2.03455 0.85683,0.85167 0.32955,-0.66241 0.56023,-0.70973 1.0216,-0.28389 0.32955,0.28389 0.56024,0.9463 0.49433,1.46677 -0.0659,0.75704 0.29659,1.13556 1.97729,1.98723 3.19663,1.60872 5.83302,2.36576 8.10691,2.41307 1.12047,0 2.30684,0.18926 2.63639,0.42584 0.32955,0.23657 1.25229,0.66241 2.04321,0.99362 0.82387,0.28389 2.20798,1.08824 3.09776,1.75065 1.25229,0.89899 2.04321,1.18288 3.46027,1.08825 2.37275,-0.14194 2.60344,-0.0473 2.01025,0.47315 -0.39546,0.37852 -0.39546,0.56778 -0.0989,1.04093 0.2966,0.42584 0.42842,0.42584 0.42842,0 l 0,0 z"
     id="path3237"
     inkscape:connector-curvature="0" /><path
     style="fill:#6a3310"
     d="m 65.677945,46.643371 c 0.0989,-0.23657 -0.19772,-0.75704 -0.62614,-1.18287 -0.88978,-0.85167 -1.15342,-0.94631 -1.15342,-0.42584 0,0.66241 1.58184,2.08187 1.77956,1.60871 z"
     id="path3235"
     inkscape:connector-curvature="0" /><path
     style="fill:#6a3310"
     d="m 36.479895,35.003861 c 0.0329,-0.28389 0.46137,-0.70973 0.95569,-0.9463 l 0.92274,-0.47315 -0.92274,-0.85167 c -1.12047,-1.04094 -1.3182,-0.85168 -1.12047,1.23019 0.0659,0.80435 0.13182,1.27751 0.16478,1.04093 l 0,0 z"
     id="path3233"
     inkscape:connector-curvature="0" /><path
     style="fill:#6a3310"
     d="m 31.108245,30.130411 c 1.97729,-0.6151 0.79091,-1.98724 -1.41706,-1.65603 -1.45002,0.23657 -1.9773,1.04093 -0.6591,1.04093 0.42841,0 0.88978,0.18926 1.08751,0.37852 0.16477,0.28389 0.62614,0.37852 0.98865,0.23658 l 0,0 z"
     id="path3231"
     inkscape:connector-curvature="0" /><path
     style="fill:#6a3310"
     d="m 22.869515,26.439831 c -0.36251,-0.37852 -1.0216,-0.85167 -1.48297,-0.99362 -0.46137,-0.14194 -1.15343,-0.6151 -1.58184,-0.99362 -0.39546,-0.37852 -0.75796,-0.47315 -0.75796,-0.23657 0,0.75704 0.75796,1.5614 1.51592,1.5614 0.39546,0 0.88979,0.3312 1.12047,0.70972 0.23068,0.37852 0.72501,0.70973 1.12047,0.70973 0.69205,0 0.69205,-0.0473 0.0659,-0.75704 z"
     id="path3229"
     inkscape:connector-curvature="0" /></svg>